<?xml version="1.0" encoding="UTF-8"?>
<svg xmlns="http://www.w3.org/2000/svg"  width="41px" height="41px" viewBox="0 0 41 41" version="1.1">
<g id="surface1">
<path style="fill:none;stroke-width:2.510791;stroke-linecap:butt;stroke-linejoin:miter;stroke:rgb(100%,100%,100%);stroke-opacity:1;stroke-miterlimit:4;" d="M 39.746094 20.5 C 39.746094 31.128906 31.128906 39.746094 20.5 39.746094 C 9.871094 39.746094 1.253906 31.128906 1.253906 20.5 C 1.253906 9.871094 9.871094 1.253906 20.5 1.253906 C 31.128906 1.253906 39.746094 9.871094 39.746094 20.5 Z M 39.746094 20.5 "/>
<path style=" stroke:none;fill-rule:nonzero;fill:rgb(100%,100%,100%);fill-opacity:1;" d="M 26.925781 25.222656 C 26.9375 25.140625 26.992188 25.085938 27.089844 25.058594 L 34.789062 33.015625 L 35.664062 33.917969 L 33.859375 35.664062 L 32.984375 34.761719 L 26.640625 28.203125 C 27.253906 27.003906 27.351562 26.046875 26.925781 25.335938 C 26.925781 25.335938 26.90625 25.347656 26.925781 25.222656 Z M 13.414062 14.539062 L 7.882812 8.820312 L 7.011719 7.917969 L 8.816406 6.171875 L 9.6875 7.074219 L 14.105469 11.640625 C 13.882812 12.265625 13.808594 13.136719 13.886719 14.261719 Z M 13.414062 14.539062 "/>
<path style=" stroke:none;fill-rule:nonzero;fill:rgb(100%,100%,100%);fill-opacity:1;" d="M 28.222656 15.09375 C 27.46875 14.847656 25.625 14.363281 24.019531 15.09375 C 23.125 15.527344 22.464844 16.355469 21.992188 17.082031 L 22.746094 14.800781 C 23.550781 14.316406 24.730469 13.394531 25.203125 12.035156 C 25.769531 10.335938 25.15625 8.492188 24.824219 7.761719 C 24.730469 7.570312 24.492188 7.472656 24.351562 7.570312 C 23.644531 7.957031 21.992188 8.929688 21.425781 10.625 C 20.953125 11.984375 21.28125 13.441406 21.613281 14.363281 L 20.761719 16.644531 C 20.859375 15.773438 20.859375 14.753906 20.433594 13.78125 C 19.675781 12.179688 17.976562 11.355469 17.222656 11.0625 C 17.035156 10.964844 16.796875 11.113281 16.75 11.304688 C 16.515625 12.082031 16.042969 13.976562 16.75 15.625 C 17.503906 17.226562 19.207031 18.054688 19.960938 18.34375 C 20.007812 18.34375 20.054688 18.394531 20.101562 18.34375 L 18.875 21.597656 C 18.921875 20.820312 18.828125 19.996094 18.496094 19.21875 C 17.742188 17.617188 16.042969 16.789062 15.285156 16.5 C 15.097656 16.402344 14.863281 16.546875 14.8125 16.742188 C 14.578125 17.519531 14.105469 19.414062 14.8125 21.0625 C 15.570312 22.664062 17.269531 23.488281 18.023438 23.78125 L 18.070312 23.78125 L 16.984375 26.644531 C 16.984375 26.011719 16.890625 25.332031 16.609375 24.652344 C 15.851562 23.050781 14.152344 22.226562 13.398438 21.9375 C 13.207031 21.839844 12.972656 21.984375 12.925781 22.179688 C 12.6875 22.957031 12.21875 24.847656 12.925781 26.5 C 13.632812 28.050781 15.285156 28.875 16.042969 29.214844 L 14.859375 32.417969 C 14.765625 32.664062 14.90625 32.953125 15.144531 33.003906 L 16.277344 33.4375 C 16.515625 33.535156 16.75 33.390625 16.84375 33.148438 L 17.882812 29.894531 C 18.683594 30.136719 20.480469 30.574219 21.992188 29.847656 C 23.550781 29.070312 24.351562 27.324219 24.636719 26.546875 C 24.730469 26.351562 24.585938 26.109375 24.398438 26.0625 C 23.644531 25.820312 21.800781 25.332031 20.195312 26.0625 C 19.582031 26.351562 19.0625 26.839844 18.683594 27.324219 L 19.628906 24.410156 L 19.675781 24.410156 C 20.433594 24.652344 22.273438 25.140625 23.878906 24.410156 C 25.4375 23.632812 26.238281 21.886719 26.523438 21.109375 C 26.617188 20.917969 26.476562 20.675781 26.285156 20.625 C 25.53125 20.382812 23.691406 19.898438 22.085938 20.625 C 21.328125 21.011719 20.761719 21.597656 20.335938 22.179688 L 21.421875 18.878906 C 21.46875 18.925781 21.519531 18.925781 21.566406 18.976562 C 22.320312 19.21875 24.160156 19.703125 25.765625 18.976562 C 27.324219 18.199219 28.128906 16.453125 28.410156 15.675781 C 28.507812 15.382812 28.414062 15.1875 28.222656 15.09375 Z M 28.222656 15.09375 "/>
</g>
</svg>
