<?xml version="1.0" encoding="UTF-8"?>
<svg xmlns="http://www.w3.org/2000/svg"  width="41px" height="41px" viewBox="0 0 41 41" version="1.1">
<g id="surface1">
<path style="fill:none;stroke-width:2.510791;stroke-linecap:butt;stroke-linejoin:miter;stroke:rgb(100%,100%,100%);stroke-opacity:1;stroke-miterlimit:4;" d="M 39.746094 20.5 C 39.746094 31.128906 31.128906 39.746094 20.5 39.746094 C 9.871094 39.746094 1.253906 31.128906 1.253906 20.5 C 1.253906 9.871094 9.871094 1.253906 20.5 1.253906 C 31.128906 1.253906 39.746094 9.871094 39.746094 20.5 Z M 39.746094 20.5 "/>
<path style=" stroke:none;fill-rule:nonzero;fill:rgb(100%,100%,100%);fill-opacity:1;" d="M 32.351562 10.617188 C 32.328125 9.949219 31.894531 9.359375 31.289062 9.113281 C 30.683594 8.867188 29.980469 9.039062 29.523438 9.507812 C 28.359375 10.691406 26.933594 11.382812 25.527344 12.046875 C 23.496094 13.007812 21.367188 14.019531 21.148438 16.5625 C 21.027344 17.84375 21.609375 19.125 22.695312 20.113281 C 21.535156 21.886719 20.300781 24.230469 19.234375 27.167969 C 17.929688 22.996094 15.316406 15.871094 11.273438 10.542969 C 10.910156 10.074219 10.257812 10 9.796875 10.371094 C 9.335938 10.738281 9.238281 11.40625 9.601562 11.875 C 15.289062 19.347656 18.121094 31.0625 18.144531 31.1875 C 18.265625 31.65625 18.679688 32 19.164062 32 C 19.648438 32 20.058594 31.679688 20.179688 31.210938 C 21.316406 26.871094 22.988281 23.613281 24.464844 21.320312 C 25.285156 21.691406 26.15625 21.886719 26.980469 21.886719 C 27.925781 21.886719 28.796875 21.640625 29.523438 21.148438 C 32.691406 18.953125 32.402344 11.480469 32.351562 10.617188 Z M 28.359375 19.347656 C 27.730469 19.792969 26.738281 19.839844 25.769531 19.519531 C 26.933594 18.015625 27.777344 17.300781 27.804688 17.277344 C 28.238281 16.90625 28.3125 16.214844 27.949219 15.769531 C 27.585938 15.304688 26.90625 15.253906 26.472656 15.625 C 26.375 15.699219 25.335938 16.609375 23.957031 18.410156 C 23.519531 17.964844 23.203125 17.398438 23.253906 16.808594 C 23.375 15.550781 24.488281 14.957031 26.421875 14.046875 C 27.65625 13.453125 29.039062 12.8125 30.296875 11.75 C 30.296875 14.90625 29.667969 18.433594 28.359375 19.347656 Z M 28.359375 19.347656 "/>
</g>
</svg>
