<?xml version="1.0" encoding="UTF-8"?>
<svg xmlns="http://www.w3.org/2000/svg"  width="41px" height="41px" viewBox="0 0 41 41" version="1.1">
<g id="surface1">
<path style="fill:none;stroke-width:2.448334;stroke-linecap:butt;stroke-linejoin:miter;stroke:rgb(100%,100%,100%);stroke-opacity:1;stroke-miterlimit:4;" d="M 39.777344 20.5 C 39.777344 31.144531 31.144531 39.777344 20.5 39.777344 C 9.855469 39.777344 1.222656 31.144531 1.222656 20.5 C 1.222656 9.855469 9.855469 1.222656 20.5 1.222656 C 31.144531 1.222656 39.777344 9.855469 39.777344 20.5 Z M 39.777344 20.5 "/>
<path style=" stroke:none;fill-rule:nonzero;fill:rgb(100%,100%,100%);fill-opacity:1;" d="M 26.8125 26.789062 L 33.097656 32.996094 L 33.988281 33.875 L 32.226562 35.664062 L 31.332031 34.78125 L 25.855469 29.375 Z M 14.550781 14.863281 C 14.445312 14.925781 14.066406 15.671875 13.417969 17.09375 L 5.617188 9.394531 L 4.726562 8.511719 L 6.488281 6.726562 L 7.382812 7.605469 C 9.855469 9.988281 12.273438 12.375 14.632812 14.765625 C 14.589844 14.8125 14.589844 14.808594 14.550781 14.863281 Z M 14.550781 14.863281 "/>
<path style=" stroke:none;fill-rule:nonzero;fill:rgb(100%,100%,100%);fill-opacity:1;" d="M 21.070312 19.070312 C 21.863281 19.84375 22.894531 20.460938 24.664062 20.214844 C 24.589844 20.75 24.464844 21.34375 24.257812 22.035156 L 21.074219 30.710938 C 20.878906 31.242188 20.605469 31.542969 20.285156 31.699219 C 19.96875 31.855469 19.574219 31.871094 19.097656 31.699219 L 14.644531 30.078125 C 14.167969 29.902344 13.878906 29.636719 13.734375 29.316406 C 13.589844 28.988281 13.574219 28.585938 13.765625 28.050781 L 16.902344 19.359375 C 17.191406 18.695312 17.476562 18.164062 17.761719 17.707031 C 19.15625 17.359375 19.847656 17.875 21.070312 19.070312 Z M 21.5 7.925781 C 21.054688 7.765625 20.558594 8.019531 20.382812 8.496094 L 19.996094 9.5625 C 19.84375 9.980469 19.992188 10.429688 20.332031 10.640625 L 20.058594 11.394531 C 19.617188 12.605469 18.996094 13.296875 18.21875 14.214844 C 17.441406 15.132812 16.417969 16.214844 15.699219 18.207031 L 12.109375 28.152344 C 11.816406 28.964844 11.808594 29.757812 12.097656 30.40625 C 12.386719 31.054688 12.949219 31.527344 13.671875 31.789062 L 18.742188 33.636719 C 19.464844 33.898438 20.199219 33.898438 20.839844 33.589844 C 21.476562 33.277344 21.980469 32.664062 22.277344 31.855469 L 25.917969 21.929688 C 26.652344 19.9375 26.5625 18.453125 26.558594 17.25 C 26.554688 16.046875 26.519531 15.117188 26.960938 13.90625 L 27.234375 13.152344 C 27.632812 13.207031 28.035156 12.960938 28.1875 12.542969 L 28.574219 11.476562 C 28.746094 11 28.527344 10.484375 28.085938 10.324219 Z M 21.5 7.925781 "/>
</g>
</svg>
