<svg xmlns="http://www.w3.org/2000/svg" xmlns:xlink="http://www.w3.org/1999/xlink" width="px" height="75" viewBox="0 0 135 75"><defs><clipPath id="b"><path d="M0 0h135v75H0z"/></clipPath><clipPath id="c"><path d="M0 0h135v75H0z"/></clipPath><clipPath id="d"><path d="M0 0h135v75H0z"/></clipPath><clipPath id="e"><path d="M0 0h135v75H0z"/></clipPath><mask id="i"><g filter="url(#a)"><path d="M0 0h135v75H0z" style="fill:#000;fill-opacity:.4;stroke:none"/></g></mask><mask id="g"><g filter="url(#a)"><path d="M0 0h135v75H0z" style="fill:#000;fill-opacity:.4;stroke:none"/></g></mask><mask id="k"><g filter="url(#a)"><path d="M0 0h135v75H0z" style="fill:#000;fill-opacity:.4;stroke:none"/></g></mask><mask id="m"><g filter="url(#a)"><path d="M0 0h135v75H0z" style="fill:#000;fill-opacity:.4;stroke:none"/></g></mask><g id="h" clip-path="url(#c)"><path d="M44.102 53.55V38.853h4.046c4.204 0 5.704 1.796 5.704 3.898 0 1.2-.602 2.398-1.653 3.148 1.5.454 2.403 1.801 2.403 3.301 0 2.7-1.801 4.352-6 4.352h-4.5Zm2.847-8.402h1.352c1.8 0 2.699-.898 2.699-2.097 0-1.2-.898-1.95-3.148-1.95h-.903Zm1.352 1.954h-1.352V51.3h1.5c2.102 0 3.301-.602 3.301-2.102 0-1.199-.898-2.097-3.45-2.097Zm0 0" style="stroke:none;fill-rule:nonzero;fill:#fff;fill-opacity:1"/></g><g id="j" clip-path="url(#d)"><path d="M60.75 46.2c0-4.65 3-7.5 7.05-7.5 2.552-.302 4.95 1.198 5.848 3.6l-2.699 1.052c-.597-1.352-1.8-2.25-3.3-2.102-2.399 0-3.899 1.95-3.899 4.95s1.5 5.1 4.2 5.1c1.5 0 3-.902 3.6-2.25l2.098 1.5a6.245 6.245 0 0 1-5.847 3.15c-4.2 0-7.051-2.848-7.051-7.5Zm0 0" style="stroke:none;fill-rule:nonzero;fill:#fff;fill-opacity:1"/></g><g id="f" clip-path="url(#b)"><path d="M103.352 53.55V38.853h9.296v2.25H106.2v3.75h4.653v2.25h-4.653V51.3h6.602v2.25Zm0 0" style="stroke:none;fill-rule:nonzero;fill:#fff;fill-opacity:1"/></g><g id="l" clip-path="url(#e)"><path d="M82.2 53.55V38.853h4.5c5.1 0 8.1 2.699 8.1 7.347 0 4.2-3.152 7.352-8.402 7.352Zm4.198-2.25c3.75 0 5.551-2.25 5.551-5.1 0-3.302-1.648-5.098-5.25-5.098h-1.648V51.3Zm0 0" style="stroke:none;fill-rule:nonzero;fill:#fff;fill-opacity:1"/></g><filter id="a" width="100%" height="100%" x="0%" y="0%" filterUnits="objectBoundingBox"><feColorMatrix in="SourceGraphic" values="0 0 0 0 1 0 0 0 0 1 0 0 0 0 1 0 0 0 1 0"/></filter></defs><path d="M109.95 9.148H24.897c-7.046 0-12.597 5.704-12.597 12.602v34.5c0 7.05 6.3 12.898 13.949 12.898h1.5c2.7 0 5.25-.75 7.5-2.097h75c7.05 0 12.602-5.7 12.602-12.602V21.9c-.153-7.047-5.704-12.75-12.903-12.75.153 0 .153 0 0 0Zm0 0" style="stroke:none;fill-rule:nonzero;fill:#fff;fill-opacity:1"/><path d="M109.95 62.7H97.8v-33h12.15c4.5 0 8.1 3.6 8.1 8.1v16.65c.15 4.5-3.448 8.25-8.1 8.25Zm0 0" style="stroke:none;fill-rule:nonzero;fill:#ef4123;fill-opacity:1"/><use xlink:href="#f" mask="url(#g)"/><path d="M22.95 18.3v4.5h-1.802V15H22.5l3.75 4.648V15h1.8v7.95h-1.5ZM32.852 21.3c.296 0 .597 0 .75-.152.148-.148.449-.296.449-.449.148-.3.3-.449.3-.75V15h1.797v4.05c0 .45 0 1.052-.148 1.5-.148.45-.3.9-.602 1.2-.296.3-.597.602-1.046.898-1.051.454-2.102.454-3.153 0-.449-.148-.75-.449-1.05-.898-.297-.3-.45-.75-.598-1.2-.153-.448-.153-1.05-.153-1.5V15H31.2v4.05c0 .302 0 .598.153.9 0 .3.148.448.296.75.153.152.301.448.454.448.148.153.449.153.75.153ZM43.8 16.5h-2.402v6.3h-1.796v-6.3h-2.403V15h6.602v1.5ZM44.7 22.8V15h3.6c.302 0 .75 0 1.052.3.296.15.597.302.75.598.296.301.449.602.597.903.153.3.153.597.153.898 0 .301 0 .45-.153.75 0 .153-.148.45-.3.602-.149.148-.297.449-.45.597-.148.153-.3.301-.597.454l1.796 3h-2.097l-1.653-2.551H46.5v2.55Zm1.8-4.05h1.648c.153 0 .454-.148.602-.3.148-.302.3-.45.3-.75 0-.302-.152-.598-.3-.75-.148-.15-.3-.302-.602-.302H46.5ZM52.2 22.8V15H54v7.95ZM55.352 20.55v-1.652H58.8v1.653ZM64.95 17.25l-.302-.148c-.148-.153-.296-.153-.449-.301-.148-.153-.449-.153-.597-.301h-.75c-.301 0-.454 0-.75.148-.153.153-.301.301-.301.454 0 .148 0 .296.148.296l.301.301c.148.153.3.153.45.153l.75.148c.3.148.75.148 1.05.3.3.15.602.302.75.45.148.148.45.45.45.602.152.296.152.597.152.898 0 .45-.153.75-.301 1.2-.153.3-.45.6-.602.75-.3.152-.597.3-.898.448-.301.153-.75.153-1.051.153-.602 0-1.2-.153-1.8-.301-.302-.148-.598-.148-.9-.3-.3-.15-.6-.302-.75-.45l.75-1.5.302.148c.148.153.449.153.597.301.301.153.602.153.75.301.301.148.602.148.903.148.597 0 .898-.148.898-.597 0-.153 0-.301-.148-.45-.153-.152-.301-.152-.454-.3-.148-.153-.449-.153-.597-.153l-.75-.296c-.301-.153-.602-.153-.903-.301a2.15 2.15 0 0 1-.597-.45c-.153-.152-.301-.3-.45-.601.149 0 .149-.3.149-.602 0-.449.148-.75.3-1.046.15-.301.302-.602.598-.75.301-.153.602-.454.903-.454.3-.148.75-.148 1.05-.148h.899c.3 0 .45.148.75.148s.45.153.602.301l.597.301ZM66.602 18.75c0-.45.148-1.05.296-1.5a3.35 3.35 0 0 1 .75-1.2c.301-.3.75-.6 1.204-.902.449-.296 1.046-.296 1.648-.296.602 0 1.352.148 1.8.449.45.3.9.75 1.2 1.199L72 17.55c0-.152-.148-.3-.3-.448-.15-.153-.302-.301-.45-.301-.148-.153-.3-.153-.45-.153h-.448c-.301 0-.602 0-.903.153-.3.148-.449.3-.597.597-.153.301-.301.454-.301.75-.153.301-.153.602-.153.903 0 .3 0 .597.153.898.148.301.148.602.449.75.148.153.3.45.602.45.296.152.449.152.75.152h.449c.148 0 .3-.153.449-.153.148-.148.3-.148.45-.296.152-.153.152-.301.3-.454l1.5.903c-.148.3-.3.597-.602.75-.148.3-.449.449-.75.597-.296.153-.597.301-.898.301-.3.153-.602.153-.898.153-.454 0-1.051-.153-1.5-.301-.454-.301-.903-.602-1.204-.903-.296-.449-.597-.898-.75-1.347-.296-.75-.296-1.2-.296-1.801ZM77.55 22.95c-.448 0-1.05-.15-1.5-.302-.448-.148-.902-.597-1.198-.898-.301-.45-.602-.75-.75-1.352-.153-.449-.301-1.046-.301-1.5 0-.449.148-1.046.3-1.5.149-.449.45-.898.75-1.199.297-.3.75-.597 1.2-.898.449-.153 1.05-.301 1.5-.301.449 0 1.05.148 1.5.3 1.347.75 2.25 2.098 2.25 3.75 0 .45-.153 1.052-.301 1.5a2.33 2.33 0 0 1-.898 1.2c-.301.3-.75.602-1.204.898-.296.153-.898.153-1.347.301Zm-1.8-4.052c0 .301 0 .602.148.903.153.3.153.449.454.75.148.148.296.449.597.597.301.153.602.153.903.153.296 0 .597 0 .898-.153.3-.148.45-.296.602-.597.148-.301.296-.45.296-.75 0-.301.153-.602.153-.903 0-.296 0-.597-.153-.898-.148-.3-.148-.602-.449-.75-.148-.148-.3-.45-.597-.45-.301-.152-.602-.152-.75-.152-.301 0-.602 0-.903.153-.3.148-.449.3-.597.597-.153.301-.301.454-.301.75-.301.153-.301.454-.301.75ZM82.352 22.8V15h3.597c.301 0 .75 0 1.051.3.3.15.602.302.75.598.3.301.45.602.602.903.148.3.148.597.148.898 0 .301 0 .45-.148.75 0 .153-.153.45-.301.602-.153.148-.301.449-.45.597-.152.153-.3.301-.601.454l1.8 3H87l-1.648-2.551h-1.204v2.55Zm1.949-4.05h1.648c.153 0 .45-.148.602-.3.148-.302.3-.45.148-.75 0-.302 0-.598-.3-.75-.149-.15-.297-.302-.598-.302h-1.653ZM95.55 21.3v1.65H90V15h5.398v1.5h-3.597V18h3.148v1.5h-3.148v1.648h3.75Zm0 0" style="stroke:none;fill-rule:nonzero;fill:#77787b;fill-opacity:1"/><path d="M57.3 29.7H39.603c1.199 1.948 1.796 4.05 1.796 6.3v20.398c0 2.25-.597 4.352-1.796 6.301H57.3Zm0 0" style="stroke:none;fill-rule:nonzero;fill:#80c342;fill-opacity:1"/><path d="M57.3 29.7h20.25v33H57.3Zm0 0" style="stroke:none;fill-rule:nonzero;fill:#ffcb05;fill-opacity:1"/><path d="M77.55 29.7H97.8v33H77.55Zm0 0" style="stroke:none;fill-rule:nonzero;fill:#f58220;fill-opacity:1"/><use xlink:href="#h" mask="url(#i)"/><use xlink:href="#j" mask="url(#k)"/><use xlink:href="#l" mask="url(#m)"/><path d="M24.75 48h4.05l-1.948-6.148Zm0 0" style="stroke:none;fill-rule:nonzero;fill:#008a4b;fill-opacity:1"/><path d="M27.602 25.5h-1.5c-6.301 0-11.403 4.648-11.403 10.352V56.25c0 5.7 5.102 10.5 11.403 10.5h1.5C33.898 66.75 39 62.102 39 56.25V36c0-5.852-5.102-10.5-11.398-10.5Zm3.449 29.7L30 52.05h-6.602l-1.046 3.15h-4.653l7.2-19.65h4.05l7.2 19.65Zm0 0" style="stroke:none;fill-rule:nonzero;fill:#008a4b;fill-opacity:1"/></svg>