<svg xmlns="http://www.w3.org/2000/svg" xmlns:xlink="http://www.w3.org/1999/xlink" width="px" height="75" viewBox="0 0 135 75"><defs><clipPath id="b"><path d="M0 0h135v75H0z"/></clipPath><clipPath id="c"><path d="M0 0h135v75H0z"/></clipPath><clipPath id="d"><path d="M0 0h135v75H0z"/></clipPath><clipPath id="e"><path d="M0 0h135v75H0z"/></clipPath><mask id="i"><g filter="url(#a)"><path d="M0 0h135v75H0z" style="fill:#000;fill-opacity:.4;stroke:none"/></g></mask><mask id="g"><g filter="url(#a)"><path d="M0 0h135v75H0z" style="fill:#000;fill-opacity:.4;stroke:none"/></g></mask><mask id="k"><g filter="url(#a)"><path d="M0 0h135v75H0z" style="fill:#000;fill-opacity:.4;stroke:none"/></g></mask><mask id="m"><g filter="url(#a)"><path d="M0 0h135v75H0z" style="fill:#000;fill-opacity:.4;stroke:none"/></g></mask><g id="h" clip-path="url(#c)"><path d="M82.05 53.55V38.853h4.5c5.098 0 8.098 2.699 8.098 7.347 0 4.2-3.148 7.352-8.398 7.352Zm4.052-2.25c3.75 0 5.546-2.25 5.546-5.1 0-3.302-1.648-5.098-5.25-5.098H84.75V51.3Zm0 0" style="stroke:none;fill-rule:nonzero;fill:#fff;fill-opacity:1"/></g><g id="j" clip-path="url(#d)"><path d="M103.2 53.55V38.853h9.3v2.25h-6.45v3.75h4.65v2.25h-4.65V51.3h6.598v2.25Zm0 0" style="stroke:none;fill-rule:nonzero;fill:#fff;fill-opacity:1"/></g><g id="f" clip-path="url(#b)"><path d="M62.7 46.2c0-4.65 3-7.5 7.05-7.5 2.55-.302 4.95 1.198 5.852 3.6l-2.704 1.052c-.597-1.352-1.796-2.25-3.296-2.102-2.403 0-3.903 1.95-3.903 5.102 0 3.148 1.5 5.097 4.2 5.097 1.5 0 3-.898 3.601-2.25l2.102 1.5C74.398 52.801 72 54 69.75 53.852c-4.2-.153-7.05-3-7.05-7.653Zm0 0" style="stroke:none;fill-rule:nonzero;fill:#fff;fill-opacity:1"/></g><g id="l" clip-path="url(#e)"><path d="m17.55 53.55 6.15-14.698h1.948l6.153 14.699h-3.153l-1.046-2.852h-6l-1.051 2.852Zm4.802-5.1h4.347l-2.097-5.848Zm0 0" style="stroke:none;fill-rule:nonzero;fill:#fff;fill-opacity:1"/></g><filter id="a" width="100%" height="100%" x="0%" y="0%" filterUnits="objectBoundingBox"><feColorMatrix in="SourceGraphic" values="0 0 0 0 1 0 0 0 0 1 0 0 0 0 1 0 0 0 1 0"/></filter></defs><path d="M109.8 9.148H24.75c-7.05 0-12.602 5.704-12.602 12.602v32.7c0 7.05 5.704 12.6 12.602 12.6h14.102c2.25 1.348 4.796 2.098 7.5 2.098h1.5c2.699 0 5.25-.75 7.5-2.097h54.597c7.051 0 12.602-5.7 12.602-12.602V21.9c.148-7.047-5.551-12.75-12.75-12.75.148 0 0 0 0 0Zm0 0" style="stroke:none;fill-rule:nonzero;fill:#fff;fill-opacity:1"/><path d="M77.398 29.7H59.7c1.2 1.948 1.801 4.05 1.801 6.3v20.398c0 2.25-.602 4.352-1.8 6.301h17.698Zm0 0" style="stroke:none;fill-rule:nonzero;fill:#ffcb05;fill-opacity:1"/><path d="M77.398 29.7h20.25v33h-20.25Zm0 0" style="stroke:none;fill-rule:nonzero;fill:#f58220;fill-opacity:1"/><path d="M109.8 62.7H97.649v-33h12.153c4.5 0 8.097 3.6 8.097 8.1v16.65c0 4.5-3.597 8.25-8.097 8.25Zm0 0" style="stroke:none;fill-rule:nonzero;fill:#ef4123;fill-opacity:1"/><path d="M32.398 36c0-2.25.602-4.352 1.801-6.3H24.75a8.069 8.069 0 0 0-8.102 8.1v16.802c0 4.5 3.602 8.097 8.102 8.097h9.45c-1.2-1.949-1.802-4.05-1.802-6.3Zm0 0" style="stroke:none;fill-rule:nonzero;fill:#008a4b;fill-opacity:1"/><use xlink:href="#f" mask="url(#g)"/><use xlink:href="#h" mask="url(#i)"/><use xlink:href="#j" mask="url(#k)"/><path d="M22.8 18.3v4.5H21V15h1.352l3.597 4.648V15h1.801v7.95h-1.5ZM32.7 21.3c.3 0 .6 0 .75-.152.152-.148.448-.296.448-.449.153-.3.301-.449.301-.75 0-.3.153-.597.153-.898V15h1.796v4.05c0 .45 0 1.052-.148 1.5-.148.45-.3.9-.602 1.2-.296.3-.597.602-1.046.898-.454.153-1.051.301-1.653.301-.597 0-1.05-.148-1.648-.3-.45-.149-.75-.45-1.051-.899-.3-.3-.45-.75-.602-1.2-.148-.448-.148-1.05-.148-1.5V15h1.8v4.05c0 .302 0 .598.15.9 0 .3.152.448.3.75.148.152.3.448.45.448.152 0 .448.153.75.153ZM43.648 16.5H41.25v6.3h-1.8v-6.3h-2.4V15h6.598ZM44.55 22.8V15h3.598c.301 0 .75 0 1.051.3.301.15.602.302.75.598.301.301.45.602.602.903.148.3.148.597.148.898 0 .301 0 .45-.148.75 0 .153-.153.45-.301.602-.148.449-.602.75-.898.898l1.796 3h-2.097l-1.653-2.55H46.2v2.55Zm1.802-4.05H48c.148 0 .45-.148.602-.3.148-.15.296-.45.296-.75 0-.302-.148-.598-.296-.75-.153-.15-.301-.302-.602-.302h-1.648ZM52.05 22.8V15h1.802v7.95ZM55.2 20.55v-1.652h3.448v1.653ZM64.648 17.25l-.296-.148-.454-.301c-.148-.153-.449-.153-.597-.301-.301 0-.45-.148-.75-.148-.301 0-.45 0-.75.148-.153.148-.301.3-.301.45 0 .152 0 .3.148.3.153.148.153.148.301.3.153.15.301.15.45.15l.75.152c.3.148.75.148 1.05.296.301.153.602.301.75.454.153.148.45.449.45.597.152.301.152.602.152.903 0 .449-.153.75-.301 1.199-.148.3-.45.597-.602.75-.296.148-.597.3-.898.449-.3.148-.75.148-1.05.148-.598 0-1.2-.148-1.802-.296-.296-.153-.597-.153-.898-.301-.3-.153-.45-.301-.75-.45l.75-1.5.3.149c.15.148.45.148.598.3.301.15.454.15.75.302.301.148.602.148.903.148.597 0 .898-.148.898-.602 0-.148 0-.296-.148-.449-.153-.148-.301-.148-.45-.3-.152-.149-.453-.149-.601-.149l-.75-.3c-.3-.15-.602-.302-.898-.302A1.983 1.983 0 0 1 60 18.45c-.148-.148-.3-.3-.45-.597-.152-.301-.152-.454-.152-.75 0-.454 0-.75.153-1.051.148-.301.3-.602.597-.75.301-.153.602-.45.903-.45.3-.152.75-.152 1.05-.152H63c.3 0 .45.153.75.153s.45.148.75.296c.148.153.45.153.602.301ZM66.3 18.75c0-.45 0-1.05.302-1.5.296-.898 1.046-1.8 1.949-2.102.449-.296 1.05-.296 1.648-.296.602 0 1.2.148 1.801.449.45.3.898.75 1.2 1.199l-1.348 1.05c0-.152-.153-.3-.301-.448-.153-.153-.301-.301-.45-.301-.152-.153-.3-.153-.453-.153H70.2c-.3 0-.597 0-.898.153-.301.148-.45.3-.602.597-.148.301-.3.454-.3.75-.149.301-.149.602-.149.903 0 .3 0 .597.148.898.153.301.153.602.454.75.148.153.296.45.597.45.301.152.45.152.75.152.301 0 .602-.153.903-.301.148-.148.296-.148.449-.3.148-.15.148-.302.3-.45l1.5.898c-.152.301-.3.602-.453.75-.296.301-.449.454-.75.602-.296.148-.597.3-.898.3-.3.15-.602.15-.898.15-.454 0-1.051-.15-1.5-.302-.454-.296-.903-.597-1.204-.898-.296-.45-.597-.898-.75-1.352-.449-.597-.597-1.046-.597-1.648ZM77.398 22.95c-.449 0-1.046-.15-1.5-.302a2.33 2.33 0 0 1-1.199-.898c-.3-.45-.597-.75-.75-1.352-.148-.449-.3-1.046-.3-1.5 0-.449.152-1.046.3-1.5.301-.898 1.051-1.648 1.95-2.097.453-.153 1.05-.301 1.5-.301.453 0 1.05.148 1.5.3.453.302.902.598 1.203.9.296.448.597.75.75 1.35.148.45.296 1.052.296 1.5 0 .45-.148 1.052-.296 1.5a3.35 3.35 0 0 1-.75 1.2c-.301.3-.75.602-1.204.898-.449.153-1.046.301-1.5.301Zm-1.949-4.052c0 .301 0 .602.153.903.148.3.148.449.296.75.153.148.301.449.602.597.3.153.602.153.75.153.3 0 .602 0 .898-.153.301-.148.454-.296.602-.597.148-.301.3-.45.3-.75.15-.301.15-.602.15-.903 0-.296 0-.597-.15-.898-.152-.3-.152-.602-.448-.75-.153-.148-.301-.45-.602-.45-.3-.152-.602-.152-.75-.152-.3 0-.602 0-.75.153-.3.148-.45.3-.602.597-.148.301-.296.454-.296.75-.153.153-.153.454-.153.75ZM82.2 22.8V15h3.6c.302 0 .75 0 1.052.3.296.15.597.302.75.598.296.301.449.602.597.903.153.3.153.597.153.898 0 .301 0 .45-.153.75 0 .153-.148.45-.3.602-.149.449-.598.75-.899.898l1.8 3h-2.1l-1.65-2.55H84v2.55Zm1.8-4.05h1.648c.153 0 .454-.148.602-.3.148-.15.3-.45.3-.75 0-.302-.152-.598-.3-.75-.148-.15-.3-.302-.602-.302H84ZM95.25 21.3v1.65H89.7V15h5.55v1.5h-3.602V18h3.153v1.5h-3.153v1.648h3.602Zm0 0" style="stroke:none;fill-rule:nonzero;fill:#77787b;fill-opacity:1"/><use xlink:href="#l" mask="url(#m)"/><path d="M48.898 41.55c0-1.5-.898-1.948-2.25-1.948h-.898V43.5h.898c1.204 0 2.25-.45 2.25-1.95ZM47.25 47.25h-1.5v3.898h1.8c1.348 0 2.4-.597 2.4-1.949 0-1.347-1.2-1.949-2.7-1.949Zm0 0" style="stroke:none;fill-rule:nonzero;fill:#80c342;fill-opacity:1"/><path d="M47.7 25.5h-1.5c-6.302 0-11.4 4.648-11.4 10.352V56.25c0 5.7 5.098 10.5 11.4 10.5h1.5c6.3 0 11.402-4.648 11.402-10.5V36C59.25 30.148 54 25.5 47.699 25.5Zm0 29.7h-6.598V35.55h6c4.648 0 6.597 2.4 6.597 5.552 0 1.5-.75 3-2.097 3.75 1.949.597 3.148 2.25 3.148 4.199 0 3.75-2.398 6.148-7.05 6.148Zm0 0" style="stroke:none;fill-rule:nonzero;fill:#80c342;fill-opacity:1"/></svg>