<svg xmlns="http://www.w3.org/2000/svg" width="75" height="75"><path d="M75.004 37.5c0 20.715-16.79 37.504-37.504 37.504C16.79 75.004 0 58.214 0 37.5 0 16.79 16.79 0 37.5 0c20.715 0 37.504 16.79 37.504 37.5Zm0 0" style="stroke:none;fill-rule:nonzero;fill:#0db545;fill-opacity:1"/><path d="M29.64 41.645a8.267 8.267 0 0 1 1.055 4.34c0 2.437-.75 4.312-2.254 5.624-1.5 1.313-3.691 1.965-6.57 1.961H10.484V25.805h10.774c2.695 0 4.762.652 6.191 1.957 1.434 1.308 2.153 3.066 2.16 5.273a8.118 8.118 0 0 1-.773 3.61 6.154 6.154 0 0 1-2.16 2.496 5.967 5.967 0 0 1 2.965 2.504ZM15.556 30.64v6.543h5.074c1.258 0 2.215-.278 2.867-.832.656-.555.977-1.375.977-2.461 0-1.086-.325-1.895-.977-2.438-.648-.539-1.61-.812-2.867-.812Zm8.996 17.25c.683-.555 1.023-1.414 1.023-2.578 0-2.301-1.355-3.45-4.062-3.45h-5.977v6.86h5.977c1.332 0 2.36-.278 3.039-.832ZM33.012 25.8h5.105v27.766h-5.105ZM46.258 52.176a12.586 12.586 0 0 1-4.313-5.14 16.88 16.88 0 0 1-1.562-7.356 16.857 16.857 0 0 1 1.562-7.348 12.564 12.564 0 0 1 4.313-5.133 11.192 11.192 0 0 1 12.367 0 12.715 12.715 0 0 1 4.316 5.133 16.728 16.728 0 0 1 1.579 7.355c.039 2.54-.5 5.055-1.579 7.356a12.696 12.696 0 0 1-4.316 5.137 11.192 11.192 0 0 1-12.367 0Zm9.722-4.73a7.538 7.538 0 0 0 2.461-3.165 12.248 12.248 0 0 0 0-9.199 7.569 7.569 0 0 0-2.46-3.164 6.086 6.086 0 0 0-7.06 0 7.529 7.529 0 0 0-2.456 3.164 12.21 12.21 0 0 0 0 9.2 7.498 7.498 0 0 0 2.457 3.163 6.073 6.073 0 0 0 7.058 0ZM32.922 23.102a.09.09 0 0 0 .113-.047c.09-.25.238-.477.43-.66.195-.192.418-.348.664-.465a7.342 7.342 0 0 1 1.555-.543c.539-.14 1.082-.266 1.617-.41.543-.141 1.078-.325 1.594-.547.261-.117.515-.246.757-.399.125-.078.235-.156.352-.246l.164-.129.168-.144c.43-.387.781-.856 1.027-1.383.125-.266.215-.547.27-.836.054-.29.07-.59.043-.883-.02-.3-.086-.594-.192-.875a3.738 3.738 0 0 0-.183-.402.575.575 0 0 0-.317-.297c-.101-.02-.191.078-.23.133-2.883 3.433-5.961 2.508-7.61 6.117.047-.106.067-.262.13-.45.081-.241.183-.476.304-.702a5.87 5.87 0 0 1 .527-.844c.239-.313.497-.613.77-.89.297-.298.625-.598.977-.887.703-.586 1.496-1.153 2.296-1.72.801-.566 1.606-1.14 2.325-1.757.347-.29.683-.598.996-.926a6.8 6.8 0 0 0 .777-.96c.2-.302.367-.626.492-.966.098-.265.172-.543.215-.824 0-.12.027-.223.031-.32v-.438a.412.412 0 0 0-.824.047v.614c-.02.23-.066.46-.137.68-.09.296-.214.577-.375.839-.187.328-.41.633-.656.918-.281.328-.582.637-.898.93l-.102.09h-.02l-.23-.145a7.702 7.702 0 0 0-.472-.242 4.389 4.389 0 0 0-1.016-.32 4.155 4.155 0 0 0-1.055-.063c-.355.02-.71.086-1.054.191a5.584 5.584 0 0 0-1.844.977c-.54.43-1.016.937-1.406 1.508a7.569 7.569 0 0 0-.946 1.793 6.65 6.65 0 0 0-.379 2.027 5.582 5.582 0 0 0 1.317 3.82Zm0 0" style="stroke:none;fill-rule:nonzero;fill:#fff;fill-opacity:1"/></svg>