<svg xmlns="http://www.w3.org/2000/svg" xmlns:xlink="http://www.w3.org/1999/xlink" width="px" height="75" viewBox="0 0 135 75"><defs><clipPath id="b"><path d="M0 0h135v75H0z"/></clipPath><clipPath id="c"><path d="M0 0h135v75H0z"/></clipPath><clipPath id="d"><path d="M0 0h135v75H0z"/></clipPath><clipPath id="e"><path d="M0 0h135v75H0z"/></clipPath><mask id="i"><g filter="url(#a)"><path d="M0 0h135v75H0z" style="fill:#000;fill-opacity:.4;stroke:none"/></g></mask><mask id="g"><g filter="url(#a)"><path d="M0 0h135v75H0z" style="fill:#000;fill-opacity:.4;stroke:none"/></g></mask><mask id="k"><g filter="url(#a)"><path d="M0 0h135v75H0z" style="fill:#000;fill-opacity:.4;stroke:none"/></g></mask><mask id="m"><g filter="url(#a)"><path d="M0 0h135v75H0z" style="fill:#000;fill-opacity:.4;stroke:none"/></g></mask><g id="h" clip-path="url(#c)"><path d="M39.898 53.55V38.853h4.051c4.2 0 5.7 1.796 5.7 3.898 0 1.2-.598 2.398-1.649 3.148 1.5.454 2.398 1.801 2.398 3.301 0 2.7-1.796 4.352-6 4.352h-4.5Zm2.852-8.402h1.352c1.796 0 2.699-.898 2.699-2.097 0-1.2-.903-1.95-3.153-1.95h-.898Zm1.5 1.954h-1.5V51.3h1.5c2.102 0 3.3-.602 3.3-2.102 0-1.199-.75-2.097-3.3-2.097Zm0 0" style="stroke:none;fill-rule:nonzero;fill:#fff;fill-opacity:1"/></g><g id="j" clip-path="url(#d)"><path d="M83.55 53.55V38.853h4.5c5.25 0 8.098 2.699 8.098 7.347 0 4.2-3.148 7.352-8.398 7.352Zm4.052-2.25c3.75 0 5.546-2.25 5.546-5.1 0-3.302-1.648-5.098-5.25-5.098H86.25V51.3Zm0 0" style="stroke:none;fill-rule:nonzero;fill:#fff;fill-opacity:1"/></g><g id="f" clip-path="url(#b)"><path d="M102.898 53.55V38.853h9.301v2.25h-6.449v3.75h4.648v2.25h-4.648V51.3h6.602v2.25Zm0 0" style="stroke:none;fill-rule:nonzero;fill:#fff;fill-opacity:1"/></g><g id="l" clip-path="url(#e)"><path d="m19.8 53.55 6.15-14.698h1.948l6 14.699H30.75l-1.05-2.852h-6l-1.052 2.852Zm4.802-5.1h4.347l-2.097-5.848Zm0 0" style="stroke:none;fill-rule:nonzero;fill:#fff;fill-opacity:1"/></g><filter id="a" width="100%" height="100%" x="0%" y="0%" filterUnits="objectBoundingBox"><feColorMatrix in="SourceGraphic" values="0 0 0 0 1 0 0 0 0 1 0 0 0 0 1 0 0 0 1 0"/></filter></defs><path d="M109.648 9.148H24.45c-7.05 0-12.597 5.704-12.597 12.602v32.7c0 7.05 5.699 12.6 12.597 12.6h34.352c2.25 1.348 4.8 2.098 7.5 2.098h1.5c2.699 0 5.25-.75 7.5-2.097h34.347c6.903-.153 12.454-5.7 12.454-12.602V21.9c.148-7.047-5.551-12.75-12.454-12.75Zm0 0" style="stroke:none;fill-rule:nonzero;fill:#fff;fill-opacity:1"/><path d="M109.648 62.7H97.5v-33h12.148c4.5 0 8.102 3.6 8.102 8.1v16.802c0 4.347-3.602 8.097-8.102 8.097Zm0 0" style="stroke:none;fill-rule:nonzero;fill:#ef4123;fill-opacity:1"/><path d="M24.45 62.7h12.152v-33H24.449a8.066 8.066 0 0 0-8.097 8.1v16.65c0 4.5 3.597 8.25 8.097 8.25Zm0 0" style="stroke:none;fill-rule:nonzero;fill:#008a4b;fill-opacity:1"/><use xlink:href="#f" mask="url(#g)"/><path d="M22.5 18.3v4.5h-1.8V15h1.5l3.75 4.648V15h1.8v7.95h-1.5ZM32.55 21.3c.302 0 .598 0 .75-.152.15-.148.45-.296.598-.449.153-.3.153-.449.301-.75 0-.3.153-.597.153-.898V15h1.796v4.05c0 .45 0 1.052-.148 1.5-.148.45-.3.9-.602 1.2-.296.3-.597.602-1.046.898-.454.153-1.051.301-1.5.301-.602 0-1.051-.148-1.653-.3-.449-.149-.75-.45-1.05-.899-.297-.3-.45-.75-.598-1.2-.153-.448-.153-1.05-.153-1.5V15H31.2v4.05c0 .302 0 .598.153.9 0 .3.148.448.296.75.153.152.301.448.454.448-.153 0 .148.153.449.153ZM43.352 16.5h-2.403v6.3h-1.8v-6.3H36.75V15h6.602ZM44.25 22.8V15h3.602c.296 0 .75 0 1.046.3.602.302 1.051.9 1.352 1.5.148.302.148.598.148.9 0 .3 0 .448-.148.75 0 .152-.148.448-.3.6-.15.15-.302.45-.45.598-.148.153-.3.301-.602.454l1.801 3H48.75l-1.5-2.551h-1.2v2.55Zm1.8-4.05h1.65c.152 0 .448-.148.6-.3.15-.302.302-.45.15-.75 0-.302-.15-.598-.302-.75-.148-.15-.296-.302-.597-.302h-1.653ZM51.898 22.8V15H53.7v7.95ZM55.05 20.55v-1.652h3.45v1.653ZM64.5 17.25l-.3-.148-.45-.301c-.148-.153-.45-.153-.602-.301-.296 0-.449-.148-.75-.148-.296 0-.449 0-.75.148-.148.148-.296.3-.296.45 0 .152 0 .3.148.3l.3.3.45.15.75.152c.3.148.75.148 1.05.296.302.153.598.301.75.454.15.148.45.449.45.597.148.301.148.602.148.903 0 .449-.148.75-.296 1.046-.153.301-.454.602-.602.75-.3.153-.602.301-.898.454-.301.148-.75.148-1.051.148h-.903c-.296 0-.597-.148-.898-.148-.3-.153-.602-.153-.898-.301-.301-.153-.454-.301-.75-.45l.75-1.5.296.149c.153.148.454.148.602.3.3.15.602.15.75.302.3.148.602.148.898.148.602 0 .903-.148.903-.602 0-.148 0-.296-.153-.449-.148-.148-.296-.148-.449-.3-.148-.149-.449-.149-.597-.149l-.75-.3c-.301-.15-.75-.302-.903-.302-.3-.148-.449-.296-.597-.449-.153-.148-.301-.3-.454-.597-.148-.301-.148-.454-.148-.75 0-.454 0-.75.3-1.051.15-.301.302-.602.598-.75.301-.153.602-.45.903-.45.3-.152.75-.152 1.199-.152H63c.3 0 .45.153.75.153s.45.148.75.296l.602.301ZM66.148 18.75c0-.45.153-1.05.301-1.5.153-.45.45-.898.75-1.2.301-.3.75-.75 1.2-.902.453-.296 1.05-.296 1.652-.296.597 0 1.199.148 1.8.449.45.3.899.75 1.2 1.199l-1.352 1.05c-.148-.152-.148-.3-.3-.448-.149-.153-.297-.301-.45-.301-.148-.153-.3-.153-.449-.153h-.45c-.3 0-.6 0-.902.153-.296.148-.449.3-.597.597-.153.153-.301.454-.301.75 0 .301-.148.602-.148.903 0 .3 0 .597.148.898.148.301.148.602.45.75.152.153.3.45.6.45.302.152.45.152.75.152h.45c.148 0 .3-.153.45-.153.152-.148.3-.148.448-.296.153-.153.301-.301.301-.454l1.5.903c-.148.3-.3.597-.449.75-.148.3-.45.449-.75.597-.602.301-1.2.454-1.95.454-.448 0-1.05-.153-1.5-.301-.448-.301-.902-.602-1.198-.903-.301-.449-.602-.898-.75-1.347-.301-.602-.454-1.2-.454-1.801ZM77.25 22.95c-.45 0-1.05-.15-1.5-.302a2.33 2.33 0 0 1-1.2-.898c-.3-.45-.6-.75-.75-1.352-.152-.449-.3-1.046-.3-1.5 0-.449.148-1.046.3-1.5.15-.449.45-.898.75-1.199.302-.3.75-.597 1.2-.898.45-.153 1.05-.301 1.5-.301.45 0 1.05.148 1.5.3.45.302.898.598 1.2.9.6.75 1.05 1.8 1.05 2.698 0 .454-.148 1.051-.3 1.5a3.23 3.23 0 0 1-.75 1.204c-.302.296-.75.597-1.2.898-.45.3-1.05.45-1.5.45Zm-1.95-4.052c0 .301 0 .602.15.903.152.3.152.449.3.75.148.148.3.449.602.597.296.153.597.153.898.153.3 0 .602 0 .75-.153.3-.148.45-.296.602-.597.148-.301.296-.45.296-.75.153-.301.153-.602.153-.903 0-.296 0-.597-.153-.898 0-.3-.148-.602-.296-.75-.153-.148-.301-.45-.602-.45-.3-.152-.602-.152-.75-.152-.3 0-.602 0-.898.153-.301.148-.454.3-.602.597-.148.301-.3.454-.3.75-.15.153-.15.454-.15.75ZM82.05 22.8V15h3.598c.301 0 .75 0 1.051.3.602.302 1.051.9 1.352 1.5.148.302.148.598.148.9 0 .3 0 .448-.148.75 0 .152-.153.448-.301.6-.148.15-.3.45-.45.598-.152.153-.3.301-.6.454l1.8 3h-2.102L84.75 20.55h-1.2v2.55Zm1.802-4.05H85.5c.148 0 .45-.148.602-.3.148-.302.296-.45.148-.75 0-.302-.148-.598-.3-.75-.15-.15-.302-.302-.598-.302h-1.653ZM95.102 21.3v1.65H89.55V15h5.398v1.5h-3.597V18H94.5v1.5h-3.148v1.648h3.75Zm0 0" style="stroke:none;fill-rule:nonzero;fill:#77787b;fill-opacity:1"/><path d="M52.5 36c0-2.25.602-4.352 1.8-6.3H36.75v33H54.3c-1.198-1.95-1.8-4.052-1.8-6.302Zm0 0" style="stroke:none;fill-rule:nonzero;fill:#80c342;fill-opacity:1"/><path d="M97.5 29.7H79.8c1.2 1.948 1.802 4.05 1.802 6.3v20.398c0 2.25-.602 4.352-1.801 6.301H97.5Zm0 0" style="stroke:none;fill-rule:nonzero;fill:#f58220;fill-opacity:1"/><use xlink:href="#h" mask="url(#i)"/><use xlink:href="#j" mask="url(#k)"/><use xlink:href="#l" mask="url(#m)"/><path d="M67.8 25.5h-1.5c-6.3 0-11.402 4.648-11.402 10.352V56.25c0 5.7 5.102 10.5 11.403 10.5h1.5c6.3 0 11.398-4.648 11.398-10.5V36c0-5.852-5.097-10.5-11.398-10.5Zm-.152 30c-5.546 0-9.148-3.898-9.148-10.05 0-6.15 3.898-10.2 9.148-10.2 3.301-.3 6.454 1.8 7.653 4.95L70.5 42c-.45-1.352-1.648-2.25-3.148-2.25-2.403 0-3.75 2.25-3.75 5.7 0 3.75 1.347 5.698 4.199 5.698 1.648 0 3-.898 3.898-2.398l3.75 2.7c-1.8 2.698-4.648 4.198-7.8 4.05Zm0 0" style="stroke:none;fill-rule:nonzero;fill:#ffcb05;fill-opacity:1"/></svg>