<svg xmlns="http://www.w3.org/2000/svg" width="75" height="75"><path d="m25.438 4.328.566-1.516a2.268 2.268 0 0 1 3.55-.984l1.259 1.012a2.27 2.27 0 0 0 3.289-.48l.918-1.329a2.27 2.27 0 0 1 3.687-.07l.965 1.293a2.268 2.268 0 0 0 3.293.348l1.215-1.055a2.27 2.27 0 0 1 3.59.848l.613 1.492a2.273 2.273 0 0 0 2.96 1.242c.052-.024.106-.047.157-.074l1.441-.723a2.268 2.268 0 0 1 3.266 1.7l.223 1.597a2.264 2.264 0 0 0 2.562 1.93c.055-.008.11-.016.168-.028l1.574-.34a2.269 2.269 0 0 1 2.7 1.739c.05.246.062.5.03.75l-.179 1.601a2.266 2.266 0 0 0 2.168 2.52l1.613.062a2.272 2.272 0 0 1 2.184 2.352 2.406 2.406 0 0 1-.148.723l-.567 1.511a2.267 2.267 0 0 0 1.313 2.926c.05.02.105.035.16.055l1.539.445a2.263 2.263 0 0 1 1.207 3.484l-.93 1.336a2.263 2.263 0 0 0 .543 3.16.88.88 0 0 0 .14.094l1.384.828a2.269 2.269 0 0 1 .3 3.688l-1.226 1.02a2.268 2.268 0 0 0-.262 3.199c.035.043.078.086.117.125l1.133 1.148a2.266 2.266 0 0 1-.023 3.207 2.14 2.14 0 0 1-.598.426l-1.45.707a2.277 2.277 0 0 0-1.038 3.039c.027.047.05.098.082.144l.808 1.391a2.263 2.263 0 0 1-.816 3.102c-.211.125-.445.215-.684.265l-1.578.325a2.27 2.27 0 0 0-1.73 2.835l.441 1.551a2.275 2.275 0 0 1-1.566 2.801c-.239.07-.485.098-.73.082l-1.61-.074a2.267 2.267 0 0 0-2.379 2.152v.168l.043 1.613a2.275 2.275 0 0 1-2.203 2.336 2.27 2.27 0 0 1-.758-.109l-1.539-.477a2.272 2.272 0 0 0-2.883 1.657l-.36 1.57a2.27 2.27 0 0 1-2.722 1.7 2.405 2.405 0 0 1-.68-.282l-1.37-.852a2.27 2.27 0 0 0-3.126.739l-.082.148-.738 1.434a2.266 2.266 0 0 1-3.648.53l-1.137-1.16a2.266 2.266 0 0 0-3.207-.054l-.117.117-1.075 1.203a2.268 2.268 0 0 1-3.664-.39l-.796-1.418a2.27 2.27 0 0 0-3.094-.852 1.722 1.722 0 0 0-.14.09l-1.345.895A2.268 2.268 0 0 1 23 71.254l-.422-1.559a2.27 2.27 0 0 0-2.945-1.543l-1.516.528a2.273 2.273 0 0 1-2.898-1.383 2.271 2.271 0 0 1-.125-.727l-.035-1.605a2.266 2.266 0 0 0-2.297-2.238c-.055 0-.114.003-.172.007l-1.602.141a2.264 2.264 0 0 1-2.406-2.793l.379-1.566a2.268 2.268 0 0 0-1.668-2.743 2.534 2.534 0 0 0-.168-.03l-1.59-.266a2.267 2.267 0 0 1-1.633-3.305l.758-1.418a2.266 2.266 0 0 0-1.09-3.14l-1.472-.65a2.271 2.271 0 0 1-.762-3.609l1.09-1.19a2.27 2.27 0 0 0-.153-3.204c-.043-.04-.086-.078-.132-.11l-1.266-.996a2.273 2.273 0 0 1-.39-3.187c.152-.195.34-.363.546-.5l1.352-.883a2.273 2.273 0 0 0 .566-3.277l-.965-1.285a2.275 2.275 0 0 1 .422-3.184c.196-.148.418-.266.653-.344l1.527-.52a2.268 2.268 0 0 0 1.355-3.034l-.628-1.485a2.26 2.26 0 0 1 1.199-2.972c.226-.098.468-.157.715-.176l1.609-.125a2.273 2.273 0 0 0 2.09-2.438 1.185 1.185 0 0 0-.024-.164l-.238-1.597a2.264 2.264 0 0 1 1.906-2.579c.242-.039.492-.035.735.008l1.586.285a2.274 2.274 0 0 0 2.629-1.843c.007-.055.02-.11.023-.164l.16-1.606a2.27 2.27 0 0 1 3.2-1.844l1.468.672a2.27 2.27 0 0 0 3.004-1.125c.02-.054.043-.105.063-.16Zm0 0" style="stroke:none;fill-rule:nonzero;fill:#0d9538;fill-opacity:1"/><path d="m16.328 34.906.742 2.008-8.37 3.094-3.997-10.813 8.168-3.02.746 2.009-5.683 2.101.867 2.348 5.02-1.856.718 1.946-5.02 1.855.926 2.504ZM25.766 33.7l-3.996-2.79-1.176 4.7-2.875 1.062 1.968-6.977-5.761-3.906 2.84-1.05 3.785 2.585 1.144-4.406 2.703-1-1.84 6.613 6.098 4.102-2.886 1.066ZM31.582 30.941a5.684 5.684 0 0 1-2.836-1.214c-.824-.66-1.433-1.528-1.828-2.598-.398-1.07-.5-2.125-.3-3.164a5.703 5.703 0 0 1 1.362-2.766c.715-.808 1.63-1.418 2.739-1.828.937-.348 1.847-.496 2.722-.445.88.05 1.692.289 2.434.715l-1.059 2.074c-1.043-.574-2.105-.66-3.187-.262-.668.246-1.211.617-1.629 1.106a3.375 3.375 0 0 0-.773 1.68c-.098.632-.024 1.284.222 1.952.246.672.613 1.211 1.102 1.63.488.417 1.05.675 1.683.773.633.101 1.286.027 1.953-.219 1.083-.402 1.829-1.164 2.243-2.285l2.152.887a5.291 5.291 0 0 1-1.383 2.144c-.64.61-1.43 1.086-2.363 1.434-1.102.41-2.188.535-3.254.386ZM36.918 17.29l2.504-.923 3.238 8.77 5.422-2 .754 2.039-7.926 2.93-3.996-10.813ZM50.895 23.168c-1.176-.535-2.055-1.598-2.645-3.188l-2.238-6.054 2.504-.922 2.203 5.96c.715 1.938 1.879 2.606 3.48 2.013.785-.29 1.297-.743 1.535-1.364.235-.62.172-1.43-.199-2.43l-2.203-5.96 2.473-.914 2.234 6.054c.59 1.586.61 2.965.063 4.137-.543 1.172-1.586 2.047-3.133 2.617-1.543.57-2.903.586-4.082.051ZM17.031 44.621c.403.027.746.149 1.04.367.292.219.511.524.656.918.144.395.175.758.097 1.117a1.946 1.946 0 0 1-.55.957c-.29.282-.669.508-1.133.684l-1.063.39.54 1.458-1.223.449-1.954-5.277 2.286-.844c.468-.172.902-.246 1.304-.215Zm.422 2.52c.133-.227.145-.485.035-.778-.105-.293-.289-.488-.539-.578-.25-.086-.558-.062-.922.074l-.996.368.676 1.832.996-.368c.367-.136.617-.32.75-.55ZM20.98 44.387c.204-.192.461-.34.77-.457l.406 1.086c-.136.039-.226.066-.27.082-.34.125-.57.316-.687.574-.12.258-.113.578.024.953l.71 1.914-1.175.434-1.5-4.055 1.12-.414.2.535c.067-.246.203-.465.406-.652ZM24.64 47.309a2.121 2.121 0 0 1-1.07-.45 2.211 2.211 0 0 1-.687-.972 2.152 2.152 0 0 1-.11-1.188c.075-.386.247-.73.52-1.035.277-.309.625-.539 1.055-.695.425-.153.84-.207 1.242-.153.406.051.758.204 1.066.45.313.246.54.57.688.972.152.403.187.797.11 1.184-.071.39-.247.734-.517 1.035-.269.305-.62.535-1.046.695-.426.157-.84.207-1.246.157Zm1.52-1.704c.121-.273.113-.585-.008-.925-.125-.34-.324-.578-.593-.711a1.05 1.05 0 0 0-.856-.032 1.03 1.03 0 0 0-.633.583c-.125.273-.12.582.008.925.125.344.324.578.594.711.27.13.558.14.86.028.3-.114.511-.305.628-.582ZM31.559 40.371l1.246 3.379c.277.742.289 1.367.03 1.875-.25.504-.75.895-1.491 1.172-.39.144-.785.234-1.168.27-.39.035-.73.003-1.028-.09l.157-1.02c.222.078.48.11.77.098.292-.016.57-.07.831-.164.41-.153.676-.356.801-.61s.117-.57-.02-.941l-.062-.172c-.184.45-.547.777-1.098.977a2.275 2.275 0 0 1-1.109.132 1.941 1.941 0 0 1-.988-.414 2.061 2.061 0 0 1-.653-.925 2.085 2.085 0 0 1-.105-1.126c.07-.363.23-.683.476-.96.25-.278.559-.485.93-.625.59-.22 1.11-.192 1.559.086l-.192-.52 1.117-.41Zm-.493 3.16c.133-.258.145-.531.032-.832a1.002 1.002 0 0 0-.563-.61c-.265-.109-.555-.105-.867.013-.313.113-.535.3-.668.558a.986.986 0 0 0-.035.828c.105.297.297.5.566.61.27.113.559.105.871-.008.313-.113.532-.3.664-.559ZM34.379 39.434c.2-.192.457-.34.77-.457l.402 1.086c-.133.039-.223.066-.27.082-.336.125-.566.32-.683.578-.125.257-.114.578.023.953l.711 1.914-1.18.433-1.5-4.054 1.125-.414.2.535c.066-.246.203-.465.402-.656ZM39.078 38.035c.445.176.781.567 1.004 1.168l.86 2.313-1.102.406-.188-.504c-.082.457-.425.797-1.027 1.023-.313.114-.602.16-.867.141a1.3 1.3 0 0 1-.688-.242 1.232 1.232 0 0 1-.414-.57c-.136-.375-.105-.723.098-1.047.203-.32.605-.59 1.195-.809l.938-.348c-.094-.254-.246-.425-.453-.504-.207-.078-.465-.062-.778.051a2.1 2.1 0 0 0-.597.336 1.947 1.947 0 0 0-.434.473l-.723-.668c.164-.238.383-.453.66-.652.278-.2.579-.364.907-.485.625-.23 1.164-.262 1.613-.086Zm.031 3.168a.794.794 0 0 0 .176-.531l-.152-.414-.805.297c-.48.18-.668.425-.547.742.055.152.16.25.309.293.148.047.328.027.535-.047a1.08 1.08 0 0 0 .484-.34ZM47.05 35.09c.41.191.727.582.95 1.18l.86 2.324-1.18.433-.79-2.144c-.12-.32-.277-.535-.464-.645-.196-.11-.414-.12-.66-.027-.274.102-.461.27-.555.508-.098.238-.078.535.055.886l.75 2.036-1.176.433-.793-2.14c-.234-.637-.61-.864-1.121-.672a.881.881 0 0 0-.551.508c-.098.238-.078.53.055.882l.75 2.04-1.176.433-1.5-4.055 1.121-.414.176.465c.086-.226.222-.422.406-.594.184-.172.41-.304.672-.402.285-.105.566-.145.836-.117.273.027.52.125.742.289a1.76 1.76 0 0 1 .45-.723c.206-.21.464-.367.765-.48.508-.188.969-.188 1.375 0ZM54.96 32.164c.411.191.727.582.95 1.18l.856 2.324-1.176.434-.79-2.141c-.12-.32-.277-.535-.464-.648-.195-.106-.414-.118-.66-.028-.274.102-.461.274-.555.512-.098.238-.078.531.055.883l.75 2.039-1.176.433-.793-2.14c-.234-.64-.61-.864-1.121-.672-.273.097-.453.265-.55.504-.099.238-.079.535.054.886l.75 2.036-1.176.433-1.5-4.054 1.121-.415.172.47c.09-.227.227-.427.41-.598.184-.168.41-.305.668-.403.29-.101.57-.144.84-.113.273.027.52.125.742.289.086-.273.238-.516.446-.723.21-.21.468-.37.769-.484.508-.188.969-.188 1.375 0ZM61.191 32.105l-3.066 1.137c.145.227.352.38.61.45.261.07.546.046.85-.067.212-.078.388-.176.528-.3a1.41 1.41 0 0 0 .348-.466l.875.446c-.223.578-.7 1.004-1.434 1.273a2.8 2.8 0 0 1-1.312.184 2.089 2.089 0 0 1-1.086-.446 2.15 2.15 0 0 1-.688-.972 2.163 2.163 0 0 1 .387-2.211c.266-.301.598-.524 1.008-.676.41-.148.789-.191 1.176-.14.383.05.726.203 1.027.453.3.253.531.585.688 1.011l.093.324Zm-3.234-.285c-.125.22-.16.465-.102.739l1.997-.735a1.023 1.023 0 0 0-1.305-.476 1.074 1.074 0 0 0-.59.472ZM24.184 52.867l-.602 11.024-2.172.8-7.61-7.984 2.376-.883 5.398 5.719.426-7.871ZM35.188 57.594l.652 1.765-7.36 2.72-3.511-9.5 7.183-2.653.653 1.761-4.996 1.848.765 2.063 4.406-1.633.633 1.71-4.41 1.63.817 2.199ZM42.172 51.45l2.008-.743 1.422 3.855a6.09 6.09 0 0 1-1.461 1.555 7.35 7.35 0 0 1-1.934 1.07c-.984.368-1.95.481-2.89.352a4.993 4.993 0 0 1-2.5-1.066c-.723-.582-1.258-1.34-1.61-2.282-.348-.941-.434-1.87-.262-2.78a5.01 5.01 0 0 1 1.22-2.442c.64-.715 1.456-1.258 2.452-1.625.832-.305 1.64-.446 2.422-.418a4.797 4.797 0 0 1 2.16.59l-.93 1.824c-.94-.465-1.894-.52-2.851-.164-.61.222-1.098.55-1.477.976a2.92 2.92 0 0 0-.703 1.48c-.09.56-.027 1.138.196 1.731.218.598.539 1.067.972 1.43.434.367.93.59 1.492.676.563.086 1.141.015 1.739-.203.633-.235 1.156-.578 1.562-1.036l-1.031-2.78ZM52.637 47.582l2.008-.742 1.421 3.851a6.105 6.105 0 0 1-1.46 1.559 7.35 7.35 0 0 1-1.934 1.07c-.988.364-1.95.48-2.89.352a5.028 5.028 0 0 1-2.5-1.067c-.723-.582-1.259-1.343-1.61-2.285-.348-.941-.434-1.867-.262-2.777a4.977 4.977 0 0 1 1.219-2.441c.64-.715 1.457-1.258 2.453-1.625.832-.309 1.64-.446 2.422-.418a4.748 4.748 0 0 1 2.16.59l-.93 1.824c-.941-.465-1.894-.52-2.851-.164-.61.222-1.098.55-1.477.976-.375.43-.613.918-.703 1.477-.09.558-.027 1.14.195 1.734.215.586.54 1.063.973 1.43.434.367.93.59 1.492.676.563.082 1.14.015 1.739-.204.632-.234 1.156-.582 1.562-1.039l-1.031-2.78ZM54.977 41.488l2.199-.816 3.511 9.504-2.199.812ZM69.645 44.86l.652 1.765-7.356 2.719-3.511-9.5 7.18-2.657.652 1.766-4.992 1.844.761 2.062 4.41-1.629.633 1.708-4.41 1.632.816 2.2 5.168-1.915Zm0 0" style="stroke:none;fill-rule:nonzero;fill:#fff;fill-opacity:1"/></svg>