<svg xmlns="http://www.w3.org/2000/svg" width="75" height="75"><path d="m25.422 4.305.566-1.516a2.276 2.276 0 0 1 3.555-.984l1.258 1.011a2.277 2.277 0 0 0 3.293-.48l.914-1.328a2.273 2.273 0 0 1 3.691-.07l.965 1.292a2.265 2.265 0 0 0 3.293.352l1.219-1.059a2.268 2.268 0 0 1 3.59.852l.613 1.492c.238.582.71 1.043 1.305 1.262.593.223 1.25.187 1.816-.098l1.441-.722a2.268 2.268 0 0 1 2.067.015 2.268 2.268 0 0 1 1.199 1.688l.223 1.597a2.29 2.29 0 0 0 .949 1.547c.52.36 1.164.489 1.781.356l1.578-.34a2.263 2.263 0 0 1 2.004.539c.543.496.813 1.219.727 1.95l-.18 1.6c-.07.63.121 1.259.535 1.735.41.48 1.004.766 1.633.79l1.613.062a2.265 2.265 0 0 1 2.035 3.074l-.566 1.512a2.286 2.286 0 0 0 .086 1.812c.281.563.781.988 1.387 1.168l1.543.445a2.28 2.28 0 0 1 1.5 1.434 2.278 2.278 0 0 1-.293 2.055l-.93 1.336a2.265 2.265 0 0 0 .684 3.257l1.382.829A2.264 2.264 0 0 1 75 34.535a2.26 2.26 0 0 1-.8 1.922l-1.227 1.023c-.485.407-.774 1-.801 1.63-.027.632.21 1.245.656 1.695l1.133 1.148c.516.52.746 1.258.621 1.977a2.267 2.267 0 0 1-1.242 1.656l-1.45.707a2.265 2.265 0 0 0-1.171 1.383 2.27 2.27 0 0 0 .21 1.8l.813 1.395a2.268 2.268 0 0 1-1.504 3.367l-1.578.325a2.274 2.274 0 0 0-1.73 2.836l.441 1.55c.2.707.047 1.461-.406 2.035-.457.57-1.16.887-1.89.852l-1.61-.074a2.269 2.269 0 0 0-2.383 2.32l.04 1.613a2.258 2.258 0 0 1-.903 1.88 2.263 2.263 0 0 1-2.055.35l-1.539-.476a2.261 2.261 0 0 0-1.805.2c-.55.312-.941.843-1.082 1.456l-.36 1.57c-.163.712-.66 1.302-1.335 1.583a2.275 2.275 0 0 1-2.066-.164l-1.375-.852a2.276 2.276 0 0 0-3.207.887l-.739 1.433a2.263 2.263 0 0 1-1.691 1.204 2.255 2.255 0 0 1-1.961-.668l-1.137-1.16a2.266 2.266 0 0 0-3.324.063l-1.074 1.202a2.274 2.274 0 0 1-1.934.742 2.263 2.263 0 0 1-1.73-1.136l-.801-1.418a2.268 2.268 0 0 0-3.234-.762l-1.344.894a2.272 2.272 0 0 1-3.445-1.262l-.422-1.558a2.264 2.264 0 0 0-1.137-1.414 2.28 2.28 0 0 0-1.809-.133l-1.515.531a2.262 2.262 0 0 1-2.055-.277 2.274 2.274 0 0 1-.973-1.832l-.03-1.605a2.275 2.275 0 0 0-2.47-2.235l-1.605.14a2.26 2.26 0 0 1-1.922-.776 2.273 2.273 0 0 1-.484-2.016l.379-1.57a2.267 2.267 0 0 0-1.836-2.773l-1.59-.266a2.272 2.272 0 0 1-1.668-1.23 2.272 2.272 0 0 1 .031-2.075l.758-1.418c.297-.559.347-1.211.14-1.809a2.269 2.269 0 0 0-1.23-1.336l-1.477-.648a2.273 2.273 0 0 1-.757-3.61l1.09-1.19c.425-.47.636-1.09.581-1.72a2.26 2.26 0 0 0-.867-1.597l-1.27-.996a2.278 2.278 0 0 1-.866-1.887 2.264 2.264 0 0 1 1.027-1.8l1.351-.884c.528-.343.891-.894 1-1.515a2.284 2.284 0 0 0-.433-1.766l-.965-1.285a2.258 2.258 0 0 1-.367-2.04c.21-.698.746-1.253 1.441-1.487l1.528-.52a2.274 2.274 0 0 0 1.34-1.223 2.252 2.252 0 0 0 .015-1.812l-.629-1.484A2.265 2.265 0 0 1 7.2 16.993l1.61-.126a2.282 2.282 0 0 0 1.605-.851c.39-.493.563-1.13.469-1.75l-.242-1.598a2.268 2.268 0 0 1 2.64-2.574l1.59.285a2.27 2.27 0 0 0 2.652-2.012l.16-1.605A2.283 2.283 0 0 1 18.81 5.02a2.275 2.275 0 0 1 2.074-.098l1.469.668a2.267 2.267 0 0 0 3.07-1.285Zm0 0" style="stroke:none;fill-rule:nonzero;fill:#df0957;fill-opacity:1"/><path d="m23.184 35.434 5.918 14.148-2.692 1.137-10.644-5.653 3.593 8.586-3.234 1.352-5.91-14.145 2.707-1.132 10.629 5.648-3.602-8.59ZM42.313 40.969l1.097 2.629-10.953 4.582-5.922-14.153L37.23 29.56l1.098 2.625-7.437 3.12 1.285 3.075 6.57-2.75 1.063 2.555-6.567 2.746 1.371 3.258ZM61.285 19.496l1.29 16.086-3.516 1.473-7.121-8.282.792 10.926-3.5 1.469-10.562-12.2 3.402-1.421 7.356 8.61-.828-11.348 3.035-1.27 7.426 8.672-.895-11.402Zm0 0" style="stroke:none;fill-rule:nonzero;fill:#fff;fill-opacity:1"/></svg>