<svg xmlns="http://www.w3.org/2000/svg" width="75" height="75"><defs><linearGradient id="a" x1="69.2" x2="213.2" y1="-95.1" y2="-66.1" gradientTransform="matrix(.23077 0 0 .23077 -9.23 59.077)" gradientUnits="userSpaceOnUse"><stop offset="0" style="stop-color:#d4c300;stop-opacity:1"/><stop offset=".3" style="stop-color:#ffef6a;stop-opacity:1"/><stop offset="1" style="stop-color:#e0cf1d;stop-opacity:1"/></linearGradient></defs><path d="m25.383 4.383.578-1.5A2.376 2.376 0 0 1 28.848 1.5c.23 0 .46.23.691.348l1.27 1.035c.921.808 2.421.578 3.23-.344v-.117l.922-1.27c.691-1.035 2.078-1.27 3.117-.574.23.113.344.344.574.461l.926 1.27c.805 1.039 2.192 1.152 3.23.46h.114l1.27-1.039c.925-.808 2.425-.69 3.23.23.117.231.348.349.348.58l.578 1.5c.46 1.151 1.843 1.73 3 1.269h.113l1.387-.692c1.152-.578 2.422 0 3 1.035 0 .23.23.465.23.696l.23 1.613c.231 1.27 1.27 2.078 2.54 1.96h.113l1.617-.343c1.27-.23 2.422.461 2.652 1.73V12L63 13.617c-.117 1.266.691 2.305 1.96 2.535h1.731c1.27 0 2.192 1.157 2.192 2.426 0 .23 0 .461-.113.692l-.579 1.5c-.46 1.152.118 2.421 1.27 2.882h.117l1.613.465c1.157.344 1.848 1.613 1.5 2.766 0 .234-.23.465-.343.695l-.926 1.27c-.692 1.035-.461 2.422.578 3.113h.117l1.383.922c1.04.695 1.383 2.078.809 3.117-.118.23-.348.46-.461.578l-1.27 1.04c-.926.804-1.039 2.19-.23 3.23l.113.113 1.156 1.156c.922.922.922 2.305 0 3.23-.234.231-.347.344-.578.462l-1.5.691c-1.156.578-1.617 1.848-1.039 3v.117L71.309 51c.574 1.04.23 2.422-.809 3.117-.23.113-.46.23-.691.23l-1.618.344c-1.27.23-1.96 1.5-1.73 2.657v.113l.46 1.5c.349 1.156-.343 2.422-1.612 2.77H63c-1.27-.114-2.309.808-2.422 2.078v1.73c0 1.27-.926 2.309-2.195 2.309h-.805l-1.5-.465c-1.156-.344-2.426.347-2.887 1.5V69l-.343 1.5c-.23 1.27-1.5 1.96-2.77 1.73-.23 0-.46-.113-.695-.23L48 71.191c-1.04-.691-2.422-.343-3.117.692V72l-.692 1.383c-.574 1.156-1.96 1.5-3.113.926-.23 0-.46-.23-.578-.461l-1.152-1.157c-.926-.921-2.309-.921-3.23 0H36c0 .118-1.04 1.27-1.04 1.27-.808.922-2.308 1.039-3.23.23-.23-.113-.347-.343-.46-.574l-.81-1.387a2.236 2.236 0 0 0-3.112-.808h-.118l-1.382 1.039c-1.04.691-2.426.46-3.118-.578-.113-.23-.23-.461-.23-.692l-.46-1.5c-.349-1.152-1.618-1.96-2.77-1.613h-.118l-1.5.574c-1.152.465-2.422-.23-2.882-1.382 0-.23-.118-.461-.118-.692v-1.617c0-1.27-1.035-2.309-2.304-2.191h-1.73c-1.27.23-2.31-.692-2.427-1.961v-.692L8.54 58.5c.344-1.27-.46-2.422-1.73-2.77H6.69l-1.613-.347C3.808 55.153 3 54 3.23 52.73c0-.23.118-.46.23-.69l.81-1.388c.578-1.152.113-2.422-.922-3H3.23l-1.5-.691C.578 46.5 0 45.117.578 43.96c0-.23.23-.461.461-.578l1.04-1.153A2.342 2.342 0 0 0 1.96 39h-.113l-1.27-1.152c-1.039-.809-1.156-2.196-.348-3.23.118-.235.348-.348.579-.466l1.382-.922c1.04-.69 1.387-2.078.692-3.113V30l-.922-1.27c-.809-1.039-.578-2.421.46-3.23.231-.117.462-.23.696-.348l1.5-.574c1.153-.46 1.844-1.73 1.383-2.887v-.113l-.578-1.5c-.461-1.156 0-2.426 1.156-3 .23 0 .461-.117.692-.23h1.613c1.27-.23 2.195-1.27 2.078-2.54v-.117l-.23-1.613c-.231-1.27.69-2.426 1.847-2.539h.692l1.613.23c1.27.231 2.426-.578 2.656-1.847V6.69c.23-1.27 1.383-2.191 2.652-2.074.23 0 .461 0 .692.23l1.5.692c1.156.461 2.539 0 3-1.156V4.27Zm0 0" style="stroke:none;fill-rule:nonzero;fill:url(#a)"/><path d="M18.4 31.6 24 45.3l-1.7.701c-.2.098-.501.098-.701.098-.2 0-.4 0-.697-.2l-9.903-5.497c.102.2.2.497.302.697 0 .2.2.4.297.603l3.003 7.397-2.8 1.202L6.2 36.6l1.703-.701c.098 0 .2 0 .399-.098H8.9s.2 0 .302.2L19.1 41.6c-.102-.2-.302-.501-.4-.7-.102-.2-.2-.498-.301-.702l-3-7.299 2.8-1.198Zm18.9.2c.4 1.001.6 2 .6 2.999 0 1.002-.2 1.902-.501 2.8-.4.9-.897 1.702-1.598 2.4-.701.7-1.602 1.3-2.702 1.703-1.1.399-2.099.697-3.097.697-1.003 0-2.001-.2-2.902-.6-.9-.399-1.7-.9-2.4-1.6-.7-.698-1.198-1.598-1.7-2.6-.399-1-.599-1.998-.599-3 0-.999.2-1.9.498-2.8.4-.9.9-1.7 1.601-2.4.701-.697 1.602-1.3 2.698-1.7 1.1-.399 2.103-.7 3.101-.7 1.003 0 2.001.2 2.902.602.9.4 1.7.897 2.4 1.598.697.701 1.198 1.602 1.7 2.6Zm-3.199 1.3c-.301-.702-.602-1.3-1.002-1.7-.4-.501-.799-.8-1.3-1.1-.497-.2-.998-.4-1.598-.4-.602 0-1.1.102-1.8.4-.6.2-1.101.599-1.5 1.002-.4.399-.701.897-.901 1.398-.2.5-.2 1.1-.2 1.7 0 .598.2 1.3.501 1.898.298.701.6 1.3.999 1.703.4.498.799.8 1.3 1.1.501.2.999.4 1.601.4.6 0 1.199-.102 1.798-.4.603-.3 1.1-.602 1.5-1.002.403-.399.7-.798.9-1.398.2-.5.2-1.1.2-1.703 0-.599-.2-1.3-.498-1.997Zm6.5-7.8 1.3 3.198 4.3-1.797.998 2.4-4.299 1.798 1.3 3.3 5.6-2.298 1.002 2.498-8.9 3.602-5.604-13.7 8.9-3.603 1.003 2.502-5.6 2.299Zm-1.1-4.7c0 .2.098.4.098.6 0 .2 0 .399-.098.599 0 .2-.2.403-.4.5-.203.102-.3.302-.5.302s-.4.098-.6.098c-.2 0-.403 0-.602-.098-.2 0-.4-.2-.498-.301a.552.552 0 0 1-.301-.501c0-.2-.098-.4-.098-.6 0-.2 0-.399.098-.599 0-.2.2-.4.301-.5.098-.099.298-.299.498-.299s.403-.101.602-.101c.2 0 .4 0 .6.101.2 0 .399.2.5.298.099.102.298.302.298.501Zm4.3-1.8c0 .199.098.399.098.598 0 .204 0 .403-.098.603 0 .2-.2.4-.302.498-.2.101-.298.301-.497.301-.204 0-.403.102-.603.102-.2 0-.4 0-.6-.102-.199 0-.399-.2-.5-.301A.543.543 0 0 1 41 20c0-.2-.102-.4-.102-.603 0-.399.2-.799.501-1.096a.545.545 0 0 1 .501-.302c.2 0 .4-.101.6-.101.2 0 .399 0 .599.101.2 0 .4.2.5.302.099.098.299.297.299.497Zm16.3 8.7.999 2.6-8.301 3.399-5.6-13.698 3.2-1.3 4.6 11.2 5.102-2.1Zm0 0" style="fill-rule:nonzero;fill:#fff;fill-opacity:1;stroke-width:.2;stroke-linecap:butt;stroke-linejoin:miter;stroke:#898989;stroke-opacity:1;stroke-miterlimit:2.5" transform="scale(1.15385)"/><path d="M14.77 13.617c0 .692-.579 1.266-1.27 1.266-.691 0-1.27-.574-1.27-1.266 0-.695.579-1.27 1.27-1.27.691 0 1.27.575 1.27 1.27Zm2.421.344c0 .691-.574 1.156-1.152 1.156s-1.156-.578-1.156-1.156.578-1.152 1.156-1.152 1.152.574 1.152 1.152Zm0 0" style="stroke:none;fill-rule:nonzero;fill:#ec2029;fill-opacity:1"/><path d="M15.809 15.809c0 .574-.461 1.039-1.04 1.039-.578 0-1.039-.465-1.039-1.04 0-.578.461-1.038 1.04-1.038.578 0 1.039.46 1.039 1.039Zm0 0" style="stroke:none;fill-rule:nonzero;fill:#ec2029;fill-opacity:1"/><path d="M14.1 13.799s.999.802 2.4-5.2c.6.301 3.501 1.801 5.099-1.798 1.202.8 2.702 2.4 5.501 1.7C26 9.499 24.4 10.7 26 13c-1.3-.301-4.8-.501-5.9 2.099-.6-.498-1.399-1.9-5.902-1.198 0 0 .302 1.5 3.603 2.098-.2.502-1.3 2.702 2.298 5.8-.497.602-1.899 1.8.803 7.4-.901-.9-3.9-4.1-7.401-3.9.999-.799 2.099-3.5-2.102-6.198 1.601-1.003 2.6-2.001 2.8-4.903v-.297Zm0 0" style="fill-rule:nonzero;fill:#009649;fill-opacity:1;stroke-width:.2;stroke-linecap:butt;stroke-linejoin:miter;stroke:#0f9649;stroke-opacity:1;stroke-miterlimit:2.5" transform="scale(1.15385)"/></svg>