<?xml version="1.0" encoding="UTF-8"?>
<svg id="Calque_2" xmlns="http://www.w3.org/2000/svg" viewBox="0 0 148.81 73.43">
  <defs>
    <style>
      .cls-1 {
        fill: #fff;
      }

      .cls-2 {
        fill: #ed7901;
      }
    </style>
  </defs>
  <g id="Calque_1-2" data-name="Calque_1">
    <path class="cls-2" d="M147.68,0L9.81,4.36S.75,3.98,0,14.23c0,10.44,1.7,53.13,1.7,53.13v.19l63.74-1.89v7.78s7.36-2.09,11.88-9.11c5.47,0,57.34-2.09,57.34-2.09,0,0,12.26.57,14.15-12.52,0-12.71-1.13-49.71-1.13-49.71Z"/>
    <g>
      <path class="cls-1" d="M13.9,27.33v15.63h-3.62v-12.72h-3.12v-2.9h6.74Z"/>
      <path class="cls-1" d="M18.75,42.27c-1.01-.64-1.8-1.57-2.38-2.78s-.86-2.66-.86-4.34.29-3.13.86-4.34c.57-1.21,1.37-2.14,2.38-2.78,1.01-.64,2.17-.96,3.46-.96s2.45.32,3.46.96c1.01.64,1.8,1.57,2.38,2.78.57,1.21.86,2.66.86,4.34s-.29,3.13-.86,4.34-1.37,2.14-2.38,2.78c-1.01.64-2.17.96-3.46.96s-2.45-.32-3.46-.96ZM24.45,38.94c.54-.82.81-2.08.81-3.8s-.27-2.98-.81-3.79c-.54-.82-1.29-1.23-2.24-1.23s-1.68.41-2.22,1.23-.81,2.08-.81,3.79.27,2.98.81,3.8,1.28,1.23,2.22,1.23,1.7-.41,2.24-1.23Z"/>
      <path class="cls-1" d="M32.79,42.27c-1.01-.64-1.8-1.57-2.38-2.78-.57-1.21-.86-2.66-.86-4.34s.29-3.13.86-4.34c.57-1.21,1.37-2.14,2.38-2.78,1.01-.64,2.17-.96,3.46-.96s2.45.32,3.46.96c1.01.64,1.8,1.57,2.38,2.78.57,1.21.86,2.66.86,4.34s-.29,3.13-.86,4.34c-.57,1.21-1.37,2.14-2.38,2.78-1.01.64-2.17.96-3.46.96s-2.45-.32-3.46-.96ZM38.49,38.94c.54-.82.82-2.08.82-3.8s-.27-2.98-.82-3.79-1.29-1.23-2.24-1.23-1.68.41-2.22,1.23c-.54.82-.82,2.08-.82,3.79s.27,2.98.82,3.8c.54.82,1.28,1.23,2.22,1.23s1.7-.41,2.24-1.23Z"/>
      <path class="cls-1" d="M44.41,34.6c-.72-.78-1.08-1.83-1.08-3.14s.36-2.35,1.08-3.14c.72-.78,1.66-1.17,2.8-1.17s2.08.39,2.79,1.17c.71.78,1.07,1.83,1.07,3.14s-.36,2.35-1.07,3.14c-.71.78-1.65,1.17-2.79,1.17s-2.08-.39-2.8-1.17ZM48.4,33.32c.29-.42.44-1.03.44-1.85s-.15-1.44-.44-1.85-.69-.62-1.19-.62-.89.21-1.18.64c-.3.42-.45,1.04-.45,1.84s.15,1.42.45,1.84c.3.42.69.64,1.18.64s.9-.21,1.19-.62ZM56.52,27.33h2.66l-10.67,15.63h-2.66l10.67-15.63ZM55.81,42.61c-.59-.35-1.05-.85-1.37-1.51s-.49-1.41-.49-2.28.16-1.62.49-2.28c.33-.65.79-1.16,1.37-1.51s1.25-.52,2-.52c1.15,0,2.08.39,2.8,1.17.72.78,1.08,1.83,1.08,3.14s-.36,2.36-1.08,3.14c-.72.78-1.66,1.17-2.8,1.17-.74,0-1.41-.17-2-.52ZM59,40.67c.29-.42.43-1.04.43-1.84s-.14-1.42-.43-1.84-.69-.64-1.19-.64-.89.21-1.18.62c-.3.42-.45,1.04-.45,1.85s.15,1.44.45,1.85c.3.42.69.62,1.18.62s.9-.21,1.19-.64Z"/>
      <path class="cls-1" d="M83.26,27.33l-6.76,15.63h-3.57l-6.74-15.63h3.91l4.75,11.16,4.82-11.16h3.59Z"/>
      <path class="cls-1" d="M93.99,37.94h-9.08c.16.74.55,1.33,1.16,1.76.61.43,1.37.65,2.28.65.62,0,1.18-.09,1.66-.28.48-.19.93-.48,1.35-.88l1.85,2.01c-1.13,1.29-2.78,1.94-4.96,1.94-1.35,0-2.55-.26-3.59-.79-1.04-.53-1.85-1.26-2.41-2.2s-.85-2-.85-3.19.28-2.24.84-3.18c.56-.94,1.32-1.68,2.3-2.21s2.06-.79,3.27-.79,2.24.25,3.19.76c.95.51,1.7,1.23,2.24,2.18.54.94.81,2.04.81,3.29,0,.04-.02.36-.07.94ZM85.85,34.08c-.54.45-.86,1.06-.98,1.83h5.92c-.12-.76-.45-1.37-.98-1.82-.54-.45-1.19-.68-1.96-.68s-1.45.22-1.99.67Z"/>
      <path class="cls-1" d="M107.66,30.95v10c0,2.2-.57,3.84-1.72,4.91-1.15,1.07-2.82,1.61-5.02,1.61-1.16,0-2.26-.14-3.3-.42-1.04-.28-1.91-.69-2.59-1.23l1.38-2.5c.5.42,1.15.75,1.92.99.77.25,1.55.37,2.32.37,1.21,0,2.09-.27,2.67-.81.57-.54.86-1.37.86-2.47v-.51c-.91,1-2.17,1.5-3.79,1.5-1.1,0-2.11-.24-3.02-.73s-1.64-1.16-2.18-2.04c-.54-.88-.8-1.89-.8-3.04s.27-2.16.8-3.04c.54-.88,1.26-1.56,2.18-2.04s1.92-.73,3.02-.73c1.74,0,3.07.57,3.97,1.72v-1.54h3.3ZM103.34,38.71c.59-.54.88-1.25.88-2.13s-.29-1.59-.88-2.13c-.59-.54-1.34-.81-2.27-.81s-1.68.27-2.28.81c-.59.54-.89,1.25-.89,2.13s.3,1.59.89,2.13c.6.54,1.35.81,2.28.81s1.68-.27,2.27-.81Z"/>
      <path class="cls-1" d="M122.16,30.95v10c0,2.2-.57,3.84-1.72,4.91-1.15,1.07-2.82,1.61-5.02,1.61-1.16,0-2.26-.14-3.3-.42-1.04-.28-1.91-.69-2.59-1.23l1.38-2.5c.5.42,1.15.75,1.92.99.77.25,1.55.37,2.32.37,1.21,0,2.09-.27,2.67-.81.57-.54.86-1.37.86-2.47v-.51c-.91,1-2.17,1.5-3.79,1.5-1.1,0-2.11-.24-3.02-.73s-1.64-1.16-2.18-2.04c-.54-.88-.8-1.89-.8-3.04s.27-2.16.8-3.04c.54-.88,1.26-1.56,2.18-2.04s1.92-.73,3.02-.73c1.74,0,3.07.57,3.97,1.72v-1.54h3.3ZM117.85,38.71c.59-.54.88-1.25.88-2.13s-.29-1.59-.88-2.13c-.59-.54-1.34-.81-2.27-.81s-1.68.27-2.28.81c-.59.54-.89,1.25-.89,2.13s.3,1.59.89,2.13c.6.54,1.35.81,2.28.81s1.68-.27,2.27-.81Z"/>
      <path class="cls-1" d="M124.46,28.72c-.4-.37-.6-.83-.6-1.38s.2-1.01.6-1.38c.4-.37.92-.56,1.56-.56s1.16.18,1.56.54c.4.36.6.8.6,1.34,0,.58-.2,1.06-.6,1.44-.4.38-.92.57-1.56.57s-1.16-.19-1.56-.56ZM124.29,30.95h3.48v12.01h-3.48v-12.01Z"/>
      <path class="cls-1" d="M141.58,37.94h-9.08c.16.74.55,1.33,1.16,1.76.61.43,1.37.65,2.28.65.62,0,1.18-.09,1.66-.28.48-.19.93-.48,1.35-.88l1.85,2.01c-1.13,1.29-2.78,1.94-4.96,1.94-1.35,0-2.55-.26-3.59-.79-1.04-.53-1.85-1.26-2.41-2.2s-.85-2-.85-3.19.28-2.24.84-3.18c.56-.94,1.32-1.68,2.3-2.21s2.06-.79,3.27-.79,2.24.25,3.19.76c.95.51,1.7,1.23,2.24,2.18.54.94.81,2.04.81,3.29,0,.04-.02.36-.07.94ZM133.44,34.08c-.54.45-.86,1.06-.98,1.83h5.92c-.12-.76-.45-1.37-.98-1.82-.54-.45-1.19-.68-1.96-.68s-1.45.22-1.99.67Z"/>
    </g>
  </g>
</svg>