<?xml version="1.0" encoding="UTF-8"?>
<svg xmlns="http://www.w3.org/2000/svg"  width="169px" height="150px" viewBox="0 0 167 150" version="1.1">
<g id="surface1">
<path style=" stroke:none;fill-rule:evenodd;fill:rgb(30.588235%,13.333333%,36.078431%);fill-opacity:1;" d="M 96.628906 94.503906 C 85.53125 105.683594 74.433594 116.863281 63.335938 128.039062 C 54.808594 136.59375 44.140625 122.789062 51.117188 115.792969 L 79.507812 87.3125 L 85.730469 81.0625 C 88.367188 78.421875 84.25 74.300781 81.609375 76.929688 L 75.386719 83.191406 L 54.601562 104.039062 L 46.992188 111.679688 C 45.367188 113.304688 43.167969 114.21875 40.875 114.222656 C 33.203125 114.222656 29.34375 104.855469 34.785156 99.429688 L 69.394531 64.703125 C 72.027344 62.0625 67.90625 57.925781 65.273438 60.570312 L 30.65625 95.277344 C 29.039062 96.90625 26.839844 97.824219 24.546875 97.832031 C 16.871094 97.832031 13.015625 88.464844 18.457031 83.042969 C 33.53125 67.910156 48.636719 52.800781 63.777344 37.71875 L 76.894531 50.878906 C 83.609375 57.609375 94.488281 57.609375 101.199219 50.875 C 107.90625 44.140625 107.902344 33.226562 101.191406 26.496094 L 87.996094 13.261719 C 106.328125 -4.847656 135.820312 -4.621094 153.871094 13.769531 C 171.921875 32.15625 171.691406 61.742188 153.363281 79.851562 L 139.832031 93.429688 L 138.324219 91.605469 L 128 81.25 C 119.597656 72.820312 105.039062 79.644531 106.175781 91.59375 C 101.125 91.109375 98.605469 92.515625 96.636719 94.503906 Z M 96.628906 94.503906 "/>
<path style=" stroke:none;fill-rule:evenodd;fill:rgb(74.509804%,7.843137%,29.411765%);fill-opacity:1;" d="M 63.039062 29.46875 C 46.527344 45.933594 30.042969 62.40625 13.578125 78.894531 L 13.136719 79.34375 C -4.929688 61.039062 -4.824219 31.519531 13.375 13.34375 C 31.574219 -4.832031 61 -4.808594 79.171875 13.398438 L 83.140625 17.382812 L 96.324219 30.628906 C 100.480469 35.125 100.347656 42.113281 96.027344 46.449219 C 91.707031 50.785156 84.738281 50.917969 80.257812 46.746094 C 74.515625 40.984375 68.777344 35.230469 63.039062 29.484375 Z M 63.039062 29.46875 "/>
<path style=" stroke:none;fill-rule:evenodd;fill:rgb(74.509804%,7.843137%,29.411765%);fill-opacity:1;" d="M 81.109375 127.523438 L 91.429688 137.875 C 98.015625 144.480469 87.992188 154.261719 81.550781 147.792969 L 71.222656 137.441406 C 64.769531 130.953125 74.667969 121.054688 81.109375 127.523438 Z M 81.109375 127.523438 "/>
<path style=" stroke:none;fill-rule:evenodd;fill:rgb(74.509804%,7.843137%,29.411765%);fill-opacity:1;" d="M 95.105469 113.472656 L 105.4375 123.828125 C 109.824219 128.234375 106.703125 135.800781 100.488281 135.800781 C 98.640625 135.804688 96.863281 135.074219 95.550781 133.761719 L 85.21875 123.390625 C 78.683594 116.832031 88.589844 106.972656 95.105469 113.472656 Z M 95.105469 113.472656 "/>
<path style=" stroke:none;fill-rule:evenodd;fill:rgb(74.509804%,7.843137%,29.411765%);fill-opacity:1;" d="M 109.109375 99.421875 L 119.445312 109.789062 C 123.828125 114.1875 120.710938 121.761719 114.496094 121.761719 C 112.648438 121.761719 110.871094 121.03125 109.558594 119.722656 L 99.226562 109.339844 C 92.652344 102.75 102.664062 92.957031 109.109375 99.421875 Z M 109.109375 99.421875 "/>
<path style=" stroke:none;fill-rule:evenodd;fill:rgb(74.509804%,7.843137%,29.411765%);fill-opacity:1;" d="M 123.554688 105.65625 L 113.160156 95.230469 C 107.382812 88.570312 116.410156 78.671875 123.117188 85.382812 L 133.484375 95.796875 C 134.773438 97.105469 135.496094 98.875 135.492188 100.714844 C 135.492188 106.9375 127.949219 110.082031 123.554688 105.667969 Z M 123.554688 105.65625 "/>
</g>
</svg>
