<?xml version="1.0" encoding="UTF-8"?>
<svg xmlns="http://www.w3.org/2000/svg"  width="169px" height="150px" viewBox="0 0 168 150" version="1.1">
<g id="surface1">
<path style=" stroke:none;fill-rule:nonzero;fill:rgb(96.862745%,69.803922%,42.745098%);fill-opacity:1;" d="M 9.421875 121.308594 C 9.421875 121.671875 9.441406 122.039062 9.488281 122.402344 C 9.507812 122.585938 9.535156 122.773438 9.566406 122.960938 C 10.316406 127.335938 13.726562 131.398438 14.390625 132.011719 C 15.296875 132.84375 18.375 133.324219 21.148438 133.324219 C 23.921875 133.324219 28.824219 132.921875 29.675781 132.011719 C 30.328125 131.316406 32.421875 127.65625 33.347656 124.121094 C 33.394531 123.9375 33.441406 123.753906 33.484375 123.566406 C 33.6875 122.730469 33.792969 121.867188 33.796875 121.003906 C 33.777344 120.1875 33.648438 119.371094 33.417969 118.585938 C 33.375 118.433594 33.328125 118.273438 33.28125 118.109375 C 32.191406 114.609375 29.757812 110.949219 29.675781 109.277344 C 27.289062 110.179688 24.761719 110.648438 22.214844 110.660156 C 18.046875 110.675781 14.011719 109.292969 14.011719 109.292969 C 13.664062 111.21875 11.136719 114.484375 9.988281 118.054688 C 9.941406 118.210938 9.890625 118.367188 9.847656 118.53125 C 9.578125 119.433594 9.433594 120.367188 9.421875 121.308594 Z M 9.421875 121.308594 "/>
<path style=" stroke:none;fill-rule:nonzero;fill:rgb(93.72549%,83.921569%,81.960784%);fill-opacity:1;" d="M 13.296875 109.71875 C 13.296875 110.609375 17.097656 111.324219 21.761719 111.324219 C 26.425781 111.324219 30.222656 110.609375 30.222656 109.71875 C 30.222656 108.824219 26.425781 108.109375 21.761719 108.109375 C 17.097656 108.109375 13.296875 108.828125 13.296875 109.71875 Z M 13.296875 109.71875 "/>
<path style=" stroke:none;fill-rule:nonzero;fill:rgb(77.254902%,51.372549%,43.921569%);fill-opacity:1;" d="M 14.484375 109.71875 C 14.484375 110.140625 17.144531 110.488281 20.605469 110.546875 L 22.960938 110.546875 L 23.761719 110.523438 C 23.933594 110.523438 24.105469 110.511719 24.277344 110.503906 C 26.90625 110.378906 28.769531 110.078125 28.769531 109.722656 C 28.769531 109.371094 26.925781 109.074219 24.3125 108.949219 L 23.796875 108.925781 C 23.507812 108.914062 23.210938 108.90625 22.902344 108.902344 C 22.734375 108.902344 22.5625 108.902344 22.390625 108.902344 L 20.4375 108.902344 C 17.0625 108.957031 14.484375 109.304688 14.484375 109.71875 Z M 14.484375 109.71875 "/>
<path style=" stroke:none;fill-rule:nonzero;fill:rgb(41.960784%,40.784314%,15.686275%);fill-opacity:1;" d="M 23.765625 110.515625 C 23.9375 110.515625 24.113281 110.503906 24.28125 110.496094 C 24.28125 110.019531 24.300781 109.503906 24.316406 108.941406 C 24.585938 99.871094 26.070312 79.785156 27.226562 74.222656 C 28.453125 68.296875 29.773438 66.753906 29.785156 66.742188 L 29.394531 66.425781 C 29.339844 66.492188 27.96875 68.078125 26.722656 74.125 C 25.566406 79.703125 24.074219 99.824219 23.804688 108.921875 C 23.785156 109.5 23.773438 110.035156 23.765625 110.515625 Z M 23.765625 110.515625 "/>
<path style=" stroke:none;fill-rule:nonzero;fill:rgb(41.960784%,40.784314%,15.686275%);fill-opacity:1;" d="M 20.804688 68.902344 C 20.804688 69.078125 22.046875 86.710938 22.046875 93.6875 C 22.046875 98.125 22.246094 104.667969 22.394531 108.886719 C 22.414062 109.492188 22.433594 110.050781 22.453125 110.558594 L 22.96875 110.558594 C 22.949219 110.066406 22.929688 109.511719 22.90625 108.910156 C 22.761719 104.679688 22.558594 98.121094 22.558594 93.6875 C 22.558594 86.695312 21.324219 69.046875 21.3125 68.867188 Z M 20.804688 68.902344 "/>
<path style=" stroke:none;fill-rule:nonzero;fill:rgb(41.960784%,40.784314%,15.686275%);fill-opacity:1;" d="M 20.707031 92.777344 C 20.648438 99.304688 21.179688 104.988281 21.570312 108.878906 C 21.585938 109.054688 21.601562 109.222656 21.617188 109.386719 L 21.730469 110.554688 L 22.25 110.554688 C 22.210938 110.179688 22.175781 109.777344 22.132812 109.34375 C 22.113281 109.195312 22.101562 109.042969 22.082031 108.882812 C 21.703125 105 21.164062 99.3125 21.222656 92.785156 C 21.3125 81.921875 21 79.992188 20.199219 77.898438 L 19.722656 78.066406 C 20.433594 79.941406 20.804688 81.453125 20.707031 92.777344 Z M 20.707031 92.777344 "/>
<path style=" stroke:none;fill-rule:nonzero;fill:rgb(41.960784%,40.784314%,15.686275%);fill-opacity:1;" d="M 16.667969 95.671875 C 16.707031 95.746094 19.535156 101.851562 20.4375 108.890625 C 20.507812 109.441406 20.566406 109.992188 20.609375 110.546875 L 21.125 110.546875 C 21.082031 109.988281 21.023438 109.429688 20.953125 108.878906 C 20.046875 101.734375 17.175781 95.542969 17.140625 95.46875 Z M 16.667969 95.671875 "/>
<path style=" stroke:none;fill-rule:nonzero;fill:rgb(55.686275%,54.117647%,20.784314%);fill-opacity:1;" d="M 26.429688 65.125 C 27.535156 67.675781 27.414062 67.558594 28.636719 68.253906 C 29.398438 68.6875 33.414062 65.816406 34.882812 65.125 C 35.101562 65.019531 35.410156 64.621094 35.785156 64.003906 L 35.878906 63.847656 C 36.417969 62.929688 37.082031 61.605469 37.777344 60.101562 L 37.84375 59.957031 C 38.289062 59 38.75 57.972656 39.203125 56.941406 L 39.265625 56.796875 C 39.660156 55.894531 40.050781 54.992188 40.421875 54.117188 L 40.484375 53.972656 C 40.867188 53.070312 41.230469 52.207031 41.5625 51.417969 C 41.582031 51.371094 41.601562 51.320312 41.621094 51.273438 C 42.023438 50.320312 42.371094 49.488281 42.632812 48.855469 C 42.652344 48.804688 42.675781 48.753906 42.699219 48.707031 C 42.847656 48.351562 42.96875 48.070312 43.050781 47.878906 C 43.277344 47.371094 43.363281 46.613281 43.347656 45.757812 C 43.347656 45.707031 43.347656 45.65625 43.347656 45.609375 C 43.3125 44.824219 43.226562 44.039062 43.078125 43.265625 C 43.078125 43.214844 43.0625 43.167969 43.054688 43.117188 C 42.632812 40.90625 41.867188 38.894531 41.25 39.023438 C 41.269531 41.09375 40.167969 42.988281 39.585938 44.222656 L 39.390625 44.554688 C 39.523438 43.398438 39.199219 41.023438 38.984375 39.664062 C 37.910156 40.070312 36.882812 40.601562 35.925781 41.238281 L 35.792969 41.332031 C 35.242188 41.707031 34.710938 42.113281 34.207031 42.550781 L 34.082031 42.660156 C 33.476562 43.191406 32.90625 43.761719 32.371094 44.363281 L 32.253906 44.5 L 32.207031 44.550781 C 31.632812 45.21875 31.078125 45.882812 30.546875 46.535156 C 30.503906 46.585938 30.464844 46.640625 30.425781 46.6875 C 29.675781 47.628906 28.980469 48.546875 28.359375 49.425781 L 28.242188 49.589844 C 27.625 50.464844 27.078125 51.292969 26.605469 52.058594 C 26.570312 52.121094 26.53125 52.179688 26.496094 52.242188 C 26.023438 53 25.597656 53.789062 25.214844 54.597656 C 25.179688 54.675781 25.148438 54.75 25.117188 54.824219 C 25.007812 55.0625 24.914062 55.304688 24.832031 55.554688 C 24.402344 56.894531 25.328125 62.570312 26.429688 65.125 Z M 26.429688 65.125 "/>
<path style=" stroke:none;fill-rule:nonzero;fill:rgb(64.705882%,63.529412%,36.862745%);fill-opacity:1;" d="M 28.683594 67.882812 C 28.714844 67.78125 31.738281 57.539062 33.636719 54.480469 C 35.21875 51.941406 38.28125 46.742188 39.523438 44.625 L 39.265625 44.488281 C 38.023438 46.605469 34.964844 51.800781 33.382812 54.339844 C 32.578125 55.640625 31.484375 58.300781 30.160156 62.25 C 29.171875 65.191406 28.410156 67.78125 28.398438 67.808594 Z M 28.683594 67.882812 "/>
<path style=" stroke:none;fill-rule:nonzero;fill:rgb(64.705882%,63.529412%,36.862745%);fill-opacity:1;" d="M 37.835938 47.128906 L 37.835938 47.265625 C 38.636719 47.214844 41.699219 46.273438 43.34375 45.757812 C 43.34375 45.707031 43.34375 45.65625 43.34375 45.609375 C 41.722656 46.125 38.617188 47.078125 37.835938 47.128906 Z M 37.835938 47.128906 "/>
<path style=" stroke:none;fill-rule:nonzero;fill:rgb(64.705882%,63.529412%,36.862745%);fill-opacity:1;" d="M 36.5 49.519531 C 36.574219 49.519531 36.660156 49.519531 36.761719 49.519531 C 37.976562 49.519531 41.015625 49.089844 42.640625 48.847656 C 42.660156 48.796875 42.683594 48.746094 42.703125 48.699219 C 40.980469 48.953125 37.46875 49.449219 36.511719 49.371094 Z M 36.5 49.519531 "/>
<path style=" stroke:none;fill-rule:nonzero;fill:rgb(64.705882%,63.529412%,36.862745%);fill-opacity:1;" d="M 30.921875 60.5625 L 31.160156 60.5625 C 32.675781 60.5625 36.121094 60.257812 37.78125 60.097656 L 37.847656 59.953125 C 36.132812 60.117188 32.292969 60.464844 30.925781 60.429688 Z M 30.921875 60.5625 "/>
<path style=" stroke:none;fill-rule:nonzero;fill:rgb(64.705882%,63.529412%,36.862745%);fill-opacity:1;" d="M 29.582031 64.527344 C 29.84375 64.558594 30.109375 64.570312 30.371094 64.566406 C 32.035156 64.566406 34.585938 64.195312 35.785156 64.003906 L 35.878906 63.847656 C 34.550781 64.058594 31.109375 64.5625 29.597656 64.390625 Z M 29.582031 64.527344 "/>
<path style=" stroke:none;fill-rule:nonzero;fill:rgb(64.705882%,63.529412%,36.862745%);fill-opacity:1;" d="M 35.792969 41.332031 C 36.085938 43.28125 36.675781 46.859375 37.265625 48.085938 L 37.398438 48.027344 C 36.816406 46.816406 36.210938 43.171875 35.929688 41.238281 Z M 35.792969 41.332031 "/>
<path style=" stroke:none;fill-rule:nonzero;fill:rgb(64.705882%,63.529412%,36.862745%);fill-opacity:1;" d="M 34.082031 42.660156 C 34.492188 44.511719 35.492188 48.878906 36.007812 50.191406 L 36.144531 50.144531 C 35.625 48.820312 34.605469 44.351562 34.207031 42.550781 Z M 34.082031 42.660156 "/>
<path style=" stroke:none;fill-rule:nonzero;fill:rgb(64.705882%,63.529412%,36.862745%);fill-opacity:1;" d="M 26.503906 52.242188 C 26.707031 53.195312 27.085938 54.917969 27.546875 56.722656 C 28.472656 60.351562 29.28125 62.546875 29.945312 63.25 L 30.054688 63.15625 C 28.734375 61.753906 27.070312 54.253906 26.617188 52.054688 C 26.578125 52.121094 26.539062 52.179688 26.503906 52.242188 Z M 26.503906 52.242188 "/>
<path style=" stroke:none;fill-rule:nonzero;fill:rgb(64.705882%,63.529412%,36.862745%);fill-opacity:1;" d="M 25.125 54.824219 C 25.308594 55.636719 25.625 56.992188 26.050781 58.550781 C 26.679688 60.890625 27.679688 64.1875 28.855469 66.613281 L 28.992188 66.554688 C 27.820312 64.136719 26.820312 60.851562 26.191406 58.519531 C 25.734375 56.828125 25.398438 55.378906 25.226562 54.597656 C 25.191406 54.679688 25.15625 54.75 25.125 54.824219 Z M 25.125 54.824219 "/>
<path style=" stroke:none;fill-rule:nonzero;fill:rgb(41.960784%,40.784314%,15.686275%);fill-opacity:1;" d="M 16.773438 63.460938 C 18.476562 66.015625 20.964844 69.785156 20.964844 69.785156 C 22.3125 69.246094 26.007812 65.6875 27.214844 61.074219 C 28.304688 56.925781 26.65625 42.832031 25.21875 38.71875 C 24.085938 39.394531 22.871094 40.332031 22.652344 41.34375 C 23.058594 39.546875 23.464844 37.949219 23.742188 36.894531 C 22.382812 36.15625 20.84375 36.691406 20.109375 38.054688 C 19.1875 39.769531 15.492188 56.765625 15.066406 58.53125 C 14.640625 60.300781 15.066406 60.902344 16.773438 63.460938 Z M 16.773438 63.460938 "/>
<path style=" stroke:none;fill-rule:nonzero;fill:rgb(64.705882%,63.529412%,36.862745%);fill-opacity:1;" d="M 21.109375 69.800781 C 21.476562 66.964844 21.429688 61.6875 21.386719 57.035156 C 21.363281 54.484375 21.339844 52.078125 21.386719 50.3125 C 21.4375 48.292969 21.914062 45.285156 22.796875 41.371094 C 23.207031 39.558594 23.613281 37.953125 23.882812 36.929688 L 23.597656 36.863281 C 23.324219 37.890625 22.917969 39.488281 22.507812 41.3125 C 21.621094 45.242188 21.144531 48.269531 21.085938 50.304688 C 21.035156 52.074219 21.058594 54.484375 21.085938 57.035156 C 21.128906 61.679688 21.175781 66.945312 20.8125 69.769531 Z M 21.109375 69.800781 "/>
<path style=" stroke:none;fill-rule:nonzero;fill:rgb(55.686275%,54.117647%,20.784314%);fill-opacity:1;" d="M 2.230469 57.699219 L 2.230469 57.847656 C 2.277344 58.515625 2.40625 59.171875 2.613281 59.808594 C 2.628906 59.859375 2.644531 59.914062 2.660156 59.964844 C 2.933594 60.792969 3.308594 61.582031 3.777344 62.320312 C 3.921875 62.558594 4.082031 62.796875 4.25 63.066406 C 4.277344 63.113281 4.308594 63.160156 4.339844 63.207031 C 4.855469 64.011719 5.445312 64.914062 6.074219 65.867188 L 6.167969 66.011719 C 6.738281 66.871094 7.335938 67.769531 7.9375 68.660156 L 8.035156 68.808594 C 8.621094 69.675781 9.203125 70.535156 9.757812 71.34375 L 9.855469 71.488281 C 10.597656 72.574219 11.28125 73.566406 11.867188 74.382812 L 11.96875 74.527344 C 12.585938 75.378906 13.058594 76.015625 13.296875 76.308594 C 14.433594 77.652344 17.847656 79.605469 20.121094 78.457031 C 20.855469 78.085938 22.136719 74.875 21.542969 70.800781 L 21.515625 70.613281 C 21.320312 69.386719 20.96875 68.1875 20.476562 67.046875 C 20.457031 66.996094 20.4375 66.945312 20.410156 66.898438 C 20.320312 66.6875 20.222656 66.484375 20.121094 66.277344 C 19.644531 65.320312 19.171875 64.441406 18.695312 63.648438 L 18.613281 63.515625 C 18 62.480469 17.335938 61.476562 16.621094 60.507812 L 16.53125 60.386719 C 15.953125 59.617188 15.425781 58.984375 14.976562 58.476562 L 14.875 58.367188 C 14.214844 57.617188 13.726562 57.152344 13.507812 56.90625 C 13.148438 56.601562 12.75 56.351562 12.320312 56.160156 L 12.191406 56.097656 C 11.394531 55.699219 10.355469 55.246094 9.363281 54.839844 L 9.226562 54.785156 C 8.464844 54.476562 7.734375 54.195312 7.171875 53.992188 C 6.730469 54.882812 6.40625 56.195312 6.644531 58.066406 C 5.804688 56.496094 5.433594 54.640625 5.265625 53.351562 C 4.394531 53.09375 3.699219 53.042969 3.210938 53.777344 C 2.492188 54.953125 2.148438 56.320312 2.230469 57.699219 Z M 2.230469 57.699219 "/>
<path style=" stroke:none;fill-rule:nonzero;fill:rgb(64.705882%,63.529412%,36.862745%);fill-opacity:1;" d="M 19.976562 78.496094 L 20.261719 78.425781 C 19.550781 75.660156 11.652344 64.824219 8.277344 60.199219 C 7.863281 59.636719 7.53125 59.179688 7.304688 58.867188 C 7.109375 58.589844 6.929688 58.300781 6.769531 58 C 5.941406 56.445312 5.570312 54.601562 5.40625 53.328125 L 5.113281 53.363281 C 5.28125 54.660156 5.660156 56.53125 6.507812 58.121094 C 6.671875 58.4375 6.859375 58.738281 7.0625 59.023438 C 7.289062 59.335938 7.621094 59.792969 8.035156 60.355469 C 11.113281 64.574219 19.289062 75.777344 19.976562 78.496094 Z M 19.976562 78.496094 "/>
<path style=" stroke:none;fill-rule:nonzero;fill:rgb(41.960784%,40.784314%,15.686275%);fill-opacity:1;" d="M 17.582031 97.226562 C 19.363281 96.125 21.695312 93.277344 21.695312 92.054688 C 21.695312 90.832031 14.453125 85.40625 13.65625 84.488281 C 13.65625 84.488281 13.101562 86.011719 12.613281 86.246094 C 12.125 86.476562 12.613281 84.335938 11.449219 83.453125 C 10.28125 82.574219 5.433594 78.679688 4.269531 76.597656 C 3.105469 74.519531 3.257812 74.210938 2.902344 74.621094 C 2.550781 75.035156 2.378906 75.960938 2.378906 75.960938 C 2.378906 75.960938 2.121094 74.050781 1.632812 73.519531 C 1.140625 72.984375 0.28125 73.34375 0.0976562 74.101562 C -0.0859375 74.855469 0.0351562 76.65625 0.0976562 77.59375 C 0.160156 78.53125 2.304688 80.347656 3.898438 82.34375 C 5.488281 84.335938 12.738281 93.109375 14.085938 94.320312 C 15.433594 95.535156 17.582031 97.226562 17.582031 97.226562 Z M 17.582031 97.226562 "/>
<path style=" stroke:none;fill-rule:nonzero;fill:rgb(55.686275%,54.117647%,20.784314%);fill-opacity:1;" d="M 25.136719 91.132812 C 25.136719 91.132812 32.375 88.914062 34.4375 85.347656 C 36.496094 81.78125 41.613281 74.367188 43.816406 73.175781 C 45.058594 72.480469 46.367188 71.921875 47.722656 71.503906 C 47.722656 71.503906 44.527344 70.289062 44.101562 70.359375 C 43.675781 70.425781 41.683594 72.375 41.683594 72.375 C 41.683594 72.375 42.539062 69.550781 42.039062 69.550781 C 41.542969 69.550781 39.695312 69.039062 38.628906 70 C 37.5625 70.964844 37.3125 73.925781 37.3125 73.925781 L 36.429688 70.761719 C 36.429688 70.761719 33.625 72.910156 32.042969 74.464844 C 30.457031 76.015625 27.402344 80.097656 26.976562 83.875 C 26.652344 86.359375 26.035156 88.796875 25.136719 91.132812 Z M 25.136719 91.132812 "/>
<path style=" stroke:none;fill-rule:nonzero;fill:rgb(55.686275%,54.117647%,20.784314%);fill-opacity:1;" d="M 21.242188 104.527344 C 21.242188 104.527344 16.964844 99.976562 13.496094 98.984375 C 10.023438 97.996094 6.695312 97.054688 5.335938 100.417969 C 3.976562 103.78125 6.605469 105.734375 8.09375 106.207031 C 9.585938 106.679688 10.867188 106.683594 11.789062 106.207031 C 12.714844 105.730469 12.785156 105.835938 13.496094 106.558594 C 14.203125 107.28125 15.769531 108.695312 17.6875 108.292969 C 19.605469 107.890625 19.746094 105.132812 21.242188 104.527344 Z M 21.242188 104.527344 "/>
<path style=" stroke:none;fill-rule:nonzero;fill:rgb(41.960784%,40.784314%,15.686275%);fill-opacity:1;" d="M 21.242188 105.265625 C 21.242188 105.265625 20.175781 100.015625 23.65625 96.988281 C 27.136719 93.960938 35.097656 92.34375 36.730469 92.15625 L 36.019531 94.578125 C 36.019531 94.578125 38.363281 93.902344 38.644531 93.164062 C 38.929688 92.425781 39.5 94.105469 39.003906 95.988281 C 38.507812 97.875 34.457031 102.84375 31.820312 103.984375 C 29.183594 105.128906 21.242188 105.265625 21.242188 105.265625 Z M 21.242188 105.265625 "/>
<path style=" stroke:none;fill-rule:nonzero;fill:rgb(64.705882%,63.529412%,36.862745%);fill-opacity:1;" d="M 21.332031 105.261719 C 21.414062 105.175781 29.332031 96.460938 36.035156 94.613281 L 36.007812 94.527344 C 32.457031 95.507812 28.574219 98.257812 25.964844 100.46875 C 24.261719 101.914062 22.644531 103.453125 21.113281 105.078125 Z M 21.332031 105.261719 "/>
<path style=" stroke:none;fill-rule:nonzero;fill:rgb(64.705882%,63.529412%,36.862745%);fill-opacity:1;" d="M 7.699219 100.316406 C 8.800781 100.738281 9.898438 101.199219 11.050781 101.53125 C 11.625 101.703125 12.214844 101.832031 12.808594 101.917969 L 13.253906 101.972656 L 13.472656 102.003906 L 13.691406 102.039062 L 13.90625 102.078125 L 14.125 102.125 C 14.265625 102.15625 14.410156 102.183594 14.554688 102.21875 C 15.707031 102.492188 16.84375 102.824219 17.960938 103.214844 C 18.519531 103.40625 19.070312 103.613281 19.625 103.839844 L 20.023438 104.019531 C 20.160156 104.078125 20.289062 104.144531 20.417969 104.207031 C 20.484375 104.238281 20.550781 104.273438 20.613281 104.308594 L 20.804688 104.410156 C 20.867188 104.445312 20.925781 104.484375 20.984375 104.519531 L 21.164062 104.636719 L 21.339844 104.414062 L 21.148438 104.292969 C 21.085938 104.25 21.019531 104.207031 20.953125 104.175781 L 20.753906 104.066406 C 20.691406 104.03125 20.625 103.996094 20.554688 103.964844 C 20.417969 103.898438 20.285156 103.832031 20.152344 103.773438 L 19.738281 103.59375 C 19.1875 103.367188 18.632812 103.160156 18.078125 102.96875 C 16.949219 102.582031 15.800781 102.253906 14.636719 101.984375 C 14.492188 101.949219 14.34375 101.917969 14.199219 101.886719 L 13.976562 101.84375 L 13.757812 101.804688 L 13.53125 101.765625 L 13.308594 101.738281 L 12.867188 101.683594 C 12.28125 101.601562 11.703125 101.480469 11.140625 101.316406 C 10 100.996094 8.910156 100.542969 7.816406 100.121094 Z M 7.699219 100.316406 "/>
<path style=" stroke:none;fill-rule:nonzero;fill:rgb(64.705882%,63.529412%,36.862745%);fill-opacity:1;" d="M 0.589844 77.164062 L 4.796875 82.101562 C 6.203125 83.746094 7.597656 85.386719 9.023438 87.019531 C 10.449219 88.648438 11.871094 90.28125 13.234375 91.953125 C 13.914062 92.789062 14.589844 93.628906 15.257812 94.476562 C 15.589844 94.902344 15.917969 95.328125 16.238281 95.757812 C 16.398438 95.972656 16.558594 96.1875 16.714844 96.40625 L 16.953125 96.734375 L 17.171875 97.0625 L 17.421875 96.921875 L 17.183594 96.582031 L 16.949219 96.253906 C 16.789062 96.03125 16.625 95.816406 16.472656 95.601562 C 16.144531 95.171875 15.8125 94.746094 15.476562 94.320312 C 14.804688 93.476562 14.125 92.636719 13.433594 91.804688 C 12.058594 90.132812 10.660156 88.484375 9.203125 86.882812 C 7.742188 85.28125 6.351562 83.628906 4.9375 81.992188 L 0.710938 77.078125 Z M 0.589844 77.164062 "/>
<path style=" stroke:none;fill-rule:nonzero;fill:rgb(64.705882%,63.529412%,36.862745%);fill-opacity:1;" d="M 46.019531 71.5 C 44.914062 72.03125 43.84375 72.613281 42.792969 73.222656 C 41.742188 73.835938 40.710938 74.488281 39.71875 75.1875 C 39.222656 75.53125 38.738281 75.902344 38.257812 76.265625 C 37.78125 76.632812 37.308594 77.03125 36.871094 77.4375 C 35.972656 78.234375 35.167969 79.136719 34.476562 80.125 L 34.351562 80.3125 L 34.234375 80.503906 L 34.117188 80.699219 L 34.011719 80.894531 L 33.597656 81.671875 C 33.300781 82.175781 32.976562 82.671875 32.625 83.148438 C 31.925781 84.105469 31.167969 85.023438 30.382812 85.921875 C 29.597656 86.816406 28.78125 87.6875 27.9375 88.546875 C 27.097656 89.398438 26.210938 90.207031 25.28125 90.960938 L 25.46875 91.175781 C 26.402344 90.410156 27.292969 89.59375 28.136719 88.726562 C 28.980469 87.871094 29.796875 86.992188 30.582031 86.085938 C 31.367188 85.183594 32.125 84.257812 32.820312 83.289062 C 33.171875 82.808594 33.5 82.304688 33.800781 81.789062 L 34.214844 81.003906 L 34.316406 80.808594 L 34.542969 80.433594 L 34.601562 80.339844 L 34.660156 80.25 C 35.335938 79.269531 36.128906 78.378906 37.011719 77.585938 C 37.453125 77.183594 37.914062 76.796875 38.382812 76.421875 C 38.851562 76.046875 39.332031 75.683594 39.828125 75.335938 C 40.816406 74.640625 41.835938 73.988281 42.878906 73.371094 C 43.925781 72.75 44.992188 72.175781 46.082031 71.636719 Z M 46.019531 71.5 "/>
<path style=" stroke:none;fill-rule:nonzero;fill:rgb(64.705882%,63.529412%,36.862745%);fill-opacity:1;" d="M 11.074219 64.355469 L 11.203125 64.421875 C 11.230469 64.375 13.355469 60.78125 14.976562 58.472656 L 14.875 58.359375 C 13.273438 60.632812 11.1875 64.160156 11.074219 64.355469 Z M 11.074219 64.355469 "/>
<path style=" stroke:none;fill-rule:nonzero;fill:rgb(64.705882%,63.529412%,36.862745%);fill-opacity:1;" d="M 12.847656 66.855469 L 12.980469 66.914062 C 13.003906 66.859375 14.996094 62.773438 16.621094 60.515625 L 16.53125 60.390625 C 15.847656 61.359375 15.222656 62.367188 14.65625 63.40625 C 13.660156 65.183594 12.855469 66.832031 12.847656 66.855469 Z M 12.847656 66.855469 "/>
<path style=" stroke:none;fill-rule:nonzero;fill:rgb(64.705882%,63.529412%,36.862745%);fill-opacity:1;" d="M 16.46875 72.105469 L 16.589844 72.179688 C 16.621094 72.136719 18.570312 69.335938 20.476562 67.058594 C 20.453125 67.007812 20.433594 66.957031 20.410156 66.910156 C 18.523438 69.144531 16.589844 71.917969 16.46875 72.105469 Z M 16.46875 72.105469 "/>
<path style=" stroke:none;fill-rule:nonzero;fill:rgb(64.705882%,63.529412%,36.862745%);fill-opacity:1;" d="M 18.226562 74.507812 L 18.339844 74.59375 C 18.367188 74.5625 20.046875 72.476562 21.542969 70.804688 L 21.515625 70.617188 C 20.027344 72.277344 18.328125 74.378906 18.226562 74.507812 Z M 18.226562 74.507812 "/>
<path style=" stroke:none;fill-rule:nonzero;fill:rgb(64.705882%,63.529412%,36.862745%);fill-opacity:1;" d="M 4.25 63.054688 C 4.277344 63.105469 4.308594 63.152344 4.339844 63.199219 C 7.027344 63.371094 10.679688 63.914062 10.734375 63.914062 L 10.757812 63.777344 C 10.535156 63.75 6.910156 63.214844 4.25 63.054688 Z M 4.25 63.054688 "/>
<path style=" stroke:none;fill-rule:nonzero;fill:rgb(64.705882%,63.529412%,36.862745%);fill-opacity:1;" d="M 6.074219 65.859375 L 6.167969 66.003906 C 6.644531 66.039062 7.171875 66.078125 7.765625 66.128906 C 10.25 66.339844 12.65625 66.625 12.679688 66.632812 L 12.699219 66.492188 C 12.460938 66.464844 8.980469 66.050781 6.074219 65.859375 Z M 6.074219 65.859375 "/>
<path style=" stroke:none;fill-rule:nonzero;fill:rgb(64.705882%,63.529412%,36.862745%);fill-opacity:1;" d="M 11.871094 74.375 L 11.976562 74.519531 C 14.210938 74.726562 16.429688 75.0625 18.625 75.523438 L 18.660156 75.390625 C 16.417969 74.917969 14.152344 74.578125 11.871094 74.375 Z M 11.871094 74.375 "/>
<path style=" stroke:none;fill-rule:nonzero;fill:rgb(93.72549%,83.921569%,81.960784%);fill-opacity:1;" d="M 30.214844 109.71875 C 30.472656 110.179688 30.785156 110.820312 30.3125 111.324219 C 29.597656 112.09375 24.828125 112.667969 21.363281 112.667969 C 17.894531 112.667969 14.070312 111.964844 13.21875 111.324219 C 12.824219 111.03125 12.839844 110.074219 13.289062 109.71875 C 13.289062 109.71875 13.664062 111.324219 21.523438 111.324219 C 29.378906 111.324219 30.214844 109.71875 30.214844 109.71875 Z M 30.214844 109.71875 "/>
<path style=" stroke:none;fill-rule:nonzero;fill:rgb(96.862745%,83.921569%,66.666667%);fill-opacity:1;" d="M 9.839844 118.523438 C 11.308594 118.972656 13.214844 119.242188 14.789062 119.417969 C 17.558594 119.695312 20.34375 119.824219 23.125 119.8125 C 23.875 119.8125 24.632812 119.8125 25.390625 119.789062 C 26.789062 119.71875 28.179688 119.546875 29.554688 119.265625 C 30.222656 119.144531 30.914062 119.027344 31.597656 118.925781 C 32.210938 118.851562 32.820312 118.738281 33.417969 118.585938 C 33.375 118.433594 33.328125 118.273438 33.28125 118.109375 C 32.703125 118.257812 32.113281 118.367188 31.523438 118.4375 C 30.828125 118.53125 30.132812 118.660156 29.457031 118.777344 C 28.113281 119.054688 26.75 119.226562 25.378906 119.292969 C 18.777344 119.441406 12.933594 118.945312 9.984375 118.046875 C 9.933594 118.210938 9.886719 118.367188 9.839844 118.523438 Z M 9.839844 118.523438 "/>
<path style=" stroke:none;fill-rule:nonzero;fill:rgb(96.862745%,83.921569%,66.666667%);fill-opacity:1;" d="M 9.5 122.402344 C 9.519531 122.585938 9.546875 122.773438 9.578125 122.960938 C 11.546875 123.671875 13.550781 124.273438 15.582031 124.761719 C 16.003906 124.875 18.265625 125 20.953125 125.039062 C 21.261719 125.039062 21.613281 125.039062 22 125.039062 C 24.519531 125.0625 27.035156 124.929688 29.535156 124.648438 C 29.902344 124.601562 30.28125 124.574219 30.652344 124.550781 C 31.152344 124.523438 31.648438 124.472656 32.144531 124.394531 C 32.554688 124.324219 32.960938 124.230469 33.359375 124.113281 C 33.40625 123.929688 33.453125 123.746094 33.496094 123.5625 C 33.023438 123.710938 32.539062 123.828125 32.050781 123.914062 C 31.574219 123.988281 31.09375 124.039062 30.613281 124.066406 C 30.238281 124.089844 29.847656 124.117188 29.464844 124.167969 C 24.292969 124.847656 16.363281 124.453125 15.71875 124.285156 C 13.628906 123.753906 11.5 123.199219 9.5 122.402344 Z M 9.5 122.402344 "/>
<path style=" stroke:none;fill-rule:nonzero;fill:rgb(87.843137%,55.294118%,33.333333%);fill-opacity:1;" d="M 50.449219 117.671875 C 48.769531 123.199219 47.617188 125.851562 47.097656 127.699219 C 46.578125 129.542969 44.585938 135.171875 42.789062 136.984375 C 40.996094 138.796875 41.21875 140.476562 42.863281 141.097656 C 44.503906 141.71875 47.996094 140.640625 49.789062 139.507812 C 51.578125 138.375 52.53125 133.277344 54.730469 131.433594 C 56.929688 129.59375 56.140625 127.796875 56.691406 126.011719 C 57.242188 124.226562 58.785156 120.351562 58.785156 120.351562 Z M 50.449219 117.671875 "/>
<path style=" stroke:none;fill-rule:nonzero;fill:rgb(67.45098%,74.509804%,74.901961%);fill-opacity:1;" d="M 139.5625 135.691406 C 120.1875 141.296875 86.761719 150.316406 71.449219 129.742188 C 69.421875 127.019531 67.910156 123.945312 66.996094 120.671875 C 62.574219 105 72.347656 88.335938 74.011719 87.292969 C 84.332031 80.851562 100.476562 64.789062 108.417969 51.96875 C 116.359375 39.148438 118.742188 37.953125 126.960938 36.570312 C 133.285156 35.5 138.722656 36.300781 143.449219 40.183594 C 145.332031 41.726562 147.105469 43.761719 148.769531 46.371094 C 148.769531 46.371094 152.449219 56.296875 156.238281 62.3125 C 158.933594 66.597656 164.449219 77.875 165.871094 82.292969 C 173.757812 106.734375 158.542969 130.195312 139.5625 135.691406 Z M 139.5625 135.691406 "/>
<path style=" stroke:none;fill-rule:nonzero;fill:rgb(23.529412%,36.470588%,45.098039%);fill-opacity:1;" d="M 98.757812 73.058594 C 91.726562 73.4375 74.488281 72.214844 70.203125 73.214844 C 65.921875 74.214844 61.417969 75.21875 60.46875 80.058594 C 58.480469 90 50.925781 115.605469 50.363281 117.878906 C 52.625 120.371094 56.523438 119.464844 56.523438 119.464844 C 56.523438 119.464844 68.25 97.78125 69.527344 93.171875 C 70.804688 88.566406 73.539062 87.332031 73.539062 87.332031 C 73.539062 87.332031 71.558594 87.808594 78.398438 87.054688 C 82.972656 86.550781 102.707031 81.683594 107.214844 77.707031 C 109.4375 75.726562 98.757812 73.058594 98.757812 73.058594 Z M 98.757812 73.058594 "/>
<path style=" stroke:none;fill-rule:nonzero;fill:rgb(21.960784%,21.960784%,21.960784%);fill-opacity:1;" d="M 99.496094 34.222656 C 96.777344 32.445312 96.777344 27.222656 99.496094 25.339844 C 101.914062 23.667969 99.859375 20.957031 101.15625 18.523438 C 102.582031 15.863281 104.957031 16.136719 104.5 11.628906 C 104.046875 7.121094 108.496094 3.992188 109.503906 3.261719 C 111.6875 1.695312 125.039062 2.78125 125.039062 2.78125 C 128.613281 3.089844 130.679688 5.707031 131.539062 7.714844 C 132.398438 9.71875 132.964844 11.324219 132.394531 15.65625 C 131.828125 19.988281 133.265625 19.238281 134.988281 22.707031 C 136.746094 26.265625 135.476562 27.292969 138.09375 31.699219 C 140.8125 36.292969 137.140625 45.765625 129.585938 44.738281 C 122.03125 43.710938 99.496094 34.222656 99.496094 34.222656 Z M 99.496094 34.222656 "/>
<path style=" stroke:none;fill-rule:nonzero;fill:rgb(38.823529%,38.823529%,38.431373%);fill-opacity:1;" d="M 68.371094 71.09375 L 79.292969 69.3125 L 99.0625 74.226562 L 73.6875 77.210938 Z M 68.371094 71.09375 "/>
<path style=" stroke:none;fill-rule:nonzero;fill:rgb(92.941176%,58.431373%,34.509804%);fill-opacity:1;" d="M 52.003906 120.359375 C 49.371094 122.550781 45.539062 126.628906 44.261719 128.066406 C 42.984375 129.5 39.152344 133.203125 36.746094 134.03125 C 34.339844 134.859375 32.6875 135.921875 33.898438 137.203125 C 35.105469 138.488281 38.707031 139.070312 40.8125 138.84375 C 42.914062 138.613281 47.125 135.023438 49.90625 134.335938 C 52.6875 133.648438 52.757812 131.691406 54.039062 130.332031 C 55.324219 128.96875 58.398438 126.175781 58.398438 126.175781 Z M 52.003906 120.359375 "/>
<path style=" stroke:none;fill-rule:nonzero;fill:rgb(57.647059%,33.72549%,17.254902%);fill-opacity:1;" d="M 40.820312 138.988281 L 40.789062 138.699219 C 41.820312 138.589844 43.402344 137.628906 45.066406 136.605469 C 46.726562 135.582031 48.457031 134.535156 49.855469 134.195312 C 51.714844 133.742188 52.3125 132.722656 52.945312 131.644531 C 53.214844 131.136719 53.542969 130.664062 53.921875 130.230469 C 55.191406 128.882812 58.257812 126.097656 58.289062 126.070312 L 58.484375 126.285156 C 58.453125 126.3125 55.398438 129.09375 54.132812 130.433594 C 53.765625 130.847656 53.449219 131.304688 53.183594 131.792969 C 52.550781 132.875 51.898438 133.996094 49.917969 134.480469 C 48.566406 134.808594 46.859375 135.851562 45.207031 136.867188 C 43.523438 137.890625 41.917969 138.871094 40.820312 138.988281 Z M 40.820312 138.988281 "/>
<path style=" stroke:none;fill-rule:nonzero;fill:rgb(92.941176%,58.431373%,34.509804%);fill-opacity:1;" d="M 68.5 66.136719 C 70.273438 66.351562 72.851562 67.113281 73.867188 67.113281 C 74.886719 67.113281 78.730469 64.527344 81.390625 63.085938 C 84.054688 61.640625 88.46875 59.894531 90.75 55.816406 C 93.03125 51.738281 96.246094 42.953125 97.636719 37.472656 C 99.023438 31.992188 102.277344 31.078125 104.613281 31.078125 C 105.773438 32.371094 101.964844 37.921875 101.964844 37.921875 L 99.734375 53.992188 C 99.734375 53.992188 98.410156 57.902344 96.703125 60.113281 C 94.996094 62.324219 90.945312 66.4375 86.953125 67.867188 C 83.8125 68.992188 77.542969 70.820312 76.785156 70.972656 C 76.023438 71.121094 74.886719 71.984375 74.171875 72.210938 C 73.460938 72.4375 69.734375 72.210938 69.734375 72.210938 Z M 68.5 66.136719 "/>
<path style=" stroke:none;fill-rule:nonzero;fill:rgb(56.470588%,63.921569%,63.921569%);fill-opacity:1;" d="M 127.234375 88.882812 C 125.046875 88.957031 122.464844 88.957031 119.378906 89.453125 C 118.769531 89.441406 118.140625 89.425781 117.496094 89.398438 C 92.949219 88.542969 123.164062 36.734375 123.164062 36.734375 C 123.9375 57.070312 122.257812 64.496094 128.238281 69.25 C 132.59375 72.714844 135.371094 85.492188 127.234375 88.882812 Z M 127.234375 88.882812 "/>
<path style=" stroke:none;fill-rule:nonzero;fill:rgb(23.137255%,28.627451%,28.627451%);fill-opacity:1;" d="M 119.398438 89.390625 L 119.382812 89.390625 L 119.382812 89.191406 L 119.355469 89.003906 C 121.628906 88.667969 123.925781 88.484375 126.226562 88.464844 L 127.230469 88.433594 C 128.941406 88.375 130.59375 88.277344 132 87.734375 C 135.378906 86.421875 135.730469 86.289062 139.242188 83.003906 L 139.429688 82.824219 L 139.695312 83.109375 L 139.503906 83.289062 C 136.039062 86.527344 135.617188 86.75 132.140625 88.097656 C 130.679688 88.664062 128.992188 88.761719 127.246094 88.8125 L 126.238281 88.84375 C 123.953125 88.863281 121.675781 89.042969 119.414062 89.378906 Z M 119.398438 89.390625 "/>
<path style=" stroke:none;fill-rule:nonzero;fill:rgb(23.529412%,36.470588%,45.098039%);fill-opacity:1;" d="M 100.402344 77.195312 C 95.558594 77.207031 90.71875 77.46875 85.902344 77.976562 C 81.695312 78.429688 79.472656 80.621094 77.425781 82.960938 C 75.378906 85.304688 67.640625 98.601562 65.234375 102.605469 C 62.828125 106.613281 52.910156 119.453125 52.003906 120.359375 C 52.152344 123.910156 55.234375 126.175781 58.390625 126.175781 C 62.976562 123.457031 73.949219 111.75 76.882812 107.667969 C 79.816406 103.585938 85.222656 94.300781 85.222656 94.300781 C 85.222656 94.300781 90.628906 93.632812 94.539062 93.40625 C 98.449219 93.179688 104.414062 92.050781 108.816406 91.386719 C 112.953125 90.769531 117.296875 89.519531 120.789062 89.105469 C 123.925781 88.550781 122.214844 84.332031 121.527344 82.902344 C 120.839844 81.46875 107.992188 74.589844 107.992188 74.589844 Z M 100.402344 77.195312 "/>
<path style=" stroke:none;fill-rule:nonzero;fill:rgb(14.117647%,21.568627%,25.882353%);fill-opacity:1;" d="M 74.5625 87.464844 L 74.324219 87.308594 C 74.339844 87.285156 75.785156 84.984375 77.308594 82.875 C 79.542969 79.785156 82.1875 78.230469 85.882812 77.832031 C 90.707031 77.324219 95.550781 77.0625 100.398438 77.050781 L 100.398438 77.355469 C 95.5625 77.367188 90.726562 77.628906 85.914062 78.132812 C 82.304688 78.523438 79.722656 80.042969 77.539062 83.058594 C 76.027344 85.148438 74.585938 87.441406 74.5625 87.464844 Z M 74.5625 87.464844 "/>
<path style=" stroke:none;fill-rule:nonzero;fill:rgb(72.156863%,32.156863%,22.745098%);fill-opacity:1;" d="M 104.621094 31.089844 C 101.453125 33.757812 100.308594 41.828125 98.859375 43.878906 C 97.40625 45.929688 94.988281 51.90625 96.707031 55.699219 C 98.421875 59.496094 97.949219 74.078125 97.949219 74.078125 C 97.949219 74.078125 111.863281 77.328125 114.753906 78.894531 C 118.277344 80.800781 121.878906 83.214844 122.710938 86.101562 C 122.886719 81.578125 123.472656 79.179688 123.9375 72.472656 C 124.40625 65.765625 128.859375 35.824219 128.859375 35.824219 L 120.050781 32.546875 L 107.011719 31.097656 Z M 104.621094 31.089844 "/>
<path style=" stroke:none;fill-rule:nonzero;fill:rgb(92.941176%,58.431373%,34.509804%);fill-opacity:1;" d="M 109.597656 26.664062 C 109.53125 27.917969 109.484375 29.367188 109.375 30.285156 C 109.320312 30.75 108.925781 31.144531 108.636719 31.148438 C 107.832031 31.148438 107.535156 31.097656 107.011719 31.09375 C 105.367188 33.71875 101.925781 40.769531 103.003906 43.679688 C 104.082031 46.589844 108.367188 47.15625 111.253906 45.378906 C 114.085938 43.636719 118.6875 38.695312 120.050781 32.542969 C 118.917969 30.261719 119.144531 27.179688 120.050781 24.210938 Z M 109.597656 26.664062 "/>
<path style=" stroke:none;fill-rule:nonzero;fill:rgb(92.941176%,58.431373%,34.509804%);fill-opacity:1;" d="M 125.328125 13.765625 C 124.855469 20.449219 122.773438 22.371094 120.796875 24.152344 C 118.820312 25.933594 114.132812 29.308594 110.179688 28.1875 C 107.628906 27.46875 106.351562 24.09375 105.972656 21.355469 C 105.953125 21.214844 105.933594 21.078125 105.917969 20.941406 C 105.820312 20.085938 105.78125 19.226562 105.804688 18.367188 C 105.804688 18.316406 105.804688 18.269531 105.804688 18.222656 C 105.804688 18.019531 105.824219 17.839844 105.84375 17.679688 C 106.082031 15.425781 106.332031 15.054688 106.449219 12.90625 C 106.566406 10.757812 104.878906 4.933594 113.824219 3.285156 C 119.65625 2.21875 125.792969 7.085938 125.328125 13.765625 Z M 125.328125 13.765625 "/>
<path style=" stroke:none;fill-rule:nonzero;fill:rgb(57.647059%,33.72549%,17.254902%);fill-opacity:1;" d="M 111.84375 28.5625 C 111.269531 28.558594 110.695312 28.480469 110.144531 28.320312 L 110.222656 28.042969 C 111.914062 28.519531 113.914062 28.210938 116.15625 27.117188 C 117.800781 26.296875 119.324219 25.261719 120.691406 24.03125 L 120.886719 24.25 C 119.496094 25.496094 117.949219 26.546875 116.285156 27.378906 C 114.691406 28.167969 113.195312 28.5625 111.84375 28.5625 Z M 111.84375 28.5625 "/>
<path style=" stroke:none;fill-rule:nonzero;fill:rgb(57.647059%,33.72549%,17.254902%);fill-opacity:1;" d="M 110.246094 21.640625 C 109.8125 21.640625 109.382812 21.542969 108.992188 21.355469 C 108.785156 21.273438 108.628906 21.09375 108.574219 20.878906 C 108.527344 20.625 108.652344 20.332031 108.949219 20.003906 C 109.425781 19.46875 109.707031 18.996094 110.039062 17.617188 L 110.324219 17.683594 C 109.976562 19.117188 109.671875 19.652344 109.164062 20.210938 C 108.925781 20.464844 108.832031 20.6875 108.859375 20.835938 C 108.902344 20.964844 108.996094 21.066406 109.121094 21.113281 C 109.542969 21.316406 110.007812 21.398438 110.472656 21.351562 L 110.503906 21.644531 C 110.417969 21.648438 110.332031 21.648438 110.246094 21.640625 Z M 110.246094 21.640625 "/>
<path style=" stroke:none;fill-rule:nonzero;fill:rgb(18.039216%,18.039216%,18.039216%);fill-opacity:1;" d="M 108.546875 17.046875 C 108.449219 17.667969 107.988281 18.105469 107.519531 18.03125 C 107.050781 17.953125 106.753906 17.390625 106.851562 16.769531 C 106.953125 16.148438 107.414062 15.710938 107.878906 15.785156 C 108.347656 15.863281 108.648438 16.429688 108.546875 17.046875 Z M 108.546875 17.046875 "/>
<path style=" stroke:none;fill-rule:nonzero;fill:rgb(18.039216%,18.039216%,18.039216%);fill-opacity:1;" d="M 114.859375 16.925781 C 114.324219 16.878906 113.84375 17.359375 113.78125 18.007812 C 113.722656 18.65625 114.105469 19.21875 114.640625 19.269531 C 115.171875 19.320312 115.65625 18.835938 115.714844 18.191406 C 115.777344 17.542969 115.390625 16.976562 114.859375 16.925781 Z M 114.859375 16.925781 "/>
<path style=" stroke:none;fill-rule:nonzero;fill:rgb(21.960784%,21.960784%,21.960784%);fill-opacity:1;" d="M 109.496094 15.460938 C 109.382812 15.460938 109.277344 15.417969 109.195312 15.339844 C 108.496094 14.675781 107.460938 14.367188 106.835938 14.636719 C 106.617188 14.714844 106.378906 14.613281 106.285156 14.398438 C 106.195312 14.1875 106.28125 13.9375 106.488281 13.832031 C 107.4375 13.421875 108.828125 13.785156 109.792969 14.703125 C 109.921875 14.828125 109.964844 15.019531 109.898438 15.183594 C 109.832031 15.351562 109.671875 15.460938 109.496094 15.460938 Z M 109.496094 15.460938 "/>
<path style=" stroke:none;fill-rule:nonzero;fill:rgb(21.960784%,21.960784%,21.960784%);fill-opacity:1;" d="M 116.992188 16.671875 C 116.859375 16.671875 116.734375 16.617188 116.648438 16.515625 C 115.992188 15.773438 114.722656 15.589844 113.699219 16.085938 C 113.472656 16.195312 113.199219 16.097656 113.089844 15.871094 C 112.980469 15.644531 113.074219 15.367188 113.300781 15.257812 C 114.703125 14.578125 116.386719 14.851562 117.339844 15.90625 C 117.503906 16.097656 117.488281 16.386719 117.300781 16.554688 C 117.214844 16.632812 117.105469 16.671875 116.992188 16.671875 Z M 116.992188 16.671875 "/>
<path style=" stroke:none;fill-rule:nonzero;fill:rgb(98.823529%,98.823529%,98.823529%);fill-opacity:1;" d="M 107.738281 22.378906 C 108.070312 24.789062 111.203125 25.617188 113.042969 23.457031 C 111.050781 23.507812 109.386719 23.507812 107.738281 22.378906 Z M 107.738281 22.378906 "/>
<path style=" stroke:none;fill-rule:nonzero;fill:rgb(21.960784%,21.960784%,21.960784%);fill-opacity:1;" d="M 118 9.675781 C 115.570312 7.949219 114.480469 7.15625 112.167969 6.847656 C 109.714844 6.519531 107.738281 7.777344 107.011719 9.210938 C 106.335938 10.5625 106.300781 14.5625 106.300781 14.5625 C 106.300781 14.5625 105.480469 8.496094 106.605469 6.75 C 107.726562 5.003906 110.996094 0.0742188 118.203125 0.0195312 C 125.40625 -0.03125 125.046875 2.792969 125.046875 2.792969 C 125.046875 2.792969 119.480469 5.617188 118 9.675781 Z M 118 9.675781 "/>
<path style=" stroke:none;fill-rule:nonzero;fill:rgb(21.960784%,21.960784%,21.960784%);fill-opacity:1;" d="M 118 9.675781 C 120.265625 9.914062 120.894531 10.929688 121.546875 12.277344 C 122.414062 14.058594 120.910156 15.753906 122.390625 17.828125 C 123.871094 19.898438 126.222656 23.542969 126.222656 23.542969 L 130.921875 16.710938 L 121.269531 2.898438 Z M 118 9.675781 "/>
<path style=" stroke:none;fill-rule:nonzero;fill:rgb(52.941176%,52.941176%,52.941176%);fill-opacity:1;" d="M 74.644531 78.949219 L 99.0625 75.875 L 99.0625 74.226562 L 73.070312 76.09375 Z M 74.644531 78.949219 "/>
<path style=" stroke:none;fill-rule:nonzero;fill:rgb(92.941176%,58.431373%,34.509804%);fill-opacity:1;" d="M 128.859375 35.824219 C 125.179688 33.996094 122.449219 42.941406 122.296875 47.757812 C 122.144531 52.574219 120.519531 66.472656 119.507812 67.871094 C 118.492188 69.273438 109.683594 69.417969 105.796875 69.273438 C 101.90625 69.128906 90.183594 68.78125 87.71875 68.140625 L 88.429688 72.511719 C 88.429688 72.511719 92.703125 72.75 94.128906 72.945312 C 95.554688 73.136719 109.738281 76.738281 112.144531 77.050781 C 114.550781 77.367188 122.101562 77.921875 124.082031 77.292969 C 126.0625 76.660156 127.453125 73.496094 128.179688 69.578125 C 128.910156 65.65625 132.410156 50.203125 132.453125 46.382812 C 132.476562 42.925781 133.007812 37.882812 128.859375 35.824219 Z M 128.859375 35.824219 "/>
<path style=" stroke:none;fill-rule:nonzero;fill:rgb(92.941176%,58.431373%,34.509804%);fill-opacity:1;" d="M 87.71875 68.136719 C 86.402344 67.640625 85.019531 67.308594 84.472656 67.527344 C 83.925781 67.75 80.5 68.886719 79.992188 69.144531 C 79.480469 69.398438 76.382812 71.632812 76.089844 72.246094 C 75.800781 72.859375 76.457031 73.015625 76.894531 72.792969 C 76.601562 73.382812 78.023438 73.308594 79.007812 72.648438 C 79.152344 73.308594 79.882812 73.125 81.597656 73.015625 C 83.308594 72.902344 88.4375 72.5 88.4375 72.5 Z M 87.71875 68.136719 "/>
<path style=" stroke:none;fill-rule:nonzero;fill:rgb(57.647059%,33.72549%,17.254902%);fill-opacity:1;" d="M 80.035156 69.242188 L 79.949219 69.066406 C 80.269531 68.90625 81.652344 68.425781 82.875 68.003906 C 83.601562 67.75 84.230469 67.527344 84.4375 67.449219 C 85.046875 67.210938 86.550781 67.601562 87.761719 68.054688 L 87.695312 68.238281 C 86.230469 67.683594 84.984375 67.445312 84.519531 67.632812 C 84.308594 67.71875 83.679688 67.933594 82.949219 68.1875 C 81.78125 68.574219 80.34375 69.074219 80.035156 69.242188 Z M 80.035156 69.242188 "/>
<path style=" stroke:none;fill-rule:nonzero;fill:rgb(57.647059%,33.72549%,17.254902%);fill-opacity:1;" d="M 76.800781 72.835938 C 76.609375 72.21875 78.144531 71.402344 79.597656 70.703125 C 79.777344 70.617188 79.921875 70.542969 80.011719 70.496094 C 80.703125 70.125 82.386719 69.816406 83.070312 69.703125 L 83.101562 69.894531 C 82.421875 70.007812 80.765625 70.3125 80.101562 70.667969 C 80.007812 70.71875 79.863281 70.789062 79.679688 70.878906 C 78.902344 71.257812 76.828125 72.269531 76.988281 72.777344 Z M 76.800781 72.835938 "/>
<path style=" stroke:none;fill-rule:nonzero;fill:rgb(57.647059%,33.72549%,17.254902%);fill-opacity:1;" d="M 78.917969 72.695312 C 78.882812 72.617188 78.882812 72.53125 78.917969 72.457031 C 78.988281 72.308594 79.199219 72.199219 79.6875 72.054688 C 81.0625 71.695312 82.460938 71.414062 83.871094 71.210938 L 83.890625 71.40625 C 82.492188 71.605469 81.109375 71.882812 79.742188 72.242188 C 79.488281 72.316406 79.148438 72.429688 79.09375 72.542969 C 79.09375 72.558594 79.078125 72.582031 79.09375 72.628906 Z M 78.917969 72.695312 "/>
<path style=" stroke:none;fill-rule:nonzero;fill:rgb(65.882353%,65.882353%,65.882353%);fill-opacity:1;" d="M 74.644531 78.949219 L 50.339844 74.015625 L 43.691406 47.734375 C 43.566406 47.242188 43.691406 46.71875 44.023438 46.335938 C 44.355469 45.953125 44.851562 45.757812 45.355469 45.8125 L 65.6875 48.03125 C 66.621094 48.132812 67.394531 48.796875 67.644531 49.703125 C 67.644531 49.730469 67.65625 49.753906 67.660156 49.78125 Z M 74.644531 78.949219 "/>
<path style=" stroke:none;fill-rule:nonzero;fill:rgb(51.764706%,51.372549%,51.372549%);fill-opacity:1;" d="M 54.90625 61.363281 L 55.695312 63.222656 C 55.796875 63.507812 56.050781 63.710938 56.347656 63.753906 L 59.671875 64.195312 C 60.117188 64.257812 60.25 64.019531 60.105469 63.59375 L 59.4375 61.632812 C 59.371094 61.484375 59.226562 61.390625 59.066406 61.390625 L 55.21875 61.125 C 55.015625 61.101562 54.851562 61.234375 54.90625 61.363281 Z M 54.90625 61.363281 "/>
<path style=" stroke:none;fill-rule:nonzero;fill:rgb(92.941176%,58.431373%,34.509804%);fill-opacity:1;" d="M 124.539062 20.351562 C 124.15625 21.6875 123.144531 22.566406 122.277344 22.320312 C 121.40625 22.070312 121.015625 20.78125 121.394531 19.453125 C 121.773438 18.128906 122.789062 17.238281 123.65625 17.484375 C 124.519531 17.734375 124.917969 19.015625 124.539062 20.351562 Z M 124.539062 20.351562 "/>
<path style=" stroke:none;fill-rule:nonzero;fill:rgb(57.647059%,33.72549%,17.254902%);fill-opacity:1;" d="M 122.847656 21.074219 C 122.648438 21.070312 122.457031 20.984375 122.324219 20.835938 C 122.292969 20.808594 122.28125 20.773438 122.289062 20.734375 C 122.296875 20.699219 122.328125 20.671875 122.363281 20.664062 C 122.402344 20.65625 122.441406 20.671875 122.460938 20.699219 C 122.589844 20.847656 122.789062 20.910156 122.976562 20.867188 C 123.3125 20.785156 123.621094 20.40625 123.78125 19.871094 C 123.945312 19.410156 123.816406 18.894531 123.449219 18.570312 C 123.242188 18.414062 122.953125 18.421875 122.753906 18.589844 C 122.710938 18.621094 122.648438 18.609375 122.621094 18.566406 C 122.605469 18.546875 122.597656 18.519531 122.601562 18.496094 C 122.605469 18.46875 122.621094 18.449219 122.644531 18.433594 C 122.910156 18.214844 123.289062 18.207031 123.5625 18.410156 C 123.996094 18.785156 124.15625 19.390625 123.964844 19.929688 C 123.785156 20.539062 123.429688 20.957031 123.015625 21.054688 C 122.960938 21.066406 122.90625 21.074219 122.847656 21.074219 Z M 122.847656 21.074219 "/>
<path style=" stroke:none;fill-rule:nonzero;fill:rgb(56.470588%,63.921569%,63.921569%);fill-opacity:1;" d="M 139.5625 135.691406 C 120.1875 141.296875 86.761719 150.316406 71.449219 129.742188 C 69.421875 127.019531 67.910156 123.945312 66.996094 120.671875 L 67.339844 118.359375 C 101.363281 145.347656 137.375 124.632812 148.6875 120.574219 C 160 116.515625 162.339844 90.203125 154.792969 75.222656 C 148.363281 62.46875 145.292969 53.082031 143.449219 40.160156 C 145.332031 41.707031 147.105469 43.742188 148.769531 46.347656 C 148.769531 46.347656 152.449219 56.273438 156.238281 62.292969 C 158.933594 66.578125 164.449219 77.855469 165.871094 82.273438 C 173.757812 106.734375 158.542969 130.195312 139.5625 135.691406 Z M 139.5625 135.691406 "/>
<path style=" stroke:none;fill-rule:nonzero;fill:rgb(91.764706%,44.313725%,34.901961%);fill-opacity:1;" d="M 117.441406 21.363281 C 117.441406 22.238281 116.738281 22.945312 115.867188 22.945312 C 115 22.945312 114.296875 22.238281 114.296875 21.363281 C 114.296875 20.492188 115 19.785156 115.867188 19.785156 C 116.738281 19.785156 117.441406 20.492188 117.441406 21.363281 Z M 117.441406 21.363281 "/>
<path style=" stroke:none;fill-rule:nonzero;fill:rgb(91.764706%,44.313725%,34.901961%);fill-opacity:1;" d="M 107.285156 19.804688 C 107.289062 20.578125 106.730469 21.238281 105.972656 21.363281 C 105.953125 21.222656 105.933594 21.085938 105.917969 20.949219 C 105.820312 20.09375 105.78125 19.234375 105.804688 18.375 C 105.804688 18.324219 105.804688 18.277344 105.804688 18.226562 C 106.636719 18.277344 107.285156 18.96875 107.285156 19.804688 Z M 107.285156 19.804688 "/>
<path style=" stroke:none;fill-rule:nonzero;fill:rgb(69.803922%,75.686275%,75.294118%);fill-opacity:1;" d="M 88.839844 104.644531 C 88.996094 106.699219 90.800781 108.363281 92.789062 108.878906 C 93.957031 109.179688 95.179688 109.160156 96.382812 109.117188 C 108.59375 108.726562 120.6875 106.589844 132.300781 102.773438 C 134.527344 102.042969 137.128906 100.75 137.25 98.394531 C 137.355469 96.347656 135.304688 94.726562 133.277344 94.480469 C 131.25 94.230469 129.238281 94.957031 127.28125 95.515625 C 121.675781 97.132812 88.246094 96.824219 88.839844 104.644531 Z M 88.839844 104.644531 "/>
<path style=" stroke:none;fill-rule:nonzero;fill:rgb(57.647059%,33.72549%,17.254902%);fill-opacity:1;" d="M 48.757812 123.226562 L 51.808594 120.402344 L 51.941406 120.542969 L 48.890625 123.371094 Z M 48.757812 123.226562 "/>
<path style=" stroke:none;fill-rule:nonzero;fill:rgb(57.647059%,33.72549%,17.254902%);fill-opacity:1;" d="M 112.253906 35.050781 L 112.082031 34.964844 C 112.441406 34.289062 113.15625 33.878906 113.917969 33.910156 L 114.292969 33.910156 C 115.40625 33.910156 118.011719 33.882812 119.617188 34.09375 L 119.589844 34.285156 C 118 34.078125 115.40625 34.097656 114.292969 34.101562 L 113.917969 34.101562 C 113.230469 34.074219 112.585938 34.441406 112.253906 35.050781 Z M 112.253906 35.050781 "/>
<path style=" stroke:none;fill-rule:nonzero;fill:rgb(14.117647%,21.568627%,25.882353%);fill-opacity:1;" d="M 53.191406 119.726562 L 53.003906 119.503906 C 55.378906 117.515625 59.535156 111.09375 62.566406 106.398438 C 63.5625 104.863281 64.417969 103.535156 65.109375 102.523438 L 65.347656 102.6875 C 64.65625 103.699219 63.800781 105.023438 62.808594 106.558594 C 59.769531 111.265625 55.601562 117.714844 53.191406 119.726562 Z M 53.191406 119.726562 "/>
<path style=" stroke:none;fill-rule:nonzero;fill:rgb(10.980392%,10.980392%,10.980392%);fill-opacity:1;" d="M 118.136719 9.726562 L 117.859375 9.628906 C 119.046875 6.285156 121.355469 3.992188 124.746094 2.796875 L 124.84375 3.070312 C 121.535156 4.238281 119.28125 6.476562 118.136719 9.726562 Z M 118.136719 9.726562 "/>
<path style=" stroke:none;fill-rule:nonzero;fill:rgb(80.784314%,28.627451%,18.039216%);fill-opacity:1;" d="M 120.839844 11.425781 L 123.824219 9.367188 L 124.804688 10.753906 L 121.664062 12.875 Z M 120.839844 11.425781 "/>
<path style=" stroke:none;fill-rule:nonzero;fill:rgb(57.647059%,33.72549%,17.254902%);fill-opacity:1;" d="M 109.210938 35.019531 C 109.144531 34.527344 109.007812 33.914062 108.542969 33.597656 C 108.160156 33.335938 107.292969 33.121094 106.023438 32.882812 L 106.0625 32.691406 C 107.386719 32.949219 108.238281 33.15625 108.652344 33.433594 C 109.179688 33.796875 109.332031 34.457031 109.402344 34.992188 Z M 109.210938 35.019531 "/>
<path style=" stroke:none;fill-rule:nonzero;fill:rgb(75.686275%,75.686275%,75.686275%);fill-opacity:1;" d="M 67.636719 49.703125 L 43.679688 47.011719 C 43.851562 46.25 44.566406 45.738281 45.339844 45.816406 L 65.675781 48.039062 C 66.605469 48.132812 67.382812 48.792969 67.636719 49.703125 Z M 67.636719 49.703125 "/>
<path style="fill:none;stroke-width:2;stroke-linecap:butt;stroke-linejoin:miter;stroke:rgb(31.764706%,15.294118%,12.156863%);stroke-opacity:1;stroke-miterlimit:10;" d="M 497.898062 230.993254 C 492.074692 239.486949 473.074717 253.872224 441.506792 248.569802 " transform="matrix(0.237459,0,0,0.238688,0,0.0209147)"/>
<path style=" stroke:none;fill-rule:nonzero;fill:rgb(21.960784%,21.960784%,21.960784%);fill-opacity:1;" d="M 113.339844 101.28125 C 112.027344 103.828125 113.359375 107.390625 116.804688 109.1875 C 120.253906 110.980469 125.117188 110.394531 126.441406 107.847656 C 127.765625 105.296875 125.757812 102.003906 122.308594 100.207031 C 118.859375 98.414062 114.65625 98.726562 113.339844 101.28125 Z M 113.339844 101.28125 "/>
<path style=" stroke:none;fill-rule:nonzero;fill:rgb(21.960784%,21.960784%,21.960784%);fill-opacity:1;" d="M 129.652344 101.339844 C 129.570312 103.179688 128.226562 107.039062 126.453125 107.847656 L 125.355469 102.59375 C 125.355469 102.59375 128.171875 101.402344 128.707031 100.992188 C 129.242188 100.582031 129.652344 100.984375 129.652344 101.339844 Z M 129.652344 101.339844 "/>
<path style=" stroke:none;fill-rule:nonzero;fill:rgb(21.960784%,21.960784%,21.960784%);fill-opacity:1;" d="M 119.84375 99.910156 C 119.84375 99.910156 118.109375 95.984375 117.8125 94.917969 C 117.515625 93.847656 116.386719 94.4375 115.800781 95.394531 C 115.210938 96.347656 114.558594 99.566406 114.675781 100.808594 Z M 119.84375 99.910156 "/>
<path style=" stroke:none;fill-rule:nonzero;fill:rgb(2.745098%,2.745098%,2.745098%);fill-opacity:1;" d="M 122.648438 106.59375 C 122.808594 106.597656 122.96875 106.570312 123.121094 106.515625 C 123.1875 106.488281 123.21875 106.410156 123.195312 106.34375 C 123.167969 106.277344 123.09375 106.246094 123.027344 106.273438 C 122.609375 106.386719 122.160156 106.328125 121.785156 106.117188 C 121.492188 105.980469 121.273438 105.722656 121.191406 105.414062 C 121.171875 105.34375 121.105469 105.300781 121.035156 105.316406 C 121.003906 105.324219 120.972656 105.34375 120.953125 105.371094 C 120.9375 105.398438 120.929688 105.433594 120.9375 105.46875 C 121.035156 105.855469 121.300781 106.175781 121.664062 106.34375 C 121.964844 106.507812 122.304688 106.59375 122.648438 106.59375 Z M 122.648438 106.59375 "/>
<path style=" stroke:none;fill-rule:nonzero;fill:rgb(2.745098%,2.745098%,2.745098%);fill-opacity:1;" d="M 117.226562 103.539062 C 117.375 103.539062 117.523438 103.519531 117.664062 103.484375 C 117.699219 103.476562 117.726562 103.457031 117.746094 103.425781 C 117.761719 103.398438 117.765625 103.363281 117.757812 103.328125 C 117.75 103.296875 117.730469 103.265625 117.699219 103.25 C 117.671875 103.230469 117.636719 103.226562 117.601562 103.234375 C 116.855469 103.4375 116.074219 103.039062 115.804688 102.308594 C 115.792969 102.277344 115.769531 102.25 115.738281 102.234375 C 115.707031 102.21875 115.671875 102.214844 115.640625 102.226562 C 115.609375 102.238281 115.582031 102.261719 115.566406 102.292969 C 115.550781 102.320312 115.546875 102.355469 115.558594 102.390625 C 115.808594 103.097656 116.480469 103.5625 117.226562 103.539062 Z M 117.226562 103.539062 "/>
<path style=" stroke:none;fill-rule:nonzero;fill:rgb(10.980392%,10.980392%,10.980392%);fill-opacity:1;" d="M 116.980469 105.417969 C 116.839844 105.65625 117.019531 106.03125 117.378906 106.238281 C 117.738281 106.445312 118.148438 106.417969 118.289062 106.171875 C 118.429688 105.925781 118.25 105.5625 117.890625 105.351562 C 117.527344 105.140625 117.121094 105.171875 116.980469 105.417969 Z M 116.980469 105.417969 "/>
<path style=" stroke:none;fill-rule:nonzero;fill:rgb(21.960784%,21.960784%,21.960784%);fill-opacity:1;" d="M 125.042969 107.847656 C 126.429688 110.214844 127.273438 111.140625 128.734375 111.902344 C 130.199219 112.667969 135.738281 117.15625 137.972656 124.046875 C 140.203125 130.941406 137.816406 140.214844 135.277344 142.613281 C 132.734375 145.011719 126.804688 145.714844 123.078125 145.394531 C 119.347656 145.078125 111.5 144.234375 108.652344 144.777344 C 105.804688 145.320312 102.953125 146.09375 101.726562 148.570312 C 100.496094 151.042969 97.800781 149.960938 98.1875 147.484375 C 98.570312 145.007812 99.800781 143 104.496094 142.148438 C 109.191406 141.296875 114.730469 141.144531 114.730469 141.144531 C 112.117188 137.429688 113.714844 133.640625 115.375 131.9375 C 117.039062 130.238281 118.410156 129.773438 118.410156 129.773438 C 118.410156 129.773438 119.078125 127.386719 117.636719 122.269531 C 116.195312 117.15625 114.097656 111.695312 115.375 107.160156 Z M 125.042969 107.847656 "/>
<path style=" stroke:none;fill-rule:nonzero;fill:rgb(2.745098%,2.745098%,2.745098%);fill-opacity:1;" d="M 117.898438 107.976562 C 118.09375 107.976562 118.285156 107.941406 118.464844 107.867188 C 118.527344 107.835938 118.554688 107.761719 118.527344 107.695312 C 118.515625 107.664062 118.488281 107.640625 118.457031 107.628906 C 118.421875 107.613281 118.386719 107.617188 118.355469 107.632812 C 118.011719 107.761719 117.625 107.742188 117.296875 107.574219 C 117.132812 107.492188 117.019531 107.335938 116.996094 107.152344 L 116.980469 107.003906 L 116.835938 107.042969 C 116.464844 107.121094 116.078125 107.011719 115.800781 106.746094 C 115.605469 106.59375 115.496094 106.351562 115.511719 106.101562 C 115.523438 106.03125 115.476562 105.964844 115.40625 105.957031 C 115.335938 105.945312 115.269531 105.992188 115.257812 106.0625 C 115.226562 106.398438 115.367188 106.726562 115.625 106.9375 C 115.933594 107.230469 116.351562 107.367188 116.769531 107.320312 C 116.832031 107.523438 116.976562 107.695312 117.167969 107.796875 C 117.390625 107.917969 117.644531 107.976562 117.898438 107.976562 Z M 117.898438 107.976562 "/>
<path style=" stroke:none;fill-rule:nonzero;fill:rgb(2.745098%,2.745098%,2.745098%);fill-opacity:1;" d="M 116.75 107.09375 L 117.261719 106.164062 L 117.488281 106.289062 L 116.976562 107.21875 Z M 116.75 107.09375 "/>
<path style=" stroke:none;fill-rule:nonzero;fill:rgb(2.745098%,2.745098%,2.745098%);fill-opacity:1;" d="M 118.453125 129.902344 C 119.949219 129.359375 121.136719 128.96875 121.917969 128.710938 C 122.332031 128.589844 122.742188 128.441406 123.140625 128.273438 L 123.011719 128.046875 C 122.625 128.207031 122.230469 128.34375 121.824219 128.464844 C 121.042969 128.722656 119.859375 129.117188 118.355469 129.65625 Z M 118.453125 129.902344 "/>
<path style=" stroke:none;fill-rule:nonzero;fill:rgb(2.745098%,2.745098%,2.745098%);fill-opacity:1;" d="M 118.441406 141.5625 C 120.84375 141.5625 121.894531 141.066406 122.789062 140.644531 L 122.679688 140.40625 C 121.449219 140.984375 119.917969 141.710938 114.746094 141.011719 L 114.714844 141.269531 C 115.949219 141.449219 117.191406 141.546875 118.441406 141.5625 Z M 118.441406 141.5625 "/>
<path style=" stroke:none;fill-rule:nonzero;fill:rgb(2.745098%,2.745098%,2.745098%);fill-opacity:1;" d="M 119.824219 110.261719 L 119.867188 110.007812 C 117.410156 109.582031 116.695312 109.050781 115.515625 108.191406 L 115.335938 108.0625 L 115.183594 108.273438 L 115.363281 108.402344 C 116.53125 109.257812 117.304688 109.816406 119.824219 110.261719 Z M 119.824219 110.261719 "/>
</g>
</svg>
