<?xml version="1.0" encoding="UTF-8"?>
<svg xmlns="http://www.w3.org/2000/svg"  width="169px" height="150px" viewBox="0 0 165 150" version="1.1">
<g id="surface1">
<path style=" stroke:none;fill-rule:nonzero;fill:rgb(100%,80.392157%,63.921569%);fill-opacity:1;" d="M 130.785156 131.996094 C 130.066406 131.996094 129.449219 131.378906 129.449219 130.660156 L 129.449219 124.28125 C 129.554688 123.558594 130.167969 122.941406 130.992188 123.046875 C 131.707031 123.148438 132.222656 123.664062 132.222656 124.28125 L 132.222656 130.660156 C 132.222656 131.378906 131.605469 131.996094 130.785156 131.996094 Z M 130.785156 131.996094 "/>
<path style=" stroke:none;fill-rule:nonzero;fill:rgb(100%,80.392157%,63.921569%);fill-opacity:1;" d="M 130.992188 135.289062 C 131.8125 134.15625 132.324219 132.820312 132.324219 131.378906 C 132.222656 130.042969 131.8125 128.804688 131.09375 127.777344 C 130.992188 127.570312 130.886719 127.46875 130.683594 127.367188 C 130.375 127.261719 130.167969 127.367188 129.964844 127.570312 C 128.734375 128.394531 128.320312 130.042969 127.191406 130.96875 C 126.679688 131.378906 126.0625 131.6875 125.449219 131.996094 C 123.292969 133.332031 121.960938 135.597656 121.753906 138.167969 C 121.753906 138.476562 121.550781 139.609375 121.855469 139.816406 C 122.164062 140.019531 123.292969 139.816406 123.703125 139.710938 C 125.039062 139.507812 126.269531 139.09375 127.398438 138.375 C 128.9375 137.65625 130.066406 136.523438 130.992188 135.289062 Z M 130.992188 135.289062 "/>
<path style=" stroke:none;fill-rule:nonzero;fill:rgb(100%,80.392157%,63.921569%);fill-opacity:1;" d="M 117.648438 130.863281 C 105.128906 131.070312 94.457031 129.527344 80.910156 128.292969 C 74.75 118.3125 72.492188 106.378906 74.445312 94.855469 C 76.496094 84.464844 60.589844 80.042969 58.640625 90.433594 C 55.5625 106.277344 58.949219 126.75 71.058594 138.582031 C 75.164062 142.59375 82.449219 141.050781 87.578125 140.945312 C 97.84375 140.742188 108.105469 140.535156 118.46875 140.433594 C 129.039062 140.328125 128.21875 130.761719 117.648438 130.863281 Z M 117.648438 130.863281 "/>
<path style=" stroke:none;fill-rule:nonzero;fill:rgb(44.313725%,28.627451%,26.27451%);fill-opacity:1;" d="M 86.554688 40.742188 C 84.5 38.582031 82.960938 35.90625 82.242188 33.023438 C 80.601562 27.570312 82.449219 23.25 81.21875 18.828125 C 79.679688 12.964844 74.546875 8.640625 69.003906 6.585938 C 67.773438 6.070312 66.4375 5.761719 65.105469 5.453125 C 64.488281 4.9375 63.875 4.425781 63.257812 4.011719 L 63.257812 3.910156 C 59.460938 0.824219 54.535156 -0.515625 49.710938 0.308594 C 44.886719 1.132812 40.679688 4.113281 38.21875 8.332031 C 37.292969 9.980469 36.574219 11.726562 35.136719 13.066406 C 31.957031 15.945312 26.210938 15.125 24.054688 18.828125 C 22.925781 20.988281 23.542969 23.765625 22.308594 25.925781 C 20.976562 28.496094 17.589844 28.496094 14.820312 29.425781 C 8.867188 31.480469 9.277344 36.933594 10.609375 40.125 C 11.433594 43.003906 11.84375 45.988281 11.738281 48.972656 C 11.738281 51.234375 11.226562 53.496094 10.507812 55.660156 C 9.070312 59.054688 6.09375 61.417969 3.734375 64.199219 C 1.375 66.976562 -0.675781 70.574219 0.246094 74.175781 C 1.992188 80.554688 11.125 81.070312 14.714844 86.523438 C 16.667969 89.402344 16.5625 93.210938 17.078125 96.707031 C 19.4375 111.109375 35.445312 121.296875 49.09375 117.285156 C 60.589844 113.890625 68.285156 101.132812 67.363281 89.09375 C 72.289062 85.289062 75.574219 79.835938 76.703125 73.664062 C 77.316406 70.164062 77.214844 66.460938 79.0625 63.476562 C 82.652344 58.023438 88.296875 57.097656 89.941406 50.824219 C 91.070312 47.121094 89.015625 43.414062 86.554688 40.742188 Z M 86.554688 40.742188 "/>
<path style=" stroke:none;fill-rule:nonzero;fill:rgb(100%,48.235294%,67.45098%);fill-opacity:1;" d="M 73.621094 149.691406 C 73.621094 149.589844 75.878906 88.890625 72.699219 87.140625 C 72.082031 86.109375 71.363281 85.082031 70.75 84.054688 C 54.84375 66.152344 39.449219 69.957031 29.289062 76.441406 C 18.511719 80.042969 21.179688 109.773438 21.179688 109.773438 C 23.132812 118.929688 24.15625 128.292969 24.464844 137.757812 C 24.671875 141.5625 24.363281 145.371094 23.644531 149.175781 "/>
<path style=" stroke:none;fill-rule:nonzero;fill:rgb(100%,80.392157%,63.921569%);fill-opacity:1;" d="M 70.648438 107.304688 C 70.339844 103.703125 70.953125 100 72.492188 96.707031 C 73.316406 94.957031 74.648438 93.105469 76.597656 92.902344 C 78.550781 92.695312 80.191406 94.238281 81.21875 95.78125 C 82.449219 97.53125 83.371094 99.382812 84.191406 101.234375 C 84.5 101.953125 84.707031 102.777344 84.707031 103.601562 C 84.707031 104.734375 84.191406 105.761719 83.476562 106.585938 C 81.113281 108.847656 76.085938 109.773438 73.929688 110.699219 C 69.621094 112.449219 71.058594 111.726562 70.648438 107.304688 Z M 70.648438 107.304688 "/>
<path style=" stroke:none;fill-rule:nonzero;fill:rgb(100%,80.392157%,63.921569%);fill-opacity:1;" d="M 77.832031 100 L 88.503906 94.445312 C 89.222656 93.828125 89.324219 92.796875 88.8125 92.179688 C 88.402344 91.667969 87.683594 91.460938 87.066406 91.667969 L 76.394531 97.222656 C 75.675781 97.738281 75.46875 98.765625 75.984375 99.484375 C 76.292969 100 77.113281 100.308594 77.832031 100 Z M 77.832031 100 "/>
<path style=" stroke:none;fill-rule:nonzero;fill:rgb(100%,80.392157%,63.921569%);fill-opacity:1;" d="M 76.804688 104.21875 L 87.992188 99.792969 C 88.707031 99.484375 89.121094 98.558594 88.707031 97.839844 C 88.402344 97.121094 87.578125 96.8125 86.863281 97.015625 L 75.675781 101.441406 C 74.957031 101.75 74.546875 102.675781 74.957031 103.394531 C 75.265625 104.21875 76.085938 104.527344 76.804688 104.21875 Z M 76.804688 104.21875 "/>
<path style=" stroke:none;fill-rule:nonzero;fill:rgb(100%,80.392157%,63.921569%);fill-opacity:1;" d="M 75.574219 108.949219 L 86.757812 104.527344 C 87.578125 104.21875 87.886719 103.394531 87.683594 102.570312 C 87.375 101.75 86.554688 101.441406 85.734375 101.644531 C 85.734375 101.644531 85.628906 101.644531 85.628906 101.644531 L 74.445312 106.070312 C 73.621094 106.378906 73.210938 107.203125 73.519531 107.921875 C 73.828125 108.640625 74.648438 109.15625 75.367188 108.847656 C 75.46875 109.054688 75.46875 109.054688 75.574219 108.949219 Z M 75.574219 108.949219 "/>
<path style=" stroke:none;fill-rule:nonzero;fill:rgb(100%,80.392157%,63.921569%);fill-opacity:1;" d="M 70.648438 101.542969 C 71.570312 101.953125 72.597656 101.542969 72.90625 100.617188 L 78.035156 88.375 C 78.34375 87.449219 77.832031 86.417969 76.90625 86.109375 C 76.085938 85.800781 75.164062 86.214844 74.75 86.933594 L 69.621094 99.175781 C 69.3125 100.101562 69.722656 101.132812 70.648438 101.542969 C 70.542969 101.542969 70.542969 101.542969 70.648438 101.542969 Z M 70.648438 101.542969 "/>
<path style=" stroke:none;fill-rule:nonzero;fill:rgb(100%,80.392157%,63.921569%);fill-opacity:1;" d="M 69.824219 100.308594 C 59.460938 107.714844 42.324219 116.359375 30.109375 122.941406 C 29.1875 123.457031 28.058594 123.046875 27.542969 122.121094 C 27.339844 121.707031 27.238281 121.296875 27.339844 120.886719 C 29.496094 110.90625 33.804688 98.765625 36.164062 89.710938 C 38.832031 79.425781 23.027344 75.101562 20.359375 85.390625 C 16.253906 101.132812 13.691406 112.550781 13.585938 131.070312 C 13.484375 138.375 21.078125 142.488281 27.953125 139.199219 C 45.605469 130.761719 58.230469 120.886719 74.136719 109.671875 C 82.652344 103.496094 78.445312 94.136719 69.824219 100.308594 Z M 69.824219 100.308594 "/>
<path style=" stroke:none;fill-rule:nonzero;fill:rgb(100%,80.392157%,63.921569%);fill-opacity:1;" d="M 50.019531 29.113281 C 60.898438 30.351562 71.878906 24.382812 76.496094 21.503906 C 78.136719 25.925781 77.214844 28.292969 74.855469 43.3125 C 74.546875 46.8125 65.617188 61.316406 55.765625 58.023438 C 49.402344 55.96875 43.964844 48.972656 43.449219 42.488281 C 48.789062 36.832031 49.917969 31.996094 50.019531 29.113281 Z M 50.019531 29.113281 "/>
<path style=" stroke:none;fill-rule:nonzero;fill:rgb(100%,80.392157%,63.921569%);fill-opacity:1;" d="M 39.347656 71.195312 L 40.886719 57.820312 C 44.167969 62.550781 53.714844 61.417969 55.5625 59.15625 L 53.714844 73.25 C 64.285156 81.480469 56.382812 93.519531 43.554688 81.996094 C 38.421875 77.367188 38.320312 73.457031 39.347656 71.195312 Z M 39.347656 71.195312 "/>
<path style=" stroke:none;fill-rule:nonzero;fill:rgb(100%,65.490196%,50.196078%);fill-opacity:1;" d="M 40.886719 57.820312 C 40.988281 56.6875 41.398438 53.910156 41.5 52.777344 L 42.628906 43.210938 L 43.347656 42.488281 C 43.863281 48.972656 49.402344 55.96875 55.664062 58.023438 C 55.664062 58.128906 55.5625 58.949219 55.5625 59.054688 C 53.816406 61.316406 44.375 62.550781 40.886719 57.820312 Z M 40.886719 57.820312 "/>
<path style=" stroke:none;fill-rule:nonzero;fill:rgb(100%,65.490196%,50.196078%);fill-opacity:1;" d="M 42.9375 37.859375 C 43.347656 34.363281 43.347656 34.566406 43.757812 30.554688 C 38.832031 25.824219 37.089844 37.550781 42.9375 37.859375 Z M 42.9375 37.859375 "/>
<path style=" stroke:none;fill-rule:nonzero;fill:rgb(44.313725%,28.627451%,26.27451%);fill-opacity:1;" d="M 53.40625 26.75 C 54.433594 24.28125 62.230469 25.207031 62.640625 27.878906 C 62.746094 27.777344 62.746094 27.570312 62.746094 27.367188 C 63.875 24.28125 53.097656 22.632812 53.507812 26.234375 C 53.40625 26.441406 53.40625 26.542969 53.40625 26.75 Z M 53.40625 26.75 "/>
<path style=" stroke:none;fill-rule:nonzero;fill:rgb(44.313725%,28.627451%,26.27451%);fill-opacity:1;" d="M 68.285156 28.496094 C 69.3125 26.027344 77.113281 26.953125 77.523438 29.628906 C 77.625 29.527344 77.625 29.320312 77.625 29.113281 C 77.832031 28.496094 77.523438 27.777344 77.007812 27.46875 C 73.316406 24.792969 68.183594 26.027344 68.390625 27.984375 C 68.285156 28.1875 68.183594 28.394531 68.285156 28.496094 Z M 68.285156 28.496094 "/>
<path style=" stroke:none;fill-rule:nonzero;fill:rgb(100%,65.490196%,50.196078%);fill-opacity:1;" d="M 61.511719 41.976562 L 64.898438 42.386719 L 63.769531 33.949219 C 63.769531 33.4375 64.179688 33.023438 64.695312 33.023438 C 65.105469 33.023438 65.515625 33.332031 65.617188 33.746094 C 65.617188 34.054688 66.953125 42.902344 66.851562 43.210938 C 66.953125 44.648438 64.59375 43.828125 61.410156 43.414062 C 60.488281 43.3125 60.589844 41.871094 61.511719 41.976562 Z M 61.511719 41.976562 "/>
<path style=" stroke:none;fill-rule:nonzero;fill:rgb(44.313725%,28.627451%,26.27451%);fill-opacity:1;" d="M 54.738281 30.351562 C 54.738281 30.351562 55.046875 30.863281 56.484375 30.96875 C 57.714844 30.351562 58.84375 31.6875 58.640625 33.128906 C 58.230469 36.726562 53.816406 34.671875 55.765625 31.6875 C 55.457031 31.585938 54.945312 31.378906 54.738281 30.351562 Z M 54.738281 30.351562 "/>
<path style=" stroke:none;fill-rule:nonzero;fill:rgb(44.313725%,28.627451%,26.27451%);fill-opacity:1;" d="M 73.109375 32.921875 C 74.648438 33.230469 75.058594 32.820312 75.058594 32.820312 C 74.546875 33.847656 73.828125 33.847656 73.726562 33.847656 C 74.339844 35.492188 73.210938 37.140625 71.980469 36.933594 C 70.953125 36.625 70.339844 35.597656 70.648438 34.566406 C 70.75 33.128906 72.082031 32.097656 73.109375 32.921875 Z M 73.109375 32.921875 "/>
<path style=" stroke:none;fill-rule:nonzero;fill:rgb(100%,100%,100%);fill-opacity:1;" d="M 55.5625 45.574219 C 55.664062 49.28125 64.179688 50.308594 65.105469 46.707031 Z M 55.5625 45.574219 "/>
<path style=" stroke:none;fill-rule:nonzero;fill:rgb(32.941176%,16.078431%,22.745098%);fill-opacity:1;" d="M 88.605469 123.867188 C 88.707031 133.640625 98.046875 141.460938 109.644531 141.460938 C 121.242188 141.460938 130.578125 133.640625 130.683594 123.867188 Z M 88.605469 123.867188 "/>
<path style=" stroke:none;fill-rule:nonzero;fill:rgb(60.784314%,31.372549%,43.529412%);fill-opacity:1;" d="M 130.683594 123.972656 C 130.683594 125.207031 121.242188 126.234375 109.644531 126.234375 C 98.046875 126.234375 88.605469 125.207031 88.605469 123.972656 C 88.605469 122.738281 98.046875 121.707031 109.644531 121.707031 C 121.242188 121.707031 130.683594 122.738281 130.683594 123.972656 Z M 130.683594 123.972656 "/>
<path style=" stroke:none;fill-rule:nonzero;fill:rgb(100%,81.568627%,31.372549%);fill-opacity:1;" d="M 109.4375 125.71875 C 99.382812 125.71875 91.273438 124.898438 91.273438 123.765625 C 91.273438 122.632812 99.585938 122.121094 109.542969 122.121094 C 119.496094 122.121094 127.5 122.738281 127.5 123.765625 C 127.5 124.792969 119.394531 125.71875 109.4375 125.71875 Z M 109.4375 125.71875 "/>
<path style=" stroke:none;fill-rule:nonzero;fill:rgb(100%,91.764706%,32.156863%);fill-opacity:1;" d="M 118.878906 123.558594 C 118.878906 123.765625 118.058594 123.765625 116.929688 123.765625 C 115.800781 123.765625 114.980469 123.765625 114.980469 123.558594 C 114.980469 123.355469 115.800781 123.148438 116.929688 123.148438 C 118.058594 123.148438 118.878906 123.25 118.878906 123.558594 Z M 118.878906 123.558594 "/>
<path style=" stroke:none;fill-rule:nonzero;fill:rgb(100%,91.764706%,32.156863%);fill-opacity:1;" d="M 108.308594 124.382812 C 108.308594 124.898438 106.464844 124.898438 104.207031 124.898438 C 101.949219 124.898438 100.101562 124.898438 100.101562 124.382812 C 100.101562 123.867188 101.949219 123.457031 104.207031 123.457031 C 106.464844 123.457031 108.308594 123.867188 108.308594 124.382812 Z M 108.308594 124.382812 "/>
<path style=" stroke:none;fill-rule:nonzero;fill:rgb(100%,91.764706%,32.156863%);fill-opacity:1;" d="M 114.058594 124.898438 C 114.058594 125.101562 113.234375 125.101562 112.105469 125.101562 C 110.976562 125.101562 110.15625 125.101562 110.15625 124.898438 C 110.15625 124.691406 110.976562 124.484375 112.105469 124.484375 C 113.234375 124.484375 114.058594 124.691406 114.058594 124.898438 Z M 114.058594 124.898438 "/>
<path style=" stroke:none;fill-rule:nonzero;fill:rgb(92.941176%,39.215686%,39.215686%);fill-opacity:1;" d="M 107.695312 123.355469 C 107.796875 123.355469 107.898438 123.355469 107.898438 123.355469 C 108.003906 123.355469 108.003906 123.355469 107.898438 123.355469 L 107.796875 123.046875 C 107.796875 123.046875 107.796875 123.046875 107.695312 123.046875 L 107.488281 123.046875 C 106.359375 122.941406 104.617188 122.839844 104.207031 123.148438 C 103.792969 123.457031 106.667969 123.355469 107.695312 123.355469 Z M 107.695312 123.355469 "/>
<path style=" stroke:none;fill-rule:nonzero;fill:rgb(92.941176%,39.215686%,39.215686%);fill-opacity:1;" d="M 112.414062 123.148438 C 112.519531 123.148438 112.519531 123.148438 112.621094 123.148438 L 114.46875 123.046875 C 114.261719 123.046875 114.160156 122.941406 113.953125 122.839844 L 113.851562 122.839844 C 112.824219 122.839844 112.3125 122.941406 112.414062 123.148438 Z M 112.414062 123.148438 "/>
<path style=" stroke:none;fill-rule:nonzero;fill:rgb(92.941176%,39.215686%,39.215686%);fill-opacity:1;" d="M 118.058594 123.972656 C 118.367188 123.972656 118.574219 123.972656 118.878906 123.972656 C 118.675781 123.867188 118.574219 123.765625 118.46875 123.558594 C 118.367188 123.355469 117.957031 123.355469 117.035156 123.355469 C 116.519531 123.355469 115.90625 123.457031 115.390625 123.558594 C 115.1875 123.664062 114.980469 123.867188 115.390625 123.972656 C 115.800781 124.074219 117.546875 123.972656 118.058594 123.972656 Z M 118.058594 123.972656 "/>
<path style=" stroke:none;fill-rule:nonzero;fill:rgb(92.941176%,39.215686%,39.215686%);fill-opacity:1;" d="M 110.363281 124.792969 C 110.464844 124.792969 110.671875 124.898438 110.773438 124.898438 C 110.875 124.898438 111.082031 124.898438 111.183594 124.898438 L 113.03125 124.691406 L 112.003906 124.382812 L 111.800781 124.382812 C 111.695312 124.382812 111.492188 124.382812 111.390625 124.382812 C 110.773438 124.382812 110.261719 124.484375 109.644531 124.589844 C 109.542969 124.484375 110.15625 124.691406 110.363281 124.792969 Z M 110.363281 124.792969 "/>
<path style=" stroke:none;fill-rule:nonzero;fill:rgb(92.941176%,39.215686%,39.215686%);fill-opacity:1;" d="M 106.15625 124.074219 L 106.667969 124.28125 L 106.875 124.28125 L 108.105469 124.175781 L 108.207031 124.175781 L 107.59375 123.972656 C 107.179688 124.074219 106.667969 124.074219 106.257812 124.175781 Z M 106.15625 124.074219 "/>
<path style=" stroke:none;fill-rule:nonzero;fill:rgb(92.941176%,39.215686%,39.215686%);fill-opacity:1;" d="M 104.207031 123.664062 L 104.207031 123.765625 L 105.4375 123.765625 C 105.335938 123.664062 105.335938 123.664062 105.230469 123.558594 L 105.128906 123.558594 C 105.027344 123.558594 105.027344 123.558594 104.921875 123.558594 Z M 104.207031 123.664062 "/>
<path style=" stroke:none;fill-rule:nonzero;fill:rgb(92.941176%,39.215686%,39.215686%);fill-opacity:1;" d="M 102.050781 124.589844 L 102.460938 124.691406 L 102.871094 124.691406 L 103.488281 124.589844 C 103.589844 124.589844 103.589844 124.589844 103.589844 124.589844 C 103.589844 124.589844 103.589844 124.589844 103.488281 124.589844 L 102.871094 124.484375 C 102.5625 124.484375 102.253906 124.589844 102.050781 124.589844 Z M 102.050781 124.589844 "/>
<path style=" stroke:none;fill-rule:nonzero;fill:rgb(92.941176%,39.215686%,39.215686%);fill-opacity:1;" d="M 105.539062 124.589844 C 105.4375 124.589844 105.640625 124.691406 105.746094 124.691406 C 105.847656 124.691406 106.050781 124.691406 106.15625 124.691406 L 106.464844 124.691406 L 106.050781 124.589844 L 105.4375 124.589844 Z M 105.539062 124.589844 "/>
<path style=" stroke:none;fill-rule:nonzero;fill:rgb(92.941176%,39.215686%,39.215686%);fill-opacity:1;" d="M 114.777344 124.792969 L 115.390625 125 L 115.492188 125 C 115.597656 125 115.597656 125 115.699219 125 L 116.828125 124.898438 C 116.621094 124.898438 116.316406 124.792969 116.109375 124.691406 C 116.109375 124.691406 116.109375 124.691406 116.007812 124.691406 L 115.800781 124.691406 Z M 114.777344 124.792969 "/>
<path style=" stroke:none;fill-rule:nonzero;fill:rgb(75.686275%,74.901961%,75.294118%);fill-opacity:1;" d="M 96.714844 90.742188 C 96.304688 90.636719 95.890625 90.636719 95.378906 90.535156 C 92.8125 90.125 90.144531 89.609375 87.476562 89.09375 C 86.144531 88.890625 84.707031 88.785156 83.371094 88.785156 C 81.9375 88.890625 80.5 89.199219 79.164062 89.710938 C 76.597656 90.84375 74.238281 92.386719 72.082031 94.238281 L 71.980469 94.339844 C 71.363281 94.855469 71.261719 95.886719 71.777344 96.503906 C 72.289062 97.121094 73.316406 97.222656 73.929688 96.707031 C 74.035156 96.707031 74.035156 96.605469 74.136719 96.503906 C 75.878906 94.648438 77.832031 93.105469 79.984375 91.871094 C 81.011719 91.359375 82.242188 90.945312 83.371094 90.742188 C 84.605469 90.535156 85.9375 90.535156 87.167969 90.636719 C 89.835938 90.84375 92.402344 91.050781 95.070312 91.253906 C 95.480469 91.253906 95.996094 91.253906 96.40625 91.359375 Z M 96.714844 90.742188 "/>
<path style=" stroke:none;fill-rule:nonzero;fill:rgb(100%,80.392157%,63.921569%);fill-opacity:1;" d="M 85.734375 90.84375 C 85.320312 90.125 84.398438 89.816406 83.679688 90.226562 L 78.136719 93.210938 C 78.960938 93.828125 79.472656 94.753906 79.679688 95.78125 L 85.015625 92.902344 C 85.835938 92.488281 86.039062 91.5625 85.734375 90.84375 Z M 85.734375 90.84375 "/>
<path style=" stroke:none;fill-rule:nonzero;fill:rgb(65.882353%,65.882353%,65.882353%);fill-opacity:1;" d="M 100.921875 91.976562 C 97.945312 91.976562 95.480469 91.5625 95.480469 90.945312 C 95.480469 92.695312 97.945312 94.136719 100.921875 94.136719 C 103.898438 94.136719 106.359375 92.695312 106.359375 90.945312 C 106.464844 91.460938 104 91.976562 100.921875 91.976562 Z M 100.921875 91.976562 "/>
<path style=" stroke:none;fill-rule:nonzero;fill:rgb(75.686275%,74.901961%,75.294118%);fill-opacity:1;" d="M 106.464844 90.945312 C 106.464844 90.328125 104 89.917969 101.023438 89.917969 C 98.046875 89.917969 95.585938 90.328125 95.585938 90.945312 C 95.585938 91.5625 98.046875 91.976562 101.023438 91.976562 C 104 91.976562 106.464844 91.460938 106.464844 90.945312 Z M 106.464844 90.945312 "/>
<path style=" stroke:none;fill-rule:nonzero;fill:rgb(100%,81.568627%,31.372549%);fill-opacity:1;" d="M 101.125 91.667969 C 98.457031 91.667969 96.40625 91.359375 96.40625 90.945312 C 96.40625 90.535156 98.5625 90.328125 101.230469 90.328125 C 103.898438 90.328125 105.949219 90.535156 105.949219 90.945312 C 105.949219 91.359375 103.792969 91.667969 101.125 91.667969 Z M 101.125 91.667969 "/>
<path style=" stroke:none;fill-rule:nonzero;fill:rgb(100%,91.764706%,32.156863%);fill-opacity:1;" d="M 100.820312 91.050781 C 100.820312 91.253906 100.304688 91.253906 99.691406 91.253906 C 99.074219 91.253906 98.5625 91.253906 98.5625 91.050781 C 98.5625 90.84375 99.074219 90.742188 99.691406 90.742188 C 100.304688 90.742188 100.820312 90.84375 100.820312 91.050781 Z M 100.820312 91.050781 "/>
<path style=" stroke:none;fill-rule:nonzero;fill:rgb(100%,80.392157%,63.921569%);fill-opacity:1;" d="M 128.21875 130.761719 L 121.960938 130.144531 C 121.34375 130.042969 120.726562 130.453125 120.625 131.070312 L 120.625 131.378906 C 120.625 131.996094 121.035156 132.511719 121.652344 132.613281 L 127.910156 133.230469 C 128.527344 133.332031 129.144531 132.921875 129.246094 132.304688 L 129.246094 131.996094 C 129.246094 131.378906 128.835938 130.761719 128.21875 130.761719 Z M 128.21875 130.761719 "/>
<path style=" stroke:none;fill-rule:nonzero;fill:rgb(100%,80.392157%,63.921569%);fill-opacity:1;" d="M 120.007812 134.363281 L 120.007812 134.054688 C 120.113281 133.4375 120.625 133.023438 121.242188 133.128906 L 126.78125 133.746094 C 127.398438 133.847656 127.808594 134.363281 127.707031 134.980469 L 127.707031 135.289062 C 127.605469 135.90625 127.089844 136.316406 126.476562 136.214844 L 120.933594 135.597656 C 120.316406 135.492188 119.90625 134.980469 120.007812 134.363281 Z M 120.007812 134.363281 "/>
<path style=" stroke:none;fill-rule:nonzero;fill:rgb(100%,80.392157%,63.921569%);fill-opacity:1;" d="M 129.347656 127.777344 L 125.039062 127.367188 C 124.320312 127.261719 123.5 127.675781 123.292969 128.496094 C 123.191406 129.21875 123.804688 129.734375 124.628906 129.835938 L 128.9375 130.246094 C 129.65625 130.351562 130.375 129.9375 130.683594 129.21875 C 130.785156 128.496094 130.167969 127.878906 129.347656 127.777344 Z M 129.347656 127.777344 "/>
<path style=" stroke:none;fill-rule:nonzero;fill:rgb(100%,80.392157%,63.921569%);fill-opacity:1;" d="M 125.039062 136.523438 L 121.445312 136.109375 C 120.726562 136.007812 120.113281 136.417969 120.007812 137.140625 C 119.90625 137.859375 120.316406 138.476562 121.035156 138.582031 C 121.035156 138.582031 121.136719 138.582031 121.136719 138.582031 L 124.730469 138.992188 C 125.449219 139.09375 126.0625 138.683594 126.167969 137.964844 C 126.269531 137.242188 125.859375 136.625 125.140625 136.523438 C 125.140625 136.523438 125.140625 136.523438 125.039062 136.523438 Z M 125.039062 136.523438 "/>
<path style=" stroke:none;fill-rule:nonzero;fill:rgb(74.901961%,33.72549%,23.921569%);fill-opacity:1;" d="M 53.917969 149.898438 L 120.933594 149.898438 C 123.394531 149.898438 125.449219 147.839844 125.449219 145.371094 C 125.449219 142.902344 123.394531 140.84375 120.933594 140.84375 L 53.917969 140.84375 C 51.457031 140.84375 49.402344 142.902344 49.402344 145.371094 C 49.402344 147.839844 51.457031 149.898438 53.917969 149.898438 Z M 53.917969 149.898438 "/>
<path style=" stroke:none;fill-rule:nonzero;fill:rgb(85.882353%,47.843137%,30.980392%);fill-opacity:1;" d="M 96.917969 149.898438 L 160.339844 149.898438 C 162.804688 149.898438 164.855469 147.839844 164.855469 145.371094 C 164.855469 142.902344 162.804688 140.84375 160.339844 140.84375 L 96.917969 140.84375 C 94.457031 140.84375 92.402344 142.902344 92.402344 145.371094 C 92.402344 147.839844 94.457031 149.898438 96.917969 149.898438 Z M 96.917969 149.898438 "/>
</g>
</svg>
