<svg xmlns="http://www.w3.org/2000/svg" xmlns:xlink="http://www.w3.org/1999/xlink" width="90" height="92"><defs><clipPath id="b"><path d="M0 0h90v92H0z"/></clipPath><clipPath id="c"><path d="M0 0h90v92H0z"/></clipPath><mask id="e"><g filter="url(#a)"><path d="M0 0h90v92H0z" style="fill:#000;fill-opacity:.4;stroke:none"/></g></mask><mask id="g"><g filter="url(#a)"><path d="M0 0h90v92H0z" style="fill:#000;fill-opacity:.4;stroke:none"/></g></mask><g id="d" clip-path="url(#b)"><path d="M79.176 84.86h-68.11c-2.675 0-4.863-2.18-4.863-4.844v-67.79c0-2.664 2.188-4.843 4.863-4.843H23.23c-.12 1.816-.242 4.48 0 7.629.243 5.808.485 10.168 2.797 14.886.852 1.817 2.797 5.57 7.176 8.477 4.984 3.387 10.215 3.508 12.16 3.387 1.95 0 6.325-.485 10.703-3.266 1.22-.726 4.868-3.148 7.543-7.992 2.555-4.477 2.676-8.594 3.04-14.645.242-3.632 0-6.539-.122-8.597h12.77c2.676 0 4.867 2.18 4.867 4.843v67.79c0 2.664-2.191 4.843-4.867 4.843Zm0 0" style="stroke:none;fill-rule:nonzero;fill:#eee4cf;fill-opacity:1"/></g><g id="f" clip-path="url(#c)"><path d="M28.703 13.438v11.136c2.309 7.02 8.879 11.863 16.297 11.742 7.297 0 13.863-4.843 16.176-11.742V13.195c-3.164-1.332-8.88-3.39-16.297-3.27-7.418 0-13.016 2.06-16.176 3.512Zm0 0" style="stroke:none;fill-rule:nonzero;fill:#fff;fill-opacity:1"/></g><filter id="a" width="100%" height="100%" x="0%" y="0%" filterUnits="objectBoundingBox"><feColorMatrix in="SourceGraphic" values="0 0 0 0 1 0 0 0 0 1 0 0 0 0 1 0 0 0 1 0"/></filter></defs><path d="M9.73 2.543h70.418c4.704 0 8.516 3.793 8.516 8.473v70.09c0 4.68-3.812 8.472-8.516 8.472H9.73c-4.703 0-8.515-3.793-8.515-8.473v-70.09c0-4.68 3.812-8.472 8.515-8.472Zm0 0" style="stroke:none;fill-rule:nonzero;fill:#fef6e4;fill-opacity:1"/><use xlink:href="#d" mask="url(#e)"/><path d="M27.242 13.68V25.3c2.434 7.262 9.367 12.348 17.028 12.227 7.664 0 14.472-4.965 16.906-12.226V13.438c-3.285-1.454-9.242-3.512-17.028-3.512-7.66 0-13.62 2.18-16.906 3.633Zm0 0" style="stroke:none;fill-rule:nonzero;fill:#f9f9f9;fill-opacity:1"/><use xlink:href="#f" mask="url(#g)"/><path d="M44.332 8.594c.637 0 1.156.543 1.156 1.21v8.958c0 .672-.52 1.21-1.156 1.21-.64 0-1.156-.538-1.156-1.21V9.805c0-.668.515-1.211 1.156-1.211Zm0 0" style="stroke:none;fill-rule:nonzero;fill:#aeaba5;fill-opacity:1"/><path d="m22.8 11.8 1.6 3.399M27.901 9.1l1.098 3.601M31 8.3l.1 3.7M33.701 8l.1 3.8M25.1 10.3l3.299 7.6" style="fill:none;stroke-width:1.5;stroke-linecap:round;stroke-linejoin:miter;stroke:#716b61;stroke-opacity:1;stroke-miterlimit:10" transform="scale(1.21622 1.21053)"/><path d="M44.39 27.238h2.313v9.684h-2.312Zm0 0" style="stroke:none;fill-rule:nonzero;fill:#f3f3f3;fill-opacity:1"/><path d="M43.176 26.027h2.312v10.774h-2.312Zm0 0" style="stroke:none;fill-rule:nonzero;fill:#df81a4;fill-opacity:1"/><path d="m49.899 11.8-1.6 3.399M44.901 9.1 43.799 12.7M41.798 8.3 41.6 12M39.001 8v3.8M47.699 10.3 44.3 17.9" style="fill:none;stroke-width:1.5;stroke-linecap:round;stroke-linejoin:miter;stroke:#716b61;stroke-opacity:1;stroke-miterlimit:10" transform="scale(1.21622 1.21053)"/></svg>