<svg xmlns="http://www.w3.org/2000/svg" width="71" height="92"><path d="M11.799 14.501h61.8c2.763 0 5 2.24 5 4.998V101.4a5 5 0 0 1-5 5.002h-61.8c-2.76 0-5.001-2.239-5.001-5.002V19.5a5.002 5.002 0 0 1 5-4.998Zm0 0" style="fill-rule:nonzero;fill:#fff;fill-opacity:1;stroke-width:5;stroke-linecap:butt;stroke-linejoin:miter;stroke:#323d45;stroke-opacity:1;stroke-miterlimit:10" transform="matrix(.82411 0 0 .81996 .187 0)"/><path d="M17.202 27.102H29c.554 0 1 .448 1 .996v11.8c0 .553-.446 1-1 1H17.202c-.555 0-1-.447-1-1v-11.8a.998.998 0 0 1 1-.996ZM17.202 45.9H29c.554 0 1 .448 1 1v11.801c0 .553-.446 1-1 1H17.202c-.555 0-1-.447-1-1v-11.8c0-.553.445-1 1-1ZM17.202 64.699H29c.554 0 1 .448 1 1v11.8c0 .553-.446 1.001-1 1.001H17.202c-.555 0-1-.448-1-1V65.7c0-.553.445-1.001 1-1.001ZM17.202 83.602H29c.554 0 1 .448 1 .996v11.8c0 .553-.446 1-1 1H17.202c-.555 0-1-.447-1-1v-11.8a.998.998 0 0 1 1-.996Zm0 0" style="fill:none;stroke-width:2;stroke-linecap:butt;stroke-linejoin:round;stroke:#e5e5e5;stroke-opacity:1;stroke-miterlimit:4" transform="matrix(.82411 0 0 .81996 .187 0)"/><path d="m19.401 34 2.697 2.401 5.504-5.802" style="fill:none;stroke-width:2;stroke-linecap:round;stroke-linejoin:round;stroke:#28c89b;stroke-opacity:1;stroke-miterlimit:4" transform="matrix(.82411 0 0 .81996 .187 0)"/><path d="M35.1 27.102h20.998M35.1 46.1h20.998M35.1 64.999h20.998M35.1 84.102h20.998" style="fill:none;stroke-width:2;stroke-linecap:butt;stroke-linejoin:miter;stroke:#be0349;stroke-opacity:1;stroke-miterlimit:10" transform="matrix(.82411 0 0 .81996 .187 0)"/><path d="M35.1 93.001h35M35.1 97.999h35M35.1 79h35M35.1 73.998h35M35.1 69h35M35.1 60.002h35M35.1 55h35M35.1 50.002h35M35.1 40.998h35M35.1 31.099h35M35.1 36.001h35" style="fill:none;stroke-width:2;stroke-linecap:butt;stroke-linejoin:miter;stroke:#e5e5e5;stroke-opacity:1;stroke-miterlimit:10" transform="matrix(.82411 0 0 .81996 .187 0)"/><path d="M19.223 6.395h32.882v8.117H19.223Zm0 0" style="stroke:none;fill-rule:nonzero;fill:#642a73;fill-opacity:1"/><path d="M19.223 13.855h32.882v2.461H19.223Zm0 0" style="stroke:none;fill-rule:nonzero;fill:#4f205d;fill-opacity:1"/><path d="M40.484 6.066c0 2.356-1.918 4.266-4.285 4.266s-4.285-1.91-4.285-4.266c0-2.351 1.918-4.261 4.285-4.261s4.285 1.91 4.285 4.261Zm0 0" style="stroke:none;fill-rule:nonzero;fill:#642a73;fill-opacity:1"/><path d="M38.426 6.066a2.22 2.22 0 0 1-2.227 2.215 2.22 2.22 0 0 1-2.222-2.215c0-1.222.996-2.21 2.222-2.21 1.23 0 2.227.988 2.227 2.21Zm0 0" style="stroke:none;fill-rule:nonzero;fill:#fff;fill-opacity:1"/></svg>