<svg xmlns="http://www.w3.org/2000/svg" width="107" height="92" viewBox="0 0 106 92"><path style="stroke:none;fill-rule:nonzero;fill:#f8dea9;fill-opacity:1" d="m102.988 13.102-64.781 14.62L3.84 13.31 64.059 2.863Zm0 0"/><path style="stroke:none;fill-rule:nonzero;fill:#aa7745;fill-opacity:1" d="M38.207 89.555 3.84 71.273V13.31l34.367 14.414Zm0 0"/><path style="stroke:none;fill-rule:nonzero;fill:#604028;fill-opacity:1" d="m23.047 35.035-7.785-4.074V18.113l7.89 3.344Zm0 0"/><path style="stroke:none;fill-rule:nonzero;fill:#c09144;fill-opacity:1" d="M83.988 8.086 23.152 21.457l-7.89-3.344L75.996 6Zm0 0"/><path style="stroke:none;fill-rule:nonzero;fill:#daae6f;fill-opacity:1" d="M102.988 70.336 38.207 89.555V27.723l64.781-14.621Zm0 0"/><path style="stroke:none;fill-rule:nonzero;fill:#be0349;fill-opacity:1" d="M78.8 33.988v.313c-.519 2.82-1.87 4.804-4.155 5.953 0-.313 0-.625.105-.832 0-.524.313-1.152.52-1.57.207-.414.414-.938.726-1.25.52-.735 1.246-1.36 1.973-1.883.207-.207.52-.313.832-.52m1.66-4.492c-.313.73-.832 1.36-1.559 1.672a47.81 47.81 0 0 0-2.18 1.254c-.933.625-1.867 1.46-2.492 2.402-.414.52-.726 1.043-.933 1.668a6.897 6.897 0 0 0-.621 2.09c-.211 1.148-.313 2.195-.211 3.344v.937c6.023-1.148 7.89-5.324 8.515-8.562 0 0 .52-3.657-.52-4.805M83.055 36.703c-.52 1.567-1.246 3.133-2.282 4.492 2.489 2.297 3.008 6.059 1.247 8.88l-7.477 11.07c-.832-1.254-2.906-2.297-4.258-2.926l-2.594 4.18s5.086 1.671 7.371 5.222l9.864-12.953s3.426-4.7 3.219-9.293c0-3.656-1.872-7-4.985-8.773M70.285 37.957c-2.281-.937-4.773-1.254-7.265-.625-8.516 1.879-11.735 10.34-8.723 16.918 2.906 6.27 11.734 7.102 11.734 7.102l2.18-3.864c-1.559-.418-3.012-.941-4.465-1.672h.313c-1.04-.312-1.973-.937-2.91-1.668-1.555-1.359-2.387-3.343-2.18-5.328 0-2.402 1.351-4.597 3.324-5.847a8.1 8.1 0 0 1 3.113-1.254c1.453-.106 2.906 0 4.258.418 0-1.047.102-2.09.309-3.133 0-.316 0-.629.21-.941Zm0 0"/><path style="stroke:none;fill-rule:nonzero;fill:#be0349;fill-opacity:1" d="M72.363 40.777c1.348-.207 2.7-.73 3.739-1.672-.418.418-.938.73-1.457.942 0-.313 0-.625.105-.836 0-.523.313-1.148.52-1.566.207-.418.414-.942.726-1.254.52-.73 1.246-1.356 1.973-1.88.207-.21.52-.312.832-.523V31.48c-.938.524-1.453.836-1.973 1.153-.937.625-1.871 1.46-2.492 2.402-.418.52-.727 1.043-.934 1.668-.312.629-.52 1.36-.625 2.09-.101.629-.207 1.36-.207 1.984"/></svg>