<svg xmlns="http://www.w3.org/2000/svg" width="141" height="92"><path d="M3.969 3.121h88.039v68.445H3.968Zm0 0" style="stroke:none;fill-rule:nonzero;fill:#452251;fill-opacity:1"/><path d="M51.7 28.887c1.402 0 2.808-.403 4.109-1.106-.5.301-1.102.606-1.704.805 0-.3.2-.602.301-.906.2-.602.403-1.106.703-1.61.301-.402.602-.906 1-1.207.703-.707 1.407-1.21 2.309-1.71.3-.102.602-.305.902-.403.2-.809.301-1.71.301-2.617-1.004.402-1.605.601-2.207.906-1.102.5-2.105 1.207-2.906 2.113-.504.5-.903 1.004-1.203 1.61-.403.605-.703 1.308-1.004 2.011-.2.707-.403 1.309-.5 2.016" style="stroke:none;fill-rule:nonzero;fill:#fff;fill-opacity:1"/><path d="M59.219 22.75v.3c-.903 2.817-2.606 4.731-5.012 5.434 0-.3.2-.601.3-.906.2-.601.4-1.105.7-1.61.3-.402.602-.905 1.004-1.206.703-.703 1.402-1.207 2.305-1.711.3-.102.504-.203.902-.403m2.11-4.128c-.403.707-1.005 1.21-1.81 1.511-1.202.504-1.804.703-2.406 1.008-1.101.5-2.105 1.207-2.906 2.113-.5.5-.902 1.004-1.203 1.61-.402.605-.703 1.308-1.004 2.011-.398 1.11-.601 2.215-.699 3.422v1.008c6.316-.3 8.82-4.43 9.824-7.648 0 0 1.004-3.625 0-5.035M63.23 26.172a12.536 12.536 0 0 1-3.007 4.226c2.207 2.72 2.207 6.645 0 9.262l-9.227 10.266c-.703-1.41-2.707-2.719-4.012-3.524l-3.207 3.926s5.012 2.414 6.82 6.34l11.93-11.875s4.114-4.328 4.512-9.16c.504-3.727-1-7.348-3.91-9.664M49.895 25.566c-2.208-1.308-4.813-1.914-7.32-1.71-9.024.804-13.54 8.956-11.231 16.003 2.105 6.844 11.031 8.86 11.031 8.86l2.805-3.625c-1.504-.606-3.008-1.41-4.41-2.317l.3.203c-1.004-.605-1.906-1.308-2.707-2.214-1.406-1.61-2.008-3.723-1.504-5.836.399-2.418 2.004-4.532 4.211-5.54a7.73 7.73 0 0 1 3.41-.804c1.504 0 3.008.402 4.31 1.008.202-1.11.401-2.114.804-3.223 0-.3.199-.601.3-.906Zm0 0" style="stroke:none;fill-rule:nonzero;fill:#fff;fill-opacity:1"/><path d="M1.363 71.566h138.375v6.946H1.363Zm0 0" style="stroke:none;fill-rule:nonzero;fill:#d6d6d6;fill-opacity:1"/><path d="M92.008 24.863h22.664c12.133 0 22.058 9.965 22.058 22.145v24.457H92.008Zm0 0" style="stroke:none;fill-rule:nonzero;fill:#be0349;fill-opacity:1"/><path d="M120.988 76.902c0 7.672-6.195 13.891-13.84 13.891-7.64 0-13.835-6.219-13.835-13.89 0-7.673 6.195-13.891 13.835-13.891 7.645 0 13.84 6.218 13.84 13.89Zm0 0" style="stroke:none;fill-rule:nonzero;fill:#161d1f;fill-opacity:1"/><path d="M114.57 76.902c0 4.114-3.32 7.45-7.422 7.45-4.097 0-7.418-3.336-7.418-7.45 0-4.113 3.32-7.449 7.418-7.449 4.102 0 7.422 3.336 7.422 7.45Zm0 0" style="stroke:none;fill-rule:nonzero;fill:#d6d6d6;fill-opacity:1"/><path d="M38.863 76.902c0 7.672-6.195 13.891-13.836 13.891-7.644 0-13.84-6.219-13.84-13.89 0-7.673 6.196-13.891 13.84-13.891 7.641 0 13.836 6.218 13.836 13.89Zm0 0" style="stroke:none;fill-rule:nonzero;fill:#161d1f;fill-opacity:1"/><path d="M32.445 76.902c0 4.114-3.32 7.45-7.418 7.45-4.097 0-7.422-3.336-7.422-7.45 0-4.113 3.325-7.449 7.422-7.449 4.098 0 7.418 3.336 7.418 7.45Zm0 0" style="stroke:none;fill-rule:nonzero;fill:#d6d6d6;fill-opacity:1"/><path d="M127.805 58.48h8.925v3.727h-9.125c-1.003 0-1.703-.805-1.703-1.71 0-1.11.903-2.017 2.004-2.017ZM130.21 64.621h6.52v3.727h-6.718c-1.004 0-1.703-.809-1.703-1.715 0-1.106.902-2.012 2.004-2.012Zm0 0" style="stroke:none;fill-rule:nonzero;fill:#452251;fill-opacity:1"/><path d="M102.84 29.191h7.82c11.031 0 20.055 9.059 20.055 20.13H102.84Zm0 0" style="stroke:none;fill-rule:nonzero;fill:#fff;fill-opacity:1"/></svg>