<svg xmlns="http://www.w3.org/2000/svg" width="99" height="92" viewBox="0 0 98 92"><path style="stroke:none;fill-rule:nonzero;fill:#d6d6d6;fill-opacity:1" d="M17.191 14.012h73.524c2.137 0 3.887 1.765 3.887 3.922V87.39H24.96c-4.856 0-8.742-3.918-8.742-8.817V14.992c0-.586.39-.98.972-.98Zm0 0"/><path style="stroke:none;fill-rule:nonzero;fill:#d6d6d6;fill-opacity:1" d="M14.86 29.395h77.117v3.035H14.859Zm0 0"/><path style="stroke:none;fill-rule:nonzero;fill:#fff;fill-opacity:1" d="M14.86 32.332h76.828v52.121H23.602c-4.856 0-8.743-3.918-8.743-8.816Zm0 0"/><path style="stroke:none;fill-rule:nonzero;fill:#642a73;fill-opacity:1" d="M14.86 9.996h77.117v21.36H14.859Zm0 0"/><path style="stroke:none;fill-rule:nonzero;fill:#d6d6d6;fill-opacity:1" d="M43.125 17.05h-2.914V4.216h2.914Zm0 0"/><path style="stroke:none;fill-rule:nonzero;fill:#d6d6d6;fill-opacity:1" d="M44.094 9.996H42.25V6.86h1.844Zm0 0"/><path style="stroke:none;fill-rule:nonzero;fill:#e4e4e8;fill-opacity:1" d="M40.113 17.05h-.972c-.582 0-.97-.394-.97-.98V5.195c0-.586.388-.98.97-.98h.972Zm0 0"/><path style="stroke:none;fill-rule:nonzero;fill:#d6d6d6;fill-opacity:1" d="M56.527 17.05h-2.914V4.216h2.914Zm0 0"/><path style="stroke:none;fill-rule:nonzero;fill:#d6d6d6;fill-opacity:1" d="M57.691 9.996h-1.843V6.86h1.843Zm0 0"/><path style="stroke:none;fill-rule:nonzero;fill:#e4e4e8;fill-opacity:1" d="M53.71 17.05h-.972c-.582 0-.968-.394-.968-.98V5.195c0-.586.386-.98.968-.98h.973Zm0 0"/><path style="stroke:none;fill-rule:nonzero;fill:#d6d6d6;fill-opacity:1" d="M69.152 17.05h-2.914V4.216h2.914Zm0 0"/><path style="stroke:none;fill-rule:nonzero;fill:#d6d6d6;fill-opacity:1" d="M70.223 9.996h-1.848V6.86h1.848Zm0 0"/><path style="stroke:none;fill-rule:nonzero;fill:#e4e4e8;fill-opacity:1" d="M66.238 17.05h-.968c-.582 0-.973-.394-.973-.98V5.195c0-.586.39-.98.973-.98h.968Zm0 0"/><path style="stroke:none;fill-rule:nonzero;fill:#d6d6d6;fill-opacity:1" d="M82.75 17.05h-2.914V4.216h2.914Zm0 0"/><path style="stroke:none;fill-rule:nonzero;fill:#d6d6d6;fill-opacity:1" d="M83.82 9.996h-1.847V6.86h1.847Zm0 0"/><path style="stroke:none;fill-rule:nonzero;fill:#e4e4e8;fill-opacity:1" d="M79.836 17.05h-.969c-.582 0-.972-.394-.972-.98V5.195c0-.586.39-.98.972-.98h.969Zm0 0"/><path style="stroke:none;fill-rule:nonzero;fill:#d6d6d6;fill-opacity:1" d="M29.43 17.05h-2.914V4.216h2.914Zm0 0"/><path style="stroke:none;fill-rule:nonzero;fill:#d6d6d6;fill-opacity:1" d="M30.594 9.996H28.75V6.86h1.844Zm0 0"/><path style="stroke:none;fill-rule:nonzero;fill:#e4e4e8;fill-opacity:1" d="M26.613 17.05h-.972c-.582 0-.97-.394-.97-.98V5.195c0-.586.388-.98.97-.98h.972Zm0 0"/><path style="stroke:none;fill-rule:nonzero;fill:#be0349;fill-opacity:1" d="M36.324 39.29h5.73c.54 0 .973.437.973.98v5.78c0 .54-.433.977-.972.977h-5.73a.973.973 0 0 1-.97-.976V40.27c0-.543.434-.98.97-.98ZM49.824 39.29h5.73c.54 0 .973.437.973.98v5.78c0 .54-.433.977-.972.977h-5.73a.973.973 0 0 1-.97-.976V40.27c0-.543.434-.98.97-.98ZM63.422 39.29h5.73c.54 0 .973.437.973.98v5.78c0 .54-.434.977-.973.977h-5.73a.973.973 0 0 1-.969-.976V40.27c0-.543.434-.98.969-.98ZM77.02 39.29h5.73c.54 0 .973.437.973.98v5.78c0 .54-.434.977-.973.977h-5.73a.973.973 0 0 1-.97-.976V40.27c0-.543.434-.98.97-.98ZM36.324 53.102h5.73c.54 0 .973.441.973.98v5.781c0 .54-.433.98-.972.98h-5.73a.976.976 0 0 1-.97-.98v-5.781c0-.539.434-.98.97-.98ZM49.824 53.102h5.73c.54 0 .973.441.973.98v5.781c0 .54-.433.98-.972.98h-5.73a.976.976 0 0 1-.97-.98v-5.781c0-.539.434-.98.97-.98ZM63.422 53.102h5.73c.54 0 .973.441.973.98v5.781c0 .54-.434.98-.973.98h-5.73a.976.976 0 0 1-.969-.98v-5.781c0-.539.434-.98.969-.98ZM77.02 53.102h5.73c.54 0 .973.441.973.98v5.781c0 .54-.434.98-.973.98h-5.73a.976.976 0 0 1-.97-.98v-5.781c0-.539.434-.98.97-.98Zm0 0"/><path style="stroke:none;fill-rule:nonzero;fill:#1ac494;fill-opacity:1" d="M36.422 66.918h5.73c.535 0 .973.437.973.977v5.78c0 .544-.438.981-.973.981h-5.73a.977.977 0 0 1-.973-.98v-5.781c0-.54.438-.977.973-.977Zm0 0"/><path style="stroke:none;fill-rule:nonzero;fill:#be0349;fill-opacity:1" d="M49.922 66.918h5.73c.54 0 .973.437.973.977v5.78c0 .544-.434.981-.973.981h-5.73a.974.974 0 0 1-.969-.98v-5.781c0-.54.434-.977.969-.977ZM63.52 66.918h5.73c.54 0 .973.437.973.977v5.78c0 .544-.434.981-.973.981h-5.73a.974.974 0 0 1-.97-.98v-5.781c0-.54.434-.977.97-.977ZM77.117 66.918h5.73c.54 0 .973.437.973.977v5.78c0 .544-.433.981-.972.981h-5.73a.974.974 0 0 1-.97-.98v-5.781c0-.54.434-.977.97-.977ZM23.7 66.918h5.73c.535 0 .972.437.972.977v5.78c0 .544-.437.981-.972.981H23.7a.977.977 0 0 1-.973-.98v-5.781c0-.54.437-.977.972-.977Zm0 0"/><path style="stroke:none;fill-rule:nonzero;fill:#1ac494;fill-opacity:1" d="M34.77 50.164c0 3.625-1.165 6.86-3.106 9.504-2.914 3.918-7.48 6.465-12.723 6.465-8.742 0-15.832-7.153-15.832-15.969 0-8.816 7.09-15.969 15.832-15.969 8.739 0 15.829 7.153 15.829 15.97Zm0 0"/><path style="stroke:none;fill-rule:nonzero;fill:#1ac494;fill-opacity:1" d="m33.605 66.133-7.964-1.469 5.828-5.684Zm0 0"/><path style="fill:none;stroke-width:4;stroke-linecap:round;stroke-linejoin:round;stroke:#fff;stroke-opacity:1;stroke-miterlimit:4" d="m11.7 51.599 4.802 5.303 9.797-11.404" transform="matrix(.97126 0 0 .9797 0 .101)"/></svg>