<svg xmlns="http://www.w3.org/2000/svg" width="75" height="92" viewBox="0 0 75 91"><defs><linearGradient id="a" gradientUnits="userSpaceOnUse" x1="9.7" y1="18.8" x2="37.9" y2="18.8" gradientTransform="matrix(1.62175 0 0 1.61634 .362 0)"><stop offset="0" style="stop-color:#3c121e;stop-opacity:1"/><stop offset=".9" style="stop-color:#240d14;stop-opacity:1"/></linearGradient></defs><path style="stroke:none;fill-rule:nonzero;fill:#f3f9f4;fill-opacity:1" d="m57.285 82.918-.324.324c0-1.617.164-9.215 0-9.86 2.434-1.94 1.621 3.555 1.46 4.688-.163 1.453-.812 3.555-1.136 4.848Zm0 0"/><path style="stroke:none;fill-rule:nonzero;fill:#f5dac9;fill-opacity:1" d="M56.96 73.219c.165.648 0 8.246 0 9.86l.325-.321c0 .32 0 .808-.488.969 0-3.555-.16-7.274 0-10.829l.164.16Zm0 0"/><path style="stroke:none;fill-rule:nonzero;fill:#f3f3f3;fill-opacity:1" d="M18.363 83.402c.813 2.75 2.758 5.82 6 5.496 0 0 .813-.16.489-.324.324 0 1.945.164 2.105.649v6.304l-3.402-.324c-.489-.164-.489-.324-.813-.484 0 0 0-.324-.488-.485l-2.918-6.304c-.16.644-2.27 4.523-2.434 4.687h-4.379c1.461-1.941 2.922-3.879 4.055-5.98.488-1.133 1.297-3.719 1.785-3.395Zm0 0"/><path style="stroke:none;fill-rule:nonzero;fill:#f6fdfb;fill-opacity:1" d="M32.309 52.531c1.625 5.332 4.054 10.508 5.84 15.84.163.809.488-.808.812-2.262.324 0 1.297.32 1.457.32.164 0 .324 0 .488-.16.485.649 2.11 4.528 2.594 4.688.488.16 9.246-.16 9.73 0 .649.16.165 1.453.489 1.617 0 0 2.43 0 2.593-.324v.484H53.88s-.324.485-.324-1.453H32.96c-.652 0-4.219-.164-4.379 0-.324.16 0 1.453-.324 1.778h-.813v22.953H26.31c-1.133-.164-1.622 0-2.754-.485l3.402.32v-6.3c0-.488-1.781-.649-2.105-.649-1.137 0-3.082.649-5.192-2.585-3.73-5.981-.16-13.739-1.62-20.204v7.274c0 3.07-1.138 5.98.163 10.344-.488-.325-1.3 2.425-1.785 3.394-1.137 2.102-2.594 4.04-4.055 5.98-.324 0-.648 0-.324.16 1.785.165 3.89-.16 5.676 0-3.242 2.102-3.73 6.466-2.758 10.024-.324 0 0-.324-.324-.324-.485 0-3.406 2.426-8.11 1.617-.808 0-1.62-.648-2.43-.808-1.3-1.133-2.109-2.262-2.433-4.204-.972-7.918 7.945-32.328 13.297-38.468.488-.649 3.246-2.91 3.406-3.235h.489c1.62-.804 6.648-1.453 7.457-1.937 2.597 3.879 5.675 7.597 9.246 10.504-3.246-3.39-6.325-6.785-9.082-10.664.484-.325 5.027-4.528 5.351-4.203 0 .32.16.808.324 1.128Zm0 0"/><path style="stroke:none;fill-rule:nonzero;fill:#939393;fill-opacity:1" d="M24.852 88.574c.324 0-.489.324-.489.324-3.242.325-5.187-2.91-6-5.496-1.297-4.363-.324-7.273-.16-10.343v-7.274c1.297 6.465-2.11 14.223 1.621 20.203 2.106 3.395 4.055 2.586 5.188 2.586Zm0 0"/><path style="stroke:none;fill-rule:nonzero;fill:#9e9e9e;fill-opacity:1" d="M26.473 55.766c2.757 3.879 5.836 7.273 9.082 10.664-3.57-2.907-6.489-6.785-9.246-10.504Zm0 0"/><path style="stroke:none;fill-rule:nonzero;fill:#5e2a25;fill-opacity:1" d="M38.313 69.02c.484.644.484.484-.325.484Zm0 0"/><path style="stroke:none;fill-rule:nonzero;fill:#f3f3f3;fill-opacity:1" d="M49.988 55.766c.649.32 4.864 1.293 6 1.613.973.164 1.461 0 1.461 0 .649 0 3.403 2.75 4.051 3.394 4.379 5.172 11.516 24.247 12.004 31.036.324 3.879-.488 7.597-3.73 10.183-3.247 2.422-6.325 1.938-9.895.809 4.219-1.457 5.351-10.184 3.082-13.254h3.082c-1.082 0-2.215-.055-3.406-.164-1.137-1.293-2.27-.969-3.73-.809-.65 0-1.458.485-2.11.324v-5.011c.328-.16.328-.645.488-.969.488-1.453.973-3.555 1.137-4.848 0-1.293.808-6.629-1.461-4.687 0-.324 0 0-.164-.164h-.324c.324-1.614 1.136-5.492 1.136-6.79 0-.32 0-.644-.16-.16-.324 2.102-.488 4.364-.976 6.465-.325.485-2.594.485-2.594.325-.16 0 .164-1.454-.484-1.618-.489-.16-9.247.164-9.73 0-.49 0-2.11-4.039-2.599-4.687 1.137-.809 7.461-8.727 8.922-10.504Zm0 0"/><path style="stroke:none;fill-rule:nonzero;fill:#939393;fill-opacity:1" d="M56.473 72.898v-.488c.488-2.097.652-4.363.976-6.465.324-.484.16-.16.16.164 0 1.293-.972 5.172-1.136 6.79Zm0 0"/><path style="stroke:none;fill-rule:nonzero;fill:#aaa;fill-opacity:1" d="m62.96 89.547-.16-.164h3.403c-1.078.11-2.105.164-3.078.164Zm0 0"/><path style="stroke:none;fill-rule:nonzero;fill:#f6fdfb;fill-opacity:1" d="M42.527 64.332c-.648.805-1.46 1.453-2.109 2.262-.16 0-1.133-.164-1.457-.324.324-.97.648-1.938.973-3.07Zm0 0"/><path style="stroke:none;fill-rule:nonzero;fill:#999;fill-opacity:1" d="M49.988 55.766c-1.46 1.777-7.785 9.695-8.922 10.504 0 0-.324.16-.484.16.648-.805 1.297-1.453 2.11-2.262.484-.645.972-1.129 1.456-1.777 1.946-2.262 3.895-4.528 5.676-6.95.164 0 .164.16.164.16Zm0 0"/><path style="stroke:none;fill-rule:nonzero;fill:#cdd2d5;fill-opacity:1" d="M49.824 55.602c-1.781 2.425-3.73 4.687-5.676 6.949 1.297-1.13-2.109-2.102-3.082-2.262a52.937 52.937 0 0 1 1.786-4.523c.324-.973.972-2.59 1.296-3.395.813-1.617.489-.809 1.786.16.648.485 3.73 2.91 3.89 3.07Zm0 0"/><path style="stroke:none;fill-rule:nonzero;fill:#f6fdfb;fill-opacity:1" d="M44.148 62.55c-.484.65-.972 1.134-1.457 1.782l-2.597-1.133.972-2.91c.973 0 4.543 1.133 3.082 2.262ZM62.8 89.223l.16.16c2.27 3.07 1.138 11.8-3.081 13.254-.649-.16-.649 0-1.945-.809.972-.32 2.109-1.613 2.593-2.422 1.785-1.941 1.95-7.437.325-9.539-.649-.808-1.457-.808-1.946-1.453 1.461-.324 2.594-.484 3.73.809Zm0 0"/><path style="stroke:none;fill-rule:nonzero;fill:#943d3c;fill-opacity:1" d="M60.691 99.406c1.786-3.558 1.621-10.347-3.73-10.347.648 0 1.46-.485 2.11-.485.648.649 1.296.649 1.945 1.457 1.62 2.102 1.46 7.434-.325 9.535Zm0 0"/><path style="stroke:none;fill-rule:nonzero;fill:#772a42;fill-opacity:1" d="M56.313 89.223c-2.27.16-3.891 1.453-5.352 3.07l-4.055 1.133c.324-.485 1.297-.324 1.461-.485.324 0 2.594-.808 2.754-.808.164 0 .977-1.781 3.082-2.75.813-.324 1.945-.16 1.945-.809 0 0 .325 0 0 .485Zm0 0"/><path style="stroke:none;fill-rule:nonzero;fill:#fab28c;fill-opacity:1" d="M60.691 99.406c-.488.969-1.62 2.262-2.593 2.422 2.27-2.906.808-1.613-.973-.969-2.11.809-6.164 1.942-8.434 2.586-1.46.325-9.406 2.262-10.379 2.426-3.082.484-7.785.484-10.867 0-1.785-.164-3.566-.808-5.351-1.133H19.5c-.488 0-.973-.644-1.297-.484 0 0 0-.16-.164-.324-1.621-4.04.488-11.961 4.863-8.727.164 0 .328 0 .813.16 1.297.485 1.785.325 2.758.485h-.164c1.136.324 7.136 1.293 7.625 1.617.16.164 0 2.426 5.027.969 1.457-.32 2.754-.805 4.055-1.293h.324c1.133-.32 7.297-2.907 7.62-3.555v-.324c0-.32 0 0 .485-.809 1.461-1.777 3.082-2.906 5.352-3.07h.488c5.352 0 5.516 6.949 3.73 10.344Zm0 0"/><path style="stroke:none;fill-rule:nonzero;fill:#994b8a;fill-opacity:1" d="M27.445 73.059v22.468c7.946-4.367 15.407-9.539 23.192-14.226.648-.485 5.511-2.91 5.511-3.23v-4.852h-2.27v-.32h2.434c.325 4.687-.164 11.312 0 15.675 0 .485-1.296.485-1.945.809-2.27.969-2.922 2.586-3.082 2.75 0 0-2.27.808-2.758.808 0 0-1.132 0-1.46.485-.485.644 1.46.16 1.624.969-1.296.644-5.027 2.101-5.675 2.746h-.325c-1.3.488-2.597.972-4.054 1.293-.325 0-2.434.488-2.434.324.324-.16 2.27-1.938 1.621-2.262-4.379.809-6.812 0-10.703-.648v-22.95h.16Zm0 0"/><path style="stroke:none;fill-rule:nonzero;fill:#45406f;fill-opacity:1" d="M56.473 72.898h.324v15.84c0 .16 0 .32-.484.32.324-.484 0-.484 0-.484-.325-4.363 0-10.988 0-15.676Zm0 0"/><path style="stroke:none;fill-rule:nonzero;fill:#994b8a;fill-opacity:1" d="M30.363 72.898c.164 0-.648 2.102-.484 2.102h6.648c5.84 0 11.516.16 17.352 0v-1.781h2.27v4.851c0 .32-4.864 2.746-5.512 3.23-7.785 4.688-15.246 9.86-23.192 14.227V73.06c1.297-.325 1.785 0 1.785.324s.81-.485 1.133-.485Zm0 0"/><path style="stroke:none;fill-rule:nonzero;fill:#c16f33;fill-opacity:1" d="m25.5 33.781-.648 2.75c-2.598-.648-.649-1.617 0-2.265.484-.485.324-1.13.648-.485Zm0 0"/><path style="stroke:none;fill-rule:nonzero;fill:#481424;fill-opacity:1" d="M23.39 17.781c-.16-.324 0-.972 0-1.293 1.137-.164 2.434-.488 3.567-.972.813 0-2.918 1.617-3.078 1.777-.324.164 0 .324-.324.488ZM34.418 11.152c0 .325-.484.325-.648.325-1.946-.325-3.73-.485-5.512.484 1.781-2.262 4.539-1.133 6.324-.809Zm0 0"/><path style="stroke:none;fill-rule:nonzero;fill:#300e17;fill-opacity:1" d="m43.664 4.688.484.324c0 .32-.484.32-.16.644-1.297-.484-2.758-.324-4.054.164-.325-.488 1.132-1.293 2.757-1.133.325 0 .973.485 1.133 0Zm0 0"/><path style="stroke:none;fill-rule:nonzero;fill:url(#a)" d="M61.664 38.145c-.488-5.657-3.242-7.274-3.406-9.051-.16-1.617.972-4.688-.649-7.434-.324-.484-1.46-1.457-1.46-1.777-.325-.973 0-4.203-1.297-5.176-.325-.32-1.133-.484-1.133-.484-.324-.32 0-5.332-4.219-8.567-1.945-1.453-5.027-2.746-7.46-2.586-.974 0-1.782.485-2.595 1.133-1.945-1.777-3.89-1.293-6.16-.484-2.11.808-4.379 2.586-5.84 4.363-2.593 3.395-2.27 5.82-2.433 6.14 0 .325-1.297.165-1.457 2.266 1.133-.164 2.43-.488 3.566-.972.813 0-2.918 1.617-3.082 1.777-.324.164 0 .324-.324.488-6.324 6.14-2.758 8.403-3.082 11.473-.324 2.101-3.406 2.59-4.055 8.57-.973 8.078 2.434 11.473 2.434 12.121 0 .809-3.407 3.555-.16 7.598v.16h.484c1.621-.808 6.648-1.617 7.46-2.101.485-.325 5.028-4.524 5.352-4.204 0 .325.16.809.325 1.133.648-2.426.648-5.172.812-7.758 0 0-.324 0 0-.808-6.652-4.043-6.164-7.922-7.46-10.344-.22.969-.434 1.883-.65 2.746-2.597-.644-.648-1.617 0-2.262-2.109-2.101-3.73-7.597-.812-9.375.325.16.164.485.325.645v.809c0 .808.164 1.457.324 2.265 0 1.13 0 2.262.488 3.23 1.781-4.847.324-8.406 2.918-14.222 2.27-5.172 5.676-4.363 8.594-5.496.488-.16 1.3-.969 1.3-.809 0 0 0 .97 1.946 1.778.808.324 1.945.484 2.758.808 1.457.485 3.242 1.457 4.214 2.586.325.485 3.567 6.145 3.73 6.79 0 .323.81 4.363.81 4.687 0 1.453-.325 2.262-.16 2.586 0 0 .324.324.488.648.484 0 1.457-1.941 1.62-2.426 0-.324 0-.648.16-.808 0-.645 0-1.293.165-1.938 0-.648 0-1.293.16-1.133 2.922 2.426 0 8.891-1.781 9.375-.488 0-.813-.164-.977 0-.324.325-.16 4.688-5.511 8.891-.489.484-2.434 1.293-2.434 1.777v.809c0 1.453.324 5.496.813 6.79.808-1.618.484-.81 1.78.16.65.484 3.731 2.91 3.895 3.07.16 0 .16.164.16.164.649.32 4.868 1.293 6 1.613.977.164 1.461 0 1.461 0 1.786-2.91.649-5.332.813-5.496 0-.645 4.215-4.04 3.406-13.738ZM33.77 11.477c-1.946-.325-3.73-.485-5.512.484 1.781-2.262 4.539-1.133 6.324-.809 0 .325-.488.325-.648.325Zm10.054-5.98c-1.297-.485-2.758-.325-4.054.16-.325-.485 1.136-1.294 2.757-1.13.325 0 .973.485 1.137 0l.484.32c0 .325-.484.325-.16.65Zm0 0"/><path style="stroke:none;fill-rule:nonzero;fill:#b6622f;fill-opacity:1" d="M51.445 34.266c.813 0 1.625.808 1.461 1.777-1.136 1.457-1.785-1.613-1.46-1.777Zm0 0"/><path style="stroke:none;fill-rule:nonzero;fill:#fdbe9b;fill-opacity:1" d="M42.852 13.738c1.945 1.778 3.082 3.88 3.082 6.465-3.73-.32-4.22.649-5.192 2.586-.324.809-.808 1.617-1.133 2.426-.324-.16 0-1.617.16-2.586.325-3.07-.16-4.363-.16-5.172 0-1.293-.164-3.555.325-4.527.808.324 1.945.484 2.757.808Zm0 0"/><path style="stroke:none;fill-rule:nonzero;fill:#b35d4d;fill-opacity:1" d="M43.988 52.371c-.324.645-.972 2.422-1.297 3.395-.488-3.235-3.246-5.82-5.68-8.082 2.274.484 4.544-.489 6.165-2.102 0 1.453.324 5.496.812 6.79Zm0 0"/><path style="stroke:none;fill-rule:nonzero;fill:#9d4031;fill-opacity:1" d="M34.582 44.934c2.594 1.293 4.055 1.293 6.809.324.812-.324 1.625-1.133 1.949-.649v.809c-1.625 1.617-3.895 2.586-6.164 2.102-1.461-.325-2.918-1.778-4.055-2.747 0 0-.324 0 0-.808.488.324.973.644 1.461.808Zm0 0"/><path style="stroke:none;fill-rule:nonzero;fill:#fdbe9b;fill-opacity:1" d="M24.688 28.61c0 1.132 0 2.261.488 3.234 0 .32 0 .968-.973.32-.324-.16-.973-1.293-.973-1.613 0-.164.973-2.426 1.297-1.942ZM51.77 31.195c.488 0 1.46-1.941 1.625-2.425 2.105 1.293-1.461 3.878-1.625 3.558.328-.973 0-.973 0-1.133ZM24.363 26.348v.16c-.324.808-.808 1.777-.808 2.586 0 .16-.325.484-.489.324-.324-1.617-.164-3.07 1.297-3.879v.809ZM37.012 47.52c2.273 2.265 5.191 4.851 5.68 8.082-.653 1.457-1.137 3.07-1.786 4.527l-.972 2.91a69.7 69.7 0 0 0-.973 3.07c-.488 1.454-.648 2.91-.813 2.262-1.785-5.332-4.214-10.508-5.84-15.84.653-2.426.653-5.172.813-7.758 1.137.97 2.594 2.422 4.055 2.747Zm0 0"/><path style="stroke:none;fill-rule:nonzero;fill:#fdbe9b;fill-opacity:1" d="M38.313 61.098s1.78 0 1.296.324c-2.109.969-1.945 0-1.297-.324Zm0 0"/><path style="stroke:none;fill-rule:nonzero;fill:#e5ab8d;fill-opacity:1" d="M40.418 42.832c0 1.457-3.566 2.266-4.703 2.266-.324-.489 1.297-.809 2.433-1.457.649-.325 1.297-1.293 2.27-.809Zm0 0"/><path style="stroke:none;fill-rule:nonzero;fill:#b35d4d;fill-opacity:1" d="M37.824 33.137c0 .484 0 0 .489.16 0 0 0 .324.324.16l.324-.484s1.621.484 2.594-1.13c.972.485-1.297 1.614-1.785 1.778-.649.32-1.297 0-1.133.484-.973-.164-3.895-1.132-3.57-2.425.324.648 2.109 1.617 2.757 1.293Zm0 0"/><path style="stroke:none;fill-rule:nonzero;fill:#e5ab8d;fill-opacity:1" d="M38.313 33.457c-.325 0-.489.324-.489-.16.973-1.453.813-3.395 1.137-5.012.648-.808.324 3.235-.164 4.363-.16.325-.649.325-.484.809Zm0 0"/><path style="stroke:none;fill-rule:nonzero;fill:#201516;fill-opacity:1" d="M45.934 20.203c2.757.164 3.89 1.777 3.406 2.102-1.785-.97-4.38-.645-6.164-.16-.809.16-1.946.968-2.434.808.973-1.941 1.625-2.91 5.192-2.586Zm0 0"/><path style="stroke:none;fill-rule:nonzero;fill:#fdbe9b;fill-opacity:1" d="M39.934 12.93c-.489.972-.325 3.234-.325 4.527 0 .969.485 2.102.16 5.172 0 .969-.648 2.262-.16 2.586-.324.969-.488 1.941-.648 2.91-.324 1.617-.164 3.555-1.137 5.012-.648.32-2.433-.649-2.758-1.293-.324 1.293 2.598 2.097 3.57 2.422.325 0 2.27-.325 1.134 1.293-.973 1.457-2.434-1.293-4.864.808-2.11-.484-3.246-1.293-2.273-.484.328.324.976.648 1.625 1.133.16 0 1.457 1.777 2.105 2.101-.16 2.262 4.055 2.262 4.219 3.715-.812-.484-1.621.484-2.27.809-1.136.484-2.757.968-2.433 1.457-.813 0-1.137-.325-1.137 0-.648-.325-.972-.489-1.457-.809-6.652-4.043-6.164-7.922-7.46-10.348-.325-.644 0 0-.65.489-2.109-2.102-3.73-7.598-.812-9.375.325.16.164.484.325.644-1.458.969-1.622 2.426-1.297 3.88 0 0 .324-.161.488-.325.484-.645.808-1.777.808-2.586v-.16c0 .808.165 1.453.325 2.262-.325-.485-1.297 1.78-1.297 1.94 0 .325.648 1.294.973 1.618.972.645.812 0 .972-.324 1.785-4.848.324-8.406 2.922-14.223 2.27-5.172 5.676-4.367 8.594-5.496.488-.164 1.297-.973 1.297-.808 0 0 0 .968 1.945 1.777Zm0 0"/><path style="stroke:none;fill-rule:nonzero;fill:#f9a795;fill-opacity:1" d="M27.934 29.902c1.945-.484 6.324 2.746 3.726 4.528-3.078 2.101-6.16-4.043-3.726-4.528Zm0 0"/><path style="stroke:none;fill-rule:nonzero;fill:#201516;fill-opacity:1" d="M30.852 20.203c4.539-.32 5.675 2.586 4.378 2.586-.324 0-4.867-2.586-7.46-.16-.165-1.453 1.785-2.262 3.082-2.426Zm0 0"/><path style="stroke:none;fill-rule:nonzero;fill:#fdbe9b;fill-opacity:1" d="M23.39 29.094c0-.809.489-1.778.813-2.586 0 .808-.324 1.941-.812 2.586Zm0 0"/><path style="stroke:none;fill-rule:nonzero;fill:#e07a81;fill-opacity:1" d="M35.715 26.184c.324 1.617 0 1.293-.324 1.457-.325-.973-.649-1.618-1.297-2.266-.649-.645-1.297-1.129-2.11-1.129-.972 0-3.078.484-3.726 1.129-.164 0 .16-.969.324-1.129 1.457-.648 3.727-1.133 5.188-.164.812.488 1.136 1.617 1.945 2.102Zm0 0"/><path style="stroke:none;fill-rule:nonzero;fill:#c15b5b;fill-opacity:1" d="M35.715 26.184c-.809-.485-1.133-1.614-1.945-2.102-1.461-.969-3.73-.484-5.188.164 1.297-1.617 6.324-1.457 7.133 1.938Zm0 0"/><path style="stroke:none;fill-rule:nonzero;fill:#fdfefd;fill-opacity:1" d="M34.258 26.348c.16.484.648.808.808 1.293H33.61c.325-1.457 0-2.102.809-1.457Zm0 0"/><path style="stroke:none;fill-rule:nonzero;fill:#550f12;fill-opacity:1" d="M35.39 27.64h-.484c0-.484-.488-.808-.812-1.292 0 0 0-.325-.16-.485.648 0 0 0 0-.488.648.648 1.132 1.293 1.296 2.266Zm0 0"/><path style="stroke:none;fill-rule:nonzero;fill:#300e17;fill-opacity:1" d="M34.094 25.215c0 .324.488.484 0 .484-.809.324-.973-.969-2.11-.484v-1.133c.977 0 1.625.648 2.274 1.133Zm0 0"/><path style="stroke:none;fill-rule:nonzero;fill:#201516;fill-opacity:1" d="M31.984 24.082v1.133c1.137-.485 1.137.969 2.11.484.324.324.164.485.164.485-.649-.645-.324 0-.813 1.457 0 0-.16.16-.324.16-2.918 0-2.758-.485-3.566-.969 2.593 1.293 1.457.645 1.133 0-.16-.648 0-1.133.488-1.617-.164-.324-1.946.648-2.11.969 0 0-1.785-.32-.972-1.13.648-.648 2.758-1.292 3.73-1.132Zm0 0"/><path style="stroke:none;fill-rule:nonzero;fill:#fdfefd;fill-opacity:1" d="m29.715 26.992-.485-.484c.16-.324 1.946-1.293 2.106-.969-.648.484-.809.969-.484 1.617.16.645 1.457 1.293-1.137 0Zm0 0"/><path style="stroke:none;fill-rule:nonzero;fill:#fdfefd;fill-opacity:1" d="M31.984 25.375c1.95-.32-1.132.488-.484 1.293-.813.488-.488-1.129.484-1.293Zm0 0"/><path style="stroke:none;fill-rule:nonzero;fill:#a72134;fill-opacity:1" d="M34.906 36.367c1.621.324 4.215.649 5.836.485.324 0 2.434-.485 2.274-.809 1.132 0 1.457-.32-.977 1.781 0-.324-.973 0-1.297 0-1.62.16-3.406 0-5.027-.488-.485 0-.973-.484-1.457-.484-.488-.485-1.297-.809-1.625-1.13-.973-.808.328 0 2.273.485Zm0 0"/><path style="stroke:none;fill-rule:nonzero;fill:#c73550;fill-opacity:1" d="M39.77 35.559c.972.648 2.109.484 3.082.484 0 .324-1.946.648-2.27.809-1.621.164-4.219 0-5.84-.485 2.594-2.101 3.895.649 4.867-.808Zm0 0"/><path style="stroke:none;fill-rule:nonzero;fill:#d94b65;fill-opacity:1" d="M35.715 37.5c0 1.293 1.46 1.129 1.95 1.777 0 0-.33-.324-.33.325 0 0-.972-.325-1.132-.485-.648-.324-1.945-1.941-2.11-2.101.489 0 .973.32 1.462.484Zm0 0"/><path style="stroke:none;fill-rule:nonzero;fill:#c73550;fill-opacity:1" d="M41.879 37.824c-1.461 1.293-2.434 2.262-4.703 1.778 0-.649.324-.325.324-.325 1.297-.16 2.11-.16 3.082-1.293.324 0 1.297-.484 1.297 0Zm0 0"/><path style="stroke:none;fill-rule:nonzero;fill:#d94b65;fill-opacity:1" d="M40.582 37.984c-.973 1.133-1.785 1.133-3.082 1.293-.488-.484-1.945-.484-1.945-1.777 1.62.484 3.406.645 5.027.484Zm0 0"/><path style="stroke:none;fill-rule:nonzero;fill:#fdbe9b;fill-opacity:1" d="M51.77 31.195s.328.16 0 1.133c.164.484 3.73-2.266 1.625-3.558 0-.32 0-.645.16-.81l.812 1.618c.324-1.129.649-2.91-.648-3.555 0-.648 0-1.293.16-1.132 2.918 2.425 0 8.89-1.781 9.375-.489 0-.813-.16-.977 0-.324.324-.16 4.687-5.512 8.89-.488.485-2.433 1.293-2.433 1.778-.16-.485-1.137.324-1.946.648-2.757.969-4.218.969-6.812-.324 0-.16.324 0 1.137 0 1.133 0 4.863-.809 4.703-2.262 0-1.457-4.543-1.457-4.219-3.719 0 0 .973.485 1.137.485 2.11.484 3.242-.485 4.703-1.778 2.434-2.101 2.11-1.777.973-1.777s-2.27 0-3.082-.484c1.136-1.618-.973-1.293-1.133-1.293 0-.489.484-.325 1.133-.489.488-.16 2.921-1.293 1.785-1.777-.973 1.617-2.434 1.133-2.594 1.133l-.324.484c-.325 0-.164-.16-.325-.16 0-.484.325-.484.485-.809.488-1.132.812-5.171.164-4.363.16-.972.324-1.941.648-2.91.16-.809.649-1.777 1.133-2.426.488.16 1.625-.484 2.434-.808 1.945-.485 4.379-.809 6.164.164.484-.324-.649-1.782-3.406-2.102 0-2.586-1.297-4.687-3.082-6.465 1.46.485 3.242 1.453 4.214 2.586.329.485 3.57 6.14 3.73 6.785 0 .325.813 4.368.813 4.688 0 1.457-.324 2.266-.164 2.59 0 0 .325.32.489.644Zm0 0"/><path style="stroke:none;fill-rule:nonzero;fill:#fdbe9b;fill-opacity:1" d="M53.719 27.96c0-.644 0-1.292.16-1.937 1.137.645.973 2.426.648 3.555ZM49.5 25.215c.324.324.324.484.813.484-1.946 4.528-4.868 3.395-6.165 6.79-1.296-.97-3.566-2.102-3.242-4.04 0-.972.16-.648.973-.648h.488c.649 0 1.297.16 1.781.16 1.461 0 .813.488 2.434-.32.648-.325 1.297-.649 1.785-1.133.973-.645 1.621-.485.809-1.133h.164Zm0 0"/><path style="stroke:none;fill-rule:nonzero;fill:#e78882;fill-opacity:1" d="M47.555 29.902c2.27-.16 2.433 2.586 1.297 3.88-1.622 1.777-4.215 0-4.055-1.454 0-.808 2.11-2.426 2.922-2.426Zm0 0"/><path style="stroke:none;fill-rule:nonzero;fill:#e07a81;fill-opacity:1" d="M49.5 25.215h-.16c-2.434-1.942-7.3-1.293-7.461 2.426-.813 0-.813-.325-.973.644-.324-.324.809-3.23.973-3.394.973-1.618 4.215-2.102 6.812-.645h.16c.489.324.649.969.649.969Zm0 0"/><path style="stroke:none;fill-rule:nonzero;fill:#26100e;fill-opacity:1" d="M49.34 25.215c.808.648 0 .648-.813 1.133-.808-.649-2.593-1.618-2.27-.973-.648-.484-1.944 0-2.593 0 .16.648 0 .488-.164.488-.484.32-.973.969-.973 1.614h-.488c.164-3.88 5.027-4.364 7.461-2.422Zm0 0"/><path style="stroke:none;fill-rule:nonzero;fill:#fdfefd;fill-opacity:1" d="M48.527 26.508c-.648.324-1.132.808-1.785 1.133 0-.649.164-1.457-.484-2.102-.324-.648 1.46.324 2.27.969ZM43.34 26.023c0 .645.324 1.293.808 1.778-.648 0-1.296-.16-1.78-.16 0-.649.484-1.293.972-1.778Zm0 0"/><path style="stroke:none;fill-rule:nonzero;fill:#201516;fill-opacity:1" d="M46.094 25.54c.648.483.324 1.292.488 2.1-1.621.81-.973.485-2.434.32-.484-.483-.808-1.128-.808-1.776 0 0 .324 0 .16-.485.813 0 1.945-.484 2.594 0Zm0 0"/><path style="stroke:none;fill-rule:nonzero;fill:#fdfefd;fill-opacity:1" d="M44.313 25.54h.324c1.297 1.452-1.461 1.452-.325 0Zm0 0"/><path style="stroke:none;fill-rule:nonzero;fill:#994b8a;fill-opacity:1" d="M27.445 71.117h28.867v10.348H27.445Zm0 0"/></svg>