<svg xmlns="http://www.w3.org/2000/svg" width="150" height="59" viewBox="0 0 149 59"><defs><clipPath id="f"><path d="M108.82 39.578h4.739v4.524h-4.739Zm0 0"/></clipPath><clipPath id="a"><path d="M124.16 34h15.633v10.89H124.16Zm0 0"/></clipPath><clipPath id="c"><path d="M118.05 38.398h4.74v5.754h-4.74Zm0 0"/></clipPath><clipPath id="d"><path d="M118.05 39.137v4.965h4.74v-5.75c-1.513.246-3.126.488-4.74.734"/></clipPath><clipPath id="e"><path d="M99.684 39.875h4.789v4.227h-4.79Zm0 0"/></clipPath><clipPath id="b"><path d="M124.258 38.105c.097.735.242 1.426.535 2.063.39.934.977 1.77 1.71 2.41.731.64 1.614 1.18 2.54 1.477.977.343 2.004.492 3.078.492 1.074 0 2.734-.246 3.86-.79 1.124-.538 2.003-1.277 2.687-2.26l-3.32-2.114c-.344.441-.786.836-1.274 1.082-.535.293-1.172.441-1.902.441-.734 0-.832 0-1.223-.195-.39-.2-.734-.344-1.074-.59-.293-.246-.586-.492-.781-.836-.196-.344-.344-.687-.344-1.133h10.457c0-.195.047-.343.047-.539v-.59c0-1.132-.149-2.113-.441-3-3.172 1.23-8.11 2.852-14.555 4.082"/></clipPath><clipPath id="g"><path d="M92.602 39.383h4.738v4.719h-4.738Zm0 0"/></clipPath><clipPath id="h"><path d="M76.723 37.172h13.726v7.375H76.723Zm0 0"/></clipPath><clipPath id="i"><path d="M77.602 37.367c-.586.637-.829 1.473-.829 2.555s.145 1.574.489 2.164c.34.59.73 1.035 1.27 1.379.488.344 1.073.59 1.706.734.637.149 1.223.246 1.809.246.879 0 1.66-.144 2.394-.492.735-.344 1.32-.785 1.66-1.375h.098v1.524h4.348v-4.914c-1.465-.149-2.883-.348-4.348-.543-.047.738-.293 1.328-.73 1.82-.489.539-1.274.785-2.2.785h-.734c-.242 0-.488-.148-.683-.246-.196-.098-.34-.293-.489-.441-.144-.196-.195-.442-.195-.688 0-.441.148-.79.39-1.035a3.623 3.623 0 0 1 1.028-.59h.144c-1.707-.293-3.32-.637-4.835-.934-.145 0-.243.098-.293.149"/></clipPath><clipPath id="j"><path d="M51.172 32.254h17.734V50H51.172Zm0 0"/></clipPath><clipPath id="k"><path d="M63.68 40.86c-.54 2.949-1.856 4.62-5.422 4.519-1.762 0-2.883-.785-3.617-1.668l-2.786 3.34c1.665 1.625 4.348 3.148 8.649 2.804 8.598-.789 8.207-11.457 8.207-11.457v-3.836c-2.004-.687-3.516-1.324-4.594-1.769 0 2.605-.097 6.195-.437 8.066"/></clipPath></defs><path style="stroke:none;fill-rule:nonzero;fill:#4f205d;fill-opacity:1" d="M139.207 37.023v.59c0 .196 0 .39-.05.54h-10.454c.047.394.145.788.34 1.132.195.344.441.637.781.836.344.246.684.441 1.074.59.391.148.786.195 1.223.195.734 0 1.367-.148 1.906-.441.536-.297.926-.64 1.27-1.082l3.32 2.113c-.683.984-1.562 1.77-2.683 2.262-1.125.543-2.395.789-3.86.789-1.469 0-2.101-.149-3.078-.492-.93-.344-1.809-.836-2.543-1.477-.73-.64-1.27-1.476-1.707-2.41-.441-.934-.637-2.016-.637-3.242 0-1.23.196-2.262.586-3.2.39-.98.977-1.769 1.66-2.456.684-.688 1.516-1.18 2.446-1.575.926-.39 1.953-.539 3.078-.539 1.121 0 2.05.196 2.93.54.879.343 1.66.886 2.296 1.574.633.687 1.122 1.523 1.512 2.457.39.984.59 2.066.59 3.296m-4.352-1.82c0-.738-.242-1.426-.73-1.965-.488-.543-1.172-.836-2.148-.836-.98 0-.883 0-1.274.196a3.51 3.51 0 0 0-1.023.59c-.293.246-.54.539-.684.886a2.11 2.11 0 0 0-.293 1.078h6.152Zm0 0"/><g clip-path="url(#a)"><g clip-path="url(#b)"><path style="stroke:none;fill-rule:nonzero;fill:#642a73;fill-opacity:1" d="M124.258 34.023h14.949v10.57h-14.95Zm0 0"/></g></g><path style="stroke:none;fill-rule:nonzero;fill:#4f205d;fill-opacity:1" d="M118.05 44.152v-7.965c0-.394-.046-.789-.097-1.18-.047-.394-.144-.69-.34-.984a1.352 1.352 0 0 0-.636-.64c-.243-.145-.586-.246-1.024-.246-.394 0-.734.101-1.078.246-.293.199-.535.394-.73.691a3.527 3.527 0 0 0-.442.98 4.9 4.9 0 0 0-.144 1.18v7.868h-4.739v-8.309c0-.836-.148-1.477-.488-1.965-.344-.492-.832-.738-1.566-.738-.73 0-1.317.293-1.758.883-.39.59-.633 1.328-.633 2.215v7.914h-4.79V29.55h4.595v2.015h.047c.195-.296.39-.59.636-.886.242-.293.586-.54.926-.785.344-.247.781-.395 1.223-.543.437-.149.93-.196 1.465-.196 1.027 0 1.906.196 2.636.64.735.442 1.274 1.032 1.711 1.817.489-.738 1.125-1.375 1.856-1.816.734-.445 1.664-.692 2.738-.692s1.805.2 2.492.543a4.816 4.816 0 0 1 1.61 1.375c.39.59.683 1.23.878 1.918.196.688.293 1.426.293 2.067v8.996h-4.64Zm0 0"/><g clip-path="url(#c)"><g clip-path="url(#d)"><path style="stroke:none;fill-rule:nonzero;fill:#642a73;fill-opacity:1" d="M118.05 38.398h4.74v5.754h-4.74Zm0 0"/></g></g><g clip-path="url(#e)"><path style="stroke:none;fill-rule:nonzero;fill:#642a73;fill-opacity:1" d="M99.684 39.875h4.789v4.227h-4.79Zm0 0"/></g><g clip-path="url(#f)"><path style="stroke:none;fill-rule:nonzero;fill:#642a73;fill-opacity:1" d="M108.867 39.578h4.738v4.524h-4.738Zm0 0"/></g><path style="stroke:none;fill-rule:nonzero;fill:#4f205d;fill-opacity:1" d="M94.895 30.336a5.048 5.048 0 0 1-2.247-.54v14.356h4.739V29.695c-.782.395-1.614.64-2.492.64"/><g clip-path="url(#g)"><path style="stroke:none;fill-rule:nonzero;fill:#642a73;fill-opacity:1" d="M92.602 39.383h4.738v4.719h-4.738Zm0 0"/></g><path style="stroke:none;fill-rule:nonzero;fill:#4f205d;fill-opacity:1" d="M92.16 25.273a2.74 2.74 0 0 1 2.735-2.753 2.74 2.74 0 0 1 2.738 2.753 2.74 2.74 0 0 1-2.738 2.75 2.738 2.738 0 0 1-2.735-2.75m-14.754 6.34c.832-.836 1.856-1.425 2.98-1.816a10.478 10.478 0 0 1 3.47-.594c1.171 0 2.246.149 3.078.445a5.034 5.034 0 0 1 2.05 1.375c.54.641.88 1.426 1.125 2.41.243.985.34 2.114.34 3.442v7.375h-4.297v-1.523h-.097a3.267 3.267 0 0 1-1.66 1.375c-.735.343-1.567.492-2.395.492-.832 0-1.172-.098-1.809-.246a5.885 5.885 0 0 1-1.71-.739c-.489-.343-.926-.836-1.27-1.375-.34-.59-.488-1.277-.488-2.164 0-.883.293-1.867.832-2.554.586-.641 1.316-1.133 2.195-1.477.98-.394 1.957-.59 2.98-.687 1.125-.098 2.153-.2 3.227-.2v-.242c0-.738-.246-1.23-.734-1.574-.489-.344-1.125-.492-1.856-.492-.734 0-1.32.148-1.953.441a5.668 5.668 0 0 0-1.613 1.031l-2.395-2.652Zm8.746 6.196H84c-.535 0-1.023.148-1.414.296-.441.145-.781.344-1.027.59-.293.246-.391.59-.391 1.032 0 .441.05.492.195.687.149.2.293.344.489.445.195.098.39.196.683.243h.735c.976 0 1.71-.243 2.199-.786.488-.539.781-1.277.781-2.164v-.441h-.098Zm0 0"/><g clip-path="url(#h)"><g clip-path="url(#i)"><path style="stroke:none;fill-rule:nonzero;fill:#642a73;fill-opacity:1" d="M76.723 37.172h13.726v7.375H76.723Zm0 0"/></g></g><path style="stroke:none;fill-rule:nonzero;fill:#4f205d;fill-opacity:1" d="M68.71 38.45V24.925c-4.347.937-7.62-.242-7.62-.242v4.226c1.074.738 3.078.54 3.078.54s.144 8.163-.441 11.41c-.536 2.949-1.856 4.62-5.422 4.519-1.758 0-2.883-.785-3.614-1.668l-2.785 3.34c1.66 1.625 4.348 3.148 8.645 2.804 8.504-.738 8.16-11.457 8.16-11.457"/><g clip-path="url(#j)"><g clip-path="url(#k)"><path style="stroke:none;fill-rule:nonzero;fill:#642a73;fill-opacity:1" d="M51.809 32.793h17.246v17.504H51.809Zm0 0"/></g></g><path style="stroke:none;fill-rule:nonzero;fill:#df0958;fill-opacity:1" d="M74.965 28.074s-.05.098-.05.149c-.587 1.77-1.61 2.898-3.126 3.441.047-.2.098-.394.145-.543.097-.344.293-.687.441-.98.145-.297.344-.543.586-.739.441-.394.879-.738 1.418-1.03.195-.15.39-.2.586-.298m1.414-2.605s-.293.59-1.121.933c-.735.297-1.125.442-1.516.641-.633.293-1.222.734-1.808 1.328-.293.293-.536.637-.782.98a6.304 6.304 0 0 0-.586 1.278c-.195.691-.34 1.43-.39 2.164v.64c3.91-.195 5.472-2.703 6.105-4.769 0 0 .688-2.36.098-3.195"/><path style="stroke:none;fill-rule:nonzero;fill:#be0349;fill-opacity:1" d="M73.207 30.926c-.098 0-.148.097-.195.148.097 0 .144-.097.195-.148Zm.586-3.883c-.637.293-1.223.734-1.809 1.328-.293.293-.539.637-.78.98a5.906 5.906 0 0 0-.587 1.278c-.148.348-.246.789-.293 1.23.684 0 1.66-.148 2.54-.738-.294.2-.637.344-1.028.492 0-.195.098-.39.148-.539.098-.344.293-.687.438-.984.148-.293.344-.54.59-.738.437-.391.879-.739 1.414-1.032.148-.097.344-.148.539-.246a7.73 7.73 0 0 0 .195-1.62c-.683.245-1.027.39-1.367.589Zm0 0"/><path style="stroke:none;fill-rule:nonzero;fill:#df0958;fill-opacity:1" d="M31.145 8.063v.246c-.977 3-2.739 4.964-5.325 5.851.098-.344.145-.64.293-.933.196-.59.489-1.133.782-1.672.293-.442.632-.887.976-1.278a8.427 8.427 0 0 1 2.395-1.773c.242-.098.535-.242.925-.39m2.348-4.477s-.492.984-1.906 1.574c-1.27.492-1.856.738-2.543 1.082-1.024.543-2.098 1.277-3.027 2.262-.489.492-.93 1.082-1.32 1.672a9.67 9.67 0 0 0-1.024 2.164c-.442 1.18-.637 2.41-.684 3.636v1.082c6.645-.293 9.328-4.62 10.406-8.113 0 0 1.121-3.934.145-5.406"/><path style="stroke:none;fill-rule:nonzero;fill:#be0349;fill-opacity:1" d="M23.18 14.602c1.222 0 2.785-.247 4.3-1.227a7.426 7.426 0 0 1-1.757.836c.097-.348.144-.64.293-.938.195-.59.488-1.128.78-1.671.294-.442.634-.883.977-1.278a8.34 8.34 0 0 1 2.395-1.77c.293-.148.586-.245.926-.44.293-1.083.343-2.067.293-2.755-1.121.442-1.707.641-2.344.985-1.027.539-2.102 1.277-3.027 2.261-.489.493-.93 1.082-1.32 1.672a9.74 9.74 0 0 0-1.028 2.16c-.195.641-.34 1.38-.488 2.165"/><path style="stroke:none;fill-rule:nonzero;fill:#df0958;fill-opacity:1" d="M35.344 11.75a16.986 16.986 0 0 1-3.125 4.523c4.004 5.457 0 9.883 0 9.883l-9.77 10.965c-.734-1.426-2.785-2.902-4.203-3.785l-3.418 4.18s5.274 2.554 7.277 6.785L34.66 31.71s4.3-4.621 4.836-9.684c.39-4.129-.976-7.867-4.152-10.277"/><path style="stroke:none;fill-rule:nonzero;fill:#be0349;fill-opacity:1" d="M9.063 27.484C6.57 24.781 7.449 21.29 7.449 21.29s.293-3.637 4.446-5.95c3.226-1.718 6.793-.491 8.257.196.145-1.18.438-2.308.782-3.39.097-.344.242-.688.39-1.032-1.172-.691-4.105-2.117-7.77-1.773-9.574.887-14.261 9.539-11.917 17.113 2.246 7.274 11.675 9.488 11.675 9.488l2.981-3.785c-1.465-.64-5.227-2.46-7.23-4.62m19.05-14.606c-.097.097-.195.148-.293.246 0-.098.149-.196.293-.246"/><path style="stroke:none;fill-rule:nonzero;fill:#be0349;fill-opacity:1" d="M21.273 11.21c-1.171-.687-4.101-2.112-7.765-1.769-1.516.145-2.93.493-4.203.98-1.953.985-4.25 2.954-4.785 6.985C3.543 24.73 9.453 28.32 9.453 28.32s.93.688 2.442 1.524c-1.075-.688-2.102-1.473-2.883-2.309-2.489-2.707-1.61-6.195-1.61-6.195s.293-3.64 4.446-5.95c3.222-1.722 6.789-.445 8.254.196.148-1.18.441-2.313.78-3.395.098-.293.247-.636.391-.98M32.22 26.156l-9.77 10.965c-.734-1.426-2.785-2.902-4.203-3.785l-3.418 4.18s5.274 2.554 7.277 6.785l.293-.297c1.223-1.375 2.442-2.754 3.618-4.18 11.968-14.207 7.62-21.73 6.203-23.55 3.957 5.507 0 9.933 0 9.933"/><path style="stroke:none;fill-rule:nonzero;fill:#4f205d;fill-opacity:1" d="M147.95 14.11v.59c0 .198 0 .394-.048.542h-10.457c.051.395.149.785.344 1.13.195.343.438.64.781.835.34.246.684.445 1.075.59.39.148.78.2 1.222.2.73 0 1.367-.15 1.903-.446.492-.242.93-.637 1.273-1.078l3.32 2.113c-.683.98-1.562 1.77-2.687 2.262-1.121.539-2.395.785-3.86.785-1.464 0-2.101-.149-3.078-.492-.925-.344-1.804-.836-2.539-1.473-.734-.64-1.27-1.477-1.71-2.41-.438-.934-.634-2.016-.634-3.246 0-1.227.196-2.262.586-3.196.391-.984.977-1.77 1.66-2.457.684-.687 1.516-1.18 2.442-1.574.93-.394 1.957-.539 3.078-.539 1.125 0 2.05.195 2.934.54a6.18 6.18 0 0 1 2.293 1.573c.636.688 1.125 1.524 1.515 2.457.442.985.586 2.067.586 3.293m-4.347-1.816c0-.738-.243-1.426-.735-1.969-.488-.539-1.172-.836-2.148-.836-.977 0-.88 0-1.27.2-.39.144-.734.343-1.027.59a2.42 2.42 0 0 0-.684.882 2.114 2.114 0 0 0-.293 1.082h6.157Zm-16.805 8.945v-7.965c0-.39-.05-.785-.098-1.18-.05-.39-.148-.687-.344-.98a1.327 1.327 0 0 0-.632-.64c-.246-.149-.586-.246-1.028-.246-.437 0-.78.097-1.074.246-.293.195-.539.394-.734.687-.196.297-.34.64-.438.985a4.881 4.881 0 0 0-.148 1.18v7.866h-4.739v-8.308c0-.836-.144-1.477-.488-1.969-.34-.492-.828-.738-1.562-.738-.735 0-1.32.297-1.758.886-.39.59-.637 1.329-.637 2.211v7.918h-4.785V6.637h4.59v2.015h.05c.196-.293.391-.59.633-.882.247-.297.586-.543.93-.79.34-.246.781-.39 1.223-.539.437-.148.926-.195 1.512-.195 1.027 0 1.906.195 2.64.637.73.441 1.27 1.031 1.707 1.82.488-.738 1.125-1.379 1.856-1.82.734-.442 1.664-.688 2.738-.688s1.809.196 2.492.54a4.438 4.438 0 0 1 1.61 1.378c.39.59.683 1.227.878 1.918.2.688.297 1.426.297 2.063v9h-4.691Zm-20.813-11.062a6.816 6.816 0 0 0-.879-1.914c-.39-.59-.925-1.035-1.613-1.38-.683-.343-1.512-.538-2.488-.538-.977 0-2.004.246-2.738.687-.73.442-1.368 1.082-1.856 1.82-.39-.789-.976-1.425-1.71-1.82-.731-.441-1.61-.64-2.638-.64-1.027 0-1.027.05-1.515.199-.438.144-.879.293-1.219.539a3.612 3.612 0 0 0-.93.785c-.246.297-.488.59-.636.887h-.047V6.785H83.12V21.29h4.79v-7.914c0-.887.194-1.625.636-2.215.39-.59.976-.883 1.758-.883.78 0 1.218.246 1.562.735.344.492.488 1.133.488 1.968v7.965a5.192 5.192 0 0 1 2.54-.687c.93 0 1.515.195 2.199.492v-7.375c0-.395 0-.79.148-1.184.098-.39.242-.734.438-.98.195-.297.441-.543.734-.688.293-.199.633-.246 1.074-.246.438 0 .782.098 1.028.246.242.145.488.391.632.637.149.297.247.59.344.985.047.394.098.785.098 1.18v7.964h4.738v-8.996c-.098-.691-.195-1.426-.344-2.117M81.56 13.914c0 1.18-.196 2.262-.633 3.195-.39.934-1.028 1.77-1.762 2.457-.73.692-1.562 1.184-2.539 1.575-.977.394-2.004.543-3.078.543a9.44 9.44 0 0 1-3.078-.543c-.977-.391-1.805-.883-2.54-1.575-.734-.687-1.32-1.472-1.71-2.457-.438-.984-.633-2.015-.633-3.195 0-1.18.195-2.262.633-3.195.441-.934.976-1.77 1.71-2.41.735-.637 1.563-1.18 2.54-1.524a8.833 8.833 0 0 1 6.156 0 7.014 7.014 0 0 1 2.54 1.524c.733.64 1.32 1.476 1.76 2.41.438.933.634 2.015.634 3.195m-4.543 0c0-.492-.098-.934-.243-1.375a3.563 3.563 0 0 0-.687-1.18c-.293-.347-.633-.64-1.074-.836-.438-.199-.926-.347-1.465-.347-.535 0-1.074.101-1.465.347-.441.196-.781.489-1.074.836-.293.344-.488.735-.637 1.18-.144.441-.195.883-.195 1.375s.05.934.195 1.375c.149.445.344.836.637 1.23.293.344.633.641 1.074.836.438.196.93.344 1.465.344.539 0 1.074-.097 1.465-.344.441-.195.781-.492 1.074-.835.293-.344.492-.739.637-1.23.195-.49.293-.935.293-1.376"/><path style="stroke:none;fill-rule:nonzero;fill:#4f205d;fill-opacity:1" d="M62.848 20.945c-1.27.59-2.785.883-4.446.883-1.66 0-2.93-.242-4.25-.734-1.32-.492-2.394-1.23-3.37-2.164-.927-.934-1.708-2.016-2.247-3.344-.539-1.277-.832-2.703-.832-4.277 0-1.575.293-3.047.832-4.329.54-1.277 1.32-2.406 2.297-3.293.977-.886 2.098-1.62 3.418-2.113 1.32-.492 2.688-.738 4.203-.738 1.512 0 2.785.246 4.102.738 1.367.492 2.445 1.227 3.273 2.164L62.605 6.98c-.44-.636-1.027-1.082-1.757-1.375a5.891 5.891 0 0 0-2.25-.44c-.782 0-1.61.144-2.297.44a5.253 5.253 0 0 0-1.805 1.278A7.78 7.78 0 0 0 53.324 8.8a6.787 6.787 0 0 0-.441 2.41c0 .836.148 1.719.441 2.457.293.687.684 1.379 1.172 1.918.488.539 1.074.934 1.758 1.23a5.946 5.946 0 0 0 2.246.442c.781 0 1.758-.195 2.492-.543.684-.39 1.27-.883 1.711-1.473l3.32 3.145c-.828 1.133-1.906 1.918-3.175 2.558"/><path style="stroke:none;fill-rule:nonzero;fill:#756969;fill-opacity:1" d="M71.738 50.2c.782 0 1.516.245 2.102.784.05 0 .05.102 0 .102l-.438.488h-.097c-.344-.293-.785-.539-1.516-.539-1.27 0-2.148.836-2.148 2.164 0 1.328.828 2.164 2.097 2.164 1.274 0 1.223-.246 1.567-.543h.097l.438.543c.05 0 .05.098 0 .098a2.98 2.98 0 0 1-1.758.738l-.098.242c.391 0 .684.246.684.692 0 .441-.39.738-.93.738-.535 0-.683-.148-.879-.297-.03 0-.03-.031 0-.097l.149-.247h.097c.098.098.391.149.586.149.196 0 .391-.102.391-.297s-.195-.246-.441-.246h-.391c-.047 0-.047 0-.047-.098l.242-.539c-1.61-.148-2.683-1.328-2.683-3 0-1.918 1.465-2.949 2.976-2.949M77.797 52.363s.05-.097.098-.097h.539c.046 0 .097 0 .097.097v3.735s-.05.101-.097.101h-.54c-.046 0-.097 0-.097-.101l-.098-.489c-.293.442-.73.688-1.32.688-1.172 0-1.953-.836-1.953-2.016 0-1.18.781-2.015 1.953-2.015 1.176 0 1.027.246 1.32.687Zm-1.418 3.047c.734 0 1.223-.492 1.223-1.226 0-.739-.489-1.23-1.223-1.23-.73 0-1.219.491-1.219 1.23 0 .734.488 1.226 1.219 1.226M83.367 56.246c-1.222 0-2.004-.836-2.004-2.016 0-1.18.977-2.015 2.004-2.015 1.028 0 1.32.297 1.711.887.047 0 .047.097 0 .097l-.488.39H84.44c-.246-.343-.586-.538-1.027-.538-.73 0-1.219.492-1.219 1.23 0 .735.489 1.227 1.22 1.227.733 0 .831-.246 1.026-.54H84.59l.438.442c.051 0 .051.098 0 .098-.34.492-.93.789-1.66.789M85.957 50.05h.633c.05 0 .097 0 .097.098v2.657c.247-.395.637-.64 1.223-.64.88 0 1.516.589 1.516 1.722v2.164s-.051.097-.098.097h-.637c-.046 0-.097 0-.097-.097v-2.067c0-.738-.34-1.03-.88-1.03-.538 0-1.026.636-1.026 1.276v1.82s-.047.098-.098.098h-.633c-.05 0-.098 0-.098-.097V50.1h.098M93.578 52.363s.047-.097.098-.097h.535c.05 0 .098 0 .098.097v3.735s-.047.101-.098.101h-.535c-.051 0-.098 0-.098-.101l-.098-.489c-.293.442-.734.688-1.32.688-1.172 0-1.953-.836-1.953-2.016 0-1.18.781-2.015 1.953-2.015 1.172 0 1.028.246 1.32.687Zm-1.367 3.047c.73 0 1.219-.492 1.219-1.226 0-.739-.489-1.23-1.22-1.23-.733 0-1.222.491-1.222 1.23 0 .734.489 1.226 1.223 1.226M95.336 52.363s.047-.097.098-.097h.488c.047 0 .098 0 .098.097l.097.54c.246-.442.684-.688 1.27-.688.879 0 1.515.59 1.515 1.722v2.16s-.05.102-.097.102h-.637c-.047 0-.098 0-.098-.101v-2.063c0-.738-.34-1.035-.879-1.035-.535 0-1.023.64-1.023 1.281v1.817s-.05.101-.098.101h-.636c-.051 0-.098 0-.098-.101ZM103.004 52.855l.148-.542s.047-.098.098-.098h.438c.05 0 .097 0 .097.097v3.739c0 1.226-.828 2.062-2.05 2.062-1.22 0-1.172-.195-1.563-.39-.047 0-.047-.098-.047-.149l.293-.59h.097a3.34 3.34 0 0 0 1.172.344c.829 0 1.27-.492 1.27-1.23v-.489c-.293.391-.734.637-1.32.637-1.172 0-1.953-.836-1.953-2.016 0-1.18.78-2.015 1.953-2.015 1.172 0 1.074.297 1.367.687m-1.317 2.508c.731 0 1.22-.492 1.22-1.226 0-.739-.489-1.23-1.22-1.23-.734 0-1.171.491-1.171 1.23 0 .734.488 1.226 1.171 1.226M106.668 55.46c.441 0 .734-.148.977-.343h.148l.441.442c.047 0 .047.097 0 .097-.343.395-.882.59-1.566.59-1.219 0-2.05-.836-2.05-2.016 0-1.18.78-2.015 2.003-2.015s2.004.738 2.004 2.262c0 1.523-.05.097-.098.097h-3.078c.098.543.535.887 1.219.887m1.074-1.574c-.097-.59-.535-.934-1.172-.934-.632 0-1.074.395-1.172.934ZM111.457 56.05v-3.737s.047-.098.098-.098h.488c.05 0 .098 0 .098.097l.097.493c.246-.395.637-.688 1.172-.688.54 0 .977.293 1.223.785.242-.492.683-.785 1.32-.785.633 0 1.414.59 1.367 1.719V56s-.05.098-.097.098h-.637c-.047 0-.098 0-.098-.098v-2.063c0-.738-.293-1.035-.781-1.035-.488 0-.93.446-.93 1.328v1.723s-.047.098-.097.098h-.633c-.05 0-.098 0-.098-.098v-2.066c0-.739-.293-1.032-.781-1.032-.488 0-.93.688-.93 1.278v1.82s-.047.098-.097.098h-.637c0 .097 0 .097 0 0M121.473 52.363s.047-.097.097-.097h.535c.051 0 .098 0 .098.097v3.735s-.047.101-.098.101h-.535c-.05 0-.097 0-.097-.101l-.098-.489c-.293.442-.734.688-1.32.688-1.172 0-1.953-.836-1.953-2.016 0-1.18.78-2.015 1.953-2.015 1.172 0 1.027.246 1.32.687Zm-1.368 3.047c.73 0 1.22-.492 1.22-1.226 0-.739-.49-1.23-1.22-1.23-.734 0-1.222.491-1.222 1.23 0 .734.488 1.226 1.222 1.226M124.941 52.266h.829l1.074 2.851 1.078-2.851h.828c.05 0 .098 0 .05.097l-1.468 3.688c-.047 0-.047.097-.098.097h-.73c-.05 0-.098 0-.098-.097l-1.465-3.688c-.097 0-.097-.097 0-.097M129.777 50.348c.34 0 .536.195.536.539 0 .343-.196.543-.536.543-.343 0-.539-.2-.539-.543 0-.344.196-.54.54-.54m.39 5.704s-.05.097-.098.097h-.636c-.047 0-.098 0-.098-.097v-3.739s.05-.097.098-.097h.636c.047 0 .098 0 .098.097ZM138.422 56.246c-.34 0-.535-.195-.535-.539 0-.344.195-.543.535-.543.344 0 .488.2.488.543.05.293-.144.54-.488.54m-.34-1.72c-.05 0-.098 0-.098-.101v-4.031s.047-.098.098-.098h.73c.051 0 .098 0 .098.098v4.03s-.047.102-.097.102ZM133.098 55.46c.441 0 .734-.148.976-.343H134.222l.438.442c.05 0 .05.097 0 .097-.34.395-.879.59-1.562.59-1.22 0-2.051-.836-2.051-2.016 0-1.18.781-2.015 2.004-2.015 1.219 0 2 .738 2 2.262 0 1.523-.047.097-.098.097h-3.074c.098.543.535.887 1.219.887m1.074-1.574c-.098-.59-.535-.934-1.172-.934-.633 0-1.074.395-1.172.934Zm0 0"/></svg>