<svg xmlns="http://www.w3.org/2000/svg" width="145" height="49" viewBox="0 0 143 49"><defs><clipPath id="f"><path d="M104.313 37.984h4.542v4.332h-4.543Zm0 0"/></clipPath><clipPath id="a"><path d="M119 32h15v11h-15Zm0 0"/></clipPath><clipPath id="c"><path d="M113.164 36.855h4.543v5.461h-4.543Zm0 0"/></clipPath><clipPath id="d"><path d="M113.164 37.563v4.753h4.543v-5.46c-1.453.234-2.996.472-4.543.706"/></clipPath><clipPath id="e"><path d="M95.504 38.27h4.594v4.046h-4.594Zm0 0"/></clipPath><clipPath id="b"><path d="M119.113 36.574c.094.707.235 1.364.516 1.977a6.246 6.246 0 0 0 1.64 2.304 7.276 7.276 0 0 0 2.434 1.415c.938.328 1.922.468 2.953.468 1.028 0 2.621-.234 3.7-.75 1.078-.52 1.917-1.226 2.574-2.168l-3.184-2.023a3.722 3.722 0 0 1-1.219 1.035c-.515.285-1.125.426-1.824.426-.703 0-.797 0-1.172-.192-.375-.187-.703-.328-1.031-.562a3 3 0 0 1-.75-.8c-.188-.329-.328-.661-.328-1.083h10.023c0-.187.047-.328.047-.52v-.562c0-1.082-.14-2.023-.422-2.871-3.043 1.176-7.773 2.73-13.957 3.906"/></clipPath><clipPath id="g"><path d="M88.715 37.797h4.543v4.52h-4.543Zm0 0"/></clipPath><clipPath id="h"><path d="M73.492 35.68h13.16v7.011h-13.16Zm0 0"/></clipPath><clipPath id="i"><path d="M74.332 35.867c-.559.613-.793 1.414-.793 2.45 0 1.035.14 1.503.469 2.07.324.562.699.988 1.215 1.316.468.332 1.03.567 1.64.707.61.14 1.172.235 1.735.235.84 0 1.59-.141 2.293-.47.703-.331 1.265-.753 1.593-1.32h.094v1.461h4.168V37.61a86.718 86.718 0 0 1-4.168-.52c-.047.708-.281 1.274-.703 1.743-.469.52-1.219.754-2.11.754h-.699c-.234 0-.468-.14-.656-.234-.187-.094-.328-.286-.469-.426-.14-.188-.187-.422-.187-.656 0-.426.14-.754.375-.989.281-.238.61-.426.984-.566h.14c-1.64-.281-3.187-.613-4.64-.895-.14 0-.234.094-.281.14"/></clipPath><clipPath id="j"><path d="M49 31h17v17H49Zm0 0"/></clipPath><clipPath id="k"><path d="M60.984 39.21c-.515 2.825-1.78 4.423-5.199 4.33-1.687 0-2.762-.755-3.465-1.599l-2.672 3.2c1.594 1.554 4.168 3.011 8.293 2.683 8.243-.754 7.868-10.922 7.868-10.922V33.23c-1.922-.656-3.371-1.27-4.403-1.695 0 2.496-.093 5.887-.422 7.676"/></clipPath></defs><path style="stroke:none;fill-rule:nonzero;fill:#4f205d;fill-opacity:1" d="M133.445 35.54v.562c0 .191 0 .378-.047.52h-10.023c.047.374.14.753.328 1.081.188.328.422.613.75.8a4.41 4.41 0 0 0 1.031.563c.375.145.75.192 1.172.192.7 0 1.309-.14 1.824-.426.516-.281.891-.61 1.22-1.035l3.183 2.023c-.656.942-1.496 1.696-2.574 2.168-1.079.516-2.297.75-3.7.75-1.406 0-2.015-.14-2.953-.468a7.276 7.276 0 0 1-2.433-1.415c-.703-.609-1.22-1.41-1.641-2.304-.422-.895-.61-1.93-.61-3.106 0-1.18.188-2.168.563-3.062.375-.942.938-1.692 1.594-2.352.652-.66 1.45-1.129 2.34-1.508.89-.375 1.875-.515 2.953-.515 1.074 0 1.965.187 2.808.515a5.968 5.968 0 0 1 2.204 1.508c.605.66 1.074 1.457 1.449 2.352.375.941.562 1.976.562 3.156m-4.168-1.742c0-.707-.234-1.367-.703-1.883-.469-.52-1.125-.8-2.058-.8-.938 0-.844 0-1.22.187a3.38 3.38 0 0 0-.984.566 2.272 2.272 0 0 0-.656.848 2.01 2.01 0 0 0-.281 1.035h5.902Zm0 0"/><g clip-path="url(#a)"><g clip-path="url(#b)"><path style="stroke:none;fill-rule:nonzero;fill:#642a73;fill-opacity:1" d="M119.113 32.668h14.332v10.07h-14.332Zm0 0"/></g></g><path style="stroke:none;fill-rule:nonzero;fill:#4f205d;fill-opacity:1" d="M113.164 42.316v-7.578c0-.379-.047-.754-.094-1.129-.047-.379-.14-.66-.328-.941a1.273 1.273 0 0 0-.61-.613c-.234-.14-.562-.235-.984-.235a2.23 2.23 0 0 0-1.027.235c-.281.187-.516.375-.703.66-.188.281-.328.61-.422.941-.094.375-.14.754-.14 1.13v7.484h-4.543v-7.91c0-.797-.141-1.41-.47-1.883-.327-.47-.796-.704-1.5-.704-.702 0-1.265.282-1.687.848-.37.563-.605 1.27-.605 2.117v7.532h-4.594V28.383h4.406v1.93h.047c.188-.282.375-.563.606-.848.234-.281.562-.516.89-.754.328-.234.75-.375 1.172-.516.422-.14.89-.187 1.406-.187.985 0 1.825.187 2.528.61.703.425 1.218.987 1.64 1.741a5.738 5.738 0 0 1 1.782-1.742c.703-.422 1.59-.656 2.62-.656 1.032 0 1.735.187 2.391.516a4.25 4.25 0 0 1 1.543 1.32c.375.562.657 1.176.844 1.836.188.656.281 1.363.281 1.976v8.567h-4.449Zm0 0"/><g clip-path="url(#c)"><g clip-path="url(#d)"><path style="stroke:none;fill-rule:nonzero;fill:#642a73;fill-opacity:1" d="M113.164 36.855h4.543v5.461h-4.543Zm0 0"/></g></g><g clip-path="url(#e)"><path style="stroke:none;fill-rule:nonzero;fill:#642a73;fill-opacity:1" d="M95.504 38.27h4.594v4.046h-4.594Zm0 0"/></g><g clip-path="url(#f)"><path style="stroke:none;fill-rule:nonzero;fill:#642a73;fill-opacity:1" d="M104.313 37.984h4.542v4.332h-4.543Zm0 0"/></g><path style="stroke:none;fill-rule:nonzero;fill:#4f205d;fill-opacity:1" d="M90.914 29.184a4.658 4.658 0 0 1-2.152-.52v13.7h4.543V28.57c-.75.38-1.547.614-2.39.614"/><g clip-path="url(#g)"><path style="stroke:none;fill-rule:nonzero;fill:#642a73;fill-opacity:1" d="M88.715 37.797h4.543v4.52h-4.543Zm0 0"/></g><path style="stroke:none;fill-rule:nonzero;fill:#4f205d;fill-opacity:1" d="M88.293 24.336a2.625 2.625 0 0 1 2.621-2.637 2.626 2.626 0 0 1 2.625 2.637 2.628 2.628 0 0 1-2.625 2.637 2.627 2.627 0 0 1-2.621-2.637M74.145 30.36c.796-.801 1.78-1.364 2.859-1.743a10.123 10.123 0 0 1 3.324-.562c1.125 0 2.156.14 2.953.422.797.285 1.45.753 1.965 1.32.516.61.844 1.363 1.078 2.305.235.941.328 2.023.328 3.296v7.012h-4.12v-1.46h-.094a3.407 3.407 0 0 1-1.594 1.32c-.703.328-1.496.468-2.293.468-.797 0-1.125-.093-1.735-.234a5.037 5.037 0 0 1-1.64-.707c-.469-.328-.89-.797-1.215-1.317-.328-.566-.469-1.222-.469-2.07 0-.847.281-1.789.793-2.45.563-.608 1.266-1.081 2.11-1.41a10.503 10.503 0 0 1 2.859-.66c1.074-.093 2.058-.187 3.09-.187v-.234c0-.707-.235-1.18-.703-1.508-.47-.328-1.079-.473-1.782-.473-.699 0-1.261.145-1.87.426a6.263 6.263 0 0 0-1.548.988Zm8.386 5.933H80.47c-.516 0-.985.14-1.356.281-.422.14-.75.328-.984.563-.281.238-.375.566-.375.988 0 .426.047.473.187.66.141.188.282.332.47.426.187.094.374.187.655.234h.7c.937 0 1.64-.234 2.109-.754.469-.515.75-1.222.75-2.07v-.426h-.094Zm0 0"/><g clip-path="url(#h)"><g clip-path="url(#i)"><path style="stroke:none;fill-rule:nonzero;fill:#642a73;fill-opacity:1" d="M73.492 35.68h13.16v7.011h-13.16Zm0 0"/></g></g><path style="stroke:none;fill-rule:nonzero;fill:#4f205d;fill-opacity:1" d="M65.809 36.902V24.004c-4.168.894-7.309-.234-7.309-.234v4.05c1.031.703 2.953.516 2.953.516s.14 7.766-.422 10.875c-.515 2.824-1.781 4.422-5.199 4.328-1.687 0-2.762-.754-3.465-1.598l-2.672 3.2c1.594 1.554 4.168 3.011 8.293 2.683 8.149-.707 7.82-10.922 7.82-10.922"/><g clip-path="url(#j)"><g clip-path="url(#k)"><path style="stroke:none;fill-rule:nonzero;fill:#642a73;fill-opacity:1" d="M49.602 31.488h16.535v16.664H49.602Zm0 0"/></g></g><path style="stroke:none;fill-rule:nonzero;fill:#df0958;fill-opacity:1" d="M71.805 27.02s-.047.093-.047.14c-.563 1.695-1.547 2.777-2.996 3.293.047-.187.093-.375.136-.515.094-.333.282-.66.422-.942.14-.285.328-.52.563-.707a5.965 5.965 0 0 1 1.36-.988c.187-.14.374-.188.562-.281m1.36-2.497s-.282.567-1.08.895c-.702.281-1.077.422-1.452.613-.61.282-1.172.703-1.735 1.27-.277.281-.511.613-.746.941a4.875 4.875 0 0 0-.562 1.223 8.63 8.63 0 0 0-.375 2.07v.613c3.746-.187 5.246-2.59 5.855-4.566 0 0 .657-2.258.094-3.059"/><path style="stroke:none;fill-rule:nonzero;fill:#be0349;fill-opacity:1" d="M70.117 29.703c-.094 0-.14.094-.187.14.093 0 .14-.093.187-.14ZM70.68 26.031c-.61.282-1.172.703-1.735 1.27-.277.281-.511.613-.746.941a4.875 4.875 0 0 0-.562 1.223c-.14.332-.235.754-.282 1.18.657 0 1.59-.145 2.434-.707-.281.187-.61.328-.98.468 0-.187.09-.375.136-.515.094-.332.282-.66.422-.942.14-.285.328-.52.563-.707a5.965 5.965 0 0 1 1.36-.988c.14-.094.327-.14.515-.234.14-.614.187-1.18.187-1.555-.656.234-.984.375-1.312.566Zm0 0"/><path style="stroke:none;fill-rule:nonzero;fill:#df0958;fill-opacity:1" d="M29.79 7.953v.238c-.938 2.871-2.626 4.754-5.106 5.555.093-.332.14-.613.28-.894.188-.567.47-1.086.75-1.602.282-.426.61-.848.938-1.223a9.222 9.222 0 0 1 2.293-1.695c.235-.094.516-.234.89-.379m2.247-4.234s-.465.941-1.824 1.508c-1.219.468-1.781.703-2.438 1.035-.984.515-2.011 1.222-2.902 2.164-.469.469-.89 1.035-1.266 1.601a10.51 10.51 0 0 0-.984 2.07 11.214 11.214 0 0 0-.656 3.485v1.035c6.37-.285 8.949-4.426 9.98-7.722 0 0 1.074-3.766.137-5.176"/><path style="stroke:none;fill-rule:nonzero;fill:#be0349;fill-opacity:1" d="M22.152 14.168c1.172 0 2.672-.234 4.125-1.176a7.134 7.134 0 0 1-1.687.801c.094-.332.14-.613.281-.895.188-.566.469-1.082.75-1.601.281-.422.61-.848.938-1.223a9.222 9.222 0 0 1 2.293-1.695c.28-.14.562-.234.89-.426.281-1.035.328-1.976.281-2.633-1.078.422-1.64.61-2.25.942-.98.515-2.011 1.222-2.902 2.164-.469.469-.89 1.035-1.266 1.601a10.51 10.51 0 0 0-.984 2.07c-.187.61-.328 1.317-.469 2.071"/><path style="stroke:none;fill-rule:nonzero;fill:#df0958;fill-opacity:1" d="M33.816 11.438a16.18 16.18 0 0 1-2.996 4.332c3.84 5.222 0 9.414 0 9.414l-9.367 10.449c-.703-1.367-2.672-2.778-4.031-3.625l-3.277 4s5.058 2.449 6.98 6.449L33.16 30.453s4.125-4.422 4.637-9.223c.375-3.957-.934-7.484-3.98-9.793"/><path style="stroke:none;fill-rule:nonzero;fill:#be0349;fill-opacity:1" d="M8.57 26.453c-2.39-2.59-1.547-5.883-1.547-5.883s.282-3.484 4.262-5.648c3.094-1.649 6.512-.473 7.918.187.14-1.129.422-2.21.75-3.246.094-.332.235-.66.375-.988-1.125-.66-3.937-2.027-7.45-1.695C3.7 9.98-.796 18.262 1.45 25.465c2.156 6.918 11.196 9.039 11.196 9.039l2.859-3.625c-1.406-.613-5.012-2.356-6.934-4.426M26.883 12.566c-.09.094-.184.141-.278.239 0-.098.141-.192.278-.239"/><path style="stroke:none;fill-rule:nonzero;fill:#be0349;fill-opacity:1" d="M20.328 10.922c-1.125-.66-3.937-2.027-7.45-1.695-1.452.14-2.808.468-4.026.941-1.875.941-4.075 2.824-4.59 6.637-.938 6.965 4.73 10.402 4.73 10.402s.89.66 2.34 1.457c-1.027-.656-2.012-1.41-2.762-2.21-2.39-2.59-1.547-5.884-1.547-5.884s.282-3.484 4.262-5.648c3.094-1.649 6.512-.426 7.918.187.14-1.129.422-2.21.75-3.246.094-.285.235-.613.375-.941M30.82 25.184l-9.367 10.449c-.703-1.367-2.672-2.778-4.031-3.625l-3.277 4s5.058 2.449 6.98 6.449l.281-.281a124.413 124.413 0 0 0 3.465-4c11.477-13.559 7.305-20.711 5.95-22.453 3.792 5.27 0 9.46 0 9.46"/><path style="stroke:none;fill-rule:nonzero;fill:#4f205d;fill-opacity:1" d="M141.832 13.7v.562c0 .187 0 .379-.047.52h-10.023c.047.374.14.75.324 1.081.187.328.422.61.75.801a4.41 4.41 0 0 0 1.031.563c.375.14.75.187 1.172.187.703 0 1.313-.14 1.828-.422a3.796 3.796 0 0 0 1.215-1.035l3.188 2.023c-.657.942-1.5 1.696-2.579 2.165-1.078.52-2.293.753-3.699.753-1.406 0-2.015-.14-2.953-.468a7.422 7.422 0 0 1-2.434-1.414c-.703-.61-1.218-1.41-1.64-2.305-.422-.895-.61-1.93-.61-3.11 0-1.175.188-2.164.563-3.058.375-.941.937-1.695 1.594-2.352.656-.66 1.453-1.132 2.343-1.507.887-.375 1.872-.516 2.95-.516s1.968.187 2.808.516a5.922 5.922 0 0 1 2.203 1.507c.61.657 1.079 1.457 1.454 2.352.421.941.562 1.977.562 3.156m-4.172-1.742c0-.707-.234-1.367-.7-1.883-.468-.52-1.124-.8-2.062-.8-.937 0-.843.046-1.218.187-.375.14-.703.328-.985.566a2.272 2.272 0 0 0-.656.848 2.045 2.045 0 0 0-.277 1.035h5.898ZM121.547 20.477v-7.579c0-.378-.047-.753-.09-1.132-.047-.375-.14-.657-.328-.942a1.282 1.282 0 0 0-.61-.61c-.234-.14-.562-.234-.984-.234-.422 0-.75.094-1.031.235-.281.187-.516.375-.703.66-.188.281-.328.61-.422.941a4.63 4.63 0 0 0-.14 1.13v7.484h-4.544v-7.91c0-.801-.14-1.41-.468-1.883-.329-.469-.797-.703-1.497-.703-.703 0-1.265.28-1.687.843-.375.567-.61 1.274-.61 2.121v7.532h-4.59V6.59h4.403v1.93h.047c.187-.282.375-.567.61-.848.234-.281.562-.516.89-.754.328-.234.75-.375 1.168-.516.422-.14.89-.187 1.453-.187.984 0 1.828.187 2.531.61.703.425 1.22.987 1.637 1.741a5.738 5.738 0 0 1 1.781-1.742c.703-.422 1.594-.656 2.625-.656 1.028 0 1.73.187 2.387.516.656.328 1.172.8 1.547 1.316.375.566.656 1.18.844 1.836.187.66.28 1.367.28 1.98v8.567h-4.5ZM101.594 9.934a6.485 6.485 0 0 0-.844-1.836c-.371-.567-.887-.989-1.543-1.32-.656-.329-1.453-.516-2.39-.516-.938 0-1.919.234-2.622.656a5.266 5.266 0 0 0-1.78 1.742c-.376-.754-.938-1.363-1.642-1.742-.703-.422-1.543-.61-2.527-.61-.984 0-.984.047-1.453.188-.422.14-.844.281-1.172.516a3.684 3.684 0 0 0-.89.754c-.231.285-.465.566-.606.847h-.047v-1.93h-4.406v13.84h4.594v-7.53c0-.848.187-1.556.605-2.118.375-.566.938-.848 1.688-.848s1.171.235 1.5.703c.328.473.468 1.086.468 1.883v7.578a4.726 4.726 0 0 1 2.434-.656c.89 0 1.453.188 2.11.469v-7.012c0-.379.046-.754.14-1.129.094-.379.234-.707.422-.941.187-.285.422-.52.703-.66.281-.188.61-.235 1.027-.235.422 0 .75.094.985.235.234.14.468.375.609.613.14.281.234.563.328.941.047.375.094.75.094 1.13v7.577h4.543v-8.566a25.752 25.752 0 0 0-.328-2.023M78.129 13.508c0 1.133-.188 2.168-.61 3.062a7.187 7.187 0 0 1-1.687 2.352c-.703.66-1.5 1.129-2.434 1.508-.937.375-1.921.515-2.953.515a8.867 8.867 0 0 1-2.949-.515c-.937-.38-1.734-.848-2.437-1.508-.704-.66-1.266-1.41-1.637-2.352-.422-.941-.61-1.93-.61-3.062 0-1.13.188-2.164.61-3.059.418-.894.933-1.695 1.637-2.304.703-.614 1.5-1.133 2.437-1.461a8.684 8.684 0 0 1 5.902 0c.934.328 1.73.8 2.434 1.46.703.61 1.266 1.41 1.688 2.305.421.895.609 1.93.609 3.059m-4.356 0a4.33 4.33 0 0 0-.234-1.317c-.14-.425-.375-.8-.656-1.129a2.873 2.873 0 0 0-1.031-.8c-.422-.188-.891-.328-1.407-.328-.515 0-1.03.093-1.406.328a2.893 2.893 0 0 0-1.027.8c-.282.329-.469.704-.61 1.13-.14.421-.187.847-.187 1.316 0 .472.047.894.187 1.32.141.422.328.8.61 1.176.281.328.61.613 1.027.8.422.188.89.329 1.406.329.516 0 1.032-.094 1.407-.328.421-.188.75-.473 1.03-.801.282-.328.47-.707.61-1.176.188-.473.281-.894.281-1.32"/><path style="stroke:none;fill-rule:nonzero;fill:#4f205d;fill-opacity:1" d="M60.188 20.191c-1.22.567-2.668.848-4.262.848-1.594 0-2.813-.234-4.074-.703-1.266-.473-2.297-1.18-3.235-2.074-.887-.895-1.637-1.93-2.152-3.2-.516-1.222-.797-2.59-.797-4.093 0-1.508.281-2.918.797-4.145.515-1.222 1.265-2.304 2.2-3.152.937-.848 2.015-1.555 3.28-2.024 1.262-.472 2.575-.707 4.028-.707 1.453 0 2.668.235 3.933.707 1.313.47 2.344 1.176 3.14 2.07l-3.093 3.106c-.422-.61-.984-1.035-1.683-1.316a5.703 5.703 0 0 0-2.157-.426c-.75 0-1.547.145-2.203.426a5.05 5.05 0 0 0-1.73 1.222 6.04 6.04 0 0 0-1.125 1.836 6.309 6.309 0 0 0-.422 2.309c0 .797.14 1.645.422 2.352a6.04 6.04 0 0 0 1.125 1.835c.468.52 1.027.895 1.683 1.176a5.46 5.46 0 0 0 2.157.426c.75 0 1.687-.191 2.386-.52.657-.374 1.219-.847 1.64-1.41l3.188 3.012c-.797 1.082-1.828 1.836-3.047 2.445"/></svg>