<svg xmlns="http://www.w3.org/2000/svg" width="22" height="px" viewBox="0 0 22 20"><path d="M16.2 2.2v.1c-.5 1.5-1.4 2.5-2.7 2.9 0-.2 0-.302.102-.5.097-.302.199-.598.398-.802.102-.199.3-.398.5-.597.3-.403.8-.7 1.2-.903.1 0 .3-.097.5-.199M17.397 0s-.199.5-1 .8c-.597.302-.898.4-1.296.5-.602.302-1.102.7-1.5 1.098-.204.301-.5.5-.704.801-.199.301-.398.7-.5 1.102-.199.597-.296 1.199-.398 1.8v.5c3.3-.203 4.7-2.3 5.2-4 0 0 .6-2 0-2.703M5.102 11.8c-1.301-1.3-.801-3-.801-3S4.398 7 6.5 5.899c1.602-.898 3.398-.199 4.102 0 0-.597.199-1.097.398-1.699 0-.199.102-.3.2-.5-.598-.3-2-1.097-3.9-.898C2.603 3.199.2 7.5 1.399 11.3 2.5 14.898 7.2 16 7.2 16l1.5-1.898C8 13.8 6.102 12.8 5.102 11.8M18.3 4c-.402.8-.902 1.602-1.6 2.2 2 2.698 0 4.902 0 4.902L11.8 16.5c-.402-.7-1.402-1.398-2.1-1.898L8 16.699s2.602 1.301 3.602 3.403l6.296-6.204s2.204-2.296 2.403-4.796c.199-2-.5-3.801-2.102-5.102" style="stroke:none;fill-rule:nonzero;fill:#fff;fill-opacity:1"/></svg>