<svg xmlns="http://www.w3.org/2000/svg" width="22" height="px" viewBox="0 0 22 20"><path d="M8.8 17.102c0 .199.098.5.098.699C8.898 19 7.898 20 6.7 20 5.5 20 4.5 19 4.5 17.8c0-1.198.3-1.1.602-1.6.199-.098.398-.302.597-.4L3.102 1.399H.8C.398 1.398 0 1.102 0 .7 0 .301.3 0 .8 0h2.9c.402 0 .698.2.8.602l2.2 12.097H19l1.7-9.3c0-.399.402-.598.902-.598.398 0 .597.398.597.8L20.4 13.5c0 .398-.399.602-.797.602H6.898L7.2 15.5h11.903c1.199 0 2.199 1 2.199 2.2 0 1.198-1 2.198-2.2 2.198a2.22 2.22 0 0 1-2.203-2.199c0-1.199 0-.5.102-.699H8.898ZM12 2.699c0-.398.3-.699.7-.699.402 0 .8.3.8.7v4.698l1-.898c.3-.2.8-.2 1.102 0 .296.3.296.7 0 1.102l-2.204 2.097c-.097.2-.296.2-.597.2s-.403 0-.5-.2l-2.2-2.097c-.3-.301-.3-.704 0-1.102.297-.2.797-.2 1.098 0l1 .898V2.7Zm7 14.403a.76.76 0 0 0-.5.199c-.102.097-.2.3-.2.5 0 .398.302.699.802.699s.699-.398.699-.7c0-.3-.301-.698-.7-.698Zm-12.3 0a.76.76 0 0 0-.5.199c-.098.097-.302.3-.302.5 0 .398.403.699.801.699.403 0 .801-.398.801-.7 0-.3-.398-.698-.8-.698Zm0 0" style="stroke:none;fill-rule:evenodd;fill:#fff;fill-opacity:1"/></svg>