<svg xmlns="http://www.w3.org/2000/svg" width="22" height="px" viewBox="0 0 22 23"><path d="m21.898 6.2-2-3v-.9c0-1.198-1-2.3-2.296-2.3H4.3C3.1 0 2 1 2 2.3v.9l-2 3V8.8c0 1.098.5 2 1.398 2.598v9.403c0 1.199 1 2.3 2.301 2.3H18.5c1.2 0 2.3-1 2.3-2.3v-9.403c.802-.597 1.4-1.5 1.4-2.597V6.2ZM3.2 2.3c0-.6.5-1.198 1.2-1.198h13.3c.602 0 1.2.5 1.2 1.199v.5h-15.7Zm-.3 1.598H19l1.398 2H1.602l1.398-2ZM15.698 7v1.8c0 1.098-.898 2.098-2.097 2.098-1.204 0-2.102-.898-2.102-2.097V7Zm-5.3 0v1.8c0 1.098-.899 2.098-2.098 2.098-1.2 0-2.102-.898-2.102-2.097V7ZM1.101 8.8V7h4.097v1.8c0 1.098-.898 2.098-2.097 2.098C1.898 10.898 1 10 1 8.801ZM9.3 21.899h-4v-6.5c0-.398.3-.699.699-.699h2.602c.398 0 .699.301.699.7ZM19.5 20.7c0 .602-.5 1.2-1.2 1.2h-8v-6.5c0-1-.8-1.797-1.8-1.797H5.898c-1 0-1.796.796-1.796 1.796v6.5H3.5c-.602 0-1.2-.5-1.2-1.199v-8.898H3c1.102 0 2-.5 2.602-1.403.597.801 1.5 1.403 2.597 1.403 1.102 0 2-.5 2.602-1.403.597.801 1.5 1.403 2.597 1.403 1.102 0 2-.5 2.602-1.403.602.801 1.5 1.403 2.602 1.403h.699v8.898Zm1.398-11.898c0 1.097-.898 2.097-2.097 2.097-1.2 0-2.102-.898-2.102-2.097V7h4.102v1.8Zm0 0" style="stroke:none;fill-rule:evenodd;fill:#fff;fill-opacity:1"/><path d="M16 13.7h-2.8c-1 0-1.802.8-1.802 1.8v1.2c0 1 .801 1.8 1.801 1.8H16c1 0 1.8-.8 1.8-1.8v-1.2c0-1-.8-1.8-1.8-1.8Zm.7 3c0 .402-.302.698-.7.698h-2.8a.682.682 0 0 1-.7-.699V15.5c0-.398.3-.7.7-.7H16c.398 0 .7.302.7.7Zm0 0" style="stroke:none;fill-rule:evenodd;fill:#fff;fill-opacity:1"/></svg>