<svg id="Capa_1" enable-background="new 0 0 512 512" height="512" viewBox="0 0 512 512" width="512" xmlns="../../../../external.html?link=http://www.w3.org/2000/svg"><g><path d="m244.128 477h23.744c5.522 0 10-4.477 10-10s-4.478-10-10-10h-23.744c-5.522 0-10 4.477-10 10s4.477 10 10 10z"/><path d="m348.412 0h-184.824c-31.985 0-58.008 26.022-58.008 58.007v395.985c0 31.986 26.022 58.008 58.008 58.008h184.824c31.985 0 58.008-26.022 58.008-58.008v-395.985c0-31.985-26.023-58.007-58.008-58.007zm-222.832 91.042h260.84v330.958h-260.84zm38.008-71.042h184.824c20.958 0 38.008 17.05 38.008 38.007v13.035h-260.84v-13.035c0-20.957 17.05-38.007 38.008-38.007zm222.832 433.992c0 20.958-17.05 38.008-38.008 38.008h-184.824c-20.958 0-38.008-17.05-38.008-38.008v-11.992h260.84z"/><path d="m195.787 56h70.596c5.522 0 10-4.477 10-10s-4.478-10-10-10h-70.596c-5.522 0-10 4.477-10 10s4.478 10 10 10z"/><path d="m308.553 56h7.66c5.522 0 10-4.477 10-10s-4.478-10-10-10h-7.66c-5.522 0-10 4.477-10 10s4.477 10 10 10z"/><path d="m256 126.547c-59.65 0-108.18 48.529-108.18 108.18s48.53 108.18 108.18 108.18 108.18-48.529 108.18-108.18-48.53-108.18-108.18-108.18zm0 196.36c-48.622 0-88.18-39.558-88.18-88.18s39.558-88.18 88.18-88.18 88.18 39.558 88.18 88.18-39.558 88.18-88.18 88.18z"/><path d="m256 230.655c17.714 0 32.126-14.412 32.126-32.126s-14.412-32.126-32.126-32.126-32.126 14.412-32.126 32.126 14.412 32.126 32.126 32.126zm0-44.252c6.687 0 12.126 5.439 12.126 12.126s-5.439 12.126-12.126 12.126-12.126-5.439-12.126-12.126 5.439-12.126 12.126-12.126z"/><path d="m267.32 240.363h-22.64c-19.905 0-36.1 16.194-36.1 36.1 0 5.523 4.478 10 10 10s10-4.477 10-10c0-8.877 7.223-16.1 16.1-16.1h22.641c8.877 0 16.1 7.222 16.1 16.1 0 5.523 4.478 10 10 10s10-4.477 10-10c-.001-19.906-16.195-36.1-36.101-36.1z"/><path d="m284.105 365.453h-60.083c-5.522 0-10 4.477-10 10s4.478 10 10 10h60.083c5.522 0 10-4.477 10-10s-4.477-10-10-10z"/></g></svg>