<?xml version="1.0" encoding="utf-8"?>
<!-- Generator: Adobe Illustrator 26.3.1, SVG Export Plug-In . SVG Version: 6.00 Build 0)  -->
<svg version="1.1" id="Calque_1" xmlns="http://www.w3.org/2000/svg" xmlns:xlink="http://www.w3.org/1999/xlink" x="0px" y="0px"
	 viewBox="0 0 700 700" style="enable-background:new 0 0 700 700;" xml:space="preserve">
<g>
	<g>
		<path d="M420,446.3h52.5v17.5H420V446.3z"/>
		<path d="M132.7,280h43.8v17.5h-43.8V280z"/>
		<path d="M141.5,323.8h43.8v17.5h-43.8V323.8z"/>
		<path d="M315,271.3h17.5v35H315V271.3z"/>
		<path d="M350,332.5h17.5v35H350V332.5z"/>
		<path d="M254.2,317.8l16.6-5.5c-2.4-7.1-5.5-21.6,0-38.2c2.4-7.1,8.5-20.6,22.9-30.6l-10-14.4c-18.6,12.9-26.5,30.2-29.6,39.4
			C247,289.9,251.1,308.6,254.2,317.8L254.2,317.8z"/>
		<path d="M579.3,216.8c4.5-7.4,7-15.8,7-24.3c0-26.4-22.9-48.3-52.5-52V140c0-29-27.5-52.5-61.2-52.5S411.3,111,411.3,140v0.5
			c-25.8,3.2-46.4,20.2-51.4,41.9c-13.6-10.3-28.8-16.2-44.9-16.2c-30.1,0-57.2,20.3-76.4,52.5h-37.4l42-56l-14-10.5l-36.8,49v-87.5
			H175v87.5l-36.8-49l-14,10.5l42,56h-16.9c-19.6,0-37.5,9-49.1,24.7c-11.7,15.7-15.1,35.4-9.5,54.2l26.2,87.4H96.3
			c-3.2,0-6.2,1.8-7.7,4.6s-1.4,6.3,0.4,9l140,210c1.6,2.4,4.4,3.9,7.3,3.9h236.3c3,0,5.8-1.6,7.4-4.1l131.2-210
			c1.7-2.7,1.8-6.1,0.2-8.9c-1.5-2.8-4.5-4.5-7.6-4.5h-31c8.3-9.3,13.5-21.5,13.5-35c0-8.6-2.2-17.1-6.3-24.7
			c19.9-10.4,32.6-30.9,32.6-54C612.5,248.1,599.3,227.2,579.3,216.8L579.3,216.8z M315,183.8c17.2,0,33.3,8.6,46.9,23.3
			c0.2,0.2,0.3,0.5,0.5,0.7c15.6,17.3,27.3,41.8,34,70c0.1,0.6,0.2,1.1,0.4,1.7c1.1,4.6,1.9,9.4,2.7,14.2c0.2,1.4,0.4,2.7,0.6,4.1
			c0.6,4.3,1.1,8.6,1.5,13c0.1,1.5,0.3,2.9,0.4,4.4c0.4,5.7,0.6,11.5,0.6,17.3c0,18.1-1.9,35.7-5.7,52.5H288.7v-26.2h-17.5V385
			h-37.9c-0.3-1.5-0.7-2.9-1-4.4c-0.4-1.9-0.8-3.7-1.1-5.6c-0.5-2.8-0.9-5.6-1.3-8.4c-0.3-1.8-0.5-3.6-0.8-5.5
			c-0.4-3.1-0.6-6.3-0.9-9.5c-0.1-1.6-0.3-3.1-0.4-4.7c-0.3-4.8-0.4-9.6-0.4-14.4c0-4.8,0.2-9.6,0.4-14.3c0.2-3.2,0.5-6.3,0.8-9.4
			c0.1-1.4,0.2-2.8,0.4-4.2c3.1-26.9,10.6-52.1,22-72.8c0.3-0.5,0.5-1.1,0.6-1.6C267.7,201.6,290.1,183.7,315,183.8L315,183.8z
			 M107.4,292.6c-4-13.4-1.5-27.5,6.8-38.7c8.3-11.2,21.1-17.6,35.1-17.6h80c-2.4,5.3-4.5,10.9-6.4,16.6c-0.1,0.3-0.2,0.7-0.4,1
			c-1.5,4.3-2.8,8.7-4,13.2c-0.1,0.4-0.2,0.8-0.3,1.1c-1.3,4.8-2.4,9.6-3.4,14.6c-0.1,0.7-0.2,1.5-0.4,2.2c-0.8,4-1.4,8-2,12.1
			c-0.2,1.6-0.4,3.3-0.6,4.9c-0.4,3.5-0.7,6.9-1,10.5c-0.1,1.6-0.3,3.2-0.4,4.8c-0.3,5-0.5,10.1-0.5,15.2c0,5.1,0.2,10.1,0.5,15.1
			c0.1,1.6,0.2,3.1,0.4,4.7c0.3,3.4,0.6,6.8,0.9,10.2c0.2,1.8,0.4,3.5,0.7,5.3c0.4,3.2,0.9,6.4,1.5,9.6c0.3,1.7,0.6,3.4,0.9,5.1
			c0.2,0.8,0.3,1.7,0.5,2.5h-80.1L107.4,292.6z M560.6,446.3h-61.9v17.5h50.9l-32.8,52.5H350v17.5h155.9L467.6,595H240.9
			L112.6,402.5h271.9c1.3,0.1,3.5,0.2,7.7,0.2c3.5,0,8.3-0.1,15.2-0.1l126.3,0H588L560.6,446.3z M564,313c-2.8,0.9-5,3.1-5.9,6
			c-0.8,2.9-0.1,5.9,1.8,8.2c4,4.6,8.8,12.3,8.8,22.9c0,19.3-15.7,35-35,35h-52.5v-31.4l32.4-32.4l-12.4-12.4l-20.1,20.1v-36.5
			l32.4-32.4l-12.4-12.4l-20.1,20.1v-36.5l32.4-32.4l-12.4-12.4l-20.1,20.1v-40.1h-17.5v40.1l-20.1-20.1l-12.4,12.4l32.4,32.4v36.5
			l-20.1-20.1l-12.4,12.4l32.4,32.4v36.5l-20.1-20.1l-12.4,12.4l32.4,32.4V385h-49c0.2-0.8,0.3-1.7,0.5-2.5c0.3-1.7,0.6-3.4,0.9-5.1
			c0.6-3.2,1.1-6.4,1.5-9.6c0.2-1.8,0.5-3.5,0.7-5.3c0.4-3.4,0.7-6.8,0.9-10.2c0.1-1.6,0.3-3.1,0.4-4.7c0.3-5,0.5-10,0.5-15.1
			c0-6.3-0.3-12.4-0.7-18.5c-0.1-2.1-0.4-4.1-0.6-6.1c-0.4-3.9-0.8-7.9-1.3-11.7c-0.4-2.6-0.8-5.2-1.3-7.8c-0.5-3-1.1-6-1.7-9
			c-0.7-3.1-1.4-6.2-2.1-9.2c-0.5-2-1.1-3.9-1.6-5.8c-7.4-26.2-18.8-49.3-33.7-66.5l-0.2-1.3c-0.2-1.4-0.5-2.7-0.5-4.1
			c0-19.3,19.6-35,43.7-35c0,0.1,0.9,0,1.1,0c2.7,0,5.2-1.2,6.9-3.4c1.7-2.1,2.2-4.9,1.6-7.5c-0.5-2.2-0.8-4.5-0.8-6.7
			c0-19.3,19.6-35,43.8-35s43.8,15.7,43.8,35c0,2.3-0.3,4.5-0.8,6.7c-0.6,2.6,0,5.4,1.6,7.5c1.7,2.1,4.2,3.4,6.9,3.4l1.1,0
			c24.1,0,43.8,15.7,43.8,35c0,8.1-3.4,15.6-9.8,21.9c-2.2,2.2-3.1,5.4-2.3,8.4c0.8,3,3.1,5.4,6.2,6.2c18.9,5.2,32.2,22.5,32.2,42.1
			C595,290.5,582.5,307.3,564,313L564,313z"/>
	</g>
	<g>
		<defs>
			<polyline id="SVGID_1_" points="903.8,691.2 903.8,1391.2 203.8,1391.2 			"/>
		</defs>
		<clipPath id="SVGID_00000148646269905535942590000003333682601784721556_">
			<use xlink:href="#SVGID_1_"  style="overflow:visible;"/>
		</clipPath>
	</g>
	<g>
		<defs>
			<polyline id="SVGID_00000048480147294952341180000008947703820867935116_" points="1088.4,691.2 1088.4,1391.2 388.4,1391.2 			
				"/>
		</defs>
		<clipPath id="SVGID_00000064339546221959084850000003358059997554951098_">
			<use xlink:href="#SVGID_00000048480147294952341180000008947703820867935116_"  style="overflow:visible;"/>
		</clipPath>
	</g>
	<g>
		<defs>
			<polyline id="SVGID_00000108309605680442770040000008484390330892420771_" points="1144,691.2 1144,1391.2 444,1391.2 			"/>
		</defs>
		<clipPath id="SVGID_00000045591536366330402870000004795032942773348743_">
			<use xlink:href="#SVGID_00000108309605680442770040000008484390330892420771_"  style="overflow:visible;"/>
		</clipPath>
	</g>
</g>
</svg>
