<svg id="Capa_1" enable-background="new 0 0 512.021 512.021" height="512" viewBox="0 0 512.021 512.021" width="512" xmlns="../../../../external.html?link=http://www.w3.org/2000/svg"><g><g><g><path d="m368.413 351.874c-5.573-1.34-13.04-1.232-19.941.21l-15.494-14.501c-.563-.526-.848-1.269-.782-2.037l3.372-39.584c.536-6.284-2.368-12.394-7.579-15.945l-43.168-29.429c-.478-.325-.829-.811-.991-1.367l-4.992-17.152c-.219-.75-.069-1.57.399-2.196l22.528-30.089c.382-.511.938-.853 1.565-.964l9.842-1.741c4.079-.722 6.8-4.613 6.079-8.692-.722-4.078-4.611-6.8-8.692-6.079l-9.842 1.741c-4.393.777-8.285 3.172-10.96 6.744l-22.527 30.089c-3.279 4.379-4.324 10.129-2.795 15.38l4.992 17.15c1.132 3.89 3.599 7.289 6.945 9.569l43.168 29.428c.743.507 1.158 1.379 1.082 2.277l-3.372 39.586c-.458 5.376 1.539 10.574 5.478 14.261l9.65 9.032c-2.082.97-4.17 2.032-6.256 3.206-14.046 7.904-24.356 18.406-27.788 28.228-13.782 3.326-28.006 5.032-42.322 5.032-14.311 0-28.541-1.698-42.319-5.024-2.775-7.951-10.051-16.345-20.178-23.449l24.092-30.362c3.125-3.94 4.405-9.039 3.511-13.991l-6.017-33.276c-.995-5.504-4.599-10.237-9.64-12.659l-27.337-13.142c-.693-.333-1.188-.955-1.356-1.705l-8.428-37.52c-.134-.597-.046-1.22.248-1.755l16.585-30.135c.468-.85 1.405-1.351 2.362-1.288l41.588 2.891c7.441.511 14.429-3.763 17.337-10.656l8.405-19.925c1.566-3.71 1.803-7.881.666-11.744l-17.219-58.509c-.923-3.137-2.699-5.945-5.138-8.119l-41.567-37.086c20.004-7.706 41.717-11.943 64.404-11.943 17.552 0 34.524 2.48 50.573 7.122l-31.632 47.954c-3.809 5.771-3.856 13.262-.124 19.083l14.33 22.349c2.915 4.543 7.865 7.53 13.242 7.989l30.614 2.615c.662.057 1.286.382 1.71.894l22.881 27.544c.799.962.608 1.953.424 2.457-.186.505-.68 1.384-1.912 1.602l-10.769 1.906c-4.079.722-6.801 4.613-6.078 8.692.644 3.637 3.807 6.194 7.376 6.194.434 0 .874-.038 1.315-.116l10.769-1.906c6.21-1.099 11.213-5.29 13.383-11.212 2.17-5.921 1.06-12.352-2.97-17.203l-22.88-27.544c-2.974-3.579-7.338-5.858-11.973-6.254l-30.614-2.615c-.768-.066-1.476-.493-1.892-1.142l-14.33-22.348c-.533-.832-.526-1.902.018-2.726l33.812-51.258c61.75 23.825 106.998 80.682 113.604 150.469.391 4.124 4.048 7.147 8.174 6.76 4.123-.391 7.15-4.05 6.76-8.173-4.545-48.008-26.719-92.445-62.438-125.125-35.952-32.893-82.608-51.008-131.373-51.008-107.356 0-194.697 87.341-194.697 194.698 0 10.116.772 20.087 2.273 29.89-6.52-1.84-13.522-1.846-20.3.162-3.192.946-5.942 2.762-8.018 5.165-7.384-2.76-15.425-3.059-23.119-.779-8.875 2.631-13.952 11.696-11.56 20.638l23.89 89.274c.532 1.988 1.858 3.671 3.668 4.653l11.396 6.185c1.137.617 2.362.91 3.57.91 2.662 0 5.24-1.42 6.599-3.924 1.976-3.641.626-8.194-3.015-10.169l-8.563-4.647-23.056-86.159c-.275-1.031.31-2.076 1.332-2.379 5.519-1.637 11.347-1.026 16.41 1.722 5.061 2.747 8.749 7.3 10.386 12.822l14.696 49.582c.565 1.907 1.864 3.512 3.613 4.46l16.546 8.98 8.641 37.332-8.935-4.85c-3.643-1.977-8.193-.626-10.169 3.014-1.976 3.641-.626 8.193 3.015 10.169l33.929 18.414 15.45 16.915c7.274 7.964 17.21 12.687 27.979 13.297l6.027.342-5.526 48.681c-.467 4.116 2.49 7.831 6.606 8.298.287.033.572.048.855.048 3.763 0 7.008-2.826 7.442-6.655l5.621-49.521 7.976.453c.145.008.288.012.432.012 3.947 0 7.255-3.084 7.481-7.075.234-4.135-2.928-7.678-7.063-7.913l-29.003-1.646c-6.832-.388-13.138-3.385-17.753-8.438l-28.4-31.094-15.465-66.814c-.384-1.661.596-3.341 2.23-3.826 6.408-1.9 13.174-1.189 19.048 1.999 5.875 3.188 10.157 8.474 12.057 14.883l10.918 36.834c.571 1.929 1.894 3.547 3.67 4.491 1.777.945 3.86 1.135 5.776.53 2.131-.672 5.973-1.849 7.212-2.147 16.711-4.015 47.14 14.203 51.504 27.708.999 3.416 1.063 7.029.188 10.454-1.027 4.013 1.394 8.099 5.406 9.125 4.015 1.027 8.099-1.394 9.125-5.406.307-1.198.529-2.412.705-3.63 6.343 1.357 12.766 2.382 19.235 3.101v77.073c0 4.142 3.357 7.5 7.5 7.5s7.5-3.358 7.5-7.5v-75.975c2.242.077 4.485.125 6.731.125s4.49-.047 6.731-.124v75.974c0 4.142 3.357 7.5 7.5 7.5s7.5-3.358 7.5-7.5v-77.076c6.469-.719 12.889-1.751 19.231-3.109.193 1.335.447 2.664.796 3.975 1.067 4.002 5.174 6.38 9.179 5.316 4.002-1.066 6.382-5.176 5.315-9.178-.929-3.484-.881-7.164.138-10.646 4.367-13.505 34.786-31.729 51.505-27.707 1.238.297 5.08 1.475 7.211 2.146 1.919.605 3.998.415 5.776-.53 1.776-.944 3.099-2.563 3.67-4.491l10.918-36.834c1.899-6.409 6.182-11.695 12.057-14.883 5.875-3.189 12.641-3.898 19.048-1.999 1.635.484 2.614 2.165 2.23 3.825l-15.465 66.814-28.395 31.101c-4.616 5.053-10.922 8.05-17.754 8.438l-29.003 1.646c-4.136.234-7.298 3.777-7.063 7.913.227 3.991 3.534 7.076 7.481 7.075.144 0 .287-.004.432-.012l7.976-.453 5.621 49.521c.435 3.829 3.679 6.655 7.442 6.655.282 0 .568-.016.855-.048 4.116-.467 7.073-4.182 6.606-8.298l-5.526-48.681 6.028-.342c10.769-.611 20.704-5.333 27.979-13.297l15.449-16.915 76.396-41.464c1.81-.982 3.136-2.665 3.668-4.653l23.89-89.274c2.393-8.941-2.685-18.007-11.561-20.638-7.699-2.283-15.747-1.98-23.135.786-2.092-2.419-4.85-4.238-8.001-5.173-6.771-2.007-13.794-2.001-20.332-.15.595-3.865 1.086-7.754 1.45-11.67.384-4.124-2.649-7.778-6.773-8.162-4.13-.39-7.779 2.649-8.162 6.774-2.036 21.915-8.005 42.999-17.732 62.678-7.175-.319-14.327 1.311-20.802 4.826-9.396 5.1-16.244 13.553-19.282 23.804zm-297.01-31.835-13.813-46.603c-1.697-5.727-4.702-10.835-8.739-15.008 6.547-1.514 13.321.086 18.528 4.375 3.081 12.016 7.336 23.73 12.746 35.086-6.07 4.127-9.268 11.687-7.533 19.186l.955 4.127zm72.206 31.834-8.688-29.387c-3.038-10.25-9.886-18.704-19.282-23.804-6.478-3.517-13.633-5.147-20.813-4.825-12.28-24.838-18.512-51.589-18.512-79.521 0-70.557 40.882-131.736 100.196-161.122l46.68 41.648c.347.31.6.709.731 1.158l17.219 58.51c.163.552.129 1.147-.095 1.678l-8.406 19.926c-.415.985-1.416 1.598-2.477 1.523l-41.587-2.891c-6.776-.468-13.271 3.069-16.545 9.02l-16.584 30.134c-2.061 3.743-2.68 8.101-1.743 12.273l8.429 37.523c1.182 5.253 4.642 9.603 9.493 11.935l27.337 13.142c.72.346 1.234 1.021 1.377 1.808l6.017 33.274c.128.709-.055 1.438-.501 2.001l-25.431 32.05c-13.055-6.239-26.86-8.446-36.815-6.053zm319.561-93.446c-4.038 4.173-7.043 9.281-8.74 15.008l-13.813 46.603-2.144 1.164.955-4.127c1.736-7.5-1.464-15.061-7.535-19.188 5.378-11.3 9.626-23.013 12.711-35.052 5.213-4.307 12.02-5.918 18.566-4.408zm33.77 7.106-23.056 86.159-48.569 26.361 8.641-37.333 16.546-8.98c1.749-.949 3.049-2.553 3.613-4.46l14.695-49.582c3.379-11.396 15.396-17.922 26.796-14.543 1.025.303 1.61 1.348 1.334 2.378z"/></g></g></g></svg>