<svg id="Capa_1" enable-background="new 0 0 511.999 511.999" height="512" viewBox="0 0 511.999 511.999" width="512" xmlns="../../../../external.html?link=http://www.w3.org/2000/svg"><g><g><path d="m511.947 268.772-.874-20.639c-.175-4.138-3.671-7.355-7.811-7.176-4.138.175-7.351 3.672-7.176 7.811l.874 20.639c.311 7.339-1.221 14.711-4.43 21.32l-11.561 23.809c-2.597 5.349-7.109 9.402-12.705 11.412l-23.327 8.379h-33.498c-4.142 0-7.5 3.358-7.5 7.5s3.358 7.5 7.5 7.5h31.476v117.166c0 4.142 3.358 7.5 7.5 7.5s7.5-3.358 7.5-7.5v-120.89l15.418-5.538c9.306-3.343 16.81-10.083 21.128-18.977l11.56-23.809c4.293-8.836 6.341-18.694 5.926-28.507z"/><path d="m408.863 306.273 33.958-33.948c2.369-2.376 4.306-5.021 5.826-7.833 2.122-.382 4.287-.582 6.46-.582h7.226c4.142 0 7.5-3.358 7.5-7.5v-44.832c0-11.973 9.74-21.713 21.712-21.713 1.113 0 2.041.859 2.131 1.964l.919 21.718c.175 4.138 3.667 7.357 7.811 7.176 4.138-.175 7.351-3.672 7.176-7.811l-.923-21.812c-.002-.046-.004-.092-.007-.138-.549-9.027-8.063-16.098-17.106-16.098-5.036 0-9.837 1.021-14.21 2.864v-40.988c0-6.669-2.597-12.94-7.313-17.656s-10.986-7.313-17.655-7.313c-3.542 0-6.913.741-9.968 2.077v-8.939c0-13.767-11.202-24.968-24.969-24.968-11.738 0-21.611 8.143-24.266 19.076-3.237-1.536-6.855-2.396-10.67-2.396-.001 0 0 0-.001 0-6.668 0-12.939 2.597-17.654 7.313-4.188 4.188-6.704 9.601-7.216 15.43-3.08-1.362-6.487-2.119-10.065-2.119-2.333 0-4.614.325-6.8.94v-15.309c0-15.345-12.483-27.828-27.828-27.828-4.624 0-8.987 1.133-12.828 3.137v-12.35c0-7.433-2.895-14.421-8.151-19.677s-12.244-8.151-19.677-8.15h-.001c-7.433 0-14.42 2.895-19.676 8.15-4.047 4.047-6.695 9.123-7.698 14.637-3.949-2.154-8.474-3.378-13.28-3.378h-.001c-7.433 0-14.42 2.895-19.676 8.15-5.094 5.094-7.97 11.815-8.142 18.991-3.843-2.006-8.21-3.141-12.836-3.141-15.345 0-27.828 12.483-27.828 27.828v58.607c-2.924.468-5.734 1.279-8.386 2.397v-40.989c0-13.768-11.201-24.968-24.968-24.968-3.542 0-6.913.741-9.968 2.077v-8.938c0-13.768-11.201-24.968-24.968-24.968-11.738 0-21.611 8.142-24.266 19.075-3.243-1.538-6.861-2.398-10.676-2.398-13.018 0-23.741 10.014-24.87 22.744-3.081-1.362-6.487-2.12-10.066-2.12-13.768 0-24.969 11.2-24.969 24.968v141.196c0 15.229 5.055 30.308 14.234 42.459l10.326 13.67v11.238c-16.855 7.283-20.499 16.359-20.499 22.828 0 6.474 3.646 15.553 20.499 22.821v77.548c0 4.142 3.358 7.5 7.5 7.5s7.5-3.358 7.5-7.5v-72.592c11.861 2.962 25.763 4.556 40.404 4.556 14.551 0 28.491-1.592 40.366-4.546v72.581c0 4.142 3.358 7.5 7.5 7.5s7.5-3.358 7.5-7.5v-77.527c16.831-7.247 20.538-16.297 20.538-22.842 0-6.541-3.706-15.589-20.538-22.849v-5.153l15.418-5.538c9.306-3.343 16.81-10.083 21.128-18.978l.895-1.844c1.952 3.647 4.177 7.152 6.678 10.463l12.264 16.236v38.479c0 4.142 3.358 7.5 7.5 7.5s7.5-3.358 7.5-7.5v-40.994c0-1.631-.532-3.219-1.516-4.521l-13.78-18.243c-8.567-11.342-13.285-25.416-13.285-39.629v-164.306c0-7.073 5.755-12.828 12.828-12.828s12.828 5.755 12.828 12.828v95.502c-.272.257-.546.51-.813.777-14.951 14.951-14.967 39.294-.027 54.27l39.499 39.5c2.536 2.537 5.909 3.934 9.497 3.934 3.587 0 6.96-1.397 9.496-3.934l39.5-39.5c.002-.002.004-.004.007-.006 2.814-2.821 5.096-5.975 6.848-9.337 2.728-.53 5.518-.815 8.323-.815h8.409c4.142 0 7.5-3.358 7.5-7.5v-52.171c0-14.609 11.885-26.495 26.495-26.495 1.944 0 3.562 1.507 3.705 3.441l3.823 90.298c.37 8.743-1.455 17.525-5.277 25.397l-13.453 27.707c-3.164 6.515-8.659 11.451-15.475 13.899l-27.346 9.823h-39.195c-4.142 0-7.5 3.358-7.5 7.5s3.358 7.5 7.5 7.5h37.857v117.457c0 4.142 3.358 7.5 7.5 7.5s7.5-3.358 7.5-7.5v-121.426l18.755-6.737c2.416-.868 4.718-1.947 6.9-3.202l3.332 4.411v126.954c0 4.142 3.358 7.5 7.5 7.5s7.5-3.358 7.5-7.5v-129.468c0-1.631-.532-3.219-1.516-4.521l-5.331-7.058c2.15-2.601 4.004-5.474 5.513-8.581l13.347-27.489 16.896 16.896c2.455 2.455 5.679 3.683 8.904 3.682 3.223.002 6.448-1.226 8.902-3.68zm-279.085-186.982c5.497 0 9.968 4.472 9.968 9.968v52.633c-4.702 6.171-7.502 13.865-7.502 22.205v37.333c-.704.004-1.407.031-2.11.064.182-8.952-3.125-17.961-9.936-24.772-.127-.127-.26-.247-.389-.372 0 0 0-86.576 0-87.09.001-5.498 4.473-9.969 9.969-9.969zm-44.905-21.862c0-5.497 4.472-9.968 9.969-9.968s9.968 4.472 9.968 9.968v110.46c-6.55-1.716-13.513-1.454-19.937.782zm-34.936 16.679c0-5.497 4.472-9.968 9.969-9.968 5.496 0 9.968 4.471 9.968 9.967v94.564c-6.424-2.236-13.387-2.498-19.937-.782zm-30.876 252.016c0-1.228 1.582-3.468 5.499-5.961v11.919c-3.917-2.49-5.499-4.73-5.499-5.958zm121.807 0c0 1.27-1.597 3.509-5.538 5.996v-11.996c3.941 2.49 5.538 4.73 5.538 6zm17.515-59.069c-2.597 5.349-7.109 9.402-12.705 11.412l-23.326 8.378h-33.498c-4.142 0-7.5 3.358-7.5 7.5s3.358 7.5 7.5 7.5h31.477v36.54c-11.347 3.284-25.424 5.072-40.366 5.072-14.811 0-29.086-1.824-40.404-5.087v-48.826c0-1.631-.532-3.219-1.516-4.521l-11.841-15.676c-7.225-9.565-11.204-21.433-11.204-33.419v-141.196c0-5.497 4.472-9.968 9.968-9.968s9.968 4.472 9.968 9.968v81.617c-.129.125-.261.244-.389.372-13.046 13.045-13.401 33.823-.809 47.303 2.827 3.027 7.573 3.189 10.6.361 3.027-2.827 3.188-7.573.361-10.6-7.042-7.539-6.843-19.161.455-26.458 7.418-7.417 19.495-7.425 26.922-.017 2.928 2.921 7.666 2.922 10.594 0 7.427-7.409 19.503-7.401 26.922.017 7.417 7.417 7.425 19.494.023 26.915l-32.243 32.243-7.839-7.839c-2.929-2.929-7.678-2.929-10.606 0-2.929 2.929-2.929 7.678 0 10.606l9.54 9.54c2.456 2.456 5.681 3.683 8.906 3.683 3.226 0 6.451-1.228 8.906-3.683l33.95-33.951c2.367-2.374 4.303-5.016 5.823-7.825 2.123-.382 4.291-.588 6.466-.588h7.227c1.989 0 3.897-.79 5.303-2.197 1.407-1.407 2.197-3.314 2.197-5.303v-44.832c0-9.954 6.736-18.36 15.888-20.912v90.371c0 6.406.787 12.787 2.295 18.99zm293.984-180.283c2.663 0 5.166 1.037 7.048 2.919 1.882 1.883 2.919 4.386 2.919 7.049v52.633c-4.702 6.171-7.502 13.866-7.502 22.205v37.332c-.705.004-1.408.037-2.111.07.181-8.951-3.124-17.96-9.933-24.769-.127-.128-.261-.247-.39-.372 0 0 0-86.585 0-87.098 0-5.497 4.472-9.969 9.969-9.969zm-44.906-21.862c0-5.497 4.472-9.968 9.968-9.968s9.968 4.472 9.969 9.968v110.438c-2.801-.734-5.714-1.119-8.688-1.119-3.893 0-7.679.669-11.249 1.915zm-34.937 16.679c0-5.497 4.472-9.969 9.968-9.969s9.968 4.472 9.968 9.968v94.572c-4.219-1.476-8.71-2.129-13.215-1.872l-2.036-48.101c-.002-.046-.004-.092-.007-.138-.263-4.326-1.992-8.239-4.683-11.271 0-.031.005-.06.005-.091zm-24.968 10.656c5.497 0 9.968 4.472 9.968 9.968v6.282c-5.986.142-11.663 1.549-16.768 3.978v-17.535c1.853-1.733 4.25-2.693 6.8-2.693zm-88.111-66.41c0-7.073 5.754-12.828 12.828-12.828s12.828 5.755 12.828 12.828v130.163c-8.378-2.573-17.471-2.22-25.656 1.055zm-40.656 19.409c0-3.426 1.334-6.648 3.757-9.071 2.422-2.422 5.644-3.757 9.07-3.757 7.073 0 12.828 5.754 12.828 12.827v111.81c-8.184-3.275-17.277-3.628-25.656-1.055v-110.754zm71.538 163.949-38.382 38.383-38.382-38.383c-9.099-9.122-9.089-23.954.021-33.064 4.559-4.559 10.55-6.839 16.542-6.839 5.982 0 11.965 2.273 16.522 6.819 2.928 2.92 7.666 2.92 10.594 0 9.122-9.1 23.954-9.09 33.064.02s9.12 23.943.021 33.064zm26.7-59.229v44.671h-.909c-1.351 0-2.7.062-4.045.155.576-10.527-3.14-21.248-11.16-29.268-.266-.266-.54-.52-.812-.776v-101.871c0-7.073 5.755-12.828 12.828-12.828s12.828 5.755 12.828 12.828v61.673c-5.464 7.028-8.73 15.846-8.73 25.416zm62.571 83.637c1.187-5.581 1.681-11.31 1.438-17.026l-1.156-27.299c5.428-.376 10.85 1.591 14.784 5.514 2.928 2.921 7.667 2.919 10.594-.002 3.592-3.584 8.369-5.559 13.452-5.559 5.091 0 9.872 1.981 13.467 5.583 7.417 7.418 7.427 19.495.03 26.913l-32.247 32.238z"/><path d="m199.213 404.836c-4.142 0-7.5 3.358-7.5 7.5v54.156c0 4.142 3.358 7.5 7.5 7.5s7.5-3.358 7.5-7.5v-54.156c0-4.142-3.358-7.5-7.5-7.5z"/><path d="m387.738 425.176c-1.416-3.893-5.719-5.901-9.612-4.485s-5.9 5.719-4.485 9.612l1.933 5.315c1.108 3.046 3.984 4.938 7.049 4.938.851 0 1.717-.146 2.563-.454 3.893-1.416 5.9-5.719 4.485-9.612z"/><path d="m409.022 440.66c-4.004-1.063-8.11 1.322-9.172 5.326l-1.121 4.224c-1.063 4.003 1.322 8.11 5.326 9.172.645.171 1.292.253 1.928.253 3.318 0 6.353-2.22 7.244-5.579l1.121-4.224c1.062-4.003-1.323-8.11-5.326-9.172z"/><path d="m429.592 412.235c-4.028-.977-8.08 1.499-9.054 5.525l-1.988 8.215c-.975 4.026 1.5 8.079 5.525 9.054.593.144 1.186.212 1.77.212 3.383 0 6.453-2.305 7.284-5.738l1.988-8.215c.975-4.025-1.499-8.079-5.525-9.053z"/></g></g></svg>