<svg id="Layer_1" enable-background="new 0 0 512.054 512.054" height="512" viewBox="0 0 512.054 512.054" width="512" xmlns="../../../../external.html?link=http://www.w3.org/2000/svg"><g><path d="m313.019 471.683c6.153-2.292 12.949-7.495 20.777-15.907 8.771-9.426 13.352-7.789 21.666-4.82 7.295 2.606 16.376 5.85 27.779.506 8.51-3.989 10.347-2.515 17.185 2.962 4.52 3.621 10.145 8.127 18.945 11.461 20.362 7.714 42.184-2.829 48.546-8.25.387-.33 9.579-8.194 18.431-17.835 13.759-14.985 19.01-25.848 16.525-34.185-1.015-3.404-4.298-9.317-14.89-10.669-5.286-.675-8.854-2.454-10.91-5.439-3.857-5.602-2.179-14.851-1.278-18.566 1.182-4.867-.295-10.107-3.852-13.676-1.774-1.78-5.93-5.947 3.963-15.976 6.049-6.13 5.538-16.129-1.152-21.553-3.103-2.513-4.071-5.398-3.141-9.355 2.06-8.754.76-19.474-3.865-31.863-3.672-9.837-16.284-12.612-23.8-5.249-9.651 9.455-16.812 9.769-11.378-1.021 2.729-5.424 7.571-11.69 12.254-17.75 7.221-9.344 12.924-16.726 13.546-23.573.98-10.782 5.233-17.441 7.798-17.922l.713-.132c7.33-1.349 26.802-4.932 25.89-32.464-.138-4.14-3.627-7.373-7.744-7.248-4.14.137-7.385 3.604-7.248 7.744.484 14.622-6.363 15.882-13.612 17.216l-.763.141c-10.583 1.985-18.423 14.273-19.97 31.29-.362 2.684-6.45 10.563-10.479 15.776-10.846 14.037-24.344 31.506-13.22 44.021 9.781 11.006 23.298 5.611 34.217-4.884 3.27 9.006 4.356 16.969 3.06 22.482-2.22 9.434.589 17.98 7.909 24.124-12.384 12.75-13.792 26.396-3.77 36.615-1.688 7.119-3.369 20.255 3.567 30.329 7.942 11.534 21.269 11.412 23.707 12.334-1.524 9.325-22.48 29.149-29.99 35.657-1.957 1.335-18.064 11.793-33.752 5.853-6.584-2.494-10.802-5.873-14.88-9.14-7.483-5.996-15.965-12.79-32.93-4.837-5.539 2.596-9.623 1.359-16.366-1.049-9.364-3.345-22.192-7.928-37.692 8.727-8.019 8.617-12.859 11.26-15.031 12.069-7.629 2.84-12.183 10.424-11.075 18.44 1.217 8.809-.425 15.24-4.881 19.115-4.296 3.735-9.988 1.424-21.956-4.739-8.283-4.266-17.672-9.1-27.898-9.711-5.582-.333-9.216-2.602-13.422-5.229-11.27-7.037-21.78-11.378-45.555 1.73-23.915 13.182-36.182-19.83-57.553-35.14-.617-.442-.813-1.195-.463-1.79 5.119-8.71 11.084-22.357 10.436-37.914-.351-8.438 2.386-10.711 6.173-13.858 3.948-3.28 10.556-8.771 6.687-20.121-1.419-4.163-1.962-10.699-1.604-18.86 7.295 6.49 15.738 7.901 22.116 1.749 9.174-8.847 1.851-22.004-5.232-34.729-3.177-5.708-6.461-11.609-8.395-17.017-1.396-3.9-5.688-5.934-9.588-4.537-3.9 1.395-5.932 5.687-4.537 9.587 2.351 6.572 5.94 13.023 9.413 19.262 2.544 4.57 6.527 11.728 7.434 15.486-1.283-.939-3.222-2.733-5.684-5.931-2.778-3.608-7.4-5.14-11.775-3.908-4.362 1.23-7.492 4.941-7.976 9.455-2.797 26.197 1.89 33.843 1.987 35.809-2.296 3.144-14.839 8.249-14.006 28.238.496 11.908-4.284 22.718-8.381 29.689-4.303 7.32-2.299 16.6 4.659 21.584 12.215 8.749 23.294 28.028 38.97 36.706 11.067 6.128 22.696 5.917 34.561-.625 17.947-9.897 22.889-6.813 30.367-2.143 4.936 3.083 11.079 6.918 20.473 7.479 7.068.422 14.621 4.312 21.926 8.073 12.291 6.329 26.246 13.522 38.665 2.723 8.402-7.306 11.825-18.539 9.898-32.487-.14-1.018.442-1.954 1.451-2.33z"/><path d="m10.671 170.817c4.638 12.676 23.231 25.133 49.872 24.326 16.255-.494 23.37 7.864 24.934 10.028 3.59 10.232 7.924 13.934 15.082 19.312.867 1.465 1.426 6.575 1.837 10.334.927 8.476 2.081 19.025 7.686 28.657 3.988 6.854 9.341 11.348 14.53 15.184 1.341.992 2.903 1.47 4.452 1.47 2.298 0 4.566-1.052 6.037-3.042 2.462-3.331 1.758-8.027-1.573-10.489-3.795-2.806-7.731-5.941-10.481-10.667-4.004-6.882-4.926-15.309-5.739-22.744-.952-8.706-1.774-16.223-7.524-20.536-5.993-4.495-8.013-6.009-10.401-13.175-2.121-6.358-15.934-20.036-39.293-19.325-20.505.612-32.993-8.098-35.33-14.487-2.413-6.594 4.285-14.492-4.291-26.99-.174-.253-.288-.457-.361-.611 1.523-1.148 7.068-2.259 14.16 1.1 19.789 9.375 28.04 1.434 30.667-2.416.563-.827 1.688-1.418 2.934-1.544 5.678-.574 6.716 1.202 10.899 6.914 4.396 6.006 11.756 16.057 25.086 10.091 2.116-.948 8.228.625 12.69 1.774 9.758 2.511 23.124 5.952 29.978-5.575 9.423-15.847-4.019-22.716-6.436-39.903-1.148-8.18-4.661-15.77-10.197-22.076l17.905-4.317c-2.273 5.125-3.941 13.301-1.326 19.974 1.543 3.938 4.341 6.84 8.09 8.395 15.353 6.369 43.318 8.486 51.219-12.222 4.392-11.508 23.811-17.78 30.911-19.223.149-.03.298-.064.445-.104 11.198-2.958 29.864-12.452 28.786-29.268-.617-9.644-6.088-22.207-1.748-28.216 2.354-3.261 8.163-5.49 16.839-6.451 2.927 7.226 11.144 19.755 33.288 22.475 8.709 1.069 10.638 5.271 14.17 14.673 3.5 9.314 8.293 22.07 25.825 26.565 1.223.313.669.235 14.61.235 2.099 5.943 8.106 15.883 25.052 18.75 20.775 3.516 34.262 1.418 42.405 13.263 6.899 10.037 25.514 15.74 55.335 16.955-2.596 5.048-4.897 10.08-6.848 14.969-1.535 3.847.34 8.21 4.187 9.745 3.847 1.534 8.21-.339 9.745-4.188 1.873-4.693 4.11-9.549 6.651-14.432 4.888-9.389-1.682-20.654-12.244-21.048-28.217-1.054-41.588-6.314-44.465-10.5-12.622-18.358-31.924-16.112-52.265-19.555-7.22-1.222-11.875-4.372-13.463-9.109-1.974-5.892-7.426-9.851-13.567-9.851h-12.271c-8.793-2.542-11.214-7.943-14.646-17.076-3.498-9.311-8.29-22.063-26.384-24.285-13.794-1.694-19.149-8.123-21.214-13.217-2.508-6.196-8.92-10.008-15.595-9.272-13.331 1.475-22.263 5.587-27.308 12.571-9.134 12.649-1.642 28.885-1.06 37.958.467 7.282-13.396 12.615-17.474 13.758-4.516.937-33.789 7.759-41.714 28.529-3.931 10.297-23.443 6.941-31.307 3.776-.549-1.086-.553-5.007 1.108-8.621 1.264-2.75 1.769-5.73 1.503-8.853-.708-8.348-8.788-14.095-16.972-12.121l-21.715 5.235c-10.274 2.478-14.165 15.246-6.722 22.958 4.212 4.365 6.76 9.514 7.573 15.306 1.313 9.349 4.549 15.714 6.911 20.361 3.116 6.129 3.227 6.861 1.485 9.79-1.11 1.864-8.474-.032-13.347-1.286-7.695-1.98-15.653-4.028-22.56-.938-1.916.858-2.26 1.009-6.854-5.263-4.875-6.655-10.302-14.41-24.511-12.975-5.697.576-10.732 3.497-13.783 7.978-.485.398-3.934 1.117-11.886-2.65-12.271-5.812-25.847-4.554-32.279 2.993-4.458 5.229-4.577 12.341-.311 18.56 4.746 6.91-1.677 12.028 2.578 23.659z"/></g></svg>