<svg id="Capa_1" enable-background="new 0 0 511.75 511.75" height="512" viewBox="0 0 511.75 511.75" width="512" xmlns="../../../../external.html?link=http://www.w3.org/2000/svg"><g><path d="m463.16 436.577c8.873-8.861 13.76-20.64 13.76-33.167v-131.26c0-8.121-3.164-15.766-8.917-21.534-9.774-10.251-27.122-11.774-38.505-3.728-6.123-19.568-31.305-27.543-47.548-14.546-7.243-15.352-27.909-21.815-42.707-12.675v-53.381c0-11.611-6.536-21.722-16.119-26.855-.192-6.53-.831-13.028-1.897-19.446 36.508 6.813 71.477-22.468 71.1-59.651-1.088-66.424-90.546-83.503-116.49-23.327-52.734-49.413-141.505-49.374-193.939.639-3.051 2.801-3.254 7.545-.452 10.597s7.546 3.253 10.597.453c49.053-46.882 133.062-44.376 179.492 4.963-3.055 25.567 11.418 50.314 33.346 60.957 1.607 6.966 2.635 14.076 3.068 21.245-16.397.452-29.599 13.921-29.599 30.425v59.896c-106.663 120.507-290.042-13.5-207.908-151.756 2.229-3.491 1.206-8.128-2.286-10.357-3.49-2.229-8.129-1.205-10.356 2.286-87.713 145.116 95.297 295.493 220.551 181.757v36.1l-21.938 27.578c-4.083 5.13-6.332 11.566-6.332 18.121v40.13c0 6.405 2.165 12.733 6.1 17.821l36.794 47.532c1.423 1.843 2.206 4.129 2.206 6.437v9.32h-1.22c-6.457 0-11.71 5.253-11.71 11.71v37.18c0 6.457 5.253 11.71 11.71 11.71h167.35c6.457 0 11.71-5.253 11.71-11.71v-37.18c0-6.457-5.253-11.71-11.71-11.71h-1.22v-7.17c-.001-2.766 1.113-5.46 3.069-7.404zm-177-376.243c0-25.135 20.448-45.583 45.583-45.583 60.39 2.292 60.374 88.884-.001 91.167-25.134-.001-45.582-20.449-45.582-45.584zm132.161 390.816c-9.931.344-9.923 14.659 0 15h39.699v30.6h-160.77v-30.6h86.07c9.931-.344 9.923-14.659 0-15h-73.14v-9.32c0-5.607-1.894-11.148-5.339-15.611l-36.797-47.537c-1.911-2.471-2.964-5.541-2.964-8.642v-40.13c0-3.175 1.09-6.293 3.069-8.781l10.2-12.823v21.089c.344 9.931 14.659 9.923 15 0v-163.109c.779-20.469 30.121-20.453 30.893 0v79.61 33.619c.344 9.931 14.659 9.923 15 0v-33.619c.779-20.468 30.122-20.454 30.894 0v32.807c.344 9.931 14.659 9.923 15 0v-22.297c.779-20.47 30.122-20.453 30.894 0v23.109c.344 9.931 14.659 9.923 15 0v-7.346c-.104-13.621 16.813-20.653 26.36-10.953 2.922 2.929 4.53 6.812 4.53 10.934v131.26c0 8.516-3.324 16.526-9.347 22.54-4.756 4.727-7.483 11.298-7.483 18.03v7.17z"/><path d="m339.243 78.538v-10.704h10.705c9.931-.344 9.923-14.659 0-15h-10.705v-10.704c-.344-9.931-14.659-9.923-15 0v10.704h-10.704c-9.931.344-9.923 14.659 0 15h10.704v10.704c.343 9.931 14.659 9.923 15 0z"/><path d="m264.559 123.468c-1.509-4.642-5.802-7.761-10.683-7.761h-48.864l-15.1-46.472c-1.508-4.642-5.801-7.761-10.682-7.762-4.881 0-9.175 3.118-10.685 7.762l-15.1 46.472h-48.863c-4.882 0-9.175 3.12-10.684 7.762-1.508 4.643.132 9.689 4.081 12.559l39.531 28.721-15.1 46.473c-1.509 4.643.132 9.69 4.082 12.559 1.975 1.434 4.288 2.151 6.602 2.151 2.313 0 4.628-.718 6.602-2.152l39.532-28.722 39.531 28.722c3.949 2.869 9.257 2.869 13.206-.001s5.588-7.917 4.079-12.558l-15.1-46.472 39.533-28.722c3.951-2.87 5.591-7.917 4.082-12.559zm-54.643 30.754c-3.948 2.868-5.588 7.914-4.081 12.56l12.362 38.048-32.365-23.515c-3.948-2.869-9.255-2.87-13.205 0l-32.366 23.516 12.362-38.047c1.509-4.642-.13-9.688-4.08-12.561l-32.366-23.515h40.007c4.881 0 9.174-3.119 10.683-7.762l12.362-38.049 12.363 38.05c1.509 4.642 5.803 7.76 10.684 7.76h40.007z"/></g></svg>