<svg id="Capa_1" enable-background="new 0 0 512 512" height="512" viewBox="0 0 512 512" width="512" xmlns="../../../../external.html?link=http://www.w3.org/2000/svg"><g><g><g><path d="m90.106 369.599c2.527 0 5.098-.619 7.491-1.918 6.191-3.36 10.843-8.461 13.697-14.366.137.004.274.017.41.017 2.578 0 5.146-.636 7.454-1.888 5.68-3.083 10.063-7.631 12.953-12.92 2.074-.195 4.106-.801 5.987-1.822 7.617-4.133 13.168-10.986 15.63-19.294 2.463-8.309 1.543-17.08-2.591-24.696l-19.011-35.027c5.367-8.304 16.606-27.33 23.498-50.58 3.546-11.962 6.147-24.887 7.733-38.417 1.67-14.241-3.201-28.238-13.363-38.4l-85.08-85.08c-2.93-2.929-7.678-2.929-10.607 0s-2.929 7.678 0 10.606l85.081 85.08c6.897 6.897 10.204 16.391 9.071 26.047-1.485 12.681-3.914 24.759-7.216 35.901-4.616 15.573-11.365 29.113-16.613 38.296l-8.992-16.568c14.257-8.873 22.337-31.674 22.704-48.701.09-4.141-3.195-7.57-7.336-7.66-.056-.001-.11-.002-.165-.002-4.066 0-7.407 3.252-7.495 7.338-.316 14.676-7.513 31.317-15.714 36.339-.86.527-3.802 2.094-5.615 3.038-1.785.929-3.122 2.535-3.71 4.459-.589 1.924-.38 4.003.58 5.771l15.731 28.984c5.37 9.896 1.688 22.316-8.207 27.687-.794.432-1.789.167-2.268-.598l-31.02-49.705-1.623-35.832c-.253-5.59 1.66-10.968 5.387-15.143l15.734-17.628 12.916-7.01c3.641-1.976 4.99-6.529 3.015-10.169-1.977-3.64-6.532-4.991-10.169-3.014l-14.064 7.633c-.76.412-1.442.953-2.019 1.598l-2.738 3.067-67.155-58.074c-3.132-2.71-7.868-2.366-10.579.767-2.71 3.133-2.366 7.869.767 10.579l66.978 57.92-3.877 4.343c-6.351 7.115-9.61 16.281-9.18 25.809l.885 19.539c-.055.151-8.371 28.158-8.371 28.158-1.178 3.971 1.088 8.145 5.059 9.322.712.21 1.429.311 2.135.311 3.235 0 6.222-2.11 7.188-5.371l.812-2.738 15.913 25.498-4.456 15.036c-.565 1.907-.35 3.96.599 5.708l21.174 39.014c2.223 4.095 2.718 8.811 1.394 13.278s-4.309 8.151-8.404 10.375c-.29.156-.659.053-.825-.233l-38.072-65.896 1.815-6.128c1.178-3.972-1.088-8.145-5.06-9.322-3.968-1.176-8.145 1.088-9.321 5.06l-2.732 9.22c-.585 1.974-.333 4.101.696 5.883l39.686 68.688c2.9 5.024 8.091 7.831 13.475 7.831zm49.241-56.454c-.699 2.358-1.871 4.488-3.414 6.309-.436-4.092-1.655-8.166-3.737-12.001l-10.207-18.807c2.265-2.318 4.167-4.917 5.694-7.702l10.27 18.922c2.223 4.096 2.718 8.811 1.394 13.279zm-46.215-21.705c3.219 3.608 7.802 5.585 12.49 5.585 1.21 0 2.425-.139 3.626-.407l9.764 17.991c4.11 7.573 2 16.864-4.559 22.018-.339-4.405-1.579-8.809-3.819-12.937z"/><path d="m456.425 297.695 21.167-71.057c.585-1.974.333-4.101-.696-5.883l-39.686-68.687c-4.267-7.381-13.477-9.979-20.969-5.912-6.049 3.283-10.788 8.284-13.719 14.364-2.701-.07-5.403.549-7.843 1.873-5.683 3.084-10.067 7.635-12.958 12.927-2.083.196-4.116.802-5.983 1.815-7.617 4.133-13.168 10.986-15.63 19.294-2.463 8.309-1.543 17.08 2.591 24.696l19.011 35.027c-5.516 8.526-16.63 27.41-23.497 50.58-3.546 11.962-6.147 24.887-7.733 38.417-1.67 14.241 3.201 28.238 13.363 38.4l83.244 83.244c1.465 1.464 3.385 2.197 5.304 2.197s3.839-.732 5.304-2.197c2.929-2.929 2.929-7.678 0-10.606l-83.245-83.244c-6.897-6.897-10.204-16.391-9.071-26.047 1.485-12.681 3.914-24.759 7.216-35.901 4.606-15.54 11.456-29.214 16.622-38.279l8.984 16.552c-14.257 8.873-22.337 31.674-22.704 48.701-.09 4.141 3.195 7.57 7.336 7.66 4.174.122 7.571-3.195 7.66-7.336.316-14.676 7.513-31.317 15.714-36.339.86-.527 3.802-2.094 5.615-3.038 1.785-.929 3.122-2.535 3.71-4.459.589-1.924.38-4.003-.58-5.771l-15.733-28.986c-5.37-9.896-1.688-22.316 8.207-27.687.794-.432 1.789-.167 2.268.598l31.02 49.705 1.622 35.833c.253 5.589-1.659 10.967-5.385 15.142l-15.736 17.628-12.916 7.01c-3.64 1.976-4.989 6.529-3.014 10.169 1.359 2.504 3.937 3.924 6.599 3.924 1.208 0 2.435-.293 3.571-.91l14.063-7.633c.759-.413 1.441-.953 2.017-1.598l2.781-3.115 65.288 56.293c1.417 1.222 3.159 1.82 4.895 1.82 2.105 0 4.2-.882 5.683-2.603 2.705-3.137 2.354-7.873-.782-10.578l-65.092-56.124 3.835-4.296c6.351-7.116 9.611-16.282 9.179-25.809zm-81.935-97.003c.699-2.358 1.871-4.488 3.414-6.309.436 4.092 1.655 8.166 3.737 12.001l10.207 18.807c-2.265 2.318-4.167 4.917-5.694 7.702l-10.27-18.922c-2.223-4.096-2.719-8.812-1.394-13.279zm30.098 16.527-9.765-17.991c-4.107-7.567-2.004-16.848 4.542-22.005.351 4.472 1.632 8.862 3.836 12.923l17.52 32.28c-4.049-4.556-10.269-6.517-16.133-5.207zm29.114 25.531 4.457-15.036c.565-1.907.351-3.96-.599-5.709l-21.175-39.015c-2.223-4.095-2.718-8.811-1.394-13.278s4.309-8.151 8.404-10.374c.291-.156.66-.052.825.233l38.072 65.895-12.679 42.781z"/><path d="m216.409 454.774 70.79 20.982c.698.207 1.416.309 2.131.309 1.305 0 2.601-.341 3.752-1.006l68.688-39.687c7.382-4.265 9.979-13.476 5.912-20.969-3.36-6.191-8.459-10.842-14.363-13.697.076-2.716-.545-5.416-1.874-7.865-3.083-5.68-7.632-10.064-12.922-12.954-.194-2.081-.802-4.109-1.819-5.985-4.134-7.616-10.986-13.167-19.295-15.63-8.31-2.462-17.079-1.543-24.695 2.591l-35.029 19.012c-7.64-4.926-27.107-16.542-50.578-23.499-11.957-3.544-24.882-6.146-38.417-7.733-14.241-1.668-28.238 3.201-38.4 13.364l-85.08 85.08c-2.929 2.929-2.929 7.678 0 10.606 1.465 1.465 3.384 2.197 5.304 2.197 1.919 0 3.839-.732 5.304-2.197l85.08-85.08c6.896-6.897 16.39-10.205 26.046-9.073 12.686 1.488 24.765 3.916 35.902 7.217 15.547 4.608 29.208 11.449 38.281 16.62l-16.555 8.985c-8.873-14.257-31.674-22.337-48.701-22.705-.056-.001-.11-.002-.165-.002-4.066 0-7.407 3.252-7.495 7.338-.09 4.141 3.195 7.571 7.336 7.66 14.677.317 31.318 7.514 36.34 15.714.527.86 2.094 3.802 3.037 5.616.929 1.784 2.536 3.121 4.46 3.709 1.921.588 4.002.38 5.771-.58l28.985-15.731c4.793-2.603 10.312-3.182 15.542-1.631 5.229 1.55 9.542 5.043 12.144 9.837.431.793.168 1.789-.598 2.267l-49.704 31.021-35.834 1.623c-5.6.25-10.966-1.66-15.141-5.386l-17.629-15.735-7.01-12.916c-1.977-3.641-6.53-4.99-10.169-3.014-3.641 1.976-4.99 6.529-3.015 10.169l7.633 14.064c.412.759.953 1.442 1.598 2.018l3.068 2.739-58.075 67.156c-2.71 3.133-2.366 7.869.767 10.579 1.419 1.227 3.164 1.827 4.903 1.827 2.102 0 4.192-.879 5.676-2.594l57.921-66.978 4.343 3.877c6.697 5.979 15.211 9.218 24.134 9.218.557 0 1.115-.013 1.674-.038zm80.208-52.022 17.991-9.765c7.573-4.11 16.862-2 22.017 4.558-4.405.34-8.809 1.58-12.936 3.82l-32.275 17.518c4.554-4.049 6.514-10.266 5.203-16.131zm3.251-28.704c4.093-2.223 8.809-2.719 13.277-1.394 2.357.699 4.487 1.871 6.308 3.413-4.091.436-8.164 1.655-11.999 3.737l-18.796 10.201c-2.285-2.242-4.871-4.154-7.69-5.7zm54.397 48.337-65.896 38.073-42.78-12.68 25.497-15.913 15.037 4.457c1.905.565 3.959.35 5.709-.599l39.013-21.175c8.453-4.588 19.063-1.443 23.652 7.01.161.296.058.659-.232.827z"/><path d="m346.896 146.623c-6.181-.725-12.351-1.7-18.341-2.898-4.06-.812-8.013 1.822-8.825 5.884s1.822 8.013 5.884 8.825c6.383 1.276 12.956 2.315 19.535 3.087 1.841.216 3.676.322 5.501.322 12.294 0 24.051-4.837 32.899-13.687l83.244-83.244c2.929-2.929 2.929-7.678 0-10.606s-7.677-2.93-10.607 0l-83.244 83.244c-6.897 6.898-16.387 10.207-26.046 9.073z"/><path d="m160.538 109.466c-.07 2.705.533 5.421 1.855 7.857 3.082 5.679 7.633 10.054 12.92 12.944.193 2.085.801 4.116 1.821 5.995 4.134 7.617 10.986 13.167 19.295 15.63 3.053.905 6.167 1.353 9.264 1.353 5.333 0 10.613-1.329 15.432-3.944l35.03-19.012c5.921 3.823 18.393 11.325 34.22 17.746.924.375 1.878.552 2.816.552 2.964 0 5.771-1.768 6.953-4.683 1.557-3.838-.293-8.212-4.131-9.77-9.264-3.758-17.274-7.907-23.304-11.347l16.558-8.986c8.873 14.257 31.674 22.337 48.701 22.705.056.001.11.002.165.002 4.066 0 7.407-3.252 7.495-7.338.09-4.141-3.195-7.571-7.336-7.66-14.677-.317-31.318-7.514-36.34-15.714-.527-.86-2.094-3.802-3.037-5.616-.929-1.784-2.536-3.121-4.46-3.709-1.921-.589-4.002-.379-5.771.58l-28.984 15.73c-4.794 2.603-10.314 3.18-15.542 1.631-5.229-1.55-9.542-5.043-12.144-9.837-.431-.793-.168-1.789.598-2.267l49.704-31.021 35.834-1.623c5.59-.248 10.966 1.66 15.141 5.386l17.629 15.735 7.01 12.916c1.976 3.64 6.528 4.989 10.169 3.014 3.641-1.976 4.99-6.529 3.015-10.169l-7.633-14.064c-.412-.759-.953-1.442-1.598-2.018l-3.114-2.78 56.292-65.288c2.704-3.137 2.354-7.873-.783-10.578s-7.873-2.355-10.578.783l-56.124 65.092-4.296-3.835c-7.114-6.352-16.287-9.61-25.808-9.18l-19.464.881-71.369-21.153c-1.973-.584-4.1-.333-5.883.697l-68.688 39.687c-7.382 4.265-9.979 13.476-5.912 20.969 3.363 6.199 8.47 10.853 14.382 13.707zm56.681-2.053-17.991 9.765c-7.576 4.11-16.867 1.999-22.02-4.561 4.406-.339 8.811-1.577 12.939-3.817l32.275-17.518c-4.553 4.049-6.513 10.266-5.203 16.131zm-3.249 28.704c-4.096 2.223-8.812 2.718-13.278 1.394-2.36-.7-4.491-1.873-6.314-3.418 4.093-.435 8.169-1.649 12.005-3.731l18.796-10.201c2.286 2.242 4.871 4.154 7.691 5.7zm-54.398-48.337 65.896-38.073 42.78 12.68-25.498 15.912-15.037-4.457c-1.906-.565-3.96-.351-5.709.599l-39.014 21.175c-4.096 2.223-8.812 2.717-13.277 1.394-4.467-1.324-8.151-4.309-10.374-8.403-.16-.297-.057-.66.233-.827z"/><path d="m256.328 321.502c-.182.183-.479.182-.658.001l-29.432-29.433c-2.929-2.929-7.678-2.93-10.606 0-2.93 2.929-2.93 7.677-.001 10.606l29.432 29.433c3.016 3.015 6.975 4.522 10.936 4.522 3.96 0 7.921-1.508 10.937-4.522l53.066-53.069c19.058-19.105 19.038-50.173-.043-69.255-17.406-17.406-44.784-18.948-63.96-4.624-19.175-14.325-46.553-12.781-63.96 4.624-18.513 18.514-19.236 48.191-1.647 67.563 2.785 3.067 7.528 3.295 10.595.511s3.295-7.528.511-10.594c-12.201-13.438-11.696-34.028 1.148-46.874 13.242-13.242 34.799-13.253 48.057-.029 2.927 2.92 7.665 2.922 10.594 0 13.258-13.225 34.815-13.211 48.056.029 13.241 13.241 13.255 34.798.037 48.049z"/></g></g></g></svg>