<?xml version="1.0" encoding="utf-8"?>
<!-- Generator: Adobe Illustrator 26.3.1, SVG Export Plug-In . SVG Version: 6.00 Build 0)  -->
<svg version="1.1" id="Calque_1" xmlns="http://www.w3.org/2000/svg" xmlns:xlink="http://www.w3.org/1999/xlink" x="0px" y="0px"
	 viewBox="0 0 700 700" style="enable-background:new 0 0 700 700;" xml:space="preserve">
<g>
	<path d="M361.4,270.2l29.5-13.7l-38.7-67.2c-22.4-38.4-36.5-39.8-36.5-39.8l115.5,11.2c13.1,1.3,24.8,8.8,31.4,20.2l19.3,33.6
		l26.5-12.3L458,273.1L361.4,270.2z"/>
	<path d="M472.9,398l-55.5-95.7l89-45.5l29.5,51.1l0,0c9.7,17.3,11.6,38,5.2,56.8c-5.2,14.6-15.9,26.7-29.8,33.6
		c-6.1,3.8-12.8,6.7-19.8,8.3c-3.6,0.8-7.4,0.4-10.8-1.1C477.3,404,474.6,401.3,472.9,398L472.9,398z"/>
	<path d="M417.4,389.5l-2.9,32.4h77.5c44.4,0,52.7-11.7,52.7-11.7l-67.2,94.5c-7.7,10.6-20,16.8-33.1,16.8h-38.8l-2.6,29.1l-36-78.7
		L417.4,389.5z"/>
	<path d="M251.2,421.9h110.6l-5.2,99.8h-59c-19.9-0.2-38.7-8.9-51.8-23.9c-10.1-11.9-15.3-27.2-14.3-42.8
		c-0.3-7.2,0.6-14.5,2.7-21.4c1.1-3.6,3.4-6.7,6.5-8.9C243.7,422.7,247.4,421.7,251.2,421.9L251.2,421.9z"/>
	<path d="M288.6,377L262,358.3l-38.7,67.2c-22.4,38.4-16.2,51.5-16.2,51.5l-48.3-105.8c-5.4-12-4.8-25.8,1.8-37.2l19.3-33.6
		L156,283.6l86.5,8.1L288.6,377z"/>
	<path d="M343.5,216.8l-55.2,95.7l-83.7-54.4l29.5-51.1c10.2-17.1,27.1-29.1,46.6-32.9c15.4-2.9,31.2,0.4,44.2,9
		c6.4,3.4,12.2,7.8,17.1,13c2.5,2.8,4.1,6.4,4.3,10.1C346.6,210,345.6,213.7,343.5,216.8L343.5,216.8z"/>
</g>
<g>
	<path d="M350,633.1c-75.6,0-146.7-29.4-200.2-82.9C96.4,496.7,66.9,425.6,66.9,350s29.4-146.7,82.9-200.2
		C203.3,96.4,274.4,66.9,350,66.9s146.7,29.4,200.2,82.9c53.5,53.5,82.9,124.6,82.9,200.2s-29.4,146.7-82.9,200.2
		C496.7,603.6,425.6,633.1,350,633.1z M350,81.1C201.7,81.1,81.1,201.7,81.1,350S201.7,618.9,350,618.9S618.9,498.3,618.9,350
		S498.3,81.1,350,81.1z"/>
</g>
</svg>
