<svg id="Capa_1" enable-background="new 0 0 512.002 512.002" height="512" viewBox="0 0 512.002 512.002" width="512" xmlns="../../../../external.html?link=http://www.w3.org/2000/svg"><g><path d="m406.776 107.368c.784-4.067-1.878-8-5.944-8.784-4.068-.786-8 1.879-8.784 5.944-2.845 14.756-9.991 28.198-20.67 38.876l-41.949 41.949c-5.613-16.863-19.931-29.812-37.565-33.465 35.474-32.087 12.536-92.407-35.864-92.359-48.398-.048-71.334 60.279-35.867 92.361-17.632 3.654-31.947 16.602-37.559 33.463l-41.949-41.949c-29.196-28.012-29.199-78.428 0-106.443 28.013-29.197 78.42-29.195 106.433.001 4.712 4.909 13.175 4.908 17.887 0 28.015-29.198 78.419-29.197 106.434 0 9.869 9.868 16.78 22.22 19.986 35.72.956 4.029 4.994 6.524 9.03 5.563 4.029-.957 6.521-5 5.563-9.03-3.849-16.204-12.139-31.025-23.974-42.86-32.997-34.382-92.155-35.11-125.983-1.622-33.83-33.489-92.988-32.758-125.983 1.622-35.019 33.6-35.011 94.06 0 127.657l108.75 108.75c9.503 9.501 24.963 9.501 34.467 0l108.75-108.75c12.804-12.806 21.377-28.935 24.791-46.644zm-188.934 5.32c0-21.041 17.118-38.159 38.159-38.159 50.554 1.918 50.54 74.408 0 76.318-21.041 0-38.159-17.118-38.159-38.159zm44.785 139.466c-3.652 3.654-9.6 3.654-13.252 0l-54.209-54.209c1.634-17.952 16.807-32.097 35.145-32.097h51.381c18.338 0 33.511 14.145 35.145 32.097z"/><path d="m200.459 447.874h-5.438v-45.916c0-14.122-4.31-27.69-12.465-39.238l-43.659-61.788c-4.644-6.576-11.576-10.917-19.52-12.224-7.944-1.309-15.905.586-22.418 5.332-4.303 3.141-7.633 7.357-9.729 12.13l-6.747-9.126c-1.109-1.509-1.688-3.294-1.672-5.151l1.011-101.555v-.24c0-14.798-10.011-27.703-24.345-31.385-9.036-2.319-18.636-.631-26.341 4.632-7.699 5.261-12.758 13.586-13.88 22.837l-15.08 123.908c-.754 6.189.932 12.309 4.746 17.231l34.16 44.091c2.55 3.292 7.274 3.857 10.522 1.335 3.274-2.537 3.872-7.248 1.335-10.522l-34.161-44.092c-1.357-1.751-1.981-4.021-1.712-6.229l15.08-123.914c.603-4.968 3.318-9.437 7.452-12.261 4.138-2.828 9.291-3.736 14.147-2.487 7.698 1.977 13.075 8.908 13.075 16.855l-1.011 101.657c-.042 5.062 1.588 10.098 4.601 14.192l41.35 56.299c6.126 7.823 17.693-.617 12.121-8.836l-19.338-26.527c-4.819-6.372-3.3-16.155 3.255-20.725 3.235-2.358 7.188-3.297 11.144-2.649 3.948.649 7.394 2.808 9.703 6.077l43.659 61.788c6.356 9.001 9.716 19.577 9.716 30.584v45.916h-68.74c-.431-5.601-2.505-11.033-5.961-15.491l-32.87-42.409c-2.536-3.274-7.248-3.87-10.522-1.333-3.273 2.537-3.871 7.248-1.333 10.522l32.871 42.41c1.426 1.839 2.361 4.021 2.729 6.301h-5.266c-7.444 0-13.5 6.056-13.5 13.5v37.044c0 7.444 6.056 13.5 13.5 13.5h109.532c7.444 0 13.5-6.056 13.5-13.5v-37.044c-.001-7.444-6.057-13.499-13.501-13.499zm-1.5 49.044h-106.532v-34.044h106.532z"/><path d="m507.079 327.322c3.815-4.924 5.501-11.043 4.747-17.23l-15.08-123.906c-1.121-9.255-6.181-17.58-13.88-22.841-7.704-5.263-17.304-6.948-26.341-4.632-14.334 3.682-24.345 16.587-24.345 31.385l1.011 101.784c.016 1.868-.562 3.653-1.661 5.147l-6.758 9.141c-2.097-4.773-5.427-8.99-9.733-12.133-6.508-4.743-14.464-6.638-22.414-5.329-7.943 1.307-14.876 5.647-19.519 12.222l-43.661 61.792c-8.154 11.546-12.464 25.114-12.464 39.236v45.916h-5.438c-7.444 0-13.5 6.056-13.5 13.5v37.044c0 7.444 6.056 13.5 13.5 13.5h109.532c7.444 0 13.5-6.056 13.5-13.5v-37.044c0-7.444-6.056-13.5-13.5-13.5h-5.266c.368-2.28 1.303-4.462 2.73-6.303zm-87.504 169.596h-106.532v-34.044h106.532zm-87.593-49.044v-45.916c0-11.007 3.359-21.583 9.715-30.582l43.661-61.791c2.309-3.269 5.754-5.427 9.702-6.076 3.951-.647 7.908.292 11.14 2.646 6.558 4.571 8.078 14.353 3.261 20.725l-19.34 26.53c-2.44 3.347-1.705 8.039 1.643 10.479 3.346 2.439 8.038 1.705 10.479-1.643l41.36-56.313c3.002-4.08 4.632-9.115 4.59-14.189l-1.011-101.405v-.24c0-7.947 5.377-14.879 13.075-16.855 4.854-1.249 10.009-.341 14.147 2.487 4.134 2.824 6.85 7.293 7.452 12.265l15.08 123.912c.27 2.206-.354 4.476-1.712 6.228l-88.539 114.248c-3.458 4.459-5.532 9.891-5.962 15.492h-68.741z"/></g></svg>