<svg id="Capa_1" enable-background="new 0 0 511.76 511.76" height="512" viewBox="0 0 511.76 511.76" width="512" xmlns="../../../../external.html?link=http://www.w3.org/2000/svg"><g><path d="m440.59 3.59c-5.09-2.3-10.74-3.59-16.68-3.59h-346.77c-16.43 0-29.79 13.36-29.79 29.79v305.07c.347 9.93 14.656 9.923 15 0v-305.07c0-8.15 6.63-14.79 14.79-14.79h315.33c-5.66 6.96-9.06 15.85-9.06 25.5v131.65c.344 9.931 14.659 9.923 15 0v-57.58h50.5c8.54 0 15.5-6.96 15.5-15.5v-58.57c0-16.39-9.79-30.53-23.82-36.91zm8.82 95.48c0 .27-.23.5-.5.5h-50.5v-59.07c1.287-33.791 49.725-33.765 51 0z"/><path d="m448.908 336.123h-50.498v-128.973c-.344-9.931-14.659-9.923-15 0l-.002 203.037c0 9.659 3.404 18.535 9.068 25.503h-.006-136.89v-17.614c40.13-30.685 18.47-96.039-32.702-96.129-51.172.091-72.83 65.455-32.698 96.13v17.613h-113.04c-8.155 0-14.79-6.635-14.79-14.79v-51.04c-.344-9.931-14.659-9.923-15 0v51.04c0 16.426 13.364 29.79 29.79 29.79h113.04v41.57c0 10.752 8.748 19.5 19.5 19.5h26.4c10.752 0 19.5-8.748 19.5-19.5v-41.57h168.33l.004-.003c22.328-.003 40.493-18.17 40.493-40.5v-58.563c.001-8.548-6.952-15.501-15.499-15.501zm-264.674 39.47c0-21.309 17.336-38.646 38.646-38.646 51.198 1.943 51.184 75.356 0 77.291-21.31.001-38.646-17.336-38.646-38.645zm51.846 121.167h-26.4c-2.481 0-4.5-2.019-4.5-4.5v-66.036c10.978 3.989 24.422 3.989 35.4-.001v66.036c0 2.482-2.018 4.501-4.5 4.501zm213.328-86.573c-1.286 33.791-49.726 33.766-51 0v-59.063h50.5c.276 0 .5.224.5.5z"/><path d="m274.196 104.473c36.089-1.373 36.062-53.109 0-54.469h-102.634c-36.09 1.373-36.062 53.109 0 54.469zm-114.868-27.235c0-6.746 5.488-12.234 12.234-12.234h102.634c16.213.617 16.2 23.858 0 24.469h-102.634c-6.746 0-12.234-5.489-12.234-12.235z"/><path d="m135.305 321.948h-30c-9.931.344-9.923 14.659 0 15h30c9.93-.345 9.923-14.66 0-15z"/><path d="m135.305 360.694h-30c-9.931.344-9.923 14.659 0 15h30c9.93-.345 9.923-14.66 0-15z"/><path d="m135.305 399.026h-30c-9.931.344-9.923 14.659 0 15h30c9.93-.344 9.923-14.659 0-15z"/><path d="m340.454 321.948h-30c-9.931.344-9.923 14.659 0 15h30c9.931-.345 9.923-14.66 0-15z"/><path d="m340.454 362.362h-30c-9.931.344-9.923 14.659 0 15h30c9.931-.344 9.923-14.659 0-15z"/><path d="m340.454 399.026h-30c-9.931.344-9.923 14.659 0 15h30c9.931-.344 9.923-14.659 0-15z"/><path d="m340.454 283.202h-235.149c-9.931.344-9.923 14.659 0 15h235.149c9.931-.344 9.923-14.659 0-15z"/><path d="m340.454 244.456h-235.149c-9.931.344-9.923 14.659 0 15h235.149c9.931-.344 9.923-14.659 0-15z"/><path d="m340.454 205.71h-235.149c-9.931.344-9.923 14.659 0 15h235.149c9.931-.344 9.923-14.659 0-15z"/><path d="m340.454 166.965h-235.149c-9.931.344-9.923 14.659 0 15h235.149c9.931-.345 9.923-14.66 0-15z"/><path d="m96.273 135.719c0 4.142 3.358 7.5 7.5 7.5h235.149c9.931-.344 9.923-14.659 0-15h-235.149c-4.142 0-7.5 3.357-7.5 7.5z"/></g></svg>