<?xml version="1.0" encoding="utf-8"?>
<!-- Generator: Adobe Illustrator 26.3.1, SVG Export Plug-In . SVG Version: 6.00 Build 0)  -->
<svg version="1.1" id="Calque_1" xmlns="http://www.w3.org/2000/svg" xmlns:xlink="http://www.w3.org/1999/xlink" x="0px" y="0px"
	 viewBox="0 0 700 700" style="enable-background:new 0 0 700 700;" xml:space="preserve">
<g>
	<path d="M384.7,247.8c-2.8,0-4.6-0.1-5-0.1c-5.8-0.3-10.4-5.1-10.6-10.9c-0.1-2.8-1.2-69.2,34.4-95.1c25-18.2,84.4-29.2,91.1-30.4
		c3.6-0.7,7.4,0.6,10,3.2c2.6,2.7,3.7,6.5,2.9,10.1c-0.6,2.5-13.7,62.2-34.4,88.4C447.8,245,400.3,247.8,384.7,247.8L384.7,247.8z
		 M481.4,136.9c-21.3,4.9-51.4,13.3-64.7,22.9c-17.9,12.9-23.6,45.4-24.9,65.4c16.5-1,47.5-5.5,63.8-26
		C466.5,185.5,475.9,157.1,481.4,136.9L481.4,136.9z"/>
	<path d="M527.6,359.8c-2.5,0-4.8-1.7-5.4-4.3c-7.3-30.1-21.7-49.4-42.8-57.3c-2.9-1.1-4.4-4.3-3.3-7.2c1.1-2.9,4.3-4.4,7.2-3.3
		c24.8,9.2,41.5,31.2,49.7,65.2c0.7,3-1.1,6-4.1,6.8C528.5,359.7,528.1,359.8,527.6,359.8L527.6,359.8z"/>
	<path d="M307,588.9c-26.4,0-46.1-13-54.9-22.9c-14.9-13.4-28.1-28.4-39.1-44.6c-0.6-0.8-21.3-28.3-27.6-39
		c-3.1-5.3-1.3-12.2,4-15.3c5.3-3.1,12.2-1.3,15.3,4c4.6,7.9,20.7,29.6,26.4,37.3c10.5,15.3,22.6,29.1,36.4,41.4
		c0.3,0.3,0.7,0.7,1,1.1c1,1.1,25.1,27.7,66.6,9.2c3.1-1.2,26.5-10.2,43.8-10.2s40.8,9,43.4,10c42.4,18.9,66.9-8.7,67.1-9
		c0.3-0.4,0.7-0.7,1-1.1c97.6-87.5,74.9-213.7,74.6-215c-9-37-25.8-62.6-50-75.4c-35.3-18.9-75-4.8-75.4-4.6
		c-0.6,0.2-1.2,0.4-1.8,0.5c-40.5,7.6-58.5,7.4-59.3,7.3c-0.2,0.1-18.3,0.3-58.9-7.3c-0.6-0.1-1.2-0.3-1.8-0.5
		c-0.4-0.1-40.4-14.2-75.5,4.7c-24,12.9-40.8,38.5-49.8,75.9c0,0-3,16.4-2.4,41c0.2,6.2-4.8,11.3-10.9,11.5h-0.3
		c-6,0-11-4.8-11.2-10.9c-0.7-27.4,2.7-45.5,2.9-46.3c10.8-44.5,31.4-74.9,61.4-91c41.2-22.1,85.4-8.7,92.7-6.2
		c37.1,6.9,53.6,6.8,53.9,6.8c0.4-0.1,17,0.2,54.3-6.8c7.3-2.5,51.5-15.8,92.7,6.2c30,16,50.6,46.5,61.3,90.4
		c1.2,6.2,25.3,140.1-81,236c-12.5,14.1-47.2,34.5-92.2,14.4c-5.5-2.2-23.6-8.3-34.8-8.3s-29.2,6.2-35.2,8.5
		C330.6,586.6,318.2,588.9,307,588.9L307,588.9z"/>
	<path d="M380.3,247.7c-4.4,0-8.6-2.6-10.4-6.9c-20.3-48.9-49.3-61.6-50.6-62.1c-5.7-2.4-8.4-8.9-6-14.6c2.4-5.7,8.8-8.5,14.5-6.2
		c1.6,0.6,38.6,16.1,62.8,74.3c2.4,5.7-0.3,12.3-6,14.6C383.3,247.5,381.8,247.7,380.3,247.7L380.3,247.7z"/>
	<path d="M374.6,487.9H156.2c-25.5,0-46.3-19.5-46.3-43.5l0-100.1c0-24,20.8-43.5,46.3-43.5h30.2c6.2,0,11.2,5,11.2,11.2
		s-5,11.2-11.2,11.2h-30.2c-13.2,0-23.9,9.5-23.9,21.1c0,11.6,10.8,21.1,23.9,21.1h218.4c6.2,0,11.2,5,11.2,11.2v100.2
		C385.8,482.9,380.7,487.9,374.6,487.9L374.6,487.9z M132.3,381.5v62.9c0,11.6,10.8,21.1,23.9,21.1h207.2v-77.8H156.2
		C147.4,387.7,139.2,385.5,132.3,381.5L132.3,381.5z"/>
	<path d="M189,480.2c-3.1,0-5.6-2.5-5.6-5.6v-38c0-3.1,2.5-5.6,5.6-5.6c3.1,0,5.6,2.5,5.6,5.6v38C194.6,477.7,192.2,480.2,189,480.2
		z"/>
	<path d="M252.4,480.2c-3.1,0-5.6-2.5-5.6-5.6v-38c0-3.1,2.5-5.6,5.6-5.6c3.1,0,5.6,2.5,5.6,5.6v38
		C258,477.7,255.6,480.2,252.4,480.2L252.4,480.2z"/>
	<path d="M315.9,480.2c-3.1,0-5.6-2.5-5.6-5.6v-38c0-3.1,2.5-5.6,5.6-5.6c3.1,0,5.6,2.5,5.6,5.6v38
		C321.5,477.7,319,480.2,315.9,480.2z"/>
</g>
</svg>
