<svg xmlns="http://www.w3.org/2000/svg" width="170" height="54" viewBox="0 0 171 54"><path style="stroke:none;fill-rule:nonzero;fill:#a6a6a6;fill-opacity:1" d="M157.871 0H10.434c-.942 0-1.75 0-2.692.27a8.237 8.237 0 0 0-2.558.808c-.809.406-1.48.945-2.153 1.621-.676.676-1.215 1.352-1.617 2.16a8.283 8.283 0 0 0-.809 2.567c-.27.945-.27 1.89-.27 2.699V43.738c0 .946 0 1.758.27 2.703.137.946.407 1.754.81 2.563.401.812.94 1.484 1.616 2.16.672.676 1.344 1.215 2.153 1.621a8.035 8.035 0 0 0 2.558.809c.942.136 1.75.27 2.692.27H160.43c.941 0 1.75 0 2.695-.27a7.982 7.982 0 0 0 2.555-.809c.808-.406 1.484-.945 2.156-1.62.672-.677 1.21-1.349 1.617-2.161a8.12 8.12 0 0 0 .805-2.563c.137-.945.27-1.757.27-2.703V10.125c0-.945 0-1.754-.27-2.7a8.175 8.175 0 0 0-.805-2.566 8.533 8.533 0 0 0-3.773-3.78 8.18 8.18 0 0 0-2.555-.81C162.18.138 161.371 0 160.43 0h-2.691Zm0 0"/><path style="stroke:none;fill-rule:nonzero;fill:#000;fill-opacity:1" d="M11.648 52.785h-1.214c-.805 0-1.75 0-2.559-.27-.805 0-1.48-.406-2.29-.675-.67-.406-1.343-.809-1.882-1.352-.539-.539-1.078-1.215-1.348-1.886-.402-.676-.539-1.489-.671-2.297-.137-.809-.27-1.621-.27-2.567V10.125c0-.809 0-1.754.27-2.566 0-.809.402-1.485.671-2.293.407-.676.81-1.352 1.348-1.891.54-.54 1.211-1.078 1.883-1.352.676-.402 1.484-.539 2.289-.671.809-.137 1.617-.274 2.559-.274H160.43c.808 0 1.617 0 2.558.274.809 0 1.48.402 2.29.671 1.347.676 2.558 1.891 3.23 3.243.406.675.539 1.484.676 2.16.132.808.27 1.754.27 2.562v33.617c0 .81 0 1.622-.27 2.567 0 .808-.407 1.484-.676 2.293-.403.676-.805 1.351-1.344 1.89-.539.54-1.215 1.079-1.887 1.348-.672.406-1.48.676-2.289.676-.808.137-1.617.27-2.558.27H11.649Zm0 0"/><path style="stroke:none;fill-rule:nonzero;fill:#fff;fill-opacity:1" d="M56.754 40.77h-7.137l-1.75 5.128h-2.96l6.73-18.761h3.097l6.73 18.761h-3.097l-1.75-5.128Zm-6.328-2.293h5.652l-2.824-8.239ZM76.14 39.016c0 4.32-2.288 7.02-5.652 7.02-1.75 0-3.504-.81-4.308-2.43v6.75h-2.828V32.128h2.691v2.297c.941-1.485 2.559-2.43 4.309-2.43 3.5 0 5.789 2.7 5.789 7.02Zm-2.824 0c0-2.836-1.484-4.59-3.636-4.59-2.157 0-3.637 1.89-3.637 4.59 0 2.699 1.48 4.59 3.637 4.59 2.152 0 3.636-1.754 3.636-4.59ZM91.223 39.016c0 4.32-2.29 7.02-5.657 7.02-1.75 0-3.5-.81-4.308-2.43v6.75H78.43V32.128h2.695v2.297c.941-1.485 2.559-2.43 4.309-2.43 3.5 0 5.789 2.7 5.789 7.02Zm-2.961 0c0-2.836-1.485-4.59-3.637-4.59-2.156 0-3.637 1.89-3.637 4.59 0 2.699 1.48 4.59 3.637 4.59 2.152 0 3.637-1.754 3.637-4.59ZM101.05 40.637c.27 1.886 2.02 3.101 4.446 3.101 2.422 0 4.04-1.215 4.04-2.832 0-1.62-1.079-2.297-3.5-2.972l-2.427-.54c-3.5-.808-4.98-2.43-4.98-5.128 0-2.7 2.828-5.403 6.867-5.403 4.04 0 6.73 2.16 6.73 5.403h-2.828c-.132-1.891-1.75-2.97-4.039-2.97-2.289 0-3.77 1.079-3.77 2.833 0 1.758.942 2.16 3.368 2.7l2.02.542c3.902.945 5.386 2.43 5.386 5.266 0 2.832-2.828 5.668-7.273 5.668-4.442 0-7-2.16-7.137-5.535h2.828ZM118.691 28.89v3.239h2.559v2.16h-2.559v7.563c0 1.214.54 1.753 1.614 1.753h.945v2.16c-.54 0-1.078.133-1.617 0-2.828 0-3.906-1.081-3.906-3.644V34.29h-2.02v-2.16h2.02V28.89ZM122.73 39.016c0-4.32 2.56-7.02 6.461-7.02 3.907 0 6.465 2.7 6.465 7.02 0 4.32-2.558 7.02-6.465 7.02-3.902 0-6.46-2.7-6.46-7.02Zm10.098 0c0-2.97-1.348-4.727-3.637-4.727-2.289 0-3.632 1.758-3.632 4.727 0 2.968 1.343 4.722 3.632 4.722 2.29 0 3.637-1.754 3.637-4.722ZM138.078 32.129h2.695v2.297c.403-1.485 1.75-2.567 3.23-2.43h.942v2.563c-.402 0-.808-.133-1.21-.133a2.944 2.944 0 0 0-2.962 2.699V45.629h-2.828V31.996ZM158.008 41.852c-.406 2.43-2.828 4.183-5.926 4.183-3.098 0-6.46-2.7-6.46-6.887 0-4.183 2.421-7.02 6.327-7.02 3.903 0 6.192 2.567 6.192 6.75v.946h-9.696c-.132 2.16 1.215 3.914 3.235 4.051h.402c1.348 0 2.691-.676 3.098-1.89h2.691Zm-9.563-4.188h6.868c0-1.754-1.344-3.375-3.094-3.508h-.27c-1.887 0-3.504 1.485-3.504 3.508ZM33.191 7.426H16.63c-1.617 0-2.828 1.215-2.828 2.836v33.476c0 1.621 1.21 2.836 2.828 2.836h15.754c1.613 0 2.828-1.215 2.828-2.836V9.45c0-.808-1.078-2.023-1.887-2.023Zm-11.043 2.699h4.579c.27 0 .406.137.406.406 0 .27-.137.403-.406.403h-4.579c-.27 0-.402-.133-.402-.403s.133-.406.402-.406Zm2.29 34.559c-.81 0-1.481-.672-1.481-1.485 0-.808.672-1.484 1.48-1.484.81 0 1.481.676 1.481 1.484 0 .813-.672 1.485-1.48 1.485Zm8.214-4.047H16.227c-.676 0-1.348-.543-1.348-1.352V13.5c0-.676.539-1.352 1.348-1.352h16.425c.672 0 1.344.543 1.344 1.352v25.922c0 .672-.535 1.348-1.344 1.348ZM55.273 13.5c0 .809-.136 1.621-.406 2.43-.27.675-.672 1.351-1.21 1.89-.54.54-1.079.946-1.887 1.215-.805.27-1.48.406-2.422.406h-4.442V7.695h4.442c.941 0 1.75.133 2.422.407.675.27 1.347.671 1.886 1.214.54.54.942 1.079 1.211 1.887.27.813.406 1.488.406 2.434Zm-2.289 0c0-.676 0-1.215-.27-1.754-.136-.543-.405-.945-.675-1.351-.27-.407-.672-.676-1.21-.81-.403-.136-.942-.269-1.481-.269h-2.29v8.235h2.29c.539 0 1.078 0 1.48-.27.406-.136.809-.406 1.211-.812.27-.403.54-.809.676-1.348.133-.543.27-1.082.27-1.758ZM59.043 8.64v.54c0 .136-.137.27-.27.406 0 0-.27.27-.406.27h-1.074c-.137 0-.27-.137-.406-.27 0 0-.27-.27-.27-.406V8.102c0-.137.137-.274.27-.407.136-.136.27-.27.406-.27h1.074c.137 0 .27.134.406.27 0 0 .27.27.27.407v.539Zm-.27 2.43v8.371h-2.02v-8.37ZM65.91 12.691s0 .133-.137.133h-.539c-.132 0-.27 0-.402-.133-.137 0-.27 0-.539-.136-.27-.133-.402 0-.672 0-.406 0-.676 0-.945.27-.266.136-.266.405-.266.675s0 .27.133.406c.133.133.27.27.402.27.137 0 .407.133.676.27.27 0 .54.132.672.269.27 0 .539.137.672.27.137.136.406.269.676.406.132.132.402.406.402.675 0 .27.137.54.137.809 0 .27 0 .809-.27 1.078-.27.274-.406.676-.676.813-.27.27-.671.406-1.074.539-.406.136-.945.27-1.484.27h-.805c-.27 0-.539 0-.809-.27-.269 0-.539-.133-.675-.27-.266 0-.403-.27-.535-.406l.402-.809s0-.136.27-.27h.671s.27.134.407.27c.132 0 .27.133.539.27h1.48c.133 0 .27 0 .402-.27l.27-.27c.137-.136 0-.269 0-.405 0-.133 0-.407-.133-.54 0 0-.27-.27-.406-.27-.133 0-.402-.136-.672-.269-.27 0-.539-.136-.809-.27-.27-.136-.539-.136-.808-.273-.27 0-.403-.27-.672-.402-.137-.137-.406-.406-.406-.676s-.133-.539-.133-.945c0-.406 0-.676.133-.945.136-.27.27-.54.539-.809.27-.27.539-.406.945-.543.402-.133.805-.27 1.344-.27s1.078 0 1.617.27c.54.274.809.406 1.211.813l-.402.675ZM69.813 12.285c.406-.406.675-.676 1.214-.945.403-.27.942-.406 1.48-.406.54 0 .81 0 1.212.27.402.136.672.405.941.812.27.406.54.808.676 1.347.133.543.27 1.082.27 1.758 0 .676 0 1.215-.27 1.754-.27.54-.406.945-.676 1.352-.27.402-.672.671-1.078.945-.402.27-.941.27-1.48.27-.54 0-.809 0-1.211-.27-.27-.137-.672-.406-.942-.543v3.375h-2.02v-11.07h1.212c.27 0 .402 0 .539.406v.808Zm.136 4.996c.27.27.54.403.672.54.27 0 .54.132.809.132.27 0 .539 0 .808-.133.27 0 .403-.27.672-.539.137-.27.27-.543.406-.945 0-.406.133-.813.133-1.215v-1.215c0-.406-.133-.676-.27-.812-.132-.27-.269-.403-.538-.403-.27 0-.403-.136-.672-.136-.406 0-.809 0-1.078.27-.27.136-.54.405-.809.675v3.781ZM80.719 10.934c.676 0 1.215 0 1.617.27.402.273.941.542 1.348.812.402.406.671.808.804 1.347.137.543.27 1.082.27 1.758 0 .676 0 1.215-.27 1.754-.265.54-.402.945-.804 1.352-.407.402-.809.671-1.348.808-.54.137-1.078.27-1.617.27-.54 0-1.211 0-1.75-.27-.54-.27-.942-.539-1.344-.808-.406-.274-.676-.813-.809-1.352-.136-.54-.27-1.078-.27-1.754 0-.676 0-1.215.27-1.758.27-.539.54-.941.809-1.347.402-.407.805-.676 1.344-.813.539-.133 1.078-.27 1.75-.27Zm0 7.02c.676 0 1.215-.27 1.484-.673.266-.406.535-1.082.535-2.027 0-.945-.133-1.617-.535-2.024-.27-.406-.808-.675-1.484-.675-.672 0-1.211.27-1.614.675-.406.54-.539 1.215-.539 2.024 0 .812.133 1.621.54 2.027.269.403.808.672 1.613.672ZM88.262 12.148c.133-.132.402-.27.535-.402.137-.137.406-.27.539-.406.137-.137.406-.137.676-.27h.808c.403 0 .805 0 1.211.27.403.27.672.406.942.676.27.27.402.675.539.945.133.27.133.809.133 1.215v5.265h-2.02v-5.265c0-.54 0-.946-.402-1.215-.27-.27-.54-.406-1.078-.406-.54 0-.672 0-.942.27-.27.136-.539.405-.808.675v6.074h-2.02v-8.37h1.21c.27 0 .407 0 .54.405v.676ZM97.82 8.64v.54c0 .136-.136.27-.27.406 0 0-.269.27-.402.27H96.07c-.136 0-.27-.137-.406-.27 0 0-.27-.27-.27-.406V8.102c0-.137.137-.274.27-.407.137-.136.27-.27.406-.27h1.078c.133 0 .27.134.403.27 0 0 .27.27.27.407v.539Zm-.27 2.43v8.371h-2.019v-8.37ZM101.59 12.148a2.11 2.11 0 0 1 1.078-.808c.402-.27.809-.27 1.348-.27.535 0 .941 0 1.343.27.407.27.676.406.946.808.265.407.535.813.672 1.352.132.54.27 1.078.27 1.754 0 .676 0 1.351-.27 1.89-.27.54-.407 1.083-.672 1.352-.27.402-.676.676-1.078.945-.407.27-.946.27-1.48.27h-.677c-.27 0-.402 0-.539-.27-.133 0-.402-.27-.539-.27-.133 0-.265-.273-.402-.405v.539c0 .136-.133.27-.27.27h-1.613V7.424h2.02v4.723Zm0 5.133c.27.27.539.403.672.54.27 0 .539.132.808.132.27 0 .54 0 .809-.133.27 0 .402-.27.672-.539.136-.27.27-.543.406-.945.133-.406.133-.813.133-1.352 0-.945-.133-1.62-.403-2.023-.269-.406-.671-.676-1.347-.676-.672 0-.672 0-.942.27-.27.27-.539.406-.808.675ZM110.746 7.426V19.44h-2.02V7.426ZM114.383 15.523c0 .407 0 .813.27 1.082 0 .27.269.54.402.81.132.269.402.405.672.405s.539.133.945.133h.805c.27 0 .406-.133.675-.27.133 0 .27-.132.403-.269h.406c.133 0 .27 0 .402.137l.54.676c-.27.27-.407.539-.81.671-.269.137-.538.274-.808.407-.27 0-.539.136-.941.27-.403.136-.672 0-.942 0-.539 0-1.078 0-1.617-.27-.539-.133-.941-.54-1.347-.809-.403-.406-.672-.812-.805-1.351-.27-.54-.27-1.215-.27-1.891 0-.676 0-1.078.27-1.617.133-.543.402-.946.805-1.352.406-.406.808-.676 1.214-.945.535-.27 1.075-.27 1.614-.27.539 0 .945 0 1.48.27.406.137.809.406 1.078.676.27.27.54.675.809 1.214.133.407.27.946.27 1.622v.671s-.137.137-.407.137h-5.113Zm3.77-1.214v-.672c0-.137-.137-.407-.27-.543-.137-.133-.27-.27-.54-.403-.269-.136-.538-.136-.808-.136-.539 0-1.078.136-1.347.539-.266.27-.536.812-.672 1.351h3.77ZM130.406 12.691s0 .133-.136.133h-.54c-.132 0-.27 0-.402-.133-.137 0-.27 0-.539-.136h-.672c-.406 0-.676 0-.945.27-.27.136-.27.405-.27.675s0 .27.137.406c0 0 .27.27.402.27.137 0 .407.133.676.27.266 0 .535.132.672.269.27 0 .54.137.672.27.137.136.406.269.676.406.133.132.402.406.402.675 0 .27.133.54.133.809 0 .27 0 .809-.266 1.078-.136.274-.406.676-.676.813-.27.27-.671.406-1.078.539-.402.136-.941.27-1.48.27h-.809c-.27 0-.535 0-.804-.27-.27 0-.54-.133-.676-.27-.27 0-.403-.27-.54-.406l.407-.809s0-.136.27-.27h.671s.27.134.403.27c.136 0 .27.133.539.27h1.484c.133 0 .266 0 .403-.27 0 0 .132-.136.27-.27v-.405c0-.133 0-.407-.138-.54 0 0-.27-.27-.402-.27-.133 0-.402-.136-.672-.269-.27 0-.539-.136-.808-.27-.27-.136-.54-.136-.81-.273-.269 0-.401-.27-.67-.402-.138-.137-.407-.406-.407-.676s-.133-.539-.133-.945c0-.406 0-.676.27-.945.27-.27.27-.54.539-.809.27-.27.535-.406.941-.543.402-.133.809-.27 1.348-.27.535 0 1.074 0 1.613.27.406.137.809.406 1.21.813l-.401.675ZM139.559 11.07v8.371h-1.211c-.27 0-.403 0-.54-.406v-.676c-.538.407-.804.676-1.21.813-.403.27-.942.27-1.48.27-.54 0-.81 0-1.212-.27-.406-.274-.676-.406-.945-.676-.27-.27-.402-.676-.535-.945 0-.406-.137-.813-.137-1.215V11.07h2.02v5.266c0 .539 0 .945.406 1.215.265.27.535.402 1.074.402.54 0 .676 0 .945-.27.27-.132.536-.402.805-.671v-6.078h2.02ZM143.465 12.555c.27-.54.539-.946.941-1.215.406-.27.809-.406 1.215-.406.402 0 .672 0 .941.27v1.487c-.136 0-.136.133-.269.27h-1.618c-.132 0-.269.133-.402.27-.136.132-.27.269-.406.406-.133.133-.27.402-.27.539v5.129h-2.019v-8.371h1.617s.137.27.137.406v.945Zm0 0"/></svg>