<svg xmlns="http://www.w3.org/2000/svg" width="170" height="56"><defs><linearGradient id="a" gradientUnits="userSpaceOnUse" x1="-21.7" y1="682.5" x2="-38.4" y2="699.3" gradientTransform="matrix(1.3 0 0 1.3 55 -845.6)"><stop offset="0" style="stop-color:#00a0ff;stop-opacity:1"/><stop offset="0" style="stop-color:#00a1ff;stop-opacity:1"/><stop offset=".3" style="stop-color:#00beff;stop-opacity:1"/><stop offset=".5" style="stop-color:#00d2ff;stop-opacity:1"/><stop offset=".8" style="stop-color:#00dfff;stop-opacity:1"/><stop offset="1" style="stop-color:#00e3ff;stop-opacity:1"/></linearGradient><linearGradient id="b" gradientUnits="userSpaceOnUse" x1="-9.6" y1="693.8" x2="-33.8" y2="693.8" gradientTransform="matrix(1.3 0 0 1.3 55 -845.6)"><stop offset="0" style="stop-color:#ffe000;stop-opacity:1"/><stop offset=".4" style="stop-color:#ffbd00;stop-opacity:1"/><stop offset=".8" style="stop-color:orange;stop-opacity:1"/><stop offset="1" style="stop-color:#ff9c00;stop-opacity:1"/></linearGradient><linearGradient id="c" gradientUnits="userSpaceOnUse" x1="-18.6" y1="696.1" x2="-41.4" y2="718.8" gradientTransform="matrix(1.3 0 0 1.3 55 -845.6)"><stop offset="0" style="stop-color:#ff3a44;stop-opacity:1"/><stop offset="1" style="stop-color:#c31162;stop-opacity:1"/></linearGradient><linearGradient id="d" gradientUnits="userSpaceOnUse" x1="-36.2" y1="674" x2="-26" y2="684.1" gradientTransform="matrix(1.3 0 0 1.3 55 -845.6)"><stop offset="0" style="stop-color:#32a071;stop-opacity:1"/><stop offset="0" style="stop-color:#2da771;stop-opacity:1"/><stop offset=".5" style="stop-color:#15cf74;stop-opacity:1"/><stop offset=".8" style="stop-color:#06e775;stop-opacity:1"/><stop offset="1" style="stop-color:#00f076;stop-opacity:1"/></linearGradient></defs><path style="stroke:none;fill-rule:nonzero;fill:#000;fill-opacity:1" d="M163.898 53.2H6.5C3 53.2.2 50.397.2 46.897V9.2C.2 5.602 3 2.9 6.5 2.9h157.398c3.5 0 6.301 2.8 6.301 6.3V47c0 3.5-2.8 6.3-6.3 6.3Zm0 0"/><path style="stroke:none;fill-rule:nonzero;fill:#a6a6a6;fill-opacity:1" d="M163.898 3.898c2.903 0 5.301 2.403 5.301 5.301V47c0 2.898-2.398 5.3-5.3 5.3H6.5c-2.898 0-5.3-2.402-5.3-5.3V9.2c0-2.9 2.402-5.302 5.3-5.302h157.398m0-1H6.5C3 2.898.2 5.801.2 9.2V47c0 3.5 2.8 6.3 6.3 6.3h157.398c3.5 0 6.301-2.8 6.301-6.3V9.2c0-3.4-2.8-6.302-6.3-6.302Zm0 0"/><path style="stroke:none;fill-rule:nonzero;fill:#fff;fill-opacity:1" d="M86 30.3c-3 0-5.398 2.302-5.398 5.4 0 3 2.398 5.402 5.296 5.402 3 0 5.403-2.301 5.403-5.403 0-3.097-2.403-5.398-5.403-5.398Zm0 8.598c-1.602 0-3-1.398-3-3.296 0-1.903 1.398-3.301 3-3.301s3 1.3 3 3.3c0 2-1.398 3.297-3 3.297Zm-11.7-8.597c-3 0-5.402 2.3-5.402 5.398 0 3 2.403 5.403 5.301 5.403 3 0 5.403-2.301 5.403-5.403 0-3.097-2.403-5.398-5.403-5.398Zm0 8.597c-1.6 0-3-1.398-3-3.296 0-1.903 1.4-3.301 3-3.301 1.598 0 3 1.3 3 3.3 0 2-1.402 3.297-3 3.297Zm-14-7V34.2h5.4c-.098 1.301-.598 2.301-1.302 2.903-.796.796-2 1.597-4.199 1.597-3.398 0-5.898-2.597-5.898-6 0-3.398 2.597-6 5.898-6 3.301 0 3.102.801 4.2 1.602L66 26.699c-1.398-1.3-3.102-2.3-5.7-2.3-4.5 0-8.402 3.8-8.402 8.3 0 4.5 3.903 8.301 8.403 8.301s4.3-.8 5.8-2.398c1.5-1.5 2-3.704 2-5.301 0-1.602 0-1-.101-1.403h-7.8Zm57.2 1.801c-.5-1.3-1.8-3.398-4.5-3.398s-5 2.097-5 5.398c0 3.301 2.3 5.403 5.3 5.403s3.9-1.5 4.4-2.403l-1.802-1.3c-.597.902-1.398 1.5-2.597 1.5-1.2 0-2-.5-2.602-1.598l7.2-3-.297-.602Zm-7.3 1.801c0-2 1.6-3.102 2.8-3.102 1.2 0 1.8.5 2 1.102Zm-5.9 5.102h2.4V24.898h-2.4Zm-3.8-9.204c-.602-.597-1.602-1.296-2.898-1.296-2.602 0-5.204 2.398-5.204 5.398 0 3 2.403 5.3 5.204 5.3 2.796 0 2.296-.6 2.796-1.3h.102v.8c0 2-1.102 3.098-2.898 3.098-1.801 0-2.403-1-2.602-1.898l-2 .898c.602 1.403 2.102 3.102 4.8 3.102 2.7 0 5-1.602 5-5.5v-9.602h-2.3Zm-2.8 7.5c-1.598 0-3-1.398-3-3.296 0-1.903 1.402-3.301 3-3.301 1.6 0 2.902 1.398 2.902 3.3 0 1.899-1.301 3.297-2.903 3.297Zm30.698-14H122.7v15.704h2.403v-5.903h3.296c2.602 0 5.204-1.898 5.204-4.898s-2.5-4.903-5.204-4.903Zm.204 7.5h-3.403V27h3.403c1.796 0 2.796 1.5 2.796 2.602-.097 1.398-1.097 2.796-2.796 2.796ZM143 30.2c-1.8 0-3.5.801-4.2 2.403l2.098.898c.5-.898 1.301-1.102 2.102-1.102 1.3 0 2.398.801 2.5 2-.398-.097-1.398-.5-2.398-.5-2.301 0-4.5 1.301-4.5 3.5 0 2.204 1.898 3.5 3.898 3.5s2.398-.796 3-1.5h.102V40.7h2.296v-6c-.199-2.8-2.398-4.398-5-4.398Zm-.2 8.7c-.8 0-1.902-.399-1.902-1.399s1.403-1.602 2.5-1.602c1.102 0 1.5.204 2.102.5-.3 1.5-1.5 2.5-2.8 2.5Zm13.2-8.297-2.602 6.796h-.097l-2.801-6.796H148l4.2 9.597-2.4 5.301h2.4l6.402-14.898Zm-21.2 10h2.4V24.898h-2.4ZM52 19.5v-8.398h2.602c1.5 0 2.597.296 3.296 1C58.602 12.8 59 13.8 59 15.199c0 1.403-.398 2.403-1.2 3.2-.8.8-1.902 1.203-3.3 1.203h-2.602Zm1.398-7.2v6H54.5c1 0 1.7-.3 2.3-.8.598-.5.802-1.3.802-2.3 0-1-.301-1.7-.801-2.2-.5-.5-1.301-.7-2.301-.7ZM61.898 19.5H60.5v-8.398h1.398ZM63.398 17.898l1.204-.597c.199.398.398.699.699.8.3.098.699.297 1.097.297.403 0 .903-.097 1.102-.296.2-.204.398-.5.398-.903 0-.398-.097-.699-.398-.898-.3-.2-.7-.403-1.2-.5-.902-.2-1.5-.5-1.902-.903-.398-.398-.597-.898-.597-1.5 0-.597.3-1.398.8-1.796.5-.403 1.2-.602 2-.602.797 0 1.098.102 1.598.398.5.301.801.602 1.102 1.204l-1.2.597c-.203-.3-.402-.597-.601-.699-.2-.102-.5-.2-.898-.2-.403 0-.801 0-1 .302-.204.296-.403.5-.403.796 0 .301.102.602.301.801.2.2.602.301 1.2.5.902.2 1.5.5 2 .903.5.398.6 1 .6 1.699 0 .699-.198 1.398-.698 1.8-.5.399-1.204.7-2.102.7-.898 0-1.3-.2-1.8-.5-.5-.301-.9-.7-1.2-1.301ZM72.102 16.602V19.5h-1.403v-8.398h2.602c1 0 1.699.199 2.199.699.5.5.8 1.097.8 1.898 0 .801-.3 1.602-.902 2.102-.597.5-1.398.8-2.296.8Zm0-4.301V15.5H73c.602 0 1-.102 1.3-.398.302-.301.5-.704.5-1.204s-.1-.898-.402-1.097c-.296-.2-.699-.403-1.296-.403h-1ZM81.2 19.7c-1.2 0-2.2-.4-2.9-1.2-.698-.8-1.1-1.8-1.1-3.102 0-1.296.402-2.398 1.198-3.199.801-.8 1.801-1.199 3-1.199 1.204 0 2.102.398 2.903 1.2.8.8 1.097 1.8 1.097 3.1 0 1.302-.398 2.4-1.097 3.2-.7.8-1.7 1.2-3 1.2Zm0-1.302c.8 0 1.402-.296 1.902-.796s.699-1.301.699-2.204c0-.898-.2-1.699-.7-2.296-.5-.602-1.101-.801-1.902-.801-.8 0-1.398.3-1.898.8s-.7 1.297-.7 2.297c0 1 .2 1.704.7 2.204.5.5 1.097.796 1.898.796ZM93.8 19.5h-1.5l-3.902-6c0-.102-.097-.2-.199-.3-.097-.098 0-.098-.097-.2v6.602H86.8v-8.403h1.597l3.801 5.903c0 .097.102.199.2.296.101.102.101.204.203.301V11.2h1.296v8.402ZM97.2 19.5h-1.4v-8.398h1.4ZM99.102 19.5v-8.398h2.699c.8 0 1.5.199 2 .5.5.296.699.898.699 1.5 0 .597-.102.796-.398 1.097-.301.301-.602.602-.903.7.5.101.903.402 1.2.703.3.296.402.796.402 1.296 0 .704-.301 1.301-.801 1.801s-1.2.7-2.102.7h-2.796Zm1.398-7.2v2.4h1c.5 0 .8-.098 1.102-.302.296-.199.398-.5.398-1s-.102-.597-.3-.796c-.2-.204-.598-.301-1-.301Zm0 3.5v2.598h1.2c.5 0 .902-.097 1.198-.398.301-.3.403-.602.403-1s-.102-.7-.403-.898c-.296-.204-.699-.301-1.296-.301ZM110.898 19.5H106.2v-8.398h1.403V18.3h3.296ZM116.7 19.5H112v-8.398h4.5V12.3h-3.102v2.398h2.903v1.2h-2.903v2.5h3.301v1.203ZM120.5 17.898l1.2-.597c.198.398.402.699.698.8.301.098.704.297 1.102.297.398 0 .898-.097 1.102-.296.199-.204.398-.5.398-.903 0-.398-.102-.699-.398-.898-.301-.2-.704-.403-1.204-.5-.898-.2-1.5-.5-1.898-.903-.398-.398-.602-.898-.602-1.5 0-.597.301-1.398.801-1.796.5-.403 1.2-.602 2-.602.801 0 1.102.102 1.602.398.5.301.8.602 1.097 1.204l-1.199.597c-.199-.3-.398-.597-.597-.699-.204-.102-.5-.2-.903-.2-.398 0-.8 0-1 .302-.199.296-.398.5-.398.796 0 .301.097.602.3.801.2.2.598.301 1.2.5.898.2 1.5.5 2 .903.5.398.597 1 .597 1.699 0 .699-.199 1.398-.699 1.8-.5.399-1.199.7-2.097.7-.903 0-1.301-.2-1.801-.5-.5-.301-.903-.7-1.2-1.301ZM134.3 16.2c0 1-.3 1.8-.8 2.5-.5.698-1.398 1-2.5 1s-1.898-.302-2.398-1c-.5-.7-.801-1.5-.801-2.5v-5.098h1.398v5c0 .699.2 1.296.5 1.699.301.398.801.597 1.403.597.597 0 1-.199 1.296-.597.301-.403.5-.903.5-1.602v-5.097h1.403ZM142.5 19.5h-1.602l-1.398-2.3c-.2-.4-.398-.7-.602-.802-.199-.097-.398-.199-.597-.199h-.801V19.5h-1.398v-8.398h2.699c.898 0 1.597.199 2.097.597.5.403.704 1 .704 1.7 0 .703-.204 1-.5 1.402-.301.398-.704.699-1.204.898.204.102.301.301.5.403.204.097.301.398.5.699l1.602 2.597Zm-5-7.2v2.802h1.102c.5 0 .796-.102 1.097-.403.301-.3.403-.597.403-1.097s-.102-.704-.403-1c-.3-.301-.597-.403-1.097-.403h-1.204Zm0 0"/><path style="stroke:none;fill-rule:nonzero;fill:url(#a)" d="M13.3 12.3c-.402.4-.5 1-.5 1.802v27.796c0 .801.2 1.403.598 1.801h.102c0 .102 15.602-15.5 15.602-15.5V28L13.199 12.398Zm0 0"/><path style="stroke:none;fill-rule:nonzero;fill:url(#b)" d="M34.2 33.5 29 28.3v-.402l5.2-5.199h.1c0 .102 6.2 3.7 6.2 3.7 1.8 1 1.8 2.601 0 3.703Zm0 0"/><path style="stroke:none;fill-rule:nonzero;fill:url(#c)" d="M34.398 33.3 29.102 28 13.398 43.7c.602.6 1.5.6 2.602.1l18.398-10.6"/><path style="stroke:none;fill-rule:nonzero;fill:url(#d)" d="M34.398 22.8 16 12.3c-1.102-.6-2-.5-2.602.098L29.102 28l5.296-5.3Zm0 0"/><path style="stroke:none;fill-rule:nonzero;fill:#000;fill-opacity:1" d="M13.3 43.5c-.402-.398-.5-1-.5-1.8 0 .902.2 1.5.598 1.902 0-.102-.097-.102-.097-.102Zm27.2-13.8-6.3 3.5h.1c0 .1 6.2-3.4 6.2-3.4.898-.5 1.3-1.1 1.3-1.8 0 .602-.5 1.102-1.3 1.602Zm0 0"/><path style="stroke:none;fill-rule:nonzero;fill:#fff;fill-opacity:1" d="m16 12.398 24.602 14c.796.5 1.296 1 1.296 1.602 0-.602-.398-1.3-1.296-1.8L16 12.3c-1.8-1-3.102-.198-3.102 1.802 0-1.801 1.403-2.602 3.102-1.602Zm0 0"/><path style="stroke:none;fill-rule:nonzero;fill:#000;fill-opacity:1" d="M34.2 33.2 15.897 43.5c-1 .602-1.898.5-2.5 0h-.097c0 .102.097.3.097.3.602.5 1.5.598 2.5 0Zm0 0"/></svg>