<?xml version="1.0" encoding="utf-8"?>
<svg version="1.1" xmlns="http://www.w3.org/2000/svg"  x="0px" y="0px"
	 viewBox="0 0 898 538" style="enable-background:new 0 0 898 538;" xml:space="preserve">
<g id="Calque_2_00000103967869503584217460000010266036795410762384_">
	<g id="Calque_2_00000094617963707509228070000006533779537592218300_">
		<g id="courbe">
			<path fill="#FFE1E1" d="M14.5,0h869c8,0,14.5,6.5,14.5,14.5v509c0,8-6.5,14.5-14.5,14.5h-869c-8,0-14.5-6.5-14.5-14.5v-509
				C0,6.5,6.5,0,14.5,0z"/>
			<path fill="#BFBFBF" d="M221.5,260.9h-1v-12h1V260.9z M221.5,284.9h-1v-12h1V284.9z M221.5,308.9h-1v-12h1V308.9z M221.5,332.9h-1
				v-12h1V332.9z M221.5,356.9h-1v-12h1V356.9z M221.5,380.9h-1v-12h1V380.9z M221.5,404.9h-1v-12h1V404.9z M221.5,428.9h-1v-12h1
				V428.9z M221.5,452.9h-1v-12h1V452.9z"/>
			<path fill="#BFBFBF" d="M577.4,422.9h-1v-12h1V422.9z M577.4,446.9h-1v-12h1V446.9z M576.4,458.9h1"/>
			<polyline fill="none" stroke="#60286F" stroke-width="2" stroke-miterlimit="10" points="118.3,49.2 222,236 576.9,395.4 778.3,443.3 			"/>
		</g>
		<g id="grille">
			<polygon fill="#282828" points="844,460.4 99.6,460.4 99.6,48 102.4,48 102.4,457.6 844,457.6"/>
			<g opacity="0.5">
				<rect x="103.5" y="395.7" fill="#282828" width="741" height="0.6"/>
			</g>
			<g opacity="0.5">
				<rect x="103.5" y="267.7" fill="none" width="741" height="0.6"/>
			</g>
			<g opacity="0.5">
				<rect x="103.5" y="331.7" fill="#282828" width="741" height="0.6"/>
			</g>
			<g opacity="0.5">
				<rect x="105.1" y="268.2" fill="#282828" width="741" height="0.6"/>
			</g>
			<g opacity="0.5">
				<rect x="103.5" y="203.7" fill="#282828" width="741" height="0.6"/>
			</g>
			<g opacity="0.5">
				<rect x="103.5" y="139.7" fill="#282828" width="741" height="0.6"/>
			</g>
			<g opacity="0.5">
				<rect x="103.5" y="75.7" fill="#282828" width="741" height="0.6"/>
			</g>
			<rect x="99.6" y="459.5" fill="#282828" width="2.8" height="12"/>
			<rect x="218.6" y="459.5" fill="#282828" width="2.8" height="12"/>
			<rect x="337.6" y="459.5" fill="#282828" width="2.8" height="12"/>
			<rect x="456.6" y="459.5" fill="#282828" width="2.8" height="12"/>
			<rect x="575.6" y="459.5" fill="#282828" width="2.8" height="12"/>
			<rect x="694.6" y="459.5" fill="#282828" width="2.8" height="12"/>
			<rect x="813.6" y="459.5" fill="#282828" width="2.8" height="12"/>
		</g>
		<g id="points">
			<circle fill="#DF0958" cx="222" cy="236" r="7.5"/>
			<circle fill="#DF0958" cx="577" cy="396" r="7.5"/>
		</g>
	</g>
	<g>
		<path fill="#DF0958" d="M596.4,307.2v25.2h-5.7v-20.5h-4.9v-4.7H596.4z"/>
		<path fill="#DF0958" d="M619.1,327.6v4.8h-18.6v-3.8l9.5-9.2c0.8-0.7,1.5-1.6,2-2.5c0.3-0.6,0.5-1.4,0.5-2.1c0.1-0.9-0.3-1.8-1-2.3
			c-0.9-0.6-1.9-0.9-2.9-0.8c-1,0-2,0.2-2.9,0.6s-1.6,1.1-2.2,1.9l-4.2-2.7c1-1.5,2.4-2.7,4-3.4c1.8-0.9,3.8-1.3,5.8-1.2
			c1.6,0,3.3,0.3,4.8,0.9c1.3,0.5,2.4,1.4,3.2,2.6s1.2,2.5,1.1,3.9c0,1.3-0.3,2.7-0.8,3.9c-0.8,1.6-2,2.9-3.3,4.1l-5.7,5.5h10.7
			V327.6z"/>
		<path fill="#DF0958" d="M640.7,324.8l-2.6,2.7v4.9h-5.5v-26.7h5.5v15.1l8-7.8h6.5l-7.9,8.2l8.6,11.2h-6.7L640.7,324.8z"/>
		<path fill="#DF0958" d="M674.5,313v16.1c0,3.6-0.9,6.2-2.7,7.9c-1.8,1.7-4.5,2.6-7.9,2.6c-1.8,0-3.5-0.2-5.2-0.7
			c-1.5-0.4-2.9-1.1-4.1-2l2.2-4c0.9,0.7,1.9,1.3,3,1.6c1.2,0.4,2.4,0.6,3.7,0.6c1.5,0.1,3-0.3,4.2-1.3c1-1.1,1.5-2.5,1.3-4V329
			c-1.6,1.7-3.7,2.5-6,2.4c-1.7,0-3.3-0.4-4.8-1.2c-1.4-0.7-2.6-1.9-3.4-3.2c-1.7-3-1.7-6.8,0-9.8c0.8-1.4,2-2.5,3.4-3.3
			c1.5-0.8,3.1-1.2,4.8-1.2c2.4-0.2,4.7,0.9,6.3,2.8V313H674.5z M667.7,325.5c1.9-1.9,1.9-5,0-6.9c-1-0.9-2.3-1.4-3.6-1.3
			c-1.3,0-2.6,0.4-3.6,1.3c-1.9,1.9-1.9,5,0,6.9l0,0l0,0c1,0.9,2.3,1.4,3.6,1.3C665.4,326.9,666.7,326.4,667.7,325.5L667.7,325.5z"
			/>
		<g>
			<path fill="#DF0958" d="M565.6,319.3h13.3v6h-13.3V319.3z"/>
		</g>
	</g>
	<g>
		<path fill="#51245F" d="M577.2,361.2H564c0.1,1.5,0.7,3,1.9,4s2.7,1.6,4.3,1.5c0.9,0,1.8-0.2,2.7-0.5c0.8-0.3,1.5-0.9,2.1-1.5
			l1.2,1.4c-0.7,0.8-1.6,1.5-2.6,1.9c-1.1,0.4-2.3,0.7-3.5,0.7c-1.5,0-3-0.3-4.3-1c-1.2-0.7-2.2-1.7-2.9-2.9c-0.7-1.3-1-2.7-1-4.1
			s0.3-2.9,1-4.1c0.6-1.2,1.6-2.2,2.8-2.9c2.4-1.4,5.4-1.4,7.9,0c1.2,0.7,2.1,1.7,2.7,2.8c0.7,1.3,1,2.7,1,4.1L577.2,361.2z
			 M565.7,355.8c-1,1-1.7,2.4-1.8,3.8h11.2c-0.1-1.4-0.7-2.8-1.8-3.8C571.2,353.8,567.9,353.8,565.7,355.8z"/>
		<path fill="#51245F" d="M594.3,354.2c1.2,1.4,1.9,3.2,1.8,5v9.1H594v-8.9c0.1-1.4-0.3-2.7-1.2-3.8c-0.9-0.9-2.2-1.4-3.5-1.3
			c-1.5-0.1-2.9,0.5-4,1.5c-1,1.1-1.6,2.6-1.5,4.2v8.3h-2.1v-15.8h2v2.9c0.6-1,1.4-1.7,2.4-2.2c1.1-0.6,2.3-0.8,3.6-0.8
			C591.3,352.4,593.1,353,594.3,354.2z"/>
		<path fill="#51245F" d="M626.2,362.9H622v5.5h-2.2v-5.5H608v-1.6l11.1-13.9h2.4L610.8,361h9.1v-4.9h2.1v4.9h4.2L626.2,362.9
			L626.2,362.9z"/>
		<path fill="#51245F" d="M661.8,354.2c1.2,1.4,1.8,3.2,1.7,5v9.1h-2.1v-8.9c0.1-1.4-0.3-2.7-1.2-3.8c-0.9-0.9-2.1-1.4-3.3-1.3
			c-1.4-0.1-2.9,0.5-3.9,1.5c-1,1.2-1.5,2.7-1.4,4.2v8.3h-2.1v-8.9c0.1-1.4-0.3-2.7-1.2-3.8c-0.9-0.9-2.1-1.4-3.4-1.3
			c-1.4-0.1-2.8,0.5-3.8,1.5c-1,1.2-1.5,2.7-1.4,4.2v8.3h-2.2v-15.7h2v2.9c0.5-1,1.4-1.7,2.3-2.2c1.1-0.5,2.3-0.8,3.5-0.8
			s2.4,0.3,3.4,0.8c1,0.6,1.7,1.4,2.2,2.5c0.6-1,1.5-1.9,2.5-2.4c1.1-0.6,2.4-0.9,3.7-0.9C658.8,352.4,660.5,353,661.8,354.2z"/>
		<path fill="#51245F" d="M671.7,367.5c-1.2-0.7-2.2-1.7-2.9-2.9c-1.4-2.6-1.4-5.7,0-8.3c0.7-1.2,1.7-2.2,2.9-2.9
			c2.6-1.4,5.6-1.4,8.2,0c1.2,0.7,2.2,1.7,2.9,2.9c1.4,2.6,1.4,5.7,0,8.3c-0.7,1.2-1.7,2.2-2.9,2.9
			C677.3,368.9,674.2,368.9,671.7,367.5z M678.8,365.9c0.9-0.5,1.6-1.3,2.1-2.2c1-2,1-4.4,0-6.4c-0.5-0.9-1.2-1.7-2.1-2.2
			c-1.9-1-4.1-1-6,0c-0.9,0.5-1.6,1.3-2.1,2.2c-1,2-1,4.4,0,6.4c0.5,0.9,1.2,1.7,2.1,2.2C674.7,366.9,676.9,366.9,678.8,365.9
			L678.8,365.9z"/>
		<path fill="#51245F" d="M688.1,348.7c-0.3-0.3-0.5-0.7-0.5-1.1s0.2-0.7,0.5-1s0.7-0.5,1.1-0.4c0.4,0,0.8,0.2,1.1,0.4
			c0.3,0.3,0.4,0.6,0.5,1c0,0.9-0.7,1.6-1.6,1.6l0,0C688.8,349.2,688.4,349,688.1,348.7L688.1,348.7z M688.1,352.6h2.1v15.8h-2.1
			V352.6z"/>
		<path fill="#51245F" d="M696.8,368c-1-0.3-1.9-0.8-2.8-1.4l1-1.7c0.7,0.6,1.5,1,2.4,1.3c1,0.3,2.1,0.5,3.1,0.5
			c1.1,0.1,2.2-0.2,3.2-0.7c0.6-0.4,1-1.1,1-1.9c0-0.5-0.2-1-0.6-1.4c-0.4-0.4-0.9-0.6-1.4-0.8c-0.8-0.2-1.5-0.4-2.3-0.5
			c-1-0.2-2.1-0.4-3.1-0.7c-0.8-0.2-1.5-0.7-2-1.3c-0.6-0.7-0.9-1.6-0.8-2.5c0-1.3,0.6-2.5,1.7-3.2c1.3-0.9,3-1.4,4.6-1.3
			c1,0,2.1,0.1,3.1,0.4c0.9,0.2,1.8,0.6,2.6,1.1l-0.9,1.7c-1.4-0.9-3-1.4-4.7-1.4c-1.1-0.1-2.1,0.2-3.1,0.7c-0.6,0.4-1,1.1-1,1.9
			c0,0.5,0.2,1.1,0.6,1.4c0.4,0.4,0.9,0.7,1.5,0.8c0.8,0.2,1.6,0.4,2.4,0.5c1,0.2,2,0.4,3,0.7c0.8,0.2,1.5,0.6,2,1.2
			c0.6,0.7,0.9,1.5,0.8,2.4c0,1.3-0.6,2.6-1.7,3.3c-1.4,0.9-3.1,1.3-4.8,1.2C699.2,368.6,698,368.4,696.8,368z"/>
	</g>
	<g id="texte">
		<g>
			<path fill="#DF0958" d="M288.4,185.6c1.3,0.6,2.4,1.6,3.1,2.8c0.8,1.2,1.2,2.7,1.1,4.1c0,1.6-0.4,3.1-1.3,4.4
				c-0.8,1.3-2,2.3-3.4,2.9c-1.5,0.7-3.2,1-4.9,1c-3.1,0.2-6.1-1-8.3-3.2c-2-2.2-3-5.2-3-9.3c-0.1-2.5,0.5-5.1,1.6-7.3
				c1-2,2.6-3.6,4.5-4.6c2.1-1.1,4.4-1.6,6.7-1.6c1.3,0,2.6,0.2,3.9,0.4c1.1,0.3,2.2,0.7,3.1,1.3l-2.2,4.3c-1.4-0.9-3.1-1.3-4.7-1.3
				c-1.9-0.1-3.7,0.6-5.1,1.9c-1.3,1.5-2.1,3.4-2,5.4c1.7-1.6,3.9-2.4,6.2-2.2C285.5,184.6,287,184.9,288.4,185.6z M285.9,195.5
				c0.8-0.7,1.2-1.7,1.2-2.7s-0.4-2.1-1.2-2.8c-1.8-1.4-4.4-1.4-6.2,0c-1.5,1.3-1.6,3.6-0.3,5.1c0.1,0.1,0.2,0.2,0.3,0.3
				c0.9,0.7,2.1,1.1,3.2,1C284,196.5,285,196.1,285.9,195.5L285.9,195.5z"/>
			<path fill="#DF0958" d="M314.5,192.8l-2.7,2.7v4.9h-5.6v-26.7h5.6v15.1l8.2-7.8h6.7l-8.1,8.2l8.8,11.2h-6.8L314.5,192.8z"/>
			<path fill="#DF0958" d="M349.1,181v16.1c0,3.6-0.9,6.2-2.8,7.9c-1.8,1.7-4.5,2.6-8.1,2.6c-1.8,0-3.6-0.2-5.3-0.7
				c-1.5-0.4-2.9-1-4.2-2l2.2-4c0.9,0.7,2,1.3,3.1,1.6c1.2,0.4,2.5,0.6,3.7,0.6c1.6,0.1,3.1-0.3,4.3-1.3c1-1.1,1.5-2.5,1.4-4V197
				c-1.6,1.7-3.8,2.5-6.1,2.4c-1.7,0-3.4-0.4-4.9-1.2s-2.7-1.9-3.5-3.3c-1.7-3-1.7-6.8,0-9.8c0.8-1.4,2.1-2.5,3.5-3.3
				c1.5-0.8,3.2-1.2,4.9-1.2c2.5-0.2,4.8,0.9,6.4,2.8V181H349.1z M342.1,193.5c1.9-1.9,1.9-5,0-6.9c-2.1-1.7-5.2-1.7-7.3,0
				c-1.9,1.9-1.9,4.9,0,6.8l0,0c1,0.9,2.3,1.4,3.7,1.3C339.8,194.8,341.2,194.4,342.1,193.5L342.1,193.5z"/>
			<g>
				<path fill="#DF0958" d="M247.9,187.3h13.6v6h-13.6V187.3z"/>
			</g>
		</g>
		<g>
			<path fill="#51245F" d="M262.2,229.2H249c0.1,1.5,0.7,3,1.9,4s2.7,1.6,4.3,1.5c0.9,0,1.8-0.2,2.7-0.5c0.8-0.3,1.5-0.9,2.1-1.5
				l1.2,1.4c-0.7,0.8-1.6,1.5-2.6,1.9c-1.1,0.4-2.3,0.7-3.5,0.7c-1.5,0-3-0.3-4.3-1c-1.2-0.7-2.2-1.7-2.9-2.9
				c-0.7-1.3-1.1-2.7-1-4.1c0-1.4,0.3-2.9,1-4.1c0.6-1.2,1.6-2.2,2.8-2.9c2.4-1.4,5.4-1.4,7.9,0c1.2,0.7,2.1,1.7,2.7,2.8
				c0.7,1.3,1,2.7,1,4.1L262.2,229.2z M250.7,223.8c-1,1-1.7,2.4-1.8,3.8h11.2c-0.1-1.4-0.7-2.8-1.8-3.8
				C256.2,221.8,252.9,221.8,250.7,223.8z"/>
			<path fill="#51245F" d="M279.3,222.2c1.2,1.4,1.9,3.2,1.8,5v9.1H279v-8.9c0.1-1.4-0.3-2.7-1.2-3.8c-0.9-0.9-2.2-1.4-3.5-1.3
				c-1.5-0.1-2.9,0.5-4,1.5c-1,1.1-1.6,2.6-1.5,4.2v8.3h-2.1v-15.8h2v2.9c0.6-1,1.4-1.7,2.4-2.2c1.1-0.6,2.3-0.8,3.6-0.8
				C276.3,220.4,278.1,221,279.3,222.2z"/>
			<path fill="#51245F" d="M299.1,215.4v21H297v-19.1h-5v-1.9H299.1z"/>
			<path fill="#51245F" d="M337.8,222.2c1.2,1.4,1.8,3.2,1.7,5v9.1h-2.1v-8.9c0.1-1.4-0.3-2.7-1.2-3.8c-0.9-0.9-2.1-1.4-3.4-1.3
				c-1.4-0.1-2.9,0.5-3.9,1.5c-1,1.2-1.5,2.7-1.4,4.2v8.3h-2.1v-8.9c0.1-1.4-0.3-2.7-1.2-3.8c-0.9-0.9-2.1-1.4-3.4-1.3
				c-1.4-0.1-2.8,0.5-3.9,1.5c-1,1.2-1.5,2.7-1.4,4.2v8.3h-2.2v-15.7h2v2.9c0.5-1,1.4-1.7,2.3-2.2c1.1-0.5,2.3-0.8,3.5-0.8
				s2.4,0.3,3.4,0.8c1,0.6,1.7,1.4,2.2,2.5c0.6-1,1.5-1.9,2.5-2.4c1.1-0.6,2.4-0.9,3.7-0.9C334.8,220.4,336.5,221,337.8,222.2z"/>
			<path fill="#51245F" d="M347.7,235.5c-1.2-0.7-2.2-1.7-2.9-2.9c-1.4-2.6-1.4-5.7,0-8.3c0.7-1.2,1.7-2.2,2.9-2.9
				c2.6-1.4,5.6-1.4,8.2,0c1.2,0.7,2.2,1.7,2.9,2.9c1.4,2.6,1.4,5.7,0,8.3c-0.7,1.2-1.7,2.2-2.9,2.9
				C353.3,236.9,350.2,236.9,347.7,235.5z M354.8,233.9c0.9-0.5,1.6-1.3,2.1-2.2c1-2,1-4.4,0-6.4c-0.5-0.9-1.2-1.7-2.1-2.2
				c-1.9-1-4.1-1-6,0c-0.9,0.5-1.6,1.3-2.1,2.2c-1,2-1,4.4,0,6.4c0.5,0.9,1.2,1.7,2.1,2.2C350.7,234.9,352.9,234.9,354.8,233.9z"/>
			<path fill="#51245F" d="M364.1,216.7c-0.3-0.3-0.5-0.7-0.5-1.1c0-0.4,0.2-0.8,0.5-1c0.3-0.3,0.7-0.5,1.1-0.5s0.8,0.2,1.1,0.4
				c0.3,0.3,0.4,0.6,0.5,1c0,0.9-0.7,1.6-1.6,1.6l0,0C364.8,217.1,364.4,217,364.1,216.7L364.1,216.7z M364.1,220.6h2.1v15.8h-2.1
				V220.6z"/>
			<path fill="#51245F" d="M372.8,236c-1-0.3-1.9-0.8-2.8-1.4l1-1.7c0.7,0.6,1.5,1,2.4,1.3c1,0.3,2.1,0.5,3.1,0.5
				c1.1,0.1,2.2-0.2,3.2-0.7c0.6-0.4,1-1.1,1-1.9c0-0.5-0.2-1-0.6-1.4s-0.9-0.6-1.4-0.8c-0.8-0.2-1.5-0.4-2.3-0.5
				c-1-0.2-2.1-0.4-3.1-0.7c-0.8-0.2-1.5-0.7-2-1.3c-0.6-0.7-0.9-1.6-0.8-2.5c0-1.3,0.6-2.5,1.6-3.2c1.3-0.9,3-1.4,4.6-1.3
				c1,0,2.1,0.1,3.1,0.4c0.9,0.2,1.8,0.6,2.6,1.1l-0.9,1.7c-1.4-0.9-3-1.4-4.6-1.4c-1.1-0.1-2.1,0.2-3.1,0.7c-0.6,0.4-1,1.1-1,1.9
				c0,0.5,0.2,1.1,0.6,1.4c0.4,0.4,0.9,0.7,1.5,0.8c0.8,0.2,1.6,0.4,2.4,0.5c1,0.2,2,0.4,3,0.7c0.7,0.2,1.4,0.7,2,1.2
				c0.6,0.7,0.9,1.5,0.8,2.4c0,1.3-0.6,2.6-1.7,3.3c-1.4,0.9-3.1,1.3-4.8,1.2C375.2,236.6,373.9,236.4,372.8,236z"/>
		</g>
		<g>
			<path fill="#51245F" d="M393.8,225.1c-0.4-1.4-0.6-3-0.6-4.6s0.2-3.2,0.6-4.6s0.9-2.7,1.6-3.8h1.6c-0.7,1.3-1.2,2.6-1.6,4
				c-0.3,1.4-0.5,2.9-0.5,4.5s0.2,3.1,0.5,4.5s0.9,2.7,1.6,4h-1.6C394.7,227.8,394.1,226.5,393.8,225.1L393.8,225.1z"/>
			<path fill="#51245F" d="M402.3,215.4l2.1,1.2l-0.6,1l-2.2-1.3v2.5h-1.1v-2.5l-2.2,1.3l-0.6-1l2.2-1.2l-2.2-1.2l0.6-1l2.2,1.3v-2.4
				h1.1v2.4l2.2-1.3l0.6,1L402.3,215.4z"/>
			<path fill="#51245F" d="M409.8,215.4l2.1,1.2l-0.6,1l-2.2-1.3v2.5H408v-2.5l-2.2,1.3l-0.6-1l2.2-1.2l-2.2-1.2l0.6-1l2.2,1.3v-2.4
				h1.1v2.4l2.2-1.3l0.6,1L409.8,215.4z"/>
			<path fill="#51245F" d="M412.9,228.9c0.7-1.3,1.2-2.6,1.6-4s0.5-2.9,0.5-4.5s-0.2-3.1-0.5-4.5s-0.9-2.7-1.6-4h1.6
				c0.7,1.1,1.2,2.3,1.6,3.8s0.6,3,0.6,4.6s-0.2,3.2-0.6,4.6s-0.9,2.7-1.6,3.8L412.9,228.9L412.9,228.9z"/>
		</g>
		<g>
			<path fill="#51245F" d="M715.6,355.5c-0.4-1.4-0.6-3-0.6-4.6s0.2-3.2,0.6-4.6c0.4-1.4,0.9-2.7,1.6-3.8h1.6c-0.7,1.3-1.2,2.6-1.6,4
				c-0.3,1.4-0.5,2.9-0.5,4.5s0.2,3.1,0.5,4.5s0.9,2.7,1.6,4h-1.6C716.5,358.2,715.9,356.9,715.6,355.5L715.6,355.5z"/>
			<path fill="#51245F" d="M724.1,345.8l2.1,1.2l-0.6,1l-2.2-1.3v2.5h-1.1v-2.5L720,348l-0.6-1l2.2-1.2l-2.2-1.2l0.6-1l2.2,1.3v-2.4
				h1.1v2.4l2.2-1.3l0.6,1L724.1,345.8z"/>
			<path fill="#51245F" d="M731.6,345.8l2.1,1.2l-0.6,1l-2.2-1.3v2.5h-1.1v-2.5l-2.2,1.3l-0.6-1l2.2-1.2l-2.2-1.2l0.6-1l2.2,1.3v-2.4
				h1.1v2.4l2.2-1.3l0.6,1L731.6,345.8z"/>
			<path fill="#51245F" d="M734.7,359.3c0.7-1.3,1.2-2.6,1.6-4c0.4-1.4,0.5-2.9,0.5-4.5s-0.2-3.1-0.5-4.5c-0.3-1.4-0.9-2.7-1.6-4h1.6
				c0.7,1.1,1.2,2.3,1.6,3.8s0.6,3,0.6,4.6s-0.2,3.2-0.6,4.6c-0.4,1.4-0.9,2.7-1.6,3.8L734.7,359.3L734.7,359.3z"/>
		</g>
	</g>
	<g>
		<path fill="#282828" d="M200,482.4v9.8h-1v-8.9h-2.3v-0.9H200z"/>
		<path fill="#282828" d="M218.1,485.6c0.6,0.6,0.9,1.5,0.8,2.4v4.3h-1V488c0-0.6-0.1-1.3-0.6-1.8c-0.4-0.4-1-0.6-1.6-0.6
			c-0.7,0-1.3,0.2-1.8,0.7s-0.7,1.2-0.7,2v3.9h-1V488c0-0.6-0.2-1.3-0.6-1.8c-0.4-0.4-1-0.6-1.6-0.6c-0.7,0-1.3,0.2-1.8,0.7
			s-0.7,1.2-0.7,2v3.9h-1v-7.4h1v1.3c0.3-0.4,0.6-0.8,1.1-1c0.5-0.3,1.1-0.4,1.6-0.4c0.6,0,1.1,0.1,1.6,0.4s0.8,0.7,1,1.2
			c0.3-0.5,0.7-0.9,1.2-1.1c0.5-0.3,1.1-0.4,1.8-0.4C216.7,484.8,217.5,485.1,218.1,485.6z"/>
		<path fill="#282828" d="M222.7,491.8c-0.6-0.3-1-0.8-1.4-1.3c-0.7-1.2-0.7-2.7,0-3.9c0.3-0.6,0.8-1,1.4-1.3c1.2-0.6,2.6-0.6,3.8,0
			c0.6,0.3,1,0.8,1.3,1.3c0.6,1.2,0.6,2.7,0,3.9c-0.3,0.6-0.8,1-1.3,1.3C225.3,492.5,223.9,492.5,222.7,491.8z M226,491
			c0.4-0.2,0.8-0.6,1-1c0.5-0.9,0.5-2.1,0-3c-0.2-0.4-0.6-0.8-1-1c-0.9-0.5-1.9-0.5-2.8,0c-0.4,0.2-0.8,0.6-1,1
			c-0.5,0.9-0.5,2.1,0,3c0.2,0.4,0.6,0.8,1,1C224.1,491.5,225.1,491.5,226,491z"/>
		<path fill="#282828" d="M230.3,483c-0.1-0.1-0.2-0.3-0.2-0.5s0.1-0.4,0.2-0.5c0.1-0.1,0.3-0.2,0.5-0.2s0.4,0.1,0.5,0.2
			s0.2,0.3,0.2,0.5c0,0.4-0.3,0.7-0.7,0.7l0,0C230.7,483.2,230.5,483.2,230.3,483L230.3,483z M230.3,484.9h1v7.4h-1V484.9z"/>
		<path fill="#282828" d="M234.4,492c-0.5-0.1-0.9-0.3-1.3-0.6l0.4-0.8c0.4,0.3,0.7,0.5,1.2,0.6c0.5,0.2,1,0.2,1.4,0.2
			c0.5,0,1-0.1,1.5-0.3c0.3-0.2,0.5-0.5,0.5-0.9c0-0.2-0.1-0.5-0.3-0.6c-0.2-0.2-0.4-0.3-0.7-0.4s-0.6-0.1-1.1-0.2s-1-0.2-1.4-0.3
			c-0.4-0.1-0.7-0.3-0.9-0.6c-0.3-0.3-0.4-0.7-0.4-1.2c0-0.6,0.3-1.2,0.8-1.5c0.6-0.4,1.4-0.6,2.1-0.6c0.5,0,1,0.1,1.4,0.2
			s0.8,0.3,1.2,0.5l-0.4,0.8c-0.6-0.4-1.4-0.7-2.2-0.6c-0.5,0-1,0.1-1.4,0.3c-0.3,0.2-0.5,0.5-0.5,0.9c0,0.3,0.1,0.5,0.3,0.7
			s0.4,0.3,0.7,0.4c0.4,0.1,0.7,0.2,1.1,0.2c0.6,0.1,1.1,0.2,1.4,0.3c0.3,0.1,0.7,0.3,0.9,0.6c0.3,0.3,0.4,0.7,0.4,1.1
			c0,0.6-0.3,1.2-0.8,1.5c-0.7,0.4-1.5,0.6-2.2,0.6C235.5,492.3,234.9,492.2,234.4,492z"/>
	</g>
	<g>
		<path fill="#282828" d="M323,491.3v0.9h-6.9v-0.7l4.1-4c0.4-0.4,0.7-0.8,1-1.3c0.2-0.3,0.3-0.7,0.3-1.1c0-0.5-0.2-1-0.6-1.4
			c-0.5-0.4-1.1-0.5-1.7-0.5c-1-0.1-2,0.3-2.7,1.1l-0.7-0.6c0.4-0.4,0.9-0.8,1.5-1s1.3-0.4,2-0.4c0.8,0,1.7,0.2,2.4,0.7
			c0.6,0.5,0.9,1.2,0.9,1.9c0,0.5-0.1,1-0.3,1.5c-0.3,0.6-0.8,1.2-1.3,1.6l-3.3,3.3H323z"/>
		<path fill="#282828" d="M340,485.6c0.6,0.6,0.9,1.5,0.8,2.4v4.3h-1V488c0-0.6-0.2-1.3-0.5-1.8c-0.4-0.4-1-0.6-1.6-0.6
			c-0.7,0-1.3,0.2-1.8,0.7s-0.7,1.2-0.7,2v3.9h-1V488c0-0.6-0.2-1.3-0.6-1.8c-0.4-0.4-1-0.6-1.6-0.6c-0.7,0-1.3,0.2-1.8,0.7
			s-0.7,1.2-0.7,2v3.9h-1v-7.4h1v1.3c0.3-0.4,0.6-0.8,1.1-1c0.5-0.3,1.1-0.4,1.6-0.4c0.6,0,1.1,0.1,1.6,0.4s0.8,0.7,1,1.2
			c0.3-0.5,0.7-0.9,1.2-1.1c0.5-0.3,1.1-0.4,1.7-0.4C338.6,484.8,339.4,485.1,340,485.6z"/>
		<path fill="#282828" d="M344.6,491.8c-0.6-0.3-1-0.8-1.3-1.3c-0.7-1.2-0.7-2.7,0-3.9c0.3-0.6,0.8-1,1.3-1.3c1.2-0.6,2.6-0.6,3.8,0
			c0.6,0.3,1,0.8,1.3,1.3c0.6,1.2,0.6,2.7,0,3.9c-0.3,0.6-0.8,1-1.3,1.3C347.2,492.4,345.8,492.4,344.6,491.8z M347.9,491
			c0.4-0.2,0.8-0.6,1-1c0.5-0.9,0.5-2.1,0-3c-0.2-0.4-0.6-0.8-1-1s-0.9-0.4-1.4-0.4s-1,0.1-1.4,0.4c-0.4,0.2-0.8,0.6-1,1
			c-0.5,0.9-0.5,2.1,0,3c0.2,0.4,0.6,0.8,1,1s0.9,0.4,1.4,0.4S347.5,491.3,347.9,491z"/>
		<path fill="#282828" d="M352.2,483c-0.1-0.1-0.2-0.3-0.2-0.5s0.1-0.4,0.2-0.5c0.3-0.3,0.7-0.3,1,0c0.1,0.1,0.2,0.3,0.2,0.5
			c0,0.4-0.3,0.7-0.7,0.7l0,0C352.5,483.3,352.3,483.2,352.2,483L352.2,483z M352.2,484.9h1v7.4h-1V484.9z"/>
		<path fill="#282828" d="M356.3,492c-0.5-0.1-0.9-0.3-1.3-0.6l0.5-0.8c0.4,0.3,0.7,0.5,1.2,0.6c0.5,0.2,1,0.2,1.5,0.2s1-0.1,1.5-0.3
			c0.3-0.2,0.5-0.5,0.5-0.9c0-0.2-0.1-0.5-0.3-0.6c-0.2-0.2-0.4-0.3-0.7-0.4c-0.3-0.1-0.6-0.1-1.1-0.2s-1-0.2-1.4-0.3
			c-0.4-0.1-0.7-0.3-0.9-0.6c-0.3-0.3-0.4-0.7-0.4-1.2c0-0.6,0.3-1.2,0.8-1.5c0.6-0.4,1.4-0.6,2.1-0.6c0.5,0,1,0.1,1.4,0.2
			s0.8,0.3,1.2,0.5l-0.4,0.8c-0.6-0.4-1.4-0.7-2.2-0.6c-0.5,0-1,0.1-1.4,0.3c-0.3,0.2-0.5,0.5-0.5,0.9c0,0.3,0.1,0.5,0.3,0.7
			c0.2,0.2,0.4,0.3,0.7,0.4c0.4,0.1,0.7,0.2,1.1,0.2c0.6,0.1,1.1,0.2,1.4,0.3c0.3,0.1,0.7,0.3,0.9,0.6c0.3,0.3,0.4,0.7,0.4,1.1
			c0,0.6-0.3,1.2-0.8,1.5c-0.7,0.4-1.4,0.6-2.2,0.6C357.4,492.3,356.8,492.2,356.3,492z"/>
	</g>
	<g>
		<path fill="#282828" d="M442,487.5c0.5,0.5,0.8,1.2,0.8,2c0,1.1-0.6,2.1-1.6,2.5c-0.6,0.3-1.3,0.4-2,0.4s-1.4-0.1-2-0.4
			c-0.6-0.2-1.1-0.5-1.5-0.9l0.5-0.8c0.4,0.4,0.8,0.6,1.3,0.8c0.6,0.2,1.1,0.3,1.7,0.3c0.7,0,1.3-0.1,1.9-0.5
			c0.4-0.3,0.7-0.9,0.7-1.5s-0.2-1.1-0.7-1.4c-0.6-0.4-1.3-0.6-2-0.5h-0.7v-0.7l2.7-3.4h-5v-0.9h6.3v0.7l-2.8,3.5
			C440.5,486.7,441.3,487,442,487.5z"/>
		<path fill="#282828" d="M459.9,485.6c0.6,0.6,0.8,1.5,0.8,2.4v4.3h-1V488c0-0.6-0.1-1.3-0.5-1.8c-0.4-0.4-1-0.6-1.6-0.6
			c-0.7,0-1.3,0.2-1.8,0.7s-0.7,1.2-0.6,2v3.9h-1V488c0-0.6-0.1-1.3-0.5-1.8c-0.4-0.4-1-0.6-1.6-0.6c-0.7,0-1.3,0.2-1.8,0.7
			s-0.7,1.2-0.7,2v3.9h-1v-7.4h1v1.3c0.3-0.4,0.6-0.8,1.1-1c0.5-0.3,1.1-0.4,1.6-0.4c0.6,0,1.1,0.1,1.6,0.4c0.4,0.3,0.8,0.7,1,1.2
			c0.3-0.5,0.7-0.9,1.2-1.1c0.5-0.3,1.1-0.4,1.7-0.4C458.5,484.8,459.3,485.1,459.9,485.6z"/>
		<path fill="#282828" d="M464.5,491.8c-0.6-0.3-1-0.8-1.4-1.3c-0.7-1.2-0.7-2.7,0-3.9c0.3-0.6,0.8-1,1.4-1.3s1.2-0.5,1.9-0.5
			c0.7,0,1.3,0.2,1.9,0.5s1,0.8,1.3,1.3c0.6,1.2,0.6,2.7,0,3.9c-0.3,0.6-0.8,1-1.3,1.3c-0.6,0.3-1.2,0.5-1.9,0.5
			S465.1,492.1,464.5,491.8z M467.8,491c0.4-0.2,0.8-0.6,1-1c0.5-0.9,0.5-2.1,0-3c-0.2-0.4-0.6-0.8-1-1s-0.9-0.4-1.4-0.4
			s-1,0.1-1.4,0.4c-0.4,0.2-0.8,0.6-1,1c-0.5,0.9-0.5,2.1,0,3c0.2,0.4,0.6,0.8,1,1s0.9,0.4,1.4,0.4S467.4,491.3,467.8,491L467.8,491
			z"/>
		<path fill="#282828" d="M472.2,483c-0.1-0.1-0.2-0.3-0.2-0.5s0.1-0.4,0.2-0.5s0.3-0.2,0.5-0.2s0.4,0.1,0.5,0.2s0.2,0.3,0.2,0.5
			s-0.1,0.4-0.2,0.5s-0.3,0.2-0.5,0.2C472.5,483.3,472.3,483.2,472.2,483z M472.2,484.9h1v7.4h-1V484.9z"/>
		<path fill="#282828" d="M476.2,492c-0.5-0.1-0.9-0.3-1.3-0.6l0.5-0.8c0.4,0.3,0.7,0.5,1.2,0.6c0.5,0.2,1,0.2,1.5,0.2s1-0.1,1.5-0.3
			c0.3-0.2,0.5-0.5,0.5-0.9c0-0.2-0.1-0.5-0.3-0.6c-0.2-0.2-0.4-0.3-0.7-0.4c-0.3-0.1-0.6-0.1-1.1-0.2s-1-0.2-1.4-0.3
			c-0.4-0.1-0.7-0.3-0.9-0.6c-0.3-0.3-0.4-0.7-0.4-1.2c0-0.6,0.3-1.2,0.8-1.5c0.6-0.4,1.4-0.6,2.1-0.6c0.5,0,1,0.1,1.4,0.2
			s0.8,0.3,1.2,0.5l-0.4,0.8c-0.6-0.4-1.4-0.7-2.2-0.6c-0.5,0-1,0.1-1.4,0.3c-0.3,0.2-0.5,0.5-0.5,0.9c0,0.3,0.1,0.5,0.3,0.7
			c0.2,0.2,0.4,0.3,0.7,0.4c0.4,0.1,0.7,0.2,1.1,0.2c0.6,0.1,1.1,0.2,1.4,0.3c0.3,0.1,0.7,0.3,0.9,0.6c0.3,0.3,0.4,0.7,0.4,1.1
			c0,0.6-0.3,1.2-0.8,1.5c-0.7,0.4-1.5,0.6-2.2,0.6C477.3,492.3,476.8,492.2,476.2,492z"/>
	</g>
	<g>
		<path fill="#282828" d="M563.6,489.6h-2v2.6h-1v-2.6h-5.5v-0.7l5.2-6.5h1.2l-5,6.3h4.2v-2.2h1v2.3h2L563.6,489.6z"/>
		<path fill="#282828" d="M580.2,485.6c0.6,0.6,0.9,1.5,0.8,2.4v4.3h-1V488c0-0.6-0.1-1.3-0.5-1.8c-0.4-0.4-1-0.6-1.6-0.6
			c-0.7,0-1.3,0.2-1.8,0.7s-0.7,1.2-0.7,2v3.9h-1V488c0-0.6-0.2-1.3-0.5-1.8c-0.4-0.4-1-0.6-1.6-0.6c-0.7,0-1.3,0.2-1.8,0.7
			s-0.7,1.2-0.7,2v3.9h-1v-7.4h1v1.3c0.3-0.4,0.6-0.8,1.1-1c0.5-0.3,1.1-0.4,1.6-0.4c0.6,0,1.1,0.1,1.6,0.4c0.4,0.3,0.8,0.7,1,1.2
			c0.3-0.5,0.7-0.9,1.2-1.1c0.5-0.3,1.1-0.4,1.8-0.4C578.9,484.8,579.7,485.1,580.2,485.6z"/>
		<path fill="#282828" d="M584.9,491.8c-0.6-0.3-1-0.8-1.4-1.3c-0.7-1.2-0.7-2.7,0-3.9c0.3-0.6,0.8-1,1.3-1.3c1.2-0.6,2.6-0.6,3.8,0
			c0.6,0.3,1,0.8,1.3,1.3c0.6,1.2,0.6,2.7,0,3.9c-0.3,0.6-0.8,1-1.3,1.3C587.5,492.5,586,492.5,584.9,491.8L584.9,491.8z M588.2,491
			c0.4-0.2,0.8-0.6,1-1c0.5-0.9,0.5-2.1,0-3c-0.2-0.4-0.6-0.8-1-1c-0.9-0.5-1.9-0.5-2.8,0c-0.4,0.2-0.8,0.6-1,1
			c-0.5,0.9-0.5,2.1,0,3c0.2,0.4,0.6,0.8,1,1C586.3,491.5,587.3,491.5,588.2,491z"/>
		<path fill="#282828" d="M592.5,483c-0.1-0.1-0.2-0.3-0.2-0.5c0-0.4,0.3-0.7,0.7-0.7c0.2,0,0.4,0.1,0.5,0.2s0.2,0.3,0.2,0.5
			s-0.1,0.4-0.2,0.5C593.2,483.3,592.8,483.3,592.5,483L592.5,483z M592.5,484.9h1v7.4h-1V484.9z"/>
		<path fill="#282828" d="M596.6,492c-0.5-0.1-0.9-0.3-1.3-0.6l0.4-0.8c0.4,0.3,0.7,0.5,1.2,0.6c0.5,0.2,1,0.2,1.5,0.2s1-0.1,1.5-0.3
			c0.3-0.2,0.5-0.5,0.5-0.9c0-0.2-0.1-0.5-0.3-0.6c-0.2-0.2-0.4-0.3-0.7-0.4s-0.6-0.1-1.1-0.2s-1-0.2-1.4-0.3
			c-0.4-0.1-0.7-0.3-0.9-0.6c-0.3-0.3-0.4-0.7-0.4-1.2c0-0.6,0.3-1.2,0.8-1.5c0.6-0.4,1.4-0.6,2.1-0.6c0.5,0,1,0.1,1.4,0.2
			s0.8,0.3,1.2,0.5l-0.4,0.8c-0.6-0.4-1.4-0.7-2.2-0.6c-0.5,0-1,0.1-1.4,0.3c-0.3,0.2-0.5,0.5-0.5,0.9c0,0.3,0.1,0.5,0.3,0.7
			s0.4,0.3,0.7,0.4c0.4,0.1,0.7,0.2,1.1,0.2c0.6,0.1,1.1,0.2,1.4,0.3c0.3,0.1,0.7,0.3,0.9,0.6c0.3,0.3,0.4,0.7,0.4,1.1
			c0,0.6-0.3,1.2-0.8,1.5c-0.7,0.4-1.5,0.6-2.2,0.6C597.7,492.3,597.1,492.2,596.6,492z"/>
	</g>
	<g>
		<path fill="#282828" d="M679,487.2c0.7,0.5,1,1.3,1,2.1c0,0.5-0.1,1.1-0.4,1.5c-0.3,0.5-0.7,0.8-1.2,1c-0.6,0.3-1.3,0.4-2,0.4
			s-1.4-0.1-2-0.4c-0.6-0.2-1.1-0.5-1.5-0.9l0.5-0.8c0.4,0.4,0.8,0.6,1.3,0.8c0.5,0.2,1.1,0.3,1.7,0.3c0.7,0,1.3-0.2,1.9-0.5
			c0.4-0.4,0.7-0.9,0.7-1.5s-0.3-1.2-0.8-1.5c-0.8-0.4-1.6-0.6-2.5-0.5h-2.1l0.5-4.9h5.4v0.9H675l-0.3,3.1h1.3
			C677,486.4,678.1,486.6,679,487.2z"/>
		<path fill="#282828" d="M696.9,485.6c0.6,0.6,0.9,1.5,0.8,2.4v4.3h-1V488c0-0.6-0.1-1.3-0.5-1.8c-0.4-0.4-1-0.6-1.6-0.6
			c-0.7,0-1.3,0.2-1.8,0.7s-0.7,1.2-0.7,2v3.9h-1V488c0-0.6-0.2-1.3-0.5-1.8c-0.4-0.4-1-0.6-1.6-0.6c-0.7,0-1.3,0.2-1.8,0.7
			s-0.7,1.2-0.7,2v3.9h-1v-7.4h1v1.3c0.3-0.4,0.6-0.8,1.1-1c0.5-0.3,1.1-0.4,1.6-0.4c0.6,0,1.1,0.1,1.6,0.4s0.8,0.7,1,1.2
			c0.3-0.5,0.7-0.9,1.2-1.1c0.5-0.3,1.1-0.4,1.8-0.4C695.6,484.8,696.3,485.1,696.9,485.6z"/>
		<path fill="#282828" d="M701.5,491.8c-0.6-0.3-1-0.8-1.3-1.3c-0.7-1.2-0.7-2.7,0-3.9c0.3-0.6,0.8-1,1.3-1.3c1.2-0.6,2.6-0.6,3.8,0
			c0.6,0.3,1,0.8,1.3,1.3c0.6,1.2,0.6,2.7,0,3.9c-0.3,0.6-0.8,1-1.3,1.3C704.1,492.5,702.7,492.5,701.5,491.8z M704.8,491
			c0.4-0.2,0.8-0.6,1-1c0.5-0.9,0.5-2.1,0-3c-0.2-0.4-0.6-0.8-1-1c-0.9-0.5-1.9-0.5-2.8,0c-0.4,0.2-0.8,0.6-1,1
			c-0.5,0.9-0.5,2.1,0,3c0.2,0.4,0.6,0.8,1,1C702.9,491.5,703.9,491.5,704.8,491z"/>
		<path fill="#282828" d="M709.2,483c-0.1-0.1-0.2-0.3-0.2-0.5c0-0.4,0.3-0.7,0.7-0.7c0.2,0,0.4,0.1,0.5,0.2s0.2,0.3,0.2,0.5
			s-0.1,0.4-0.2,0.5C710,483.3,709.5,483.3,709.2,483L709.2,483z M709.2,484.9h1v7.4h-1V484.9z"/>
		<path fill="#282828" d="M713.2,492c-0.5-0.1-0.9-0.3-1.3-0.6l0.4-0.8c0.4,0.3,0.7,0.5,1.2,0.6c0.5,0.2,1,0.2,1.5,0.2s1-0.1,1.5-0.3
			c0.3-0.2,0.5-0.5,0.5-0.9c0-0.2-0.1-0.5-0.3-0.6c-0.2-0.2-0.4-0.3-0.7-0.4s-0.6-0.1-1.1-0.2s-1-0.2-1.4-0.3
			c-0.4-0.1-0.7-0.3-0.9-0.6c-0.3-0.3-0.4-0.7-0.4-1.2c0-0.6,0.3-1.2,0.8-1.5c0.6-0.4,1.4-0.6,2.1-0.6c0.5,0,1,0.1,1.4,0.2
			s0.8,0.3,1.2,0.5l-0.4,0.8c-0.6-0.4-1.4-0.7-2.2-0.6c-0.5,0-1,0.1-1.4,0.3c-0.3,0.2-0.5,0.5-0.5,0.9c0,0.3,0.1,0.5,0.3,0.7
			s0.4,0.3,0.7,0.4c0.4,0.1,0.7,0.2,1.1,0.2c0.6,0.1,1.1,0.2,1.4,0.3c0.3,0.1,0.7,0.3,0.9,0.6c0.3,0.3,0.4,0.7,0.4,1.1
			c0,0.6-0.3,1.2-0.8,1.5c-0.7,0.4-1.5,0.6-2.2,0.6C714.4,492.3,713.8,492.2,713.2,492z"/>
	</g>
	<g>
		<path fill="#282828" d="M799.1,486.7c0.5,0.2,0.9,0.6,1.2,1c0.3,0.5,0.4,1,0.4,1.5c0,1.1-0.6,2.2-1.6,2.6c-0.5,0.2-1.1,0.4-1.7,0.4
			c-1.1,0.1-2.3-0.4-3-1.3c-0.7-1.1-1.1-2.3-1-3.6c0-1,0.2-1.9,0.6-2.8c0.3-0.7,0.9-1.3,1.6-1.7c0.7-0.4,1.5-0.6,2.3-0.6
			s1.6,0.1,2.3,0.5l-0.4,0.8c-0.6-0.3-1.2-0.5-1.9-0.5c-1-0.1-1.9,0.3-2.5,1c-0.7,0.8-1,1.9-0.9,3v0.8c0.2-0.5,0.6-0.9,1.1-1.2
			c0.6-0.3,1.2-0.5,1.8-0.4C797.9,486.3,798.5,486.5,799.1,486.7z M799,490.9c0.8-0.8,0.9-2.2,0.1-3l-0.1-0.1
			c-0.5-0.4-1.1-0.6-1.8-0.6c-0.5,0-0.9,0.1-1.3,0.3c-0.4,0.2-0.7,0.4-0.9,0.8c-0.4,0.6-0.4,1.5,0,2.1c0.2,0.3,0.5,0.6,0.9,0.8
			c0.4,0.2,0.9,0.3,1.4,0.3C797.9,491.5,798.5,491.3,799,490.9z"/>
		<path fill="#282828" d="M817.5,485.6c0.6,0.6,0.8,1.5,0.8,2.4v4.3h-1V488c0-0.6-0.1-1.3-0.5-1.8c-0.4-0.4-1-0.6-1.6-0.6
			c-0.7,0-1.3,0.2-1.8,0.7s-0.7,1.2-0.7,2v3.9h-1V488c0-0.6-0.1-1.3-0.5-1.8c-0.4-0.4-1-0.6-1.6-0.6c-0.7,0-1.3,0.2-1.8,0.7
			s-0.7,1.2-0.7,2v3.9h-1v-7.4h1v1.3c0.3-0.4,0.6-0.8,1.1-1c0.5-0.3,1.1-0.4,1.6-0.4c0.6,0,1.1,0.1,1.6,0.4s0.8,0.7,1,1.2
			c0.3-0.5,0.7-0.9,1.2-1.1c0.5-0.3,1.1-0.4,1.7-0.4C816.1,484.8,816.9,485.1,817.5,485.6z"/>
		<path fill="#282828" d="M822.1,491.8c-0.6-0.3-1-0.8-1.3-1.3c-0.7-1.2-0.7-2.7,0-3.9c0.3-0.6,0.8-1,1.3-1.3c0.6-0.3,1.2-0.5,1.9-0.5
			s1.3,0.2,1.9,0.5c0.6,0.3,1,0.8,1.3,1.3c0.6,1.2,0.6,2.7,0,3.9c-0.3,0.6-0.8,1-1.3,1.3c-0.6,0.3-1.2,0.5-1.9,0.5
			C823.4,492.3,822.7,492.1,822.1,491.8z M825.5,491c0.4-0.2,0.8-0.6,1-1c0.5-0.9,0.5-2.1,0-3c-0.2-0.4-0.6-0.8-1-1
			c-0.9-0.5-1.9-0.5-2.8,0c-0.4,0.2-0.8,0.6-1,1c-0.5,0.9-0.5,2.1,0,3c0.2,0.4,0.6,0.8,1,1C823.5,491.5,824.6,491.5,825.5,491
			L825.5,491z"/>
		<path fill="#282828" d="M829.8,483c-0.1-0.1-0.2-0.3-0.2-0.5c0-0.4,0.3-0.7,0.7-0.7c0.2,0,0.4,0.1,0.5,0.2s0.2,0.3,0.2,0.5
			s-0.1,0.4-0.2,0.5c-0.1,0.1-0.3,0.2-0.5,0.2C830.1,483.3,829.9,483.2,829.8,483z M829.8,484.9h1v7.4h-1V484.9z"/>
		<path fill="#282828" d="M833.8,492c-0.5-0.1-0.9-0.3-1.3-0.6l0.5-0.8c0.3,0.3,0.7,0.5,1.2,0.6c0.5,0.2,1,0.2,1.5,0.2s1-0.1,1.5-0.3
			c0.3-0.2,0.5-0.5,0.5-0.9c0-0.2-0.1-0.5-0.3-0.6c-0.2-0.2-0.4-0.3-0.7-0.4s-0.6-0.1-1.1-0.2s-1-0.2-1.4-0.3
			c-0.4-0.1-0.7-0.3-0.9-0.6c-0.3-0.3-0.4-0.7-0.4-1.2c0-0.6,0.3-1.2,0.8-1.5c0.6-0.4,1.4-0.6,2.2-0.6c0.5,0,1,0.1,1.4,0.2
			s0.8,0.3,1.2,0.5l-0.4,0.8c-0.6-0.4-1.4-0.7-2.2-0.6c-0.5,0-1,0.1-1.4,0.3c-0.3,0.2-0.5,0.5-0.5,0.9c0,0.3,0.1,0.5,0.3,0.7
			s0.4,0.3,0.7,0.4c0.4,0.1,0.7,0.2,1.1,0.2c0.6,0.1,1.1,0.2,1.4,0.3c0.3,0.1,0.7,0.3,0.9,0.6c0.3,0.3,0.4,0.7,0.4,1.1
			c0,0.6-0.3,1.2-0.8,1.5c-0.7,0.4-1.5,0.6-2.2,0.6C835,492.3,834.4,492.2,833.8,492z"/>
	</g>
	<g>
		<path fill="#282828" d="M47.3,75.6H51v0.9h-3.7V75.6z"/>
		<path fill="#282828" d="M59.1,79v0.9h-6.9v-0.7l4.1-4c0.4-0.4,0.7-0.8,1-1.3c0.2-0.3,0.3-0.7,0.3-1.1c0-0.5-0.2-1-0.6-1.4
			c-0.5-0.4-1.1-0.5-1.7-0.5c-1,0-2,0.4-2.6,1.1L52,71.4c0.4-0.4,0.9-0.8,1.5-1s1.3-0.4,2-0.4c0.9,0,1.7,0.2,2.4,0.7
			c0.6,0.5,0.9,1.2,0.9,1.9c0,0.5-0.1,1-0.3,1.5c-0.3,0.6-0.8,1.2-1.3,1.6L53.7,79H59.1z"/>
		<path fill="#282828" d="M67.4,76.2l-1.8,1.6v2.1h-1V69.5h1v7l4.4-4h1.2l-3.2,3l3.4,4.4h-1.2L67.4,76.2z"/>
		<path fill="#282828" d="M79.6,72.5V79c0.1,1-0.2,2-0.9,2.8c-0.8,0.7-1.8,1-2.8,0.9c-0.7,0-1.3-0.1-1.9-0.3c-0.5-0.2-1.1-0.5-1.5-0.8
			l0.5-0.8c0.4,0.3,0.8,0.6,1.3,0.7c0.5,0.2,1.1,0.3,1.6,0.3c0.7,0.1,1.5-0.2,2.1-0.6c0.5-0.6,0.7-1.3,0.7-2v-0.9
			c-0.3,0.5-0.7,0.9-1.2,1.1s-1.1,0.4-1.7,0.4c-0.7,0-1.3-0.1-1.9-0.5c-0.6-0.3-1-0.7-1.3-1.3c-0.7-1.1-0.7-2.6,0-3.7
			c0.3-0.5,0.8-1,1.3-1.3c0.6-0.3,1.2-0.5,1.9-0.5c0.6,0,1.2,0.1,1.7,0.4c0.5,0.2,0.9,0.6,1.2,1v-1.4C78.7,72.5,79.6,72.5,79.6,72.5
			z M77.3,78.4c0.4-0.2,0.8-0.6,1-1s0.4-0.9,0.4-1.4s-0.1-1-0.4-1.4c-0.2-0.4-0.6-0.8-1-1c-0.5-0.2-1-0.3-1.5-0.3s-1,0.1-1.4,0.3
			c-0.4,0.2-0.8,0.6-1,1c-0.5,0.9-0.5,1.9,0,2.8c0.2,0.4,0.6,0.8,1,1C75.3,78.9,76.4,78.9,77.3,78.4L77.3,78.4z"/>
	</g>
	<g>
		<path fill="#282828" d="M47,139.6h3.7v0.9H47V139.6z"/>
		<path fill="#282828" d="M60.7,141.3h-2v2.6h-1v-2.6h-5.5v-0.7l5.2-6.5h1.1l-5,6.3h4.3v-2.3h1v2.3h2L60.7,141.3z"/>
		<path fill="#282828" d="M68.7,140.2l-1.7,1.6v2.1h-1v-10.4h1v7l4.4-4h1.2l-3.2,3l3.4,4.4h-1.2L68.7,140.2z"/>
		<path fill="#282828" d="M80.9,136.5v6.5c0.3,1.8-0.9,3.4-2.7,3.7c-0.3,0.1-0.7,0.1-1,0c-0.7,0-1.3-0.1-1.9-0.3
			c-0.5-0.2-1.1-0.5-1.5-0.8l0.5-0.8c0.4,0.3,0.8,0.6,1.3,0.7c0.5,0.2,1.1,0.3,1.6,0.3c0.7,0.1,1.4-0.2,2-0.6c0.5-0.6,0.7-1.3,0.7-2
			v-0.9c-0.3,0.5-0.7,0.9-1.2,1.1c-0.5,0.2-1.1,0.4-1.7,0.4c-0.7,0-1.3-0.1-1.9-0.5c-0.6-0.3-1-0.7-1.3-1.3c-0.6-1.2-0.6-2.5,0-3.7
			c0.3-0.5,0.8-1,1.3-1.3c0.6-0.3,1.2-0.5,1.9-0.5c0.6,0,1.2,0.1,1.7,0.4c0.5,0.2,0.9,0.6,1.2,1.1v-1.5L80.9,136.5L80.9,136.5z
			 M78.6,142.3c0.4-0.2,0.8-0.6,1-1s0.4-0.9,0.4-1.4s-0.1-1-0.4-1.4c-0.2-0.4-0.6-0.8-1-1s-0.9-0.3-1.4-0.3s-1,0.1-1.4,0.3
			s-0.8,0.6-1,1c-0.5,0.9-0.5,1.9,0,2.8c0.2,0.4,0.6,0.8,1,1C76.6,142.8,77.7,142.8,78.6,142.3L78.6,142.3z"/>
	</g>
	<g>
		<path fill="#282828" d="M47.4,204.1h3.7v0.9h-3.7V204.1z"/>
		<path fill="#282828" d="M58.5,202.8c0.5,0.2,0.9,0.6,1.2,1c0.8,1.4,0.4,3.3-1.1,4.1l-0.1,0.1c-0.5,0.2-1.1,0.4-1.7,0.4
			c-1.1,0.1-2.3-0.4-3-1.3c-0.7-1.1-1.1-2.3-1-3.6c0-1,0.2-1.9,0.6-2.8c0.3-0.7,0.9-1.3,1.6-1.7c0.7-0.4,1.5-0.6,2.3-0.6
			s1.6,0.1,2.3,0.5l-0.4,0.8c-0.6-0.3-1.2-0.5-1.9-0.5c-1-0.1-1.9,0.3-2.5,1c-0.7,0.8-1,1.9-0.9,3v0.8c0.2-0.5,0.6-1,1.2-1.2
			c0.6-0.3,1.2-0.5,1.8-0.4C57.4,202.4,58,202.5,58.5,202.8z M58.5,206.9c0.9-0.8,0.9-2.1,0.1-3l-0.1-0.1c-0.5-0.4-1.2-0.6-1.8-0.6
			c-0.5,0-0.9,0.1-1.3,0.3c-0.4,0.2-0.7,0.4-0.9,0.8c-0.4,0.7-0.4,1.5,0,2.1c0.2,0.3,0.5,0.6,0.9,0.8s0.9,0.3,1.4,0.3
			C57.4,207.5,58,207.3,58.5,206.9z"/>
		<path fill="#282828" d="M68.3,204.6l-1.7,1.6v2.1h-1v-10.4h1v7l4.4-4h1.2l-3.2,3l3.4,4.4h-1.2L68.3,204.6z"/>
		<path fill="#282828" d="M80.6,200.9v6.5c0.3,1.8-0.9,3.4-2.7,3.7l0,0c-0.3,0.1-0.7,0.1-1,0c-0.7,0-1.3-0.1-1.9-0.3
			c-0.5-0.2-1.1-0.5-1.5-0.8l0.5-0.8c0.4,0.3,0.8,0.6,1.3,0.7c0.5,0.2,1.1,0.3,1.6,0.3c0.7,0.1,1.5-0.2,2.1-0.6
			c0.5-0.6,0.7-1.3,0.7-2v-0.9c-0.3,0.5-0.7,0.9-1.2,1.1c-0.5,0.2-1.1,0.4-1.7,0.4c-0.7,0-1.3-0.1-1.9-0.5c-0.6-0.3-1-0.7-1.3-1.3
			c-0.6-1.2-0.6-2.5,0-3.7c0.3-0.5,0.8-1,1.3-1.3c0.6-0.3,1.2-0.5,1.9-0.5c0.6,0,1.2,0.1,1.7,0.4c0.5,0.2,0.9,0.6,1.2,1.1v-1.5
			L80.6,200.9L80.6,200.9z M78.2,206.8c0.4-0.2,0.8-0.6,1-1s0.4-0.9,0.4-1.4s-0.1-1-0.4-1.4c-0.2-0.4-0.6-0.8-1-1s-0.9-0.3-1.4-0.3
			s-1,0.1-1.4,0.3s-0.8,0.6-1,1c-0.5,0.9-0.5,1.9,0,2.8c0.2,0.4,0.6,0.8,1,1s0.9,0.3,1.4,0.3C77.3,207.1,77.8,207,78.2,206.8z"/>
	</g>
	<g>
		<path fill="#282828" d="M47.1,268h3.7v0.9h-3.7V268z"/>
		<path fill="#282828" d="M59.4,268.1c0.3,0.4,0.5,0.9,0.5,1.5c0,0.5-0.2,1.1-0.5,1.5c-0.3,0.5-0.8,0.8-1.3,1c-0.6,0.2-1.3,0.4-2,0.4
			c-1,0.1-2-0.2-2.8-0.8c-0.7-0.5-1-1.3-1-2.1c0-0.5,0.2-1.1,0.5-1.5c0.4-0.4,0.9-0.7,1.4-0.9c-0.5-0.2-0.9-0.5-1.2-0.9
			c-0.7-1-0.4-2.4,0.5-3.2c0.7-0.5,1.6-0.8,2.5-0.7c0.6,0,1.2,0.1,1.8,0.3c0.5,0.2,0.9,0.5,1.2,0.9s0.4,0.9,0.4,1.4
			s-0.1,0.9-0.4,1.3c-0.3,0.4-0.7,0.7-1.2,0.9C58.5,267.3,59,267.6,59.4,268.1z M58.1,271c0.8-0.6,1-1.7,0.4-2.5
			c-0.1-0.1-0.2-0.3-0.4-0.4c-0.6-0.4-1.3-0.6-2-0.5c-0.7,0-1.4,0.1-2,0.5c-0.8,0.6-1,1.7-0.4,2.5c0.1,0.1,0.2,0.3,0.4,0.4
			c0.6,0.4,1.3,0.6,2,0.5C56.8,271.5,57.5,271.3,58.1,271z M54.3,266.3c1.1,0.6,2.5,0.6,3.6,0c0.7-0.5,0.9-1.5,0.4-2.2
			c-0.1-0.1-0.2-0.3-0.4-0.4c-0.5-0.3-1.1-0.5-1.8-0.5c-0.6,0-1.2,0.1-1.8,0.5c-0.7,0.5-0.9,1.5-0.3,2.2
			C54.1,266.1,54.2,266.2,54.3,266.3L54.3,266.3z"/>
		<path fill="#282828" d="M68.3,268.6l-1.7,1.6v2.1h-1v-10.4h1v7l4.4-4h1.2l-3.2,3l3.4,4.4h-1.2L68.3,268.6z"/>
		<path fill="#282828" d="M80.5,264.9v6.5c0.1,1-0.2,2-0.9,2.8c-0.8,0.7-1.8,1-2.8,0.9c-0.7,0-1.3-0.1-1.9-0.3
			c-0.5-0.2-1.1-0.5-1.5-0.8l0.5-0.8c0.4,0.3,0.8,0.6,1.3,0.7c0.5,0.2,1.1,0.3,1.6,0.3c0.7,0.1,1.5-0.2,2.1-0.6
			c0.5-0.6,0.7-1.3,0.7-2v-0.9c-0.3,0.5-0.7,0.9-1.2,1.1s-1.1,0.4-1.7,0.4c-0.7,0-1.3-0.1-1.9-0.4s-1-0.8-1.4-1.4
			c-0.6-1.2-0.6-2.5,0-3.7c0.3-0.5,0.8-1,1.3-1.3c0.6-0.3,1.2-0.5,1.9-0.4c0.6,0,1.2,0.1,1.7,0.4c0.5,0.2,0.9,0.6,1.2,1.1v-1.4h1
			V264.9z M78.2,270.8c0.4-0.2,0.8-0.6,1-1s0.4-0.9,0.4-1.4s-0.1-1-0.4-1.4c-0.2-0.4-0.6-0.8-1-1c-0.9-0.5-2-0.5-2.9,0
			c-0.4,0.2-0.8,0.6-1,1c-0.5,0.9-0.5,1.9,0,2.8c0.2,0.4,0.6,0.8,1,1C76.2,271.2,77.3,271.2,78.2,270.8L78.2,270.8z"/>
	</g>
	<g>
		<path fill="#282828" d="M47.2,332.2h3.7v0.9h-3.7V332.2z"/>
		<path fill="#282828" d="M54.9,326.7v9.8h-1v-8.9h-2.3v-0.9H54.9z"/>
		<path fill="#282828" d="M59.1,336c-0.6-0.4-1.1-1-1.4-1.7c-0.7-1.7-0.7-3.6,0-5.3c0.3-0.7,0.8-1.3,1.4-1.7c1.2-0.8,2.8-0.8,4,0
			c0.6,0.4,1.1,1,1.4,1.7c0.7,1.7,0.7,3.6,0,5.3c-0.3,0.7-0.8,1.3-1.4,1.7C61.9,336.7,60.4,336.7,59.1,336L59.1,336z M62.6,335.2
			c0.5-0.4,0.8-0.8,1-1.4c0.5-1.4,0.5-3,0-4.4c-0.2-0.6-0.5-1-1-1.4c-0.4-0.3-1-0.5-1.5-0.5s-1.1,0.2-1.5,0.5
			c-0.5,0.4-0.8,0.8-1,1.4c-0.5,1.4-0.5,3,0,4.4c0.2,0.5,0.5,1,1,1.4c0.4,0.3,1,0.5,1.5,0.5C61.7,335.6,62.2,335.5,62.6,335.2z"/>
		<path fill="#282828" d="M73.6,332.8l-1.7,1.6v2.1h-1v-10.4h1v7l4.4-4h1.3l-3.2,3l3.4,4.4h-1.3L73.6,332.8z"/>
		<path fill="#282828" d="M85.8,329.1v6.5c0.1,1-0.2,2-0.9,2.8c-0.8,0.7-1.8,1-2.8,0.9c-0.7,0-1.3-0.1-1.9-0.3
			c-0.5-0.2-1.1-0.5-1.5-0.8l0.5-0.8c0.4,0.3,0.8,0.6,1.3,0.7c0.5,0.2,1.1,0.3,1.6,0.3c0.7,0.1,1.5-0.2,2.1-0.6
			c0.5-0.6,0.7-1.3,0.7-2v-0.9c-0.3,0.5-0.7,0.9-1.2,1.1s-1.1,0.4-1.7,0.4c-0.7,0-1.3-0.1-1.9-0.5c-0.6-0.3-1-0.7-1.3-1.3
			c-0.7-1.1-0.7-2.6,0-3.7c0.3-0.5,0.8-1,1.3-1.3c0.6-0.3,1.2-0.5,1.9-0.4c0.6,0,1.2,0.1,1.7,0.4c0.5,0.2,0.9,0.6,1.2,1.1v-1.5h0.9
			V329.1z M83.4,335c0.4-0.2,0.8-0.6,1-1s0.4-0.9,0.4-1.4s-0.1-1-0.4-1.4c-0.2-0.4-0.6-0.8-1-1c-0.5-0.2-0.9-0.3-1.4-0.3
			s-1,0.1-1.4,0.3c-0.4,0.2-0.8,0.6-1,1c-0.5,0.9-0.5,1.9,0,2.8c0.2,0.4,0.6,0.8,1,1C81.5,335.5,82.5,335.5,83.4,335L83.4,335z"/>
	</g>
	<g>
		<path fill="#282828" d="M47,396.1h3.7v0.9H47V396.1z"/>
		<path fill="#282828" d="M54.7,390.5v9.8h-1v-8.9h-2.3v-0.9H54.7z"/>
		<path fill="#282828" d="M63.8,399.4v0.9h-6.9v-0.7l4.1-4c0.4-0.4,0.8-0.8,1-1.3c0.2-0.3,0.3-0.7,0.3-1.1c0-0.5-0.2-1-0.6-1.4
			c-0.5-0.4-1.1-0.5-1.7-0.5c-1,0-2,0.4-2.6,1.1l-0.7-0.6c0.4-0.4,0.9-0.8,1.5-1s1.3-0.4,2-0.4c0.8,0,1.7,0.2,2.4,0.7
			c0.6,0.5,0.9,1.2,0.9,1.9c0,0.5-0.1,1-0.3,1.4c-0.3,0.6-0.8,1.2-1.3,1.6l-3.4,3.3h5.3V399.4z"/>
		<path fill="#282828" d="M72.1,396.6l-1.7,1.6v2.1h-1V390h1v7l4.4-4H76l-3.2,3l3.4,4.4H75L72.1,396.6z"/>
		<path fill="#282828" d="M84.4,393v6.5c0.3,1.8-0.9,3.4-2.7,3.7l0,0c-0.3,0.1-0.7,0.1-1,0c-0.7,0-1.3-0.1-1.9-0.3
			c-0.5-0.2-1.1-0.5-1.5-0.8l0.5-0.8c0.4,0.3,0.8,0.6,1.3,0.7c0.5,0.2,1.1,0.3,1.6,0.3c0.7,0.1,1.5-0.2,2.1-0.6
			c0.5-0.6,0.7-1.3,0.7-2v-0.9c-0.3,0.5-0.7,0.9-1.2,1.1s-1.1,0.4-1.7,0.4c-0.7,0-1.3-0.1-1.9-0.4s-1-0.7-1.3-1.3
			c-0.6-1.2-0.6-2.5,0-3.7c0.3-0.5,0.8-1,1.3-1.3c0.6-0.3,1.2-0.5,1.9-0.4c0.6,0,1.2,0.1,1.7,0.4c0.5,0.2,0.9,0.6,1.2,1V393H84.4z
			 M82,398.8c0.4-0.2,0.8-0.6,1-1c0.5-0.9,0.5-1.9,0-2.8c-0.2-0.4-0.6-0.8-1-1c-0.5-0.2-1-0.3-1.5-0.3s-1,0.1-1.4,0.3
			c-0.4,0.2-0.8,0.6-1,1c-0.5,0.9-0.5,1.9,0,2.8c0.2,0.4,0.6,0.8,1,1s0.9,0.3,1.4,0.3C81,399.2,81.5,399.1,82,398.8L82,398.8z"/>
	</g>
	<g>
		<path fill="#DF0958" d="M259.9,145.6c1.1,0.5,1.9,1.2,2.5,2.1c0.6,0.9,0.9,2,0.9,3.2c0,1.2-0.3,2.3-0.9,3.2c-0.6,0.9-1.4,1.6-2.5,2.1
			c-1.1,0.5-2.4,0.7-3.9,0.7h-3.4v4.6h-3.9v-16.8h7.3C257.5,144.8,258.8,145.1,259.9,145.6z M258.5,153.1c0.6-0.5,0.9-1.2,0.9-2.1
			c0-0.9-0.3-1.7-0.9-2.2c-0.6-0.5-1.5-0.8-2.7-0.8h-3.2v5.8h3.2C257,153.8,257.9,153.6,258.5,153.1z"/>
		<path fill="#DF0958" d="M278.4,156.2h-9.8c0.2,0.8,0.6,1.4,1.2,1.9c0.7,0.5,1.5,0.7,2.4,0.7c0.7,0,1.3-0.1,1.8-0.3
			c0.5-0.2,1-0.5,1.5-0.9l2,2.2c-1.2,1.4-3,2.1-5.3,2.1c-1.5,0-2.7-0.3-3.9-0.9c-1.1-0.6-2-1.4-2.6-2.4c-0.6-1-0.9-2.2-0.9-3.4
			c0-1.3,0.3-2.4,0.9-3.4s1.4-1.8,2.5-2.4c1-0.6,2.2-0.9,3.5-0.9c1.3,0,2.4,0.3,3.4,0.8c1,0.5,1.8,1.3,2.4,2.3
			c0.6,1,0.9,2.2,0.9,3.5C278.4,155.3,278.4,155.6,278.4,156.2z M269.6,152.1c-0.6,0.5-0.9,1.1-1.1,2h6.4c-0.1-0.8-0.5-1.5-1.1-2
			c-0.6-0.5-1.3-0.7-2.1-0.7C270.9,151.4,270.2,151.6,269.6,152.1z"/>
		<path fill="#DF0958" d="M286.3,149c0.8-0.3,1.6-0.5,2.6-0.5v3.5c-0.4,0-0.7,0-0.8,0c-1.1,0-1.9,0.3-2.5,0.9s-0.9,1.5-0.9,2.7v6.1
			h-3.7v-12.9h3.6v1.7C285,149.8,285.6,149.3,286.3,149z"/>
		<path fill="#DF0958" d="M300,161c-0.4,0.3-0.8,0.5-1.4,0.6c-0.5,0.1-1.1,0.2-1.7,0.2c-1.5,0-2.7-0.4-3.6-1.2
			c-0.8-0.8-1.3-1.9-1.3-3.5v-5.3h-2V149h2v-3.1h3.7v3.1h3.2v2.9h-3.2v5.3c0,0.5,0.1,1,0.4,1.3c0.3,0.3,0.7,0.4,1.2,0.4
			c0.6,0,1.1-0.2,1.5-0.5L300,161z"/>
		<path fill="#DF0958" d="M314.2,156.2h-9.8c0.2,0.8,0.6,1.4,1.2,1.9c0.7,0.5,1.5,0.7,2.4,0.7c0.7,0,1.3-0.1,1.8-0.3
			c0.5-0.2,1-0.5,1.5-0.9l2,2.2c-1.2,1.4-3,2.1-5.3,2.1c-1.5,0-2.7-0.3-3.9-0.9c-1.1-0.6-2-1.4-2.6-2.4c-0.6-1-0.9-2.2-0.9-3.4
			c0-1.3,0.3-2.4,0.9-3.4s1.4-1.8,2.5-2.4c1-0.6,2.2-0.9,3.5-0.9c1.3,0,2.4,0.3,3.4,0.8c1,0.5,1.8,1.3,2.4,2.3
			c0.6,1,0.9,2.2,0.9,3.5C314.3,155.3,314.3,155.6,314.2,156.2z M305.5,152.1c-0.6,0.5-0.9,1.1-1.1,2h6.4c-0.1-0.8-0.5-1.5-1.1-2
			c-0.6-0.5-1.3-0.7-2.1-0.7C306.8,151.4,306.1,151.6,305.5,152.1z"/>
		<path fill="#DF0958" d="M344,150c1,1,1.4,2.4,1.4,4.3v7.4h-3.7v-6.8c0-1-0.2-1.8-0.6-2.3c-0.4-0.5-1-0.8-1.8-0.8
			c-0.9,0-1.6,0.3-2.1,0.9c-0.5,0.6-0.8,1.4-0.8,2.5v6.5h-3.7v-6.8c0-2-0.8-3-2.4-3c-0.9,0-1.6,0.3-2.1,0.9
			c-0.5,0.6-0.8,1.4-0.8,2.5v6.5h-3.7v-12.9h3.6v1.5c0.5-0.5,1.1-1,1.8-1.2c0.7-0.3,1.5-0.4,2.3-0.4c0.9,0,1.7,0.2,2.5,0.5
			c0.7,0.4,1.3,0.9,1.8,1.6c0.5-0.7,1.2-1.2,2-1.6s1.7-0.6,2.7-0.6C341.8,148.5,343,149,344,150z"/>
		<path fill="#DF0958" d="M351.4,161c-1.1-0.6-1.9-1.4-2.5-2.4c-0.6-1-0.9-2.2-0.9-3.4c0-1.3,0.3-2.4,0.9-3.4c0.6-1,1.5-1.8,2.5-2.4
			s2.3-0.9,3.7-0.9c1.4,0,2.6,0.3,3.6,0.9c1.1,0.6,1.9,1.4,2.5,2.4c0.6,1,0.9,2.2,0.9,3.4c0,1.3-0.3,2.4-0.9,3.4
			c-0.6,1-1.4,1.8-2.5,2.4c-1.1,0.6-2.3,0.9-3.6,0.9C353.7,161.8,352.5,161.5,351.4,161z M357.4,157.8c0.6-0.6,0.9-1.5,0.9-2.6
			c0-1.1-0.3-2-0.9-2.6s-1.4-1-2.4-1s-1.8,0.3-2.4,1s-0.9,1.5-0.9,2.6c0,1.1,0.3,2,0.9,2.6s1.4,1,2.4,1S356.8,158.4,357.4,157.8z"/>
		<path fill="#DF0958" d="M377.1,148.7l-5.8,13.7c-0.6,1.5-1.3,2.5-2.2,3.1c-0.9,0.6-1.9,0.9-3.2,0.9c-0.7,0-1.3-0.1-2-0.3
			c-0.7-0.2-1.2-0.5-1.6-0.9l1.4-2.7c0.3,0.3,0.6,0.5,1,0.6c0.4,0.1,0.7,0.2,1.1,0.2c0.5,0,0.9-0.1,1.2-0.4c0.3-0.2,0.6-0.7,0.9-1.2
			l0-0.1l-5.6-13h3.9l3.6,8.8l3.6-8.8H377.1z"/>
		<path fill="#DF0958" d="M390.8,156.2h-9.8c0.2,0.8,0.6,1.4,1.2,1.9c0.7,0.5,1.5,0.7,2.4,0.7c0.7,0,1.3-0.1,1.8-0.3
			c0.5-0.2,1-0.5,1.5-0.9l2,2.2c-1.2,1.4-3,2.1-5.3,2.1c-1.5,0-2.7-0.3-3.9-0.9c-1.1-0.6-2-1.4-2.6-2.4c-0.6-1-0.9-2.2-0.9-3.4
			c0-1.3,0.3-2.4,0.9-3.4s1.4-1.8,2.5-2.4c1-0.6,2.2-0.9,3.5-0.9c1.3,0,2.4,0.3,3.4,0.8c1,0.5,1.8,1.3,2.4,2.3
			c0.6,1,0.9,2.2,0.9,3.5C390.9,155.3,390.9,155.6,390.8,156.2z M382.1,152.1c-0.6,0.5-0.9,1.1-1.1,2h6.4c-0.1-0.8-0.5-1.5-1.1-2
			c-0.6-0.5-1.3-0.7-2.1-0.7C383.4,151.4,382.7,151.6,382.1,152.1z"/>
		<path fill="#DF0958" d="M405.1,150c1,1,1.5,2.4,1.5,4.3v7.4h-3.7v-6.8c0-1-0.2-1.8-0.7-2.3c-0.4-0.5-1.1-0.8-1.9-0.8
			c-0.9,0-1.7,0.3-2.3,0.9s-0.8,1.5-0.8,2.6v6.4h-3.7v-12.9h3.6v1.5c0.5-0.5,1.1-1,1.8-1.3c0.7-0.3,1.5-0.4,2.4-0.4
			C402.9,148.5,404.2,149,405.1,150z"/>
		<path fill="#DF0958" d="M421.7,150c1,1,1.5,2.4,1.5,4.3v7.4h-3.7v-6.8c0-1-0.2-1.8-0.7-2.3c-0.4-0.5-1.1-0.8-1.9-0.8
			c-0.9,0-1.7,0.3-2.3,0.9s-0.8,1.5-0.8,2.6v6.4H410v-12.9h3.6v1.5c0.5-0.5,1.1-1,1.8-1.3c0.7-0.3,1.5-0.4,2.4-0.4
			C419.4,148.5,420.7,149,421.7,150z"/>
		<path fill="#DF0958" d="M439.3,156.2h-9.8c0.2,0.8,0.6,1.4,1.2,1.9c0.7,0.5,1.5,0.7,2.4,0.7c0.7,0,1.3-0.1,1.8-0.3
			c0.5-0.2,1-0.5,1.5-0.9l2,2.2c-1.2,1.4-3,2.1-5.3,2.1c-1.5,0-2.7-0.3-3.9-0.9c-1.1-0.6-2-1.4-2.6-2.4c-0.6-1-0.9-2.2-0.9-3.4
			c0-1.3,0.3-2.4,0.9-3.4s1.4-1.8,2.5-2.4c1-0.6,2.2-0.9,3.5-0.9c1.3,0,2.4,0.3,3.4,0.8c1,0.5,1.8,1.3,2.4,2.3
			c0.6,1,0.9,2.2,0.9,3.5C439.4,155.3,439.3,155.6,439.3,156.2z M430.5,152.1c-0.6,0.5-0.9,1.1-1.1,2h6.4c-0.1-0.8-0.5-1.5-1.1-2
			c-0.6-0.5-1.3-0.7-2.1-0.7C431.8,151.4,431.1,151.6,430.5,152.1z"/>
	</g>
</g>
<g id="Calque_3">
</g>
</svg>
