<?xml version="1.0" encoding="UTF-8"?>
<svg width="13px" height="13px" viewBox="0 0 13 13" version="1.1" xmlns="http://www.w3.org/2000/svg" xmlns:xlink="../../../../external.html?link=http://www.w3.org/1999/xlink">
    <title>Combined Shape</title>
    <g id="Connexion-/-Inscription" stroke="none" stroke-width="1" fill="none" fill-rule="evenodd">
        <g id="1-connexion-mail-erreur-unrecognized" transform="translate(-997.000000, -226.000000)" fill="#BE0348" fill-rule="nonzero">
            <g id="Popup" transform="translate(410.000000, 206.000000)">
                <g id="Button---Close" transform="translate(587.000000, 20.000000)">
                    <path d="M10.5107992,0.892854673 C11.0358645,0.507518049 11.7779749,0.559921802 12.242972,1.04144036 C12.7502415,1.56673334 12.7356306,2.40379064 12.2103377,2.91106017 L12.2103377,2.91106017 L8.44682048,6.54470961 L12.2103377,10.1778287 C12.7356306,10.6850983 12.7502415,11.5221556 12.242972,12.0474485 C11.7779749,12.5289671 11.0358645,12.5813708 10.5107992,12.1960342 L10.3733522,12.0800829 L6.54382048,8.38170961 L2.7155367,12.0800829 L2.57808964,12.1960342 C2.05302437,12.5813708 1.31091397,12.5289671 0.845916901,12.0474485 C0.338647371,11.5221556 0.353258261,10.6850983 0.878551236,10.1778287 L0.878551236,10.1778287 L4.64082048,6.54470961 L0.878551236,2.91106017 C0.353258261,2.40379064 0.338647371,1.56673334 0.845916901,1.04144036 C1.31091397,0.559921802 2.05302437,0.507518049 2.57808964,0.892854673 L2.7155367,1.00880603 L6.54382048,4.70670961 L10.3733522,1.00880603 Z" id="Combined-Shape"></path>
                </g>
            </g>
        </g>
    </g>
</svg>