<svg xmlns:xlink="http://www.w3.org/1999/xlink" xmlns="http://www.w3.org/2000/svg" width="140" height="115"
     viewBox="0 0 139 115">
    <defs>
        <clipPath id="h">
            <path d="M0 0h139v116H0z"/>
        </clipPath>
        <clipPath id="n">
            <path d="M0 0h139v116H0z"/>
        </clipPath>
        <clipPath id="m">
            <path d="M0 0h139v116H0z"/>
        </clipPath>
        <clipPath id="c">
            <path d="M0 0h139v116H0z"/>
        </clipPath>
        <clipPath id="l">
            <path d="M0 0h139v116H0z"/>
        </clipPath>
        <clipPath id="d">
            <path d="M0 0h139v116H0z"/>
        </clipPath>
        <clipPath id="k">
            <path d="M0 0h139v116H0z"/>
        </clipPath>
        <clipPath id="e">
            <path d="M0 0h139v116H0z"/>
        </clipPath>
        <clipPath id="j">
            <path d="M0 0h139v116H0z"/>
        </clipPath>
        <clipPath id="f">
            <path d="M0 0h139v116H0z"/>
        </clipPath>
        <clipPath id="i">
            <path d="M0 0h139v116H0z"/>
        </clipPath>
        <clipPath id="g">
            <path d="M0 0h139v116H0z"/>
        </clipPath>
        <clipPath id="b">
            <path d="M0 0h139v116H0z"/>
        </clipPath>
        <mask id="v">
            <g filter="url(#a)">
                <path style="fill:#000;fill-opacity:.2;stroke:none" d="M0 0h139v115H0z"/>
            </g>
        </mask>
        <mask id="B">
            <g filter="url(#a)">
                <path style="fill:#000;fill-opacity:.0509804;stroke:none" d="M0 0h139v115H0z"/>
            </g>
        </mask>
        <mask id="z">
            <g filter="url(#a)">
                <path style="fill:#000;fill-opacity:.101961;stroke:none" d="M0 0h139v115H0z"/>
            </g>
        </mask>
        <mask id="F">
            <g filter="url(#a)">
                <path style="fill:#000;fill-opacity:.0509804;stroke:none" d="M0 0h139v115H0z"/>
            </g>
        </mask>
        <mask id="x">
            <g filter="url(#a)">
                <path style="fill:#000;fill-opacity:.2;stroke:none" d="M0 0h139v115H0z"/>
            </g>
        </mask>
        <mask id="H">
            <g filter="url(#a)">
                <path style="fill:#000;fill-opacity:.101961;stroke:none" d="M0 0h139v115H0z"/>
            </g>
        </mask>
        <mask id="D">
            <g filter="url(#a)">
                <path style="fill:#000;fill-opacity:.101961;stroke:none" d="M0 0h139v115H0z"/>
            </g>
        </mask>
        <mask id="J">
            <g filter="url(#a)">
                <path style="fill:#000;fill-opacity:.0313725;stroke:none" d="M0 0h139v115H0z"/>
            </g>
        </mask>
        <mask id="t">
            <g filter="url(#a)">
                <path style="fill:#000;fill-opacity:.101961;stroke:none" d="M0 0h139v115H0z"/>
            </g>
        </mask>
        <mask id="L">
            <g filter="url(#a)">
                <path style="fill:#000;fill-opacity:.0313725;stroke:none" d="M0 0h139v115H0z"/>
            </g>
        </mask>
        <mask id="r">
            <g filter="url(#a)">
                <path style="fill:#000;fill-opacity:.101961;stroke:none" d="M0 0h139v115H0z"/>
            </g>
        </mask>
        <mask id="N">
            <g filter="url(#a)">
                <path style="fill:#000;fill-opacity:.0313725;stroke:none" d="M0 0h139v115H0z"/>
            </g>
        </mask>
        <mask id="p">
            <g filter="url(#a)">
                <path style="fill:#000;fill-opacity:.101961;stroke:none" d="M0 0h139v115H0z"/>
            </g>
        </mask>
        <g id="M" clip-path="url(#n)">
            <path style="stroke:none;fill-rule:nonzero;fill:#020203;fill-opacity:1"
                  d="M108.781 33.453a2.918 2.918 0 0 1 1.633.176 2.378 2.378 0 0 0 1.945 0 2.764 2.764 0 0 1 2.293.035c.203.11.43.168.66.172.942 0 1.704-.938 1.88-2.195a2.057 2.057 0 0 1-.454-.485 2.61 2.61 0 0 0-2.328-1.433c-.98 0-1.883.554-2.328 1.433a1.74 1.74 0 0 1-1.527.836h-.035c-.801-.004-1.426.586-1.739 1.461Zm0 0"/>
        </g>
        <g id="E" clip-path="url(#j)">
            <path style="stroke:none;fill-rule:nonzero;fill:#020203;fill-opacity:1"
                  d="M35.113 62.305C35.355 63.84 34.66 65.37 34 66.8c.387.258.824.437 1.285.523a25.373 25.373 0 0 0 9.313.696 2.964 2.964 0 0 0-.07-1.567 6.35 6.35 0 0 0-.52-.836 3.034 3.034 0 0 1-.176-1.57l.211-4.563c-1.496-.699-3.234-.035-4.902.036-.868.03-1.7-.07-2.57.101-.45.07-1.805.281-2.016.734-.137.454.488 1.461.558 1.95Zm0 0"/>
        </g>
        <g id="y" clip-path="url(#g)">
            <path style="stroke:none;fill-rule:nonzero;fill:#020203;fill-opacity:1"
                  d="M25 99.668a5.246 5.246 0 0 0-.836-.664 4.088 4.088 0 0 0-1.355-.66c-.45-.07-.868 0-1.32-.035a2.993 2.993 0 0 1-2.016-.942 5.994 5.994 0 0 0-.938-.976 2.023 2.023 0 0 0-1.426-.243c-.136.036-.277.036-.414.067a5.618 5.618 0 0 0-.312 1.883c0 3.066 2.5 3.172 5.558 3.172 1.493 0 2.848-.036 3.82-.418l-.171-.313c-.16-.316-.36-.61-.59-.871Zm0 0"/>
        </g>
        <g id="u" clip-path="url(#e)">
            <path style="stroke:none;fill-rule:nonzero;fill:#e7246f;fill-opacity:1"
                  d="M89.98 51.469v25.125h-.27v.035H53.18V45.926l.73-.836c5.145-6.133 12.094-7.77 17.516-7.945 3.75-.075 7.469.664 10.91 2.16a21.018 21.018 0 0 0 7.437 1.777v9.516c.141.488.207.87.207.87Zm0 0"/>
        </g>
        <g id="G" clip-path="url(#k)">
            <path style="stroke:none;fill-rule:nonzero;fill:#020203;fill-opacity:1"
                  d="m39.871 42.93-.207-.106a1.619 1.619 0 0 1 .105 2.3c-.18.22-.421.38-.695.454-.941.313-1.949-.277-2.953-.14-.203.019-.394.09-.559.21-.449.383-.207 1.079-.07 1.637.106.348.211 1.672-.414 1.707a.847.847 0 0 0 .52.317c.625-.036.523-1.36.418-1.711-.141-.555-.383-1.254.07-1.637a.848.848 0 0 1 .555-.207c.972-.106 2.015.453 2.953.137a1.62 1.62 0 0 0 1.043-2.055 1.927 1.927 0 0 0-.766-.906Zm0 0"/>
        </g>
        <g id="o" clip-path="url(#b)">
            <path style="stroke:none;fill-rule:nonzero;fill:#e7246f;fill-opacity:1"
                  d="M135.05 100.813c0-2.211-28.39-4.008-63.417-4.008-35.024 0-63.418 1.797-63.418 4.007 0 2.215 28.394 4.008 63.418 4.008 35.027 0 63.418-1.793 63.418-4.007Zm0 0"/>
        </g>
        <g id="A" clip-path="url(#h)">
            <path style="stroke:none;fill-rule:nonzero;fill:#020203;fill-opacity:1"
                  d="M44.215 78.824a46.365 46.365 0 0 0-1.32 6.48c0 .313-.098.618-.278.872-.383.488-1.113.453-1.738.383a.89.89 0 0 1-.414-.102 1.026 1.026 0 0 1-.317-.77c-.414-4.109-.691-8.257-.832-12.406 0-.172 5.145-.172 5.594.246.453.418.106 1.985 0 2.508-.16.945-.394 1.88-.695 2.79Zm0 0"/>
        </g>
        <g id="I" clip-path="url(#l)">
            <path style="stroke:none;fill-rule:nonzero;fill:#020203;fill-opacity:1"
                  d="M36.223 22.855a3.337 3.337 0 0 0-2.016.211 2.96 2.96 0 0 1-2.43 0 3.276 3.276 0 0 0-2.851.07c-.254.141-.543.216-.832.208-1.149 0-2.121-1.184-2.332-2.719.234-.172.433-.383.593-.625.696-1.117 1.739-1.813 2.918-1.813a3.43 3.43 0 0 1 2.883 1.778 2.194 2.194 0 0 0 1.914 1.047h.04c.898 0 1.695.765 2.113 1.843Zm0 0"/>
        </g>
        <g id="s" clip-path="url(#d)">
            <path style="stroke:none;fill-rule:nonzero;fill:#020203;fill-opacity:1"
                  d="M130.813 92.242a14.767 14.767 0 0 0-5.11-.07c-1.91.312-3.89 1.008-5.766.523-1.113-.316-2.05-1.011-3.128-1.394a6.35 6.35 0 0 0-3.23-.211 5.542 5.542 0 0 0 1.038 5.914 5.5 5.5 0 0 0 5.805 1.473 5.596 5.596 0 0 0 3.547.105 5.504 5.504 0 0 0 4.172-.734 5.54 5.54 0 0 0 2.43-3.48c.077-.391.124-.79.136-1.188v-.348c.02-.2.055-.398.106-.59Zm0 0"/>
        </g>
        <g id="w" clip-path="url(#f)">
            <path style="stroke:none;fill-rule:nonzero;fill:#e7246f;fill-opacity:1"
                  d="M89.98 51.469v25.125h-36.8v-16.45c1.32-.312 3.129-1.601 5.492-5.12 3.316-5.258 10.16-6.989 15.566-3.938 2.157 1.184 6.325 2.578 9.489-1.535 3.511-4.531 5.351-.801 6.011 1.047.102.28.184.574.242.87Zm0 0"/>
        </g>
        <g id="K" clip-path="url(#m)">
            <path style="stroke:none;fill-rule:nonzero;fill:#020203;fill-opacity:1"
                  d="M102.11 47.426a1.653 1.653 0 0 0-1.008.105 1.496 1.496 0 0 1-1.215 0c-.457-.199-.98-.187-1.426.035a.917.917 0 0 1-.418.102c-.59 0-1.043-.59-1.145-1.36a.825.825 0 0 0 .278-.312 1.626 1.626 0 0 1 2.918 0c.21.336.578.531.972.524.504.054.918.414 1.043.906Zm0 0"/>
        </g>
        <g id="C" clip-path="url(#i)">
            <path style="stroke:none;fill-rule:nonzero;fill:#020203;fill-opacity:1"
                  d="M26.39 45.16c.801-.062 1.594-.215 2.364-.453-.219.04-.442.063-.66.07-1.532.141-3.164 0-4.555.524.938-.07 1.91-.07 2.852-.14ZM25.035 58.926a4.207 4.207 0 0 0-.836 1.219 6.547 6.547 0 0 1-3.3 2.894c.105.004.21-.008.312-.035a6.478 6.478 0 0 0 4.727-3.242c.203-.453.488-.867.832-1.219l.07-.035c-.695-.035-1.32 0-1.805.418ZM41.61 42.863a4.38 4.38 0 0 0-2.4-1.289 6.187 6.187 0 0 0-3.648.176l-.07.035a7.748 7.748 0 0 1 2.016.172c.914.172 1.75.625 2.398 1.29.59.698.871 1.741.418 2.577-.418.77-1.215.524-1.668 1.047-.418.453-.383 1.082-.695 1.637a4.674 4.674 0 0 1-2.434 2.336c.383-.106.801-.14 1.149-.207a4.59 4.59 0 0 0 2.988-2.512c.277-.559.242-1.184.695-1.637.45-.453 1.286-.277 1.668-1.047a2.3 2.3 0 0 0-.418-2.578ZM35.008 50.98c-.73.172-1.598.172-2.121.696-.66.664-.52 1.742-.59 2.683a4.689 4.689 0 0 1-2.781 3.766h.105A4.69 4.69 0 0 0 34 53.977c.07-.942-.07-2.02.59-2.684.152-.148.328-.266.523-.348Zm0 0"/>
        </g>
        <g id="q" clip-path="url(#c)">
            <path style="stroke:none;fill-rule:nonzero;fill:#020203;fill-opacity:1"
                  d="M125.078 97.852c0 .316-.035.632-.101.941 0 .07-.036.105-.036.172h-.105a7.682 7.682 0 0 1-.902-.102 5.13 5.13 0 0 1-.801.172c-.207.035-.418.035-.625.07h-.207a4.555 4.555 0 0 1-.73-.035 7.234 7.234 0 0 1-1.184-.277c-.203.074-.41.133-.625.172 0-.035-.035-.067-.035-.102a4.482 4.482 0 0 1-.102-.941c0-1.988 1.215-3.555 2.707-3.555 1.496 0 2.746 1.531 2.746 3.485Zm0 0"/>
        </g>
        <filter id="a" filterUnits="objectBoundingBox" x="0%" y="0%" width="100%" height="100%">
            <feColorMatrix in="SourceGraphic" values="0 0 0 0 1 0 0 0 0 1 0 0 0 0 1 0 0 0 1 0"/>
        </filter>
    </defs>
    <use xlink:href="#o" mask="url(#p)"/>
    <path style="stroke:none;fill-rule:nonzero;fill:#403e56;fill-opacity:1"
          d="M125.078 97.852c0 .316-.035.632-.101.941 0 .07-.036.105-.036.172-.347 1.394-1.32 2.406-2.468 2.441h-.098c-1.215 0-2.258-1.047-2.605-2.508 0-.035-.036-.07-.036-.105a4.241 4.241 0 0 1-.105-.941c0-1.989 1.219-3.555 2.71-3.555 1.497 0 2.74 1.601 2.74 3.555Zm0 0"/>
    <use xlink:href="#q" mask="url(#r)"/>
    <path style="stroke:none;fill-rule:nonzero;fill:#e7246f;fill-opacity:1"
          d="M130.883 91.195a5.81 5.81 0 0 0-.59-2.507l-3.2 1.007 2.817-1.636a5.397 5.397 0 0 0-4.137-2.371 6.623 6.623 0 0 0-.418-.555l-4.585 1.426 3.753-2.23a5.555 5.555 0 0 0-7.75 1.01 4.917 4.917 0 0 0-.937 1.919l3.926 4.531-4.274-3.102a5.556 5.556 0 0 0-1.754 7.032 5.52 5.52 0 0 0 6.688 2.758 5.596 5.596 0 0 0 3.547.105 5.504 5.504 0 0 0 4.172-.734 5.54 5.54 0 0 0 2.43-3.48c.077-.391.124-.79.136-1.188v-.348c.113-.539.172-1.086.176-1.637Zm0 0"/>
    <use xlink:href="#s" mask="url(#t)"/>
    <path style="stroke:none;fill-rule:nonzero;fill:#403e56;fill-opacity:1"
          d="M91.895 34.707h.695a.298.298 0 0 1 .277.277v9.758a.298.298 0 0 1-.277.278h-.695a.299.299 0 0 1-.282-.278v-9.758c0-.074.032-.144.082-.199a.268.268 0 0 1 .2-.078ZM50.402 26.621h.348a.162.162 0 0 1 .172.176v3.031a.15.15 0 0 1-.047.125.15.15 0 0 1-.125.047h-.348a.162.162 0 0 1-.175-.172v-3.031a.17.17 0 0 1 .046-.129.176.176 0 0 1 .13-.047ZM50.402 32.824h.387a.226.226 0 0 1 .211.207v5.508a.223.223 0 0 1-.21.207h-.38a.223.223 0 0 1-.21-.207v-5.508a.225.225 0 0 1 .202-.207ZM50.402 40.805h.348c.11.008.2.097.207.207v5.578a.226.226 0 0 1-.207.207h-.348a.23.23 0 0 1-.21-.207v-5.578c.035-.137.105-.207.21-.207Zm0 0"/>
    <path style="stroke:none;fill-rule:nonzero;fill:#403e56;fill-opacity:1"
          d="M54.918 15.434h33.055a4.314 4.314 0 0 1 4.308 4.32v76.32c0 2.387-1.93 4.32-4.308 4.32H54.926a4.314 4.314 0 0 1-4.309-4.32v-76.32a4.315 4.315 0 0 1 4.301-4.32Zm0 0"/>
    <path style="stroke:none;fill-rule:nonzero;fill:#e7e9ec;fill-opacity:1"
          d="M67.742 17.945h5.211a.31.31 0 0 1 .313.313v.558c0 .176-.141.317-.313.317h-5.21a.314.314 0 0 1-.313-.317v-.554c0-.086.03-.164.09-.227a.31.31 0 0 1 .222-.09ZM75.457 18.535a.66.66 0 1 1-1.32 0 .66.66 0 1 1 1.32 0Zm0 0"/>
    <path style="stroke:none;fill-rule:nonzero;fill:#fff;fill-opacity:1"
          d="M89.738 20.941v73.88a3.303 3.303 0 0 1-3.3 3.308H56.516c-1.82 0-3.301-1.48-3.301-3.309V20.941a3.31 3.31 0 0 1 3.3-3.312H61v.594a2.722 2.722 0 0 0 2.71 2.718h15.227a2.72 2.72 0 0 0 2.711-2.718v-.559h4.762a3.278 3.278 0 0 1 3.328 3.277Zm0 0"/>
    <use xlink:href="#u" mask="url(#v)"/>
    <use xlink:href="#w" mask="url(#x)"/>
    <path style="stroke:none;fill-rule:nonzero;fill:#746f9e;fill-opacity:1"
          d="M58.36 71.992H84.7c.804.008 1.452.66 1.46 1.465v6.309a1.471 1.471 0 0 1-1.46 1.46H58.36a1.471 1.471 0 0 1-1.462-1.46v-6.344c.004-.383.16-.75.434-1.02a1.457 1.457 0 0 1 1.027-.41Zm0 0"/>
    <path style="stroke:none;fill-rule:nonzero;fill:#e7246f;fill-opacity:1"
          d="m24.41 96.668 2.328-1.36a5.792 5.792 0 0 0-1.183-1.43l-4.38 1.36 3.407-2.023a5.563 5.563 0 0 0-8.234 4.879c0 3.066 2.5 3.172 5.558 3.172 3.059 0 5.559-.106 5.559-3.172a5.811 5.811 0 0 0-.485-2.266Zm0 0"/>
    <use xlink:href="#y" mask="url(#z)"/>
    <path style="stroke:none;fill-rule:nonzero;fill:#403e56;fill-opacity:1"
          d="M35.773 84.398a1.2 1.2 0 0 0-.382.559c-.211.664.382 1.29.414 1.953.035.52-.242 1.043-.414 1.567a3.307 3.307 0 0 0 1.144 3.554c.11.102.238.176.383.211.242.04.484-.039.66-.21.274-.208.488-.485.625-.802.094-.32.152-.644.176-.976l.07-1.29c.102-1.359.172-2.753-.176-4.077-.105-.453-.312-1.43-.8-1.496-.485-.07-1.352.66-1.7 1.007Zm0 0"/>
    <path style="stroke:none;fill-rule:nonzero;fill:#f7bebe;fill-opacity:1"
          d="M44.215 78.824a46.365 46.365 0 0 0-1.32 6.48c0 .313-.098.618-.278.872-.383.488-1.113.453-1.738.383a.89.89 0 0 1-.414-.102 1.026 1.026 0 0 1-.317-.77c-.414-4.109-.691-8.257-.832-12.406 0-.172 5.145-.172 5.594.246.453.418.106 1.985 0 2.508-.16.945-.394 1.88-.695 2.79Zm0 0"/>
    <use xlink:href="#A" mask="url(#B)"/>
    <path style="stroke:none;fill-rule:nonzero;fill:#f7bebe;fill-opacity:1"
          d="m33.477 72.727 2.086 4.597c.695 1.535 1.39 3.067 1.738 4.742.133.688.215 1.387.242 2.09.047.606.023 1.211-.07 1.813-.067.453-.207.87-.278 1.324-.242 1.777.766 3.45 1.461 5.086a15.297 15.297 0 0 1 1.114 4.46c.066.665.101 1.36.484 1.884a5.234 5.234 0 0 1 2.05-.313c.141-1.047-.519-1.988-.765-3.035-.45-1.879.523-3.832.211-5.75-.176-1.043-.73-1.984-.695-3.031.07-1.914.449-3.832.07-5.68-.418-2.125-1.602-4.043-1.844-6.168-.207-1.637.106-3.45-.8-4.808a5.52 5.52 0 0 0-5.004 2.789Zm0 0"/>
    <path style="stroke:none;fill-rule:nonzero;fill:#403e56;fill-opacity:1"
          d="M40.324 101.684a.705.705 0 0 1-.59-.172.579.579 0 0 1-.105-.317 15.856 15.856 0 0 1-.14-2.195c-.032-.266.027-.54.175-.766.11-.132.238-.25.383-.347.312-.313.555-.735.973-.871.37-.11.773-.004 1.042.277.266.273.426.629.45 1.012.07.453 0 .941.246 1.324.105.148.219.285.347.418.348.488.696 1.43-.07 1.637-.765.21-1.879-.036-2.71 0ZM42.164 45.438c.418-.801.176-1.88-.414-2.579a4.407 4.407 0 0 0-2.398-1.289 6.187 6.187 0 0 0-3.649.176c-.937.348-1.703.977-2.574 1.461a11.68 11.68 0 0 1-4.934 1.57c-1.945.172-4.101-.105-5.593 1.149-2.747 2.265-.836 7.355-3.372 9.828-.695.664-1.597 1.012-2.398 1.57-.797.555-1.492 1.39-1.355 2.367.09.454.293.871.593 1.22a5.987 5.987 0 0 0 5.282 2.128 6.416 6.416 0 0 0 4.726-3.242c.203-.453.485-.867.832-1.219.766-.629 1.875-.383 2.883-.418a4.69 4.69 0 0 0 4.379-4.144c.07-.942-.067-2.024.594-2.684.554-.523 1.386-.523 2.117-.695a4.59 4.59 0 0 0 2.988-2.512c.277-.559.246-1.184.695-1.637.348-.527 1.188-.281 1.598-1.05Zm0 0"/>
    <use xlink:href="#C" mask="url(#D)"/>
    <path style="stroke:none;fill-rule:nonzero;fill:#f7bebe;fill-opacity:1"
          d="M42.2 56.453c-.102.176-.313.246-.485.352-1.98.73-4.067 1.496-6.188 1.183-.07-.312-.136-.664-.242-1.011-.105-.489-.207-.977-.347-1.43a5.219 5.219 0 0 1-.141-.695 3.95 3.95 0 0 1-.067-1.114c.004-.144.028-.285.067-.422.07-.234.176-.457.316-.66.032-.035.032-.07.067-.105.113-.145.258-.262.418-.348.347-.21.836-.277.972-.664a1.08 1.08 0 0 0 0-.59c-.105-.488-.347-.941-.484-1.43-.176-.593.102-.558.66-.73a7.235 7.235 0 0 1 3.23-.246 5.032 5.032 0 0 0 .036 1.605c.11.536.492.973 1.008 1.149.07.035.171.035.242.07.11.031.215.078.312.14a.447.447 0 0 1 .14.208c.063.117.099.25.102.383a63.63 63.63 0 0 1 .418 3.836v.03a.747.747 0 0 1-.035.49Zm0 0"/>
    <path style="stroke:none;fill-rule:nonzero;fill:#f7bebe;fill-opacity:1"
          d="M31.95 54.363a6.16 6.16 0 0 0-.731 2.336l-.867 5.086c-.106.7-.247 1.465.136 2.094.106.207.282.383.383.59.063.219.11.437.14.664.208 1.183 1.356 1.949 2.5 2.23.407.149.86.098 1.22-.14.32-.352.374-.875.136-1.29a2.907 2.907 0 0 0-.972-.976l-1.25-.941.73-5.575c.07-.418.242-.941.66-.87.414.07.66.593.973.417a.52.52 0 0 0 .207-.312c.11-.469.137-.953.07-1.43l-.14-1.742a7.185 7.185 0 0 1 .175-1.5c.07-.625-.312-.418-.836-.277-1.039.273-1.98.761-2.535 1.636ZM47.516 62.727c-.098.144-.23.261-.38.347-.98.567-2.136.73-3.234.453a5.573 5.573 0 0 0-.765-.172c-.414-.035-.832.036-1.25 0a3.578 3.578 0 0 1-2.188-1.218c-.347-.352-.66-.942-.347-1.36a.769.769 0 0 1 .73-.21c.254.062.496.156.727.277.808.39 1.68.629 2.574.699.59.07 1.355-.035 1.562-.629.075-.285.063-.59-.035-.871-.207-.8-.383-1.602-.59-2.367a.5.5 0 0 0-.07-.211l-.035-.035a.403.403 0 0 0-.278-.106 2.265 2.265 0 0 1-1.214-.625 2.808 2.808 0 0 1-.489-.8l-.101-.212a17.824 17.824 0 0 1-.696-1.777 8.173 8.173 0 0 1-.312-1.254c-.07-.383-.07-.558.102-.695.07-.035.105-.07.175-.106a2.43 2.43 0 0 1 .313-.14l.101-.035a5.466 5.466 0 0 1 1.008-.313c.867-.16 1.75.176 2.297.871.59.625.867 1.5 1.074 2.336.211.836.282 1.707.524 2.543.113.32.207.645.277.977.07.383.14.765.172 1.183.105 1.012.246 2.02.348 2.996.105.067.07.278 0 .454Zm0 0"/>
    <path style="stroke:none;fill-rule:nonzero;fill:#f7bebe;fill-opacity:1"
          d="M35.113 62.305C35.355 63.84 34.66 65.37 34 66.8c.387.258.824.437 1.285.523a25.373 25.373 0 0 0 9.313.696 2.964 2.964 0 0 0-.07-1.567 6.35 6.35 0 0 0-.52-.836 3.034 3.034 0 0 1-.176-1.57l.211-4.563c-1.496-.699-3.234-.035-4.902.036-.868.03-1.7-.07-2.57.101-.45.07-1.805.281-2.016.734-.137.454.488 1.461.558 1.95Zm0 0"/>
    <use xlink:href="#E" mask="url(#F)"/>
    <path style="stroke:none;fill-rule:nonzero;fill:#403e56;fill-opacity:1"
          d="M39.11 66.73c-1.637-.347-3.235-.906-4.868-.94a.64.64 0 0 0-.242.034.434.434 0 0 0-.14.281c-.172.59-.313 1.184-.45 1.778-.453 1.984-.66 4.215.313 6.027a1.84 1.84 0 0 1 .832-1.465 3.956 3.956 0 0 1 1.668-.523 3.266 3.266 0 0 1 1.738.21 2.438 2.438 0 0 1 1.39 1.919l5.7.172c.101.035.242-.035.242-.137v-.07a22.687 22.687 0 0 0-.035-5.543c-.07-.524-.07-1.22-.66-1.426-.696-.246-1.774.031-2.5 0a12.375 12.375 0 0 1-2.989-.317Zm0 0"/>
    <path style="stroke:none;fill-rule:nonzero;fill:#ed6e64;fill-opacity:1"
          d="m44.285 57.773-.035 2.547-5.77.207c-1.058 0-2.12.106-3.16.317-.297.058-.586.14-.87.242a10.545 10.545 0 0 1-.52-3.414 3.58 3.58 0 0 1 .175-.906c.172-.63.52-1.254.692-1.883.074-.25.11-.508.105-.766a5.133 5.133 0 0 0-.105-.77 1.982 1.982 0 0 1-.067-.624l.45-.141c0 .07.035.105.035.176.031.113.043.23.035.347.031.29.04.583.035.872 0 .593-.105 1.218.278 1.707.488.593 1.39.488 2.12.347l1.946-.383c.625-.101 1.285-.277 1.633-.836.133-.257.207-.542.207-.835v-.07a6.995 6.995 0 0 0-.172-1.915 4.32 4.32 0 0 0-.172-.594h.207c.11.032.215.079.313.141a.447.447 0 0 1 .14.207l.102-.035a17.48 17.48 0 0 0 2.086 4.984c.12.172.215.36.277.559.031.113.043.23.035.348Zm0 0"/>
    <path style="stroke:none;fill-rule:nonzero;fill:#f7bebe;fill-opacity:1"
          d="M41.68 46.555c0 1.941-1.57 3.52-3.512 3.52a3.515 3.515 0 0 1-3.508-3.52c0-1.946 1.57-3.52 3.508-3.52a3.513 3.513 0 0 1 3.512 3.52ZM31.95 54.363a6.16 6.16 0 0 0-.731 2.336l-.867 5.086c-.106.7-.247 1.465.136 2.094.106.207.282.383.383.59.063.219.11.437.14.664.208 1.183 1.356 1.949 2.5 2.23.407.149.86.098 1.22-.14.32-.352.374-.875.136-1.29a2.907 2.907 0 0 0-.972-.976l-1.25-.941.73-5.575c0-.351-.871-4.953-1.426-4.078ZM46.23 54.5c.176.836.278 1.707.524 2.543.113.32.203.645.277.977.07.382.137.765.172 1.183l.348 2.996a.973.973 0 0 1-.035.559c-.098.144-.23.262-.38.347-.984.551-2.136.711-3.234.454a5.573 5.573 0 0 0-.765-.172c-.414-.035-.832.035-1.25 0a3.578 3.578 0 0 1-2.188-1.219c-.347-.352-.66-.977-.347-1.36a.769.769 0 0 1 .73-.21c.254.062.496.156.727.277.808.39 1.68.629 2.574.7.59.07 1.355-.036 1.562-.63.075-.285.063-.59-.035-.87l-.59-2.368c0-.105 1.703-4.039 1.91-3.207Zm0 0"/>
    <path style="stroke:none;fill-rule:nonzero;fill:#403e56;fill-opacity:1"
          d="M36.016 47.633c-.141-.555-.383-1.254.07-1.637a.848.848 0 0 1 .555-.207c.972-.105 2.015.453 2.953.137.41-.133.754-.426.949-.809.195-.387.227-.836.094-1.246a1.693 1.693 0 0 0-.73-.906 3.65 3.65 0 0 0-1.391-.348c-1.25-.105-2.536-.21-3.72.242-1.179.453-2.151 1.672-1.91 2.895.16.578.446 1.113.837 1.566.277.348 1.422 2.055 1.875 2.024.625-.035.523-1.36.418-1.711Zm0 0"/>
    <use xlink:href="#G" mask="url(#H)"/>
    <path style="stroke:none;fill-rule:nonzero;fill:#403e56;fill-opacity:1" d="M51.93 86.629H91.3v12.234H51.93Zm0 0"/>
    <path style="stroke:none;fill-rule:nonzero;fill:#fff;fill-opacity:1" d="M69.93 90.605v4.32l3.37-2.16Zm0 0"/>
    <path style="stroke:none;fill-rule:nonzero;fill:#f2f2f2;fill-opacity:1"
          d="m39.734 17.977-1.879 1.187 1.149-2.09a1.928 1.928 0 0 0-1.149-.422h-.035a1.382 1.382 0 0 1-.379-.03l-.629.417.282-.488a2.44 2.44 0 0 1-1.114-.836l-1.148.73.73-1.324a3.304 3.304 0 0 0-2.535-1.289c-1.183 0-2.226.695-2.922 1.813a2.196 2.196 0 0 1-1.945 1.043h-.066c-1.324 0-2.364 1.5-2.364 3.312 0 1.813 1.04 3.309 2.364 3.309.289 0 .574-.075.832-.207a3.4 3.4 0 0 1 2.851-.07 2.96 2.96 0 0 0 2.43 0 3.4 3.4 0 0 1 2.852.07c.242.136.52.21.796.207 1.32 0 2.364-1.497 2.364-3.309a3.779 3.779 0 0 0-.485-2.023Zm0 0"/>
    <use xlink:href="#I" mask="url(#J)"/>
    <path style="stroke:none;fill-rule:nonzero;fill:#f2f2f2;fill-opacity:1"
          d="m103.883 45.02-.938.593.555-1.047a.856.856 0 0 0-.555-.207h-.21l-.313.207.14-.242a1.104 1.104 0 0 1-.558-.418l-.555.348.348-.66a1.644 1.644 0 0 0-1.285-.63 1.737 1.737 0 0 0-1.461.907c-.211.332-.578.531-.973.524h-.027c-.66 0-1.184.73-1.184 1.636 0 .907.524 1.637 1.184 1.637.144 0 .289-.035.418-.102a1.677 1.677 0 0 1 1.422-.035c.187.082.386.13.593.137.204.008.41-.04.59-.137.457-.199.977-.187 1.426.035.129.067.27.102.414.102.66 0 1.184-.73 1.184-1.637a1.756 1.756 0 0 0-.215-1.011Zm0 0"/>
    <use xlink:href="#K" mask="url(#L)"/>
    <path style="stroke:none;fill-rule:nonzero;fill:#f2f2f2;fill-opacity:1"
          d="m105.965 29.582 1.496.941-.902-1.671c.254-.207.574-.317.902-.313h.035c.106.004.211-.008.313-.035l.52.312-.208-.382a2.09 2.09 0 0 0 .902-.664l.907.593-.594-1.047a2.699 2.699 0 0 1 2.05-1.043 2.775 2.775 0 0 1 2.329 1.426c.32.54.906.86 1.531.84h.035c1.04 0 1.875 1.184 1.875 2.648 0 1.461-.836 2.649-1.875 2.649a1.435 1.435 0 0 1-.66-.176 2.66 2.66 0 0 0-2.297-.035 2.378 2.378 0 0 1-1.945 0 2.684 2.684 0 0 0-2.258.035c-.203.11-.43.172-.66.176-1.043 0-1.875-1.188-1.875-2.648a2.917 2.917 0 0 1 .379-1.606Zm0 0"/>
    <use xlink:href="#M" mask="url(#N)"/>
</svg>