<?xml version="1.0" encoding="UTF-8"?><svg id="Calque_2" xmlns="http://www.w3.org/2000/svg" viewBox="0 0 222.65 24.16"><defs><style>.cls-1{fill:#5e666b;}.cls-2{fill:#4285f4;}.cls-3{fill:#fbbc05;}.cls-4{fill:#afafaf;}.cls-5{fill:#34a853;}.cls-6{fill:#ea4335;}.cls-7{fill:#f5b304;}</style></defs><g id="Calque_1-2"><path class="cls-6" d="m180.66,12.72c0,3.48-2.72,6.04-6.06,6.04s-6.06-2.56-6.06-6.04,2.72-6.04,6.06-6.04,6.06,2.54,6.06,6.04Zm-2.65,0c0-2.17-1.58-3.66-3.41-3.66s-3.41,1.49-3.41,3.66,1.58,3.66,3.41,3.66,3.41-1.51,3.41-3.66Z"/><path class="cls-3" d="m193.72,12.72c0,3.48-2.72,6.04-6.06,6.04s-6.06-2.56-6.06-6.04,2.72-6.04,6.06-6.04,6.06,2.54,6.06,6.04Zm-2.65,0c0-2.17-1.58-3.66-3.41-3.66s-3.41,1.49-3.41,3.66,1.58,3.66,3.41,3.66,3.41-1.51,3.41-3.66Z"/><path class="cls-2" d="m206.25,7.04v10.84c0,4.46-2.63,6.28-5.74,6.28-2.93,0-4.69-1.96-5.35-3.56l2.31-.96c.41.98,1.42,2.14,3.04,2.14,1.99,0,3.22-1.23,3.22-3.54v-.87h-.09c-.59.73-1.74,1.37-3.18,1.37-3.02,0-5.79-2.63-5.79-6.01s2.77-6.06,5.79-6.06c1.44,0,2.58.64,3.18,1.35h.09v-.98h2.52Zm-2.33,5.7c0-2.13-1.42-3.68-3.22-3.68s-3.36,1.55-3.36,3.68,1.53,3.64,3.36,3.64,3.22-1.53,3.22-3.64Z"/><path class="cls-5" d="m210.4.69v17.7h-2.59V.69h2.59Z"/><path class="cls-6" d="m220.48,14.7l2.06,1.37c-.66.98-2.27,2.68-5.03,2.68-3.43,0-5.99-2.65-5.99-6.04,0-3.59,2.58-6.04,5.7-6.04s4.67,2.49,5.17,3.84l.27.69-8.07,3.34c.62,1.21,1.58,1.83,2.93,1.83s2.29-.66,2.97-1.67h0Zm-6.34-2.17l5.4-2.24c-.3-.75-1.19-1.28-2.24-1.28-1.35,0-3.22,1.19-3.16,3.52Z"/><path class="cls-2" d="m158.75,11.15v-2.56h8.63c.08.45.13.97.13,1.55,0,1.92-.53,4.3-2.22,5.99-1.65,1.72-3.75,2.63-6.54,2.63-5.17,0-9.51-4.21-9.51-9.38s4.35-9.38,9.51-9.38c2.86,0,4.89,1.12,6.43,2.58l-1.81,1.81c-1.1-1.03-2.58-1.83-4.62-1.83-3.77,0-6.72,3.04-6.72,6.81s2.95,6.81,6.72,6.81c2.45,0,3.84-.98,4.73-1.88.72-.72,1.2-1.76,1.39-3.17h-6.12Z"/><polygon class="cls-7" points="48.42 4.56 50.73 9.24 55.88 9.98 52.15 13.62 53.03 18.76 48.42 16.33 43.81 18.76 44.69 13.62 40.96 9.98 46.12 9.24 48.42 4.56"/><polygon class="cls-7" points="66.3 4.56 68.6 9.24 73.76 9.98 70.03 13.62 70.91 18.76 66.3 16.33 61.69 18.76 62.57 13.62 58.84 9.98 63.99 9.24 66.3 4.56"/><polygon class="cls-7" points="83.66 4.56 85.96 9.24 91.12 9.98 87.39 13.62 88.27 18.76 83.66 16.33 79.05 18.76 79.93 13.62 76.2 9.98 81.35 9.24 83.66 4.56"/><polygon class="cls-7" points="102.04 4.56 104.35 9.24 109.5 9.98 105.77 13.62 106.65 18.76 102.04 16.33 97.43 18.76 98.31 13.62 94.58 9.98 99.74 9.24 102.04 4.56"/><polygon class="cls-4" points="120.42 4.56 122.73 9.24 127.88 9.98 124.15 13.62 125.03 18.76 120.42 16.33 115.81 18.76 116.69 13.62 112.96 9.98 118.12 9.24 120.42 4.56"/><path class="cls-1" d="m7,18.39v-3.88H0v-1.82L7.36,2.19h1.62v10.5h2.18v1.82h-2.18v3.88h-1.98Zm0-5.7v-7.3L1.95,12.68h5.05Z"/><path class="cls-1" d="m14.25,18.39v-2.27h2.26v2.27c0,.83-.15,1.5-.44,2.02-.29.51-.76.91-1.4,1.19l-.55-.85c.42-.18.73-.46.92-.81.2-.36.31-.87.33-1.54h-1.12Z"/><path class="cls-1" d="m29.85,16.47v1.91h-10.66c-.01-.48.06-.94.23-1.38.27-.73.71-1.45,1.3-2.16.6-.71,1.46-1.52,2.59-2.45,1.75-1.44,2.94-2.59,3.55-3.43.62-.84.92-1.64.92-2.39,0-.79-.28-1.45-.84-2-.56-.54-1.29-.81-2.19-.81-.95,0-1.72.29-2.29.86-.57.58-.86,1.37-.87,2.39l-2.04-.21c.14-1.52.66-2.69,1.57-3.49.91-.8,2.13-1.2,3.66-1.2s2.77.43,3.67,1.29c.9.86,1.35,1.93,1.35,3.21,0,.65-.13,1.29-.4,1.91-.26.63-.7,1.29-1.31,1.98s-1.63,1.64-3.05,2.85c-1.19,1-1.95,1.68-2.29,2.04-.34.36-.62.72-.84,1.08h7.91Z"/></g></svg>