<svg xmlns="http://www.w3.org/2000/svg" width="60" height="60"><path d="M26.133 22.254a.97.97 0 1 1-1.942 0 .97.97 0 0 1 .97-.961c.538 0 .972.434.972.96ZM35.809 22.254a.972.972 0 1 1-1.942 0c0-.527.434-.961.973-.961a.97.97 0 0 1 .969.96Zm0 0" style="stroke:none;fill-rule:nonzero;fill:#df0957;fill-opacity:1"/><path d="M30 0h-.047C13.43.023 0 13.477 0 30c0 16.543 13.453 30 30 30s30-13.457 30-30S46.547 0 30 0Zm17.418 51.98a27.996 27.996 0 0 1-11.523 5.454l2.917-5.098-1.832-4.59 3.73-2.805-.866-6.105 3.75.809c2.215.468 3.824 2.46 3.824 4.726ZM16.406 39.645l3.75-.81-.87 6.106 3.73 2.805-1.828 4.59 2.917 5.098a27.898 27.898 0 0 1-11.523-5.454v-7.613a4.854 4.854 0 0 1 3.824-4.722Zm6.926 12.539 2.031-5.094-4-3.004.809-5.684 2.203-.468 3.492 20.039c-.441-.032-.87-.07-1.3-.13ZM38.707 25.16c0 1.02-.18 1.992-.504 2.906h-5.48A2.892 2.892 0 0 0 30 26.133a2.91 2.91 0 0 0-2.906 2.902A2.91 2.91 0 0 0 30 31.934c1.262 0 2.32-.809 2.723-1.934h4.515A8.71 8.71 0 0 1 30 33.867c-4.805 0-8.707-3.902-8.707-8.707v-4.84a5.62 5.62 0 0 0 5.062-3.129l.375-.738h7.137a4.841 4.841 0 0 1 4.84 4.84Zm-7.742 3.875a.964.964 0 1 1-1.93 0 .965.965 0 1 1 1.93 0Zm4.844 6.953v-1.914A10.719 10.719 0 0 0 39.469 30h2.144c.34 0 .664-.07.969-.176v7.617Zm-9.676-.922c1.195.47 2.504.743 3.867.743s2.672-.274 3.867-.743v1.52c-.207.465-1.148 2.121-3.867 2.121-2.695 0-3.652-1.648-3.867-2.121Zm9.488 2.868 2.207.468.809 5.684-4.008 3.004 2.039 5.094-3.234 5.66c-.434.058-.868.093-1.301.129Zm6.961-10.84c0 .539-.437.972-.969.972H40.23c.266-.925.415-1.898.415-2.906v-3.867a6.78 6.78 0 0 0-6.778-6.773h-8.332l-.906 1.804a3.71 3.71 0 0 1-3.336 2.063 1.939 1.939 0 0 0-1.938 1.933v4.84c0 3.727 1.926 7.008 4.836 8.914v1.914l-6.82 1.465v-22.91c0-6.95 5.645-12.598 12.582-12.61h.035c6.946.008 12.594 5.66 12.594 12.61ZM1.934 30c0-12.105 7.703-22.441 18.468-26.371-3.035 2.664-4.968 6.566-4.968 10.914v23.379c-2.801.867-4.79 3.473-4.79 6.45v5.925C5.286 45.176 1.935 37.973 1.935 30Zm27.914 28.059-3.172-18.211c.828.465 1.918.797 3.324.797s2.496-.333 3.324-.797l-3.172 18.21c-.047 0-.101.008-.152.008-.05 0-.105-.007-.152-.007Zm19.507-7.762V44.37c0-2.992-2.011-5.617-4.835-6.46V14.542c0-4.367-1.946-8.273-4.993-10.938C50.324 7.512 58.067 17.871 58.067 30c0 7.973-3.352 15.176-8.712 20.297Zm0 0" style="stroke:none;fill-rule:nonzero;fill:#df0957;fill-opacity:1"/></svg>