<svg xmlns="http://www.w3.org/2000/svg" xmlns:xlink="http://www.w3.org/1999/xlink" width="140" height="99"><defs><clipPath id="f"><path d="M0 0h140v99H0z"/></clipPath><clipPath id="j"><path d="M0 0h140v99H0z"/></clipPath><clipPath id="i"><path d="M0 0h140v99H0z"/></clipPath><clipPath id="c"><path d="M0 0h140v99H0z"/></clipPath><clipPath id="h"><path d="M0 0h140v99H0z"/></clipPath><clipPath id="d"><path d="M0 0h140v99H0z"/></clipPath><clipPath id="g"><path d="M0 0h140v99H0z"/></clipPath><clipPath id="e"><path d="M0 0h140v99H0z"/></clipPath><clipPath id="b"><path d="M0 0h140v99H0z"/></clipPath><mask id="t"><g filter="url(#a)"><path d="M0 0h140v99H0z" style="fill:#000;fill-opacity:.2;stroke:none"/></g></mask><mask id="v"><g filter="url(#a)"><path d="M0 0h140v99H0z" style="fill:#000;fill-opacity:.2;stroke:none"/></g></mask><mask id="r"><g filter="url(#a)"><path d="M0 0h140v99H0z" style="fill:#000;fill-opacity:.101961;stroke:none"/></g></mask><mask id="x"><g filter="url(#a)"><path d="M0 0h140v99H0z" style="fill:#000;fill-opacity:.101961;stroke:none"/></g></mask><mask id="p"><g filter="url(#a)"><path d="M0 0h140v99H0z" style="fill:#000;fill-opacity:.101961;stroke:none"/></g></mask><mask id="z"><g filter="url(#a)"><path d="M0 0h140v99H0z" style="fill:#000;fill-opacity:.4;stroke:none"/></g></mask><mask id="n"><g filter="url(#a)"><path d="M0 0h140v99H0z" style="fill:#000;fill-opacity:.101961;stroke:none"/></g></mask><mask id="B"><g filter="url(#a)"><path d="M0 0h140v99H0z" style="fill:#000;fill-opacity:.101961;stroke:none"/></g></mask><mask id="l"><g filter="url(#a)"><path d="M0 0h140v99H0z" style="fill:#000;fill-opacity:.101961;stroke:none"/></g></mask><g id="u" clip-path="url(#g)"><path d="m87.281 43.504 2.328-.367.938-.04.613.817-3.062 1.098 1.797 1.222-8 8.961Zm0 0" style="stroke:none;fill-rule:nonzero;fill:#424242;fill-opacity:1"/></g><g id="q" clip-path="url(#e)"><path d="M97.36 46.273s1.796-2.441 2.695-.203c.898 2.242.734 10.996.734 10.996s1.508 4.36 1.02 7.25c-.489 2.891.488 3.258.488 3.258s.246 1.262-.488 1.875c-.735.61-1.266 3.38-1.02 3.746.242.368-.367 2.73-.86 2.73a14.804 14.804 0 0 1-1.55-.163s-2.57-4.684-7.953-5.051c0 0 .855-1.262.367-3.746-.492-2.485 6.566-20.692 6.566-20.692Zm0 0" style="stroke:none;fill-rule:nonzero;fill:#020203;fill-opacity:1"/></g><g id="k" clip-path="url(#b)"><path d="M79.16 34.953s-2.492 7.371-3.754 7.86c-1.265.488 7.508 9.488 7.508 9.488l6.363-3.133.246-5.988-2.488-.121s-.367-2.485.856-3.75c1.222-1.262-8.73-4.356-8.73-4.356Zm0 0" style="stroke:none;fill-rule:nonzero;fill:#020203;fill-opacity:1"/></g><g id="w" clip-path="url(#h)"><path d="M69.98 47.781c-1.058-.164-2.078.774-2.609 1.996a11.736 11.736 0 0 0-.734 4.196 14.988 14.988 0 0 0 .324 4.277c.695 2.809 2.492 4.805 3.55 7.41.821 2.055 1.141 4.274.938 6.477" style="stroke:none;fill-rule:nonzero;fill:#020203;fill-opacity:1"/></g><g id="o" clip-path="url(#d)"><path d="M117.926 70.02v5.253l12.73 3.91-.652-5.417Zm0 0" style="stroke:none;fill-rule:nonzero;fill:#020203;fill-opacity:1"/></g><g id="s" clip-path="url(#f)"><path d="m75.98 41.145-3.468 2.199-.614 1.015 4 1.184-1.753 1.914 7.996 7.371Zm0 0" style="stroke:none;fill-rule:nonzero;fill:#424242;fill-opacity:1"/></g><g id="y" clip-path="url(#i)"><path d="M81.16 34.543c0-1.594-1.02-2.89-2.285-2.89-1.262 0-2.285 1.296-2.285 2.89 0 1.598 1.023 2.895 2.285 2.895 1.266 0 2.285-1.297 2.285-2.895Zm0 0" style="stroke:none;fill-rule:nonzero;fill:#971f51;fill-opacity:1"/></g><g id="m" clip-path="url(#c)"><path d="M131.105 81.422v1.508a3.668 3.668 0 0 1-3.632 3.664L11.593 88.02A2.095 2.095 0 0 1 9.47 85.94V85.7Zm0 0" style="stroke:none;fill-rule:nonzero;fill:#020203;fill-opacity:1"/></g><g id="A" clip-path="url(#j)"><path d="M69.371 76.7v1.503L55.13 81.422l-1.43-.285-.203-1.586Zm0 0" style="stroke:none;fill-rule:nonzero;fill:#020203;fill-opacity:1"/></g><filter id="a" width="100%" height="100%" x="0%" y="0%" filterUnits="objectBoundingBox"><feColorMatrix in="SourceGraphic" values="0 0 0 0 1 0 0 0 0 1 0 0 0 0 1 0 0 0 1 0"/></filter></defs><path d="M112.375 62.934a2.698 2.698 0 0 0 2.586-1.707 2.69 2.69 0 0 0-.727-3.008 2.7 2.7 0 0 0-3.082-.336l.489 1.3-.977-.933a2.53 2.53 0 0 0-.86 1.871c-.011.246.016.496.083.734a2.617 2.617 0 0 0 2.488 2.079Zm0 0" style="stroke:none;fill-rule:nonzero;fill:#58b994;fill-opacity:1"/><path d="M294.812 190c-1.397-2.6.201-5.804 2.001-8.096 1.8-2.302 4.098-4.7 3.992-7.701-.096-4.307-4.595-6.8-8.195-9.007a46.18 46.18 0 0 1-7.4-5.898 12.754 12.754 0 0 1-2.297-3.002 13.957 13.957 0 0 1-.7-5.4c.202-6.1.499-12.094.9-18.194M275.407 153.562a6.612 6.612 0 0 0 6.338-4.191 6.612 6.612 0 0 0-1.781-7.385 6.625 6.625 0 0 0-7.553-.825l1.196 3.203-2.393-2.301a6.217 6.217 0 0 0-2.106 4.594 5.707 5.707 0 0 0 .2 1.803 6.417 6.417 0 0 0 6.099 5.102Zm0 0" style="fill:none;stroke-width:.3068;stroke-linecap:butt;stroke-linejoin:miter;stroke:#403e56;stroke-opacity:1;stroke-miterlimit:10" transform="matrix(.40803 0 0 .40728 0 .024)"/><path d="M112.785 54.418a2.686 2.686 0 0 1 1.344-2.2l.613 1.184v-1.468a2.7 2.7 0 0 1 3.344 1.836 2.694 2.694 0 0 1-1.836 3.335 2.698 2.698 0 0 1-3.344-1.832c-.12-.265-.16-.562-.12-.855Zm0 0" style="stroke:none;fill-rule:nonzero;fill:#58b994;fill-opacity:1"/><path d="M276.412 132.26a6.596 6.596 0 0 1 3.293-5.4l1.504 2.897v-3.597a6.619 6.619 0 0 1 8.194 4.499c1.015 3.5-.995 7.174-4.5 8.19a6.606 6.606 0 0 1-8.194-4.488 3.608 3.608 0 0 1-.297-2.1Zm0 0" style="fill:none;stroke-width:.3068;stroke-linecap:butt;stroke-linejoin:miter;stroke:#403e56;stroke-opacity:1;stroke-miterlimit:10" transform="matrix(.40803 0 0 .40728 0 .024)"/><path d="M118.945 67.453c.715.04 1.418-.21 1.95-.691.527-.485.84-1.16.867-1.875a2.734 2.734 0 0 0-1.961-2.73v1.1l-.61-1.222a2.685 2.685 0 0 0-1.949.692 2.656 2.656 0 0 0-.867 1.875 2.781 2.781 0 0 0 2.57 2.851Zm0 0" style="stroke:none;fill-rule:nonzero;fill:#58b994;fill-opacity:1"/><path d="M291.51 164.256a6.507 6.507 0 0 0 4.777-1.697 6.563 6.563 0 0 0 2.125-4.594 6.705 6.705 0 0 0-4.806-6.705v2.744l-1.493-3.002a6.66 6.66 0 0 0-.604 13.302Zm0 0" style="fill:none;stroke-width:.3068;stroke-linecap:butt;stroke-linejoin:miter;stroke:#403e56;stroke-opacity:1;stroke-miterlimit:10" transform="matrix(.40803 0 0 .40728 0 .024)"/><path d="M117.598 72.543a2.709 2.709 0 0 0 3.117 1.39 2.698 2.698 0 0 0-.3-5.277 2.702 2.702 0 0 0-2.938 1.73l1.671 1.384-1.875-.45c.02.426.133.844.325 1.223Zm0 0" style="stroke:none;fill-rule:nonzero;fill:#58b994;fill-opacity:1"/><path d="M288.207 177.157a6.635 6.635 0 0 0 7.64 3.414 6.637 6.637 0 0 0 4.9-6.78 6.62 6.62 0 0 0-5.638-6.178 6.622 6.622 0 0 0-7.2 4.25l4.098 3.395-4.595-1.094a7.938 7.938 0 0 0 .795 2.993Zm0 0" style="fill:none;stroke-width:.3068;stroke-linecap:butt;stroke-linejoin:miter;stroke:#403e56;stroke-opacity:1;stroke-miterlimit:10" transform="matrix(.40803 0 0 .40728 0 .024)"/><path d="M96.953 31.164a5.844 5.844 0 0 1-.488 3.871 12.936 12.936 0 0 1-2.285 3.215c-.45.488-.942 1.02-1.024 1.672-.12.894.45 1.668.86 2.484.363.692.57 1.457.609 2.239a2.52 2.52 0 0 1-.488 1.875c-.45.445-1.14.57-1.793.652-1.77.16-3.547.121-5.305-.125.488-.649.324-1.059.242-1.871-.082-1.59-1.265-3.055-1.469-4.645-.164-1.261.653-2.402 1.47-3.422l3.632-4.601a15.483 15.483 0 0 0 1.633-2.403c.324-.609.367-1.793 1.14-1.996 1.47-.39 2.981 1.957 3.266 3.055Zm0 0" style="stroke:none;fill-rule:nonzero;fill:#49475a;fill-opacity:1"/><path d="M79.16 34.953s-2.492 7.371-3.754 7.86c-1.265.488 7.508 9.488 7.508 9.488l6.363-3.133.246-5.988-2.488-.121s-.367-2.485.856-3.75c1.222-1.262-8.73-4.356-8.73-4.356Zm0 0" style="stroke:none;fill-rule:nonzero;fill:#f7bebe;fill-opacity:1"/><use xlink:href="#k" mask="url(#l)"/><path d="M82.016 47.457s-5.387-3.625-5.633-6.64c0 0-3.996 2.605-5.262 2.484-1.266-.121-4.652.613-4.652 1.14 0 .532 3.14 14.621 3.14 14.621s-2.242 5.989-1.14 7.86c1.101 1.875 1.754 10.633 1.754 10.633h26.03s-3.507-6.11-1.632-10.508c1.879-4.399 2.613-22.727 2.613-22.727s-1.386-1.02-2.734-.734c-1.348.285-3.02-.734-4-.856-.977-.12-3.262.368-3.262.368Zm0 0" style="stroke:none;fill-rule:nonzero;fill:#e7246f;fill-opacity:1"/><path d="M81.895 54.785s-5.262-10.953-5.508-13.969c0 0-3.996 2.606-5.262 2.485-1.266-.121-4.652.613-4.652 1.14 0 .532 3.14 14.621 3.14 14.621s-2.242 5.989-1.14 7.86c1.101 1.875 1.754 10.633 1.754 10.633h26.03s-3.507-6.11-1.632-10.508c1.879-4.399 2.613-22.727 2.613-22.727s-1.386-1.02-2.734-.734c-1.348.285-3.02-.734-4-.856-.977-.12-3.262.368-3.262.368Zm0 0" style="stroke:none;fill-rule:nonzero;fill:#fff;fill-opacity:1"/><path d="M131.105 77.43v5.5a3.668 3.668 0 0 1-3.632 3.664L11.593 88.02A2.095 2.095 0 0 1 9.47 85.94v-6.09a2.044 2.044 0 0 1 2.043-2.078l116.246-3.585a3.309 3.309 0 0 1 3.387 3.18c-.04-.02-.04.038-.04.062Zm0 0" style="stroke:none;fill-rule:nonzero;fill:#49475a;fill-opacity:1"/><use xlink:href="#m" mask="url(#n)"/><path d="M108.297 77.555 93.648 75.68l-26.074.937 9.465 2.934Zm0 0" style="stroke:none;fill-rule:nonzero;fill:#f2f2f2;fill-opacity:1"/><path d="m110.988 75.719 12.121 4.808 7.547-1.343-.652-5.418-.125-.774-12.688-3.949-.898.934Zm0 0" style="stroke:none;fill-rule:nonzero;fill:#e7246f;fill-opacity:1"/><use xlink:href="#o" mask="url(#p)"/><path d="m106.254 76.82.86.325 10.198 3.789.778.285h.16l.941-.61 9.75-6.52.938-.609c.082-.039.082-.164.043-.246l-.082-.078-1.469-.449-10.324-3.137-.899-.285a.29.29 0 0 0-.16.043l-.695.488-9.18 6.188-.898.613c-.082.04-.082.164-.04.242 0-.039.04-.039.079-.039Zm0 0" style="stroke:none;fill-rule:nonzero;fill:#7b7a9c;fill-opacity:1"/><path d="m127.305 74.012-9.137 6.187a.36.36 0 0 1-.29.043l-9.667-3.543a.36.36 0 0 1-.195-.183.33.33 0 0 1-.008-.266.498.498 0 0 1 .12-.164l8.813-5.742a.367.367 0 0 1 .286-.04l9.996 3.094a.309.309 0 0 1 .207.407.231.231 0 0 1-.125.207Zm0 0" style="stroke:none;fill-rule:nonzero;fill:#f2f2f2;fill-opacity:1"/><path d="M128.332 72.707v1.383h.606l.937-.61c.082-.039.082-.164.043-.246l-.082-.078ZM117.313 80.484v.45l.777.285h.16l.941-.61v-.082ZM116.29 69.773h1.753v-.203l-.898-.285a.29.29 0 0 0-.16.043Zm0 0" style="stroke:none;fill-rule:nonzero;fill:#e7246f;fill-opacity:1"/><path d="M112.582 72.707a.123.123 0 0 1-.125.121.122.122 0 0 1-.121-.121c0-.066.055-.121.121-.121.07 0 .125.055.125.121Zm0 0" style="stroke:none;fill-rule:nonzero;fill:#f2f2f2;fill-opacity:1"/><path d="m106.254 76.82.86.325v-1.22l-.9.61c-.081.04-.081.164-.038.246.039.078.039.04.078.04Zm0 0" style="stroke:none;fill-rule:nonzero;fill:#e7246f;fill-opacity:1"/><path d="M94.016 33.2c0 4.476-3.637 8.105-8.121 8.105-4.485 0-8.122-3.63-8.122-8.106 0-4.472 3.637-8.101 8.122-8.101 4.484 0 8.12 3.629 8.12 8.101ZM62.27 69.938s-7.262 3.136-9.016 2.238c-1.758-.895-7.02-3.133-8.652 1.508-1.305 3.746 6.367 3.949 9.343 3.91a2.683 2.683 0 0 0 1.918-.895l10.446-3.543c0-.043-2.325-3.953-4.04-3.219Zm0 0" style="stroke:none;fill-rule:nonzero;fill:#f7bebe;fill-opacity:1"/><path d="m82.793 64.195.86.73-8.122 11.528s-1.265.121-.855-.488Zm0 0" style="stroke:none;fill-rule:nonzero;fill:#49475a;fill-opacity:1"/><path d="m83.285 64.969.856-1.14-.368-.247-.855.98Zm0 0" style="stroke:none;fill-rule:nonzero;fill:#49475a;fill-opacity:1"/><path d="M68.188 43.629s-4.247.73-4.122 3.988c.121 3.258-.941 6.926-1.96 8.676-1.02 1.75-.243 3.137 0 5.5.246 2.36-1.266 4.887-.489 6.11.774 1.218-8.12 2.117-8.12 3.378 0 1.262 5.632 3.625 4.651 5.254-.734 1.18 4.368-.816 7.262-1.996a5.051 5.051 0 0 0 3.063-3.543 1.744 1.744 0 0 0 0-1.02c-.368-1.015 4.078-2.32 4.203-4.804.12-2.484-.614-5.008-1.266-7.492-.652-2.485-3.222-14.051-3.222-14.051Zm0 0" style="stroke:none;fill-rule:nonzero;fill:#cdcccc;fill-opacity:1"/><path d="M68.84 43.629s-4.246.73-4.121 3.988c.12 3.258-.938 6.926-1.961 8.676-1.02 1.75-.242 3.137 0 5.5.246 2.36-1.262 4.887-.488 6.11.777 1.218-8.122 2.117-8.122 3.378 0 1.262 5.633 3.625 4.653 5.254-.735 1.18 4.367-.816 7.265-1.996a5.055 5.055 0 0 0 3.059-3.543 1.744 1.744 0 0 0 0-1.02c-.367-1.015 4.082-2.32 4.203-4.804.121-2.484-.613-5.008-1.266-7.492-.652-2.485-3.222-14.051-3.222-14.051Zm0 0" style="stroke:none;fill-rule:nonzero;fill:#fff;fill-opacity:1"/><path d="M93.031 69.938s-7.261 3.136-9.015 2.238c-1.758-.895-7.02-3.133-8.653 1.508-1.304 3.746 6.367 3.949 9.344 3.91a2.69 2.69 0 0 0 1.918-.895l10.648-1.14s-2.484-6.356-4.242-5.621Zm0 0" style="stroke:none;fill-rule:nonzero;fill:#f7bebe;fill-opacity:1"/><use xlink:href="#q" mask="url(#r)"/><path d="M97.238 44.48a2.226 2.226 0 0 1 2.938 1.426c.855 2.242 1.672 11.203 1.672 11.203s1.511 4.356 1.02 7.25c-.49 2.891.491 3.258.491 3.258s.243 1.262-.492 1.871c-.734.614-1.262 3.383-1.02 3.746.247.368-.367 2.73-.855 2.73s-5.14.735-5.14.735 1.02-5.62-4.368-5.988c0 0 .86-1.262.368-3.746-.489-2.485 5.386-22.485 5.386-22.485Zm0 0" style="stroke:none;fill-rule:nonzero;fill:#cdcccc;fill-opacity:1"/><path d="M96.625 44.441a2.236 2.236 0 0 1 1.785.07c.555.27.977.762 1.153 1.356.859 2.238 1.675 11.2 1.675 11.2s1.508 4.359 1.02 7.25c-.492 2.89.488 3.257.488 3.257s.246 1.262-.488 1.875c-.735.61-1.266 3.38-1.02 3.746.242.368-.367 2.73-.86 2.73-.487 0-5.14.731-5.14.731s1.02-5.62-4.367-5.984c0 0 .86-1.266.367-3.75-.488-2.484 5.387-22.48 5.387-22.48Zm0 0" style="stroke:none;fill-rule:nonzero;fill:#fff;fill-opacity:1"/><use xlink:href="#s" mask="url(#t)"/><path d="m76.797 40.816-3.59 2.036-.656 1.02 3.918 1.343-1.793 1.832 7.629 7.738Zm0 0" style="stroke:none;fill-rule:nonzero;fill:#fff;fill-opacity:1"/><use xlink:href="#u" mask="url(#v)"/><path d="m86.875 43.098 2.324-.368.938-.039.613.813-3.059 1.101 1.793 1.223-7.996 8.957Zm0 0" style="stroke:none;fill-rule:nonzero;fill:#fff;fill-opacity:1"/><path d="M88.629 21.758a9.518 9.518 0 0 0-8.445-.817 14.654 14.654 0 0 0-4 2.528 10.402 10.402 0 0 0-2.532 2.808c-.894 1.711-.894 3.707-.894 5.621a40.483 40.483 0 0 0 .285 5.008c.324 2.282 1.02 4.524.855 6.801-.164 2.281-1.507 4.727-3.753 5.176 2.093.148 4.199.094 6.285-.164 1.304-.164 2.691-.489 3.672-1.387a6.259 6.259 0 0 0 1.425-2.484c.383-.891.602-1.84.657-2.809-.043-2.035-1.43-3.707-2.368-5.5a3.787 3.787 0 0 1-.492-1.629 1.465 1.465 0 0 1 .817-1.383c.652-.246 1.386.121 2.082-.043 1.101-.285 1.386-1.789 2.367-2.32.734-.367 1.672-.082 2.285.45.266.265.55.511.855.73.457.218.965.316 1.47.285.937 0 4.163-1.465 4.855-2.117.652 3.422 5.59.449 2.777-4.602-.98-1.75-2.285-3.379-4.043-4.398-1.754-1.02-3.957-1.305-5.793-.489" style="stroke:none;fill-rule:nonzero;fill:#49475a;fill-opacity:1"/><path d="M81.367 35.156c0-1.101-.512-1.996-1.144-1.996-.63 0-1.141.895-1.141 1.996 0 1.102.512 1.996 1.14 1.996.633 0 1.145-.894 1.145-1.996Zm0 0" style="stroke:none;fill-rule:nonzero;fill:#f7bebe;fill-opacity:1"/><path d="M91.73 43.098s6.938.976 7.305 1.507c.367.528-.367 3.5-.367 3.5l-5.02.856-3.835-.813Zm0 0" style="stroke:none;fill-rule:nonzero;fill:#fff;fill-opacity:1"/><use xlink:href="#w" mask="url(#x)"/><path d="M70.758 47.781c-1.063-.164-2.082.774-2.613 1.996a11.822 11.822 0 0 0-.735 4.196 14.83 14.83 0 0 0 .324 4.293c.692 2.808 2.489 4.804 3.551 7.41a14.049 14.049 0 0 1 .938 6.476" style="stroke:none;fill-rule:nonzero;fill:#fff;fill-opacity:1"/><path d="M81.16 34.543c0-1.594-.93-2.89-2.078-2.89-1.152 0-2.082 1.296-2.082 2.89 0 1.598.93 2.895 2.082 2.895 1.148 0 2.078-1.297 2.078-2.895Zm0 0" style="stroke:none;fill-rule:nonzero;fill:#d42c6a;fill-opacity:1"/><path d="M191.113 77.764h2.7M191.113 91.757h3.198" style="fill:none;stroke-width:.25;stroke-linecap:butt;stroke-linejoin:miter;stroke:#d42c6a;stroke-opacity:1;stroke-miterlimit:10" transform="matrix(.40803 0 0 .40728 0 .024)"/><use xlink:href="#y" mask="url(#z)"/><path d="M80.059 34.543c0-1.594-.93-2.89-2.079-2.89-1.152 0-2.082 1.296-2.082 2.89 0 1.598.93 2.895 2.082 2.895 1.149 0 2.079-1.297 2.079-2.895Zm0 0" style="stroke:none;fill-rule:nonzero;fill:#d42c6a;fill-opacity:1"/><path d="m78.875 31.043 1.227.406s4.812-8.879 12.976-3.828v-1.223c-.082 0-8.773-5.578-14.203 4.645Zm0 0" style="stroke:none;fill-rule:nonzero;fill:#971f51;fill-opacity:1"/><path d="M192.511 92.361c0 .096 8.597 10.896 17.3 10.896" style="fill:none;stroke-width:1.3;stroke-linecap:butt;stroke-linejoin:miter;stroke:#971f51;stroke-opacity:1;stroke-miterlimit:10" transform="matrix(.40803 0 0 .40728 0 .024)"/><path d="M88.016 42.078c0-.36-.676-.648-1.508-.648-.836 0-1.512.289-1.512.648 0 .36.676.652 1.512.652.832 0 1.508-.292 1.508-.652Zm0 0" style="stroke:none;fill-rule:nonzero;fill:#d42c6a;fill-opacity:1"/><path d="M69.371 76.7v1.503L55.13 81.422l-1.43-.285-.203-.082-10.281-5.496Zm0 0" style="stroke:none;fill-rule:nonzero;fill:#9694b7;fill-opacity:1"/><use xlink:href="#A" mask="url(#B)"/><path d="M52.965 79.059c.246-.121 5.512-1.141 5.512-1.141l-9.508-.852Zm0 0" style="stroke:none;fill-rule:nonzero;fill:#49475a;fill-opacity:1"/><path d="m6.41 56.742 36.723.367c.512.004.976.305 1.183.774l9.875 21.625a1.3 1.3 0 0 1 .04 1.012 1.298 1.298 0 0 1-.692.738 1.654 1.654 0 0 1-.613.125l-36.844-1.266a1.291 1.291 0 0 1-1.145-.773l-9.75-20.672a1.315 1.315 0 0 1-.05-1.031c.12-.34.375-.614.703-.762a.914.914 0 0 1 .57-.137Zm0 0" style="stroke:none;fill-rule:nonzero;fill:#7b7a9c;fill-opacity:1"/><path d="M9.43 15.363h49.82v25.25H9.43Zm0 0" style="stroke:none;fill-rule:nonzero;fill:#f2f2f2;fill-opacity:1"/><path d="m18.16 38.293 11.262-18.816 11.71 18.816" style="stroke:none;fill-rule:nonzero;fill:#e7246f;fill-opacity:1"/><path d="m35.258 28.64 2.246-5.867 12.77 15.52H35.175ZM32.89 26.316a3.1 3.1 0 0 0 1.02-4.273 3.112 3.112 0 0 0-4.281-1.02" style="stroke:none;fill-rule:nonzero;fill:#e7246f;fill-opacity:1"/><path d="M30.31 29.76h122.098v61.997H30.31Zm0 0" style="fill:none;stroke-width:.3068;stroke-linecap:butt;stroke-linejoin:miter;stroke:#403e56;stroke-opacity:1;stroke-miterlimit:10" transform="matrix(.40803 0 0 .40728 0 .024)"/><path d="m46.01 91.757 27.695-46.2 28.701 46.2" style="fill:none;stroke-width:.3068;stroke-linecap:butt;stroke-linejoin:miter;stroke:#403e56;stroke-opacity:1;stroke-miterlimit:10" transform="matrix(.40803 0 0 .40728 0 .024)"/><path d="m87.31 67.559 5.504-14.397 31.295 38.595M82.714 60.26c3.59-2.206 4.71-6.906 2.499-10.503a7.529 7.529 0 0 0-4.73-3.462 7.505 7.505 0 0 0-5.772.969" style="fill:none;stroke-width:.3068;stroke-linecap:butt;stroke-linejoin:miter;stroke:#403e56;stroke-opacity:1;stroke-miterlimit:10" transform="matrix(.40803 0 0 .40728 0 .024)"/></svg>