<svg xmlns="http://www.w3.org/2000/svg" width="100" height="100"><path d="M49.098 81.434C31.094 81.434 16.5 66.84 16.5 48.836c0-18.004 14.594-32.598 32.598-32.598 18.004 0 32.597 14.594 32.597 32.598-.023 17.992-14.605 32.574-32.597 32.598Zm0-63.34c-16.977 0-30.739 13.765-30.739 30.742s13.762 30.742 30.739 30.742c16.976 0 30.742-13.766 30.742-30.742-.02-16.969-13.774-30.723-30.742-30.742ZM24.098 17.375l1.41-1.254 2.406 2.707a5.386 5.386 0 0 1-.703 1.754 6.45 6.45 0 0 1-1.246 1.496 5.184 5.184 0 0 1-2.262 1.211 4.453 4.453 0 0 1-2.394-.07 4.789 4.789 0 0 1-3.16-3.543 4.427 4.427 0 0 1 .214-2.414 5.274 5.274 0 0 1 1.496-2.117 5.543 5.543 0 0 1 1.856-1.122 4.166 4.166 0 0 1 1.969-.203l-.176 1.797a3.043 3.043 0 0 0-2.395.781 3.128 3.128 0 0 0-.898 1.309 2.51 2.51 0 0 0-.106 1.438 3.152 3.152 0 0 0 1.97 2.222c.46.164.956.192 1.433.078.508-.12.98-.367 1.367-.718a3.42 3.42 0 0 0 .95-1.36ZM34.105 14.43l-3.699 1.867.157 2.066-1.887.953-.473-9.742 1.824-.918 7.578 6.18-1.964.976Zm-1.312-1.102-2.8-2.422.277 3.692ZM43.613 13.668l-2.207-2.066h-.101l-1.758.382.527 2.446-2.035.437-1.863-8.726 3.781-.817a4.897 4.897 0 0 1 2.09-.043 3.06 3.06 0 0 1 1.555.813c.421.437.71.988.828 1.586.3 1.199-.184 2.457-1.207 3.14l2.562 2.383Zm-1.965-6.559c-.464-.199-.98-.23-1.464-.09l-1.645.352.656 3.043 1.645-.351a2.15 2.15 0 0 0 1.312-.704c.266-.347.356-.8.235-1.218a1.422 1.422 0 0 0-.727-1.051Zm0 0" style="stroke:none;fill-rule:nonzero;fill:#00c650;fill-opacity:1"/><path d="m52.672 11.523-4.137-.191-.875 1.883-2.125-.098 4.375-8.742 2.043.09 3.586 9.098-2.164-.098Zm-.582-1.601-1.262-3.477-1.566 3.352ZM66.438 7.688l-2.696 8.527-1.617-.512L59.5 9.188l-1.633 5.167-1.969-.613 2.73-8.496 1.634.52 2.62 6.504 1.638-5.168ZM70.492 11.805l-2.433-1.489.879-1.437 6.636 4.062-.879 1.434-2.437-1.488-3.778 6.133-1.757-1.075ZM77.207 14.383l1.574 1.344-5.808 6.78-1.57-1.308ZM80.016 27.875l-1.274 1.063-4.406-5.329 6.855-5.718 4.32 5.187-1.273 1.063-3.008-3.606-1.484 1.238 2.625 3.188-1.234 1.023-2.621-3.18-1.59 1.313ZM27.902 89.695c-.43.121-.879.14-1.312.055a3.358 3.358 0 0 1-1.242-.55 3.7 3.7 0 0 1-1.184-1.368 7.617 7.617 0 0 1-.598-2.246 4.872 4.872 0 0 1-1.265-1.852 4.257 4.257 0 0 1-.258-2.117 4.674 4.674 0 0 1 2.684-3.57 4.403 4.403 0 0 1 2.328-.313 5.396 5.396 0 0 1 3.972 2.852 4.356 4.356 0 0 1-.39 4.547 4.371 4.371 0 0 1-5.02 1.644c.028.258.102.504.219.735.102.191.246.36.426.484a1.915 1.915 0 0 0 1.535.305Zm-3.937-7.547c-.063.47.015.95.219 1.375.21.438.539.813.941 1.082.387.286.84.465 1.313.528.468.05.945-.031 1.37-.238a2.85 2.85 0 0 0 1.16-.946c.302-.406.493-.883.56-1.383a2.638 2.638 0 0 0-.215-1.375 2.816 2.816 0 0 0-.934-1.105 2.8 2.8 0 0 0-1.313-.523 2.6 2.6 0 0 0-1.37.238 3.08 3.08 0 0 0-1.684 2.347ZM31.96 89.488a3.976 3.976 0 0 1 .071-3.129l1.735-4.593 1.886.714-1.703 4.5c-.55 1.457-.222 2.422.98 2.88a1.807 1.807 0 0 0 1.555 0 2.617 2.617 0 0 0 1.098-1.481l1.703-4.5 1.863.726-1.73 4.594a3.95 3.95 0 0 1-2.035 2.352 3.921 3.921 0 0 1-3.086-.063 3.939 3.939 0 0 1-2.336-2ZM47.059 92.293l-4.02-.473-.984 1.774-2.047-.25 4.879-8.211 1.968.234 2.852 9.117-2.105-.242Zm-.454-1.602-.984-3.472-1.762 3.152ZM50.934 85.586l2.007-.211.735 7.035 4.355-.45.172 1.634-6.363.656ZM57.887 84.605l1.968-.503 2.184 8.449-1.969.504ZM63.68 84.527l-2.567 1.098-.656-1.516 7-2.98.656 1.516-2.574 1.097 2.781 6.504-1.863.793ZM77.39 82.824l.934 1.309-5.523 3.89-4.996-7.148 5.398-3.777.93 1.312-3.758 2.621 1.09 1.555 3.277-2.328.906 1.312-3.32 2.32 1.156 1.653Zm-7.867-6.207 1.711-1.199-.82 2.762-1.246.87ZM31.559 36.605v21.11H28.28V40.527h-2.82V36.59ZM36.934 56.785a8.616 8.616 0 0 1-2.172-3.75 19.736 19.736 0 0 1-.774-5.906 19.6 19.6 0 0 1 .774-5.809 8.689 8.689 0 0 1 2.144-3.758 4.384 4.384 0 0 1 6.23 0 8.659 8.659 0 0 1 2.173 3.758 19.69 19.69 0 0 1 .773 5.864 19.71 19.71 0 0 1-.773 5.902 8.64 8.64 0 0 1-2.145 3.75 4.377 4.377 0 0 1-6.23 0Zm5.132-4.492c.493-1.11.735-2.813.735-5.129 0-2.316-.242-4.02-.735-5.129-.492-1.11-1.16-1.66-2.02-1.66-.858 0-1.507.559-2 1.66a13.458 13.458 0 0 0-.733 5.13 13.55 13.55 0 0 0 .726 5.128c.492 1.11 1.156 1.66 2 1.66.848 0 1.543-.55 2.027-1.66ZM50.586 56.785a8.662 8.662 0 0 1-2.145-3.75 19.736 19.736 0 0 1-.773-5.906 19.6 19.6 0 0 1 .773-5.809 8.689 8.689 0 0 1 2.145-3.758 4.384 4.384 0 0 1 6.23 0 8.65 8.65 0 0 1 2.145 3.758 19.82 19.82 0 0 1 .777 5.864 19.84 19.84 0 0 1-.777 5.902 8.563 8.563 0 0 1-2.145 3.75 4.384 4.384 0 0 1-6.23 0Zm5.164-4.492c.492-1.11.734-2.813.734-5.129 0-2.316-.242-4.02-.734-5.129-.492-1.11-1.164-1.66-2.02-1.66-.859 0-1.511.559-1.968 1.66-.461 1.102-.735 2.82-.735 5.13 0 2.308.243 4.019.735 5.128.492 1.11 1.152 1.66 1.968 1.66.813 0 1.508-.55 2.02-1.66ZM62.059 46.422a7.971 7.971 0 0 1-.977-4.238 8.01 8.01 0 0 1 .977-4.235 2.79 2.79 0 0 1 5.035 0 8.075 8.075 0 0 1 .965 4.235 8.043 8.043 0 0 1-.965 4.238 2.79 2.79 0 0 1-5.035 0Zm3.601-1.73c.3-.801.438-1.653.39-2.508.048-.848-.09-1.7-.39-2.496a1.206 1.206 0 0 0-1.078-.848c-.445 0-.8.281-1.066.86a6.001 6.001 0 0 0-.403 2.484c-.043.851.094 1.699.403 2.492.265.574.656.86 1.066.86.5-.032.93-.368 1.078-.845Zm7.305-8.087h2.394l-9.609 21.11h-2.395Zm-.656 20.653a4.588 4.588 0 0 1-1.239-2.04 10.986 10.986 0 0 1 0-6.152 4.623 4.623 0 0 1 1.239-2.039 2.628 2.628 0 0 1 1.804-.71c1.07.011 2.051.609 2.543 1.562a8.005 8.005 0 0 1 .98 4.234 8.058 8.058 0 0 1-.98 4.293 2.891 2.891 0 0 1-2.543 1.559 2.63 2.63 0 0 1-1.777-.707Zm2.875-2.625c.3-.793.433-1.637.39-2.485a6.112 6.112 0 0 0-.39-2.484c-.266-.578-.618-.86-1.079-.86a1.2 1.2 0 0 0-1.062.837 6.04 6.04 0 0 0-.406 2.507 6.021 6.021 0 0 0 .406 2.504c.152.473.574.805 1.07.832.477 0 .832-.28 1.094-.855Zm0 0" style="stroke:none;fill-rule:nonzero;fill:#00c650;fill-opacity:1"/><path d="M50.004 100C22.387 100.004-.004 77.617-.008 50-.008 22.383 22.382-.008 50-.008c27.617.004 50.004 22.395 50 50.012C99.969 77.602 77.602 99.969 50.004 100Zm0-98.145C23.41 1.852 1.852 23.406 1.848 50c0 26.59 21.554 48.148 48.148 48.152 26.59 0 48.149-21.558 48.149-48.148-.032-26.578-21.567-48.117-48.141-48.149Zm0 0" style="stroke:none;fill-rule:nonzero;fill:#00c650;fill-opacity:1"/><path d="M12.258 48.875a3.215 3.215 0 0 1-3.215 3.215 3.214 3.214 0 0 1-3.211-3.215 3.214 3.214 0 0 1 3.211-3.215 3.215 3.215 0 0 1 3.215 3.215ZM93.125 48.836a3.214 3.214 0 0 1-3.21 3.215 3.215 3.215 0 0 1 0-6.43 3.214 3.214 0 0 1 3.21 3.215Zm0 0" style="stroke:none;fill-rule:nonzero;fill:#00c650;fill-opacity:1"/></svg>