<svg xmlns="http://www.w3.org/2000/svg" width="100" height="102"><path d="M12.398 25.602c-.898 1-1 1.699-1 2.199.102 1 1.102 1.3 1.903 2.597.597.903.699 1.903.699 2.602.602 1.5 1.102 3.102 1.7 4.602 2.1 1.199 5.3 3.5 7.5 7.5C28.8 55.398 22.101 66.8 21.7 67.5c-.7 1-1.302 2-2 3.102-.598.898-1.2 1.796-1.7 2.699 1.5 1.5 3.2 3.097 5.2 4.597 2.3 1.801 4.6 3.403 6.698 4.602 4.403-19.7 8.801-39.3 13.204-59-1.5.398-3.602.898-6.204 1.3-4.898.802-8.699 1-12 1.098-3.398.102-7.597.102-12.5-.199Zm0 0" style="stroke:none;fill-rule:nonzero;fill:#176eb4;fill-opacity:1"/><path d="m69 30.8-7.7 51.598c2.9 0 6.7-.199 10.9-1.199 2.698-.699 5.1-1.5 7.1-2.398-1.5-2.7-4-8.2-3.8-15.403.3-12.296 8.3-20.199 10.102-21.898-3-1.7-6-3.5-9.204-5.602a249.647 249.647 0 0 1-7.5-5.097Zm0 0" style="stroke:none;fill-rule:nonzero;fill:#e21e26;fill-opacity:1"/><path d="M58.8 14.8S47.7 28.399 13.399 25.399M11.5 28.602s2.398.5 2.7 7.699c6.1 4.898 16.198 9.5 7.5 31.097M19.7 74.602s10.698 11.597 26.902 14.5M50 85.602s-.102-3.102 2.7-3.102c2.8 0 19-.8 19-.8s1 .902 3.1-2M79.102 77.5S68.5 59.3 84.398 43.8M84.3 40S59.8 28.102 62.399 19.398" style="fill:none;stroke-width:2;stroke-linecap:round;stroke-linejoin:miter;stroke:#513110;stroke-opacity:1;stroke-miterlimit:10"/><path d="M12 17.602c.2.398.398.699.602 1.097.699-.5 1.296-1 2-1.398.097.3.296.5.398.8-.7.5-1.3.899-2 1.399.3.602.7 1.102 1 1.7-.398.3-.898.698-1.3 1-.9-1.4-1.802-2.802-2.598-4.302 1.296-1 2.597-1.898 3.898-2.796.102.296.3.5.398.796-.796.602-1.597 1.102-2.5 1.801ZM21.8 16.2c-.402.198-.698.402-1.1.6h-.501c-.199-.198-.5-.402-.699-.6-.8.402-1.5.902-2.2 1.402v1.296s-.1.204-.198.301c-.301.2-.704.5-1 .7v-6c.5-.297 1-.598 1.5-.899 1.5 1.102 2.898 2.2 4.296 3.3Zm-2.902-.598c-.398-.301-.796-.602-1.097-.903 0 0-.2-.097-.301-.199l-.3-.3v2.402c.5-.301 1.1-.704 1.6-1ZM22.8 10.102c.4-.204.802-.301 1.2-.403.3 0 .602-.097.8 0 .2 0 .4.102.598.2.102.101.204.3.301.5v.3c0 .102 0 .2-.097.403 0 .097-.102.296-.301.398-.102.102-.301.3-.403.398.403-.097.801-.097 1 0 .301 0 .403.301.5.5V13c0 .2-.097.398-.296.602-.102.199-.403.398-.602.597l-.898.602c-.801.398-1.602.8-2.403 1.199-.597-1.5-1.3-3.102-1.8-4.7.8-.402 1.601-.8 2.402-1.198Zm-.6 1.199c.1.398.3.8.402 1.199.296-.102.5-.2.796-.398.204 0 .301-.204.403-.204.097 0 .199-.199.3-.199 0 0 .098-.199.098-.3v-.297c0-.102 0-.204-.097-.301 0 0-.102 0-.204-.102h-.296c-.102 0-.301 0-.403.2-.3.101-.597.3-.898.402Zm2.1 2.597c.2 0 .302-.199.4-.296.1 0 .198-.204.198-.301V12.8s0-.198-.097-.198c0 0-.102 0-.2-.102h-.3c-.102 0-.301 0-.5.2-.301.198-.7.3-1 .5.097.402.3.8.398 1.198.301-.199.7-.296 1-.5ZM32.7 11.602c-.4.097-.9.296-1.302.398h-.597c-.5-.398-.903-.7-1.403-1.102H28.9c-.098 0-.2 0-.399.102.2.602.3 1.2.5 1.8-.5.2-.898.4-1.398.5-.5-1.6-1-3.198-1.403-4.8.7-.3 1.403-.5 2.102-.8.5-.2.898-.302 1.199-.302h.898c.204 0 .403.204.602.301.102.102.2.301.3.5v.5c0 .2 0 .301-.198.5 0 .2-.204.301-.301.403-.102.097-.301.296-.5.398h.3s.2 0 .297.102C31.5 10.5 32 11 32.602 11.398ZM29.101 10c.199 0 .398-.2.5-.2.097 0 .199-.198.296-.3 0 0 .102-.2.102-.3v-.302c0-.199-.2-.398-.398-.398-.204 0-.5 0-.903.102-.199 0-.398.097-.597.199.097.5.199 1 .398 1.398.2 0 .398-.097.602-.199ZM34.7 11.102c-.5.097-1 .296-1.4.398-.3-1.602-.698-3.3-1-4.898.5-.102 1-.301 1.5-.403.302 1.7.5 3.301.802 4.903ZM42.3 10.5c-.402 0-.8.102-1.198.2h-.5c-.102 0-.301 0-.403-.098-.3-.204-.5-.403-.8-.602-.2 0-.5.2-.797.2-.5 0-.903.1-1.301 0-.403 0-.801-.098-1.102-.302-.3-.199-.597-.398-.8-.597-.2-.301-.297-.602-.399-.903V7.301c.102-.301.3-.7.602-1 .296-.301.597-.602 1-.801C37 5.3 37.5 5.102 38 5c.5 0 1-.102 1.398 0 .403 0 .801.2 1.102.398.3.204.602.403.7.704.198.296.3.597.3 1v.597c0 .2-.102.403-.2.602 0 .199-.198.398-.402.5-.097.199-.296.3-.5.5C41 9.699 41.5 10.1 42 10.5ZM36.603 8c0 .2.097.5.199.602.097.199.199.296.398.398.2.102.403.2.602.2h.8c.297 0 .5-.098.7-.2.199-.102.398-.2.5-.398.097-.204.199-.301.3-.602v-.7c0-.198 0-.5-.203-.6 0-.2-.199-.302-.398-.4-.2-.1-.398-.198-.602-.198h-.796c-.301 0-.602.097-.801.296-.2.102-.403.301-.5.403-.102.199-.2.398-.301.597v.704ZM45.3 8.398c.2 0 .4 0 .5-.097.2 0 .302-.102.4-.2.1-.101.198-.203.198-.402v-.5c0-1 0-2 .102-3H48c0 1-.102 2-.2 3 0 .301 0 .602-.198.801-.102.3-.301.5-.5.7-.204.198-.5.402-.801.5-.301.1-.7.198-1.102.198h-1.097c-.301 0-.602-.199-.801-.296-.2-.204-.403-.403-.602-.602-.097-.2-.199-.5-.199-.8v-3c.5 0 1-.098 1.5-.2V8c0 .102.102.2.2.3.1 0 .198.2.402.2h.5ZM50.8 5c0 .398 0 .8-.1 1.2h2c0 .3 0 .6-.098.902h-2c0 .398 0 .796-.102 1.199H53c0 .3 0 .597-.102.898-1.296 0-2.597-.097-3.898 0 0-1.699.2-3.3.3-5 1.4 0 2.802 0 4.2.102 0 .3 0 .597-.102.898-.898 0-1.796 0-2.597-.097Zm3-2.102c-.5.301-1.1.602-1.6.903H50.8c.3-.301.597-.602 1-.903h2.097ZM57.8 5.602c0 .398-.198.796-.198 1.097.597 0 1.296.2 1.898.301 0 .3-.102.602-.2.8-.6-.1-1.3-.198-1.902-.3 0 .398-.199.8-.199 1.2.801.1 1.602.198 2.403.402 0 .296-.102.597-.204.898-1.296-.2-2.5-.398-3.796-.5.296-1.602.597-3.3.898-4.898 1.398.199 2.7.398 4.102.597 0 .301-.204.602-.204.903-.898-.204-1.699-.301-2.597-.403ZM66.898 6.602C66.301 8.199 65.7 9.699 65.2 11.3c-.199 0-.5-.102-.699-.2-.102 0-.2 0-.2-.101l-.198-.2c-.602-1.198-1.204-2.402-1.903-3.5v.501c-.199.898-.5 1.699-.699 2.597-.398 0-.8-.199-1.2-.199.4-1.597.802-3.199 1.302-4.8.296 0 .5.101.796.203h.301v.097c.7 1.2 1.301 2.403 2 3.602V8.8c.301-.8.602-1.698.903-2.5.398.098.796.2 1.296.4ZM71 9c-.2.398-.398.8-.5 1.102.602.199 1.3.5 1.898.796-.097.301-.296.5-.398.801-.602-.3-1.3-.5-1.898-.8-.301.601-.5 1.203-.801 1.8-.403-.199-.801-.3-1.301-.5.602-1.5 1.3-3.097 2-4.597 1.3.5 2.5 1 3.8 1.5-.1.296-.3.5-.402.796-.796-.296-1.597-.699-2.398-1ZM76.5 16c-.398-.2-.7-.398-1.102-.602-.199-.097-.296-.199-.296-.398 0-.602 0-1.102-.204-1.7v-.198s-.097 0-.199-.102c-.097 0-.199-.102-.3-.2-.297.5-.598 1.098-.899 1.598l-1.2-.597c.7-1.5 1.5-3 2.302-4.403.597.301 1.199.602 1.898.903.398.199.7.398 1 .597.2.204.398.403.5.602.102.2.2.398.102.602 0 .199 0 .398-.204.597 0 .102-.199.301-.296.403-.102 0-.301.199-.403.199-.199 0-.3 0-.5.097h-.597s.097.204.199.204v.296c0 .704.097 1.403.199 2.102Zm-1.2-3.602c.2 0 .302.102.5.204h.4c.1 0 .198 0 .3-.102 0 0 .2-.102.2-.2a.632.632 0 0 0 0-.6c0-.2-.302-.4-.598-.5-.204 0-.301-.2-.5-.302-.204.403-.5.903-.704 1.301.204 0 .301.2.5.2Zm0 0" style="stroke:none;fill-rule:nonzero;fill:#176eb4;fill-opacity:1"/><path d="M81.3 19c-.3-.2-.6-.398-.8-.602 0 0-.2-.097-.2-.199V18c0-.3.2-.602.2-.898-.602-.403-1.3-.801-1.898-1.204-.301.204-.5.403-.801.602h-.5c-.301-.2-.602-.3-.903-.5a38.5 38.5 0 0 1 4.801-3c.403.3.801.5 1.301.8-.3 1.802-.7 3.5-1.102 5.302Zm-.698-2.8c.097-.5.199-.9.296-1.4v-.3c0-.102 0-.2.102-.398-.102 0-.2.199-.3.199-.098 0-.2.097-.302.199-.398.3-.796.5-1.199.8.5.302.903.598 1.403.9ZM89 18.7c-1.2 1.198-2.3 2.402-3.5 3.6-.2-.198-.3-.3-.5-.402 0 0-.102-.097-.2-.199V21.5c0-1.3-.1-2.602-.198-4 0 0 0 .102-.102.2 0 0 0 .1-.102.198-.597.704-1.097 1.403-1.699 2.102-.3-.2-.597-.5-.898-.7 1-1.3 2.097-2.6 3.097-3.902.204.102.403.301.602.5h.102V16l.296 4s.102-.2.204-.2c0 0 .097-.1.199-.198.597-.602 1.199-1.301 1.8-1.903.297.301.7.602 1 .801ZM90.102 24.898V25.7c-.403 0-.704 0-1.102-.2-.3-.2-.7-.398-1-.7-.3-.3-.5-.6-.7-.902-.198-.296-.198-.699-.3-1 0-.296 0-.597.2-.898.1-.3.3-.602.6-.898.302-.301.598-.5.9-.602.3-.102.698-.2 1-.102.402 0 .698.102 1.1.301.4.2.7.403 1 .801.2.2.302.3.4.5.1.2.198.3.3.5 0 .2.102.3.2.5v.5H91.897l-.199-.102V22.8s0-.198-.199-.3c0 0-.102-.2-.3-.3-.2-.2-.302-.302-.5-.4-.2 0-.4-.1-.598-.1-.204 0-.403 0-.602.1-.2 0-.398.2-.602.4-.199.198-.296.402-.398.6 0 .2-.102.4-.102.598 0 .204 0 .403.102.602 0 .2.2.3.3.5l.2.2s.2.1.2.198c0 0 .198 0 .198.102H89.801ZM94.2 25.2c-.302.198-.598.5-.9.698.4.5.802 1 1.2 1.5-.2.204-.5.301-.7.5-.402-.5-.8-1-1.198-1.398-.301.2-.602.5-.903.7.5.6 1 1.198 1.5 1.902-.199.199-.5.296-.699.5-.8-1-1.602-1.903-2.398-2.801 1.296-1.102 2.597-2.102 3.898-3.102.898 1 1.8 2 2.602 3.102-.204.199-.5.3-.704.5-.5-.7-1.097-1.301-1.597-2Zm0 0" style="stroke:none;fill-rule:nonzero;fill:#176eb4;fill-opacity:1"/><path d="M9.7 76.898c-1.598.5-3.2.903-4.9 1.204-.3-.301-.5-.602-.8-.903.7-1.398 1.5-2.898 2.3-4.3.2.3.4.5.598.8l.102.2v.203c-.398.699-.898 1.5-1.3 2.199 0 0-.098.199-.2.3 0 .098-.102.2-.2.297.098 0 .302-.097.4-.097h.402c.898-.2 1.699-.5 2.5-.7H8.8s.199 0 .199.098c.2.2.398.5.7.7ZM7.398 81c-.296-.3-.597-.602-.898-.898 1.2-.903 2.3-1.903 3.398-2.903.301.301.602.602.801.903-1.097 1-2.199 2-3.3 3ZM11.898 85.102c-.296-.204-.5-.403-.796-.602 0 0-.102-.102-.204-.2v-.198c.102-.301.204-.5.301-.801-.5-.5-1-.903-1.5-1.403-.3.102-.5.204-.8.301h-.2s-.199 0-.199-.097c-.2-.204-.5-.5-.7-.704 1.598-.5 3.2-1 4.802-1.597.296.3.597.5.898.8-.5 1.5-1 3-1.5 4.598Zm-.296-2.5c.199-.403.296-.801.5-1.204 0 0 0-.199.097-.296 0-.102 0-.204.102-.301-.102 0-.2.097-.301.199-.102 0-.2 0-.3.102-.4.199-.802.296-1.2.5.398.296.7.699 1.102 1ZM18.8 84.7c-.902 1.198-1.8 2.402-2.698 3.5-.204-.098-.403-.302-.5-.4l-.204-.198v-.204c-.097-1.199-.296-2.398-.296-3.597 0 0 0 .097-.102.199 0 0 0 .102-.102.2-.5.6-1.097 1.198-1.597 1.8-.301-.2-.602-.5-.903-.7 1-1.1 2-2.198 3-3.3.204.102.301.3.5.398v.102c0 1.2.204 2.398.301 3.602 0 0 0-.102.102-.204 0 0 0-.097.097-.199.5-.597 1-1.199 1.5-1.898l.903.597ZM22.5 89.602c-.2.296-.398.5-.602.699-.296.199-.597.3-.898.3h-1c-.398 0-.7-.203-1.102-.5-.597-.402-1.199-.8-1.796-1.203C18 87.7 18.898 86.5 19.8 85.301c.597.398 1.097.699 1.699 1.097.3.204.602.403.8.704.2.296.4.5.5.796.098.301.098.602.098.903 0 .3-.097.597-.296.898ZM21.398 89c.102-.2.204-.398.204-.602v-.5c0-.199-.102-.296-.204-.5-.097-.097-.296-.296-.5-.398-.199-.102-.5-.3-.699-.398a19.5 19.5 0 0 1-1.699 2.296c.2.204.5.301.7.403.198.097.402.199.6.3h.598a.746.746 0 0 0 .5-.203c.204-.097.301-.296.403-.5ZM25 89.2c-.2.3-.3.6-.5.902.5.199 1 .5 1.5.699-.102.199-.2.398-.398.699-.5-.2-1-.5-1.5-.7-.204.302-.403.598-.5.9.699.3 1.296.698 2 1-.102.198-.301.5-.403.698-1.097-.5-2.199-1-3.199-1.597.8-1.301 1.602-2.5 2.3-3.801 1 .5 2 1 3 1.398-.1.204-.198.5-.402.704-.699-.301-1.296-.602-1.898-.903ZM31.102 95c0 .2-.204.398-.301.602-1-.301-2-.704-3-1.102 0-.2.199-.398.3-.602.297.102.7.301 1 .403.297-.7.598-1.403.899-2.102V91.8c-.2 0-.5.098-.7.2H29c0-.2-.102-.3-.2-.5.7-.102 1.302-.3 2-.5.302.102.598.2.9.3-.5 1.2-1 2.302-1.5 3.5.3.098.6.2.902.302ZM36 94.898c-.102.403-.3.704-.5.903-.2.199-.398.398-.602.597-.199.102-.5.204-.796.204H33.3c-.301 0-.5-.204-.7-.403-.203-.199-.402-.398-.5-.597-.101-.204-.203-.5-.101-.801 0-.301 0-.602.2-1 .1-.403.3-.7.5-.903.198-.199.402-.398.6-.5.2-.097.5-.199.7-.199h.8c.302 0 .5.2.7.301.2.102.398.3.5.602.102.199.2.5.2.796 0 .301 0 .602-.2 1Zm-1.102-.296c0-.301.204-.5.204-.704v-.5c0-.097 0-.199-.204-.296 0 0-.199-.102-.296-.102H34.3c-.102 0-.2 0-.301.102-.102 0-.2.199-.3.398-.098.2-.2.398-.302.7-.097.3-.199.5-.199.698v.5c0 .102 0 .204.2.301 0 0 .203.102.3.102H34c.102 0 .2 0 .3-.102.098 0 .2-.199.302-.398.097-.2.199-.403.296-.7ZM40.3 95.8c0 .4-.198.7-.402 1-.199.302-.398.5-.597.598-.2.102-.5.204-.801.301h-.898c-.301 0-.602-.199-.801-.3a1.004 1.004 0 0 1-.5-.598c-.102-.2-.2-.5-.2-.801 0-.3 0-.602.2-1 .097-.398.3-.7.398-.898.2-.301.403-.403.602-.602.199-.102.5-.2.699-.3h.8c.302 0 .5.198.7.3.2.102.398.3.5.5.102.2.2.5.2.8v1Zm-1.198-.3c0-.3.097-.5.097-.7v-.5c0-.1-.097-.198-.199-.3 0 0-.2-.102-.3-.102h-.302c-.097 0-.199 0-.296.204-.102 0-.204.199-.301.398 0 .2-.2.398-.301.7 0 .3-.102.5-.102.698v.5c0 .102.102.204.204.301 0 0 .199.102.296.102h.301c.102 0 .2 0 .301-.2.102 0 .2-.203.3-.402 0-.199.2-.398.302-.699ZM43.5 95.102c0 .199 0 .296-.2.398 0 .102-.198.2-.402.3-.097 0-.296.098-.5.2h-.5c-.199 0-.398 0-.5-.2-.097 0-.296-.198-.398-.3 0-.102-.2-.2-.2-.398v-.5c0-.204.098-.301.2-.403 0-.097.2-.199.3-.3.098 0 .302-.098.4-.2h.5c.198 0 .3 0 .5.2.1 0 .3.203.402.3 0 .102.199.2.199.403v.5Zm1.8-.704h1.098C44.898 95.7 43.2 97 41.5 98.2h-.398c-.301 0-.602 0-.903-.097a64.753 64.753 0 0 0 5-3.704ZM42.603 95v-.5l-.102-.102H42l-.102.102v.602l.102.097h.5l.102-.097v-.204Zm3.699 2.7c0 .198 0 .3-.2.402 0 .097-.203.199-.402.296-.097 0-.3.102-.5.204h-.5c-.199 0-.398 0-.5-.102-.199 0-.3-.2-.398-.3-.102-.098-.2-.2-.2-.4v-.5c0-.198 0-.3.2-.402 0-.097.199-.199.3-.296.098 0 .297-.102.5-.204h.5c.2 0 .399 0 .5.102.2 0 .297.2.399.3.102.098.2.2.2.4v.5Zm-.903-.098V97.1h-.597l-.102.2v.597H45.398l.102-.097v-.2ZM50.398 95.3v1.098h1.903v.801h-1.903c0 .602 0 1.2-.199 1.7h-1.3c.203-1.5.3-3 .402-4.399h3.5v.8h-2.2ZM58.102 98.5c-.403 0-.801 0-1.204.102-.199 0-.398 0-.5-.204-.296-.398-.597-.796-1-1.199l-.097-.097h-.5V98.8h-1.403c0-1.5.102-3 .102-4.5.602 0 1.2 0 1.8-.102h1c.302 0 .5.102.7.2.2.101.3.203.398.402 0 .199.102.3.102.5v.398c0 .102-.102.301-.2.403 0 .097-.198.199-.3.296-.102 0-.3.204-.5.301 0 0 .2 0 .2.102 0 0 .1.097.198.199.403.5.801 1 1.301 1.398Zm-2.903-2.102h.5c.102 0 .2-.097.301-.199 0 0 .102-.097.2-.199v-.3c0-.2 0-.302-.2-.4-.2 0-.398-.1-.7-.1h-.5v1.3h.5Zm0 0" style="stroke:none;fill-rule:nonzero;fill:#e21e26;fill-opacity:1"/><path d="M63.8 97.602c-.402 0-.698.097-1.1.199h-.302s-.097 0-.199-.102c-.097-.199-.3-.5-.398-.699-.7.102-1.5.2-2.2.398 0 .301-.203.602-.3.801 0 0 0 .102-.2.2 0 0-.203 0-.3.101-.403 0-.7 0-1.102.102.7-1.602 1.403-3.204 1.903-4.704.398 0 .898-.097 1.296-.199.903 1.403 1.801 2.7 2.704 4ZM61.5 96.3c-.2-.403-.398-.801-.602-1.102 0 0 0-.199-.097-.3 0 0-.102-.2-.2-.297v.698c-.101.4-.3.9-.402 1.302.5 0 1-.204 1.602-.301ZM68.398 91.8c.301 1.5.602 2.9.903 4.4-.2 0-.5.1-.7.198h-.5C67 95.801 66 95.102 65 94.5v.398c.102.801.2 1.602.3 2.403-.402 0-.8.199-1.198.3-.204-1.5-.403-3-.602-4.402.2 0 .398 0 .7-.199h.3c1 .7 2.102 1.3 3.102 1.898V94.5c-.204-.8-.301-1.5-.5-2.3.398-.098.699-.2 1.097-.302ZM74.898 93.5c-.097.3-.296.5-.597.8-.301.2-.602.4-1 .598V95h.597v.301s0 .199-.199.199c0 0-.199.102-.3.2-.098 0-.297.1-.399.198h-.602v-.296s0-.102.102-.102h.301-.5V95c-.403.102-.801.2-1.102.102-.3 0-.597 0-.898-.204-.301-.097-.5-.296-.602-.5-.199-.199-.3-.5-.398-.796v-1c0-.301.199-.602.398-.903.2-.3.403-.5.7-.8.3-.2.703-.399 1-.598.203 0 .402-.102.601-.2H73.398c0 .2-.199.399-.296.598v.102h-1c-.102 0-.204 0-.403.097-.199 0-.398.204-.597.301-.204.102-.301.301-.403.403 0 .199-.199.296-.199.5v.597c0 .2.102.403.3.602.098.097.302.3.4.3.198 0 .3.098.5 0 .198 0 .402 0 .6-.101.098 0 .2 0 .302-.102 0 0 .199 0 .296-.199 0 0 .204-.097.204-.199 0 0 .097-.102.199-.2h.199c.2 0 .398.098.602.2ZM80.8 91.5c-.3.2-.698.398-1 .5h-.5c-.198-.2-.402-.398-.6-.602-.7.301-1.4.704-2.098 1v.903s0 .097-.102.199c0 0-.102.102-.3.2-.302.1-.7.3-1 .402.3-1.704.6-3.5.8-5.204.398-.199.8-.398 1.3-.597 1.2 1.097 2.5 2.097 3.7 3.097Zm-2.698-.602c-.301-.296-.602-.597-.903-.898 0 0-.097-.102-.199-.2 0 0-.2-.198-.2-.3V90.199c0 .5 0 .903-.1 1.403.5-.204 1-.5 1.5-.704ZM82.5 90.602c-.398.199-.898.5-1.3.699-.598-1.403-1.098-2.801-1.7-4.102.398-.199.8-.398 1.2-.699.6 1.398 1.198 2.7 1.8 4.102ZM85 84.898v.204l-.102.097h-.796c-.102 0-.204.102-.403.2-.199.101-.398.3-.398.402v.398s.097.102.199.102h.3c.098 0 .302 0 .4-.102.198 0 .3-.097.5-.199.198 0 .3-.102.5-.102h.5c.198 0 .3 0 .402.102.097 0 .199.2.296.398 0 .204.102.403.102.602 0 .2 0 .398-.2.7-.1.198-.3.5-.5.698-.198.204-.5.403-.8.602-.2.102-.398.2-.5.3-.2 0-.398.2-.602.2-.199 0-.398 0-.5.102h-.5c0-.204.102-.403.204-.704v-.097l.097-.102h.903c.097 0 .296-.097.5-.199.199-.102.398-.3.5-.398v-.5l-.204-.204h-.296c-.102 0-.301 0-.403.102-.199 0-.3.102-.5.2-.199 0-.3.1-.5.1h-.5c-.199 0-.3 0-.398-.198-.102 0-.2-.204-.301-.403 0-.199-.102-.3 0-.5 0-.199 0-.398.2-.597 0-.204.198-.403.402-.602.199-.2.398-.398.699-.602.199-.097.3-.199.5-.296.199 0 .3-.102.5-.204.199 0 .3 0 .398-.097h.403v.597ZM87.2 83.2c.198.3.402.6.5.902.5-.403 1.1-.801 1.6-1.204.098.204.302.403.4.704-.5.398-1.098.796-1.598 1.199.199.3.398.597.5.898.699-.5 1.398-1.097 2.097-1.597.102.199.301.5.403.699-1.102.898-2.301 1.699-3.403 2.5C87 86 86.301 84.699 85.5 83.398c1.102-.796 2.102-1.597 3.2-2.398.1.2.3.398.402.7-.704.5-1.403 1.1-2 1.6Zm0 0" style="stroke:none;fill-rule:nonzero;fill:#e21e26;fill-opacity:1"/></svg>