<svg xmlns="http://www.w3.org/2000/svg" width="60" height="60"><path d="M33.398 28.36h-.468V17.11a.94.94 0 0 0-.938-.938h-3.75a.949.949 0 0 0-.668.27 26.045 26.045 0 0 1-3.937 3.234l-.61.398a.93.93 0 0 0-.257 1.301l1.875 2.813a.93.93 0 0 0 1.3.257l1.36-.902v4.816h-.47a2.35 2.35 0 0 0-2.343 2.344v2.344a.94.94 0 0 0 .938.937h9.375a.94.94 0 0 0 .937-.937v-2.344a2.35 2.35 0 0 0-2.344-2.344Zm.47 3.75h-7.5v-1.407a.47.47 0 0 1 .468-.469h1.406a.94.94 0 0 0 .938-.937v-7.5a.94.94 0 0 0-1.453-.785l-2.028 1.36-.832-1.255a28.783 28.783 0 0 0 3.774-3.07h2.414v11.25a.94.94 0 0 0 .937.937h1.406a.47.47 0 0 1 .47.47Zm0 0" style="stroke:none;fill-rule:nonzero;fill:#df0957;fill-opacity:1"/><path d="m58.863 52.688-4.101-5.848 3.89-5.836c.328-.492.2-1.16-.293-1.488a1.08 1.08 0 0 0-.597-.176h-9.668v-.328a5.044 5.044 0 0 0 1.629-3.54 4.604 4.604 0 0 0-.41-2.015c1.675-.633 2.683-2.121 2.976-3.61.293-1.488-.07-3.245-1.371-4.464 1.3-1.219 1.664-2.988 1.371-4.465-.293-1.488-1.3-2.977-2.977-3.61.739-1.628.399-3.398-.445-4.652-.844-1.254-2.344-2.25-4.125-2.191.059-1.781-.937-3.281-2.191-4.125-1.254-.844-3.024-1.184-4.653-.445-.632-1.676-2.12-2.672-3.609-2.977-1.488-.293-3.246.07-4.465 1.371-1.219-1.3-2.988-1.664-4.465-1.371-1.488.293-2.976 1.3-3.609 2.977-1.629-.739-3.398-.399-4.652.445-1.254.844-2.25 2.344-2.192 4.125-1.781-.059-3.281.937-4.125 2.191-.844 1.254-1.183 3.024-.445 4.653-1.664.62-2.672 2.109-2.965 3.597-.293 1.489.07 3.246 1.371 4.465-1.3 1.219-1.664 2.988-1.37 4.465.292 1.488 1.3 2.977 2.976 3.61a4.52 4.52 0 0 0-.399 2.109A5.084 5.084 0 0 0 11.566 39v.328H1.898c-.597 0-1.078.48-1.078 1.078 0 .211.059.422.176.598l3.902 5.848-3.89 5.847c-.328.492-.2 1.16.293 1.489.176.117.387.175.597.175h10.747c.597 0 1.078-.48 1.078-1.078v-1.078h32.226v1.078c0 .598.48 1.078 1.078 1.078h10.97c.597 0 1.077-.48 1.077-1.078a1.119 1.119 0 0 0-.21-.597Zm-47.297-.458H3.902l3.188-4.77a1.06 1.06 0 0 0 0-1.194l-3.188-4.782h7.664Zm34.371-2.156H13.712V43.63h32.227Zm0-8.59H13.712V39.34h32.227Zm-30.07-16.113c0-7.71 6.258-13.969 13.969-13.969 7.71 0 13.969 6.258 13.969 13.97a13.95 13.95 0 0 1-6.528 11.812H22.383a13.856 13.856 0 0 1-6.516-11.813Zm30.996 11.813h-6.082c6.54-6.047 6.938-16.254.89-22.793-6.046-6.54-16.253-6.938-22.792-.891-6.54 6.047-6.938 16.254-.89 22.793.28.305.585.598.89.89h-6.082a2.854 2.854 0 0 1-.703-1.722c-.035-.738.258-1.441.844-2.016a1.075 1.075 0 0 0 0-1.523c-.2-.2-.481-.317-.762-.317h-.035c-1.641 0-2.461-1.171-2.66-2.19-.2-1.02.105-2.427 1.652-3.06a1.07 1.07 0 0 0 .586-1.394 1.106 1.106 0 0 0-.598-.598c-1.535-.62-1.851-2.039-1.64-3.047.199-1.007 1.019-2.191 2.66-2.191h.023a1.073 1.073 0 0 0 1.09-1.055 1.15 1.15 0 0 0-.316-.785c-1.184-1.16-.926-2.59-.352-3.445.574-.867 1.793-1.64 3.316-.996l.012.011a1.075 1.075 0 0 0 1.395-.585c.105-.258.105-.551 0-.81v-.01c-.645-1.536.128-2.743.996-3.317.867-.574 2.285-.832 3.457.363a1.075 1.075 0 0 0 1.523 0c.2-.2.317-.48.317-.773-.012-1.653 1.171-2.485 2.191-2.684 1.02-.2 2.426.106 3.059 1.652.222.551.855.809 1.394.586.27-.105.48-.328.598-.597.62-1.535 2.039-1.852 3.047-1.64 1.007.21 2.203 1.03 2.191 2.683a1.073 1.073 0 0 0 1.055 1.09c.293 0 .574-.118.785-.317 1.16-1.184 2.59-.926 3.445-.351.867.574 1.64 1.793.996 3.316 0 0 0 .012-.011.012-.223.55.046 1.172.586 1.394.257.106.55.106.808 0h.012c1.535-.644 2.742.13 3.316.996.574.867.832 2.285-.363 3.457a1.075 1.075 0 0 0 0 1.524c.2.199.48.316.762.316h.011c1.664-.012 2.485 1.172 2.684 2.192.2 1.02-.105 2.425-1.652 3.058a1.07 1.07 0 0 0-.586 1.395c.105.27.328.48.597.597 1.535.621 1.852 2.04 1.641 3.047-.2 1.008-1.02 2.192-2.66 2.192h-.035a1.075 1.075 0 0 0-.762 1.84 2.63 2.63 0 0 1 .832 1.956 2.68 2.68 0 0 1-.68 1.747Zm1.23 15.046V41.484h7.665l-3.188 4.77c-.246.363-.234.855.012 1.219l3.34 4.757Zm0 0" style="stroke:none;fill-rule:nonzero;fill:#df0957;fill-opacity:1"/></svg>