<svg xmlns="http://www.w3.org/2000/svg" xmlns:xlink="http://www.w3.org/1999/xlink" width="130" height="72" viewBox="0 0 129 72"><defs><clipPath id="b"><path d="M0 0h129v72H0z"/></clipPath><clipPath id="c"><path d="M0 0h129v72H0z"/></clipPath><clipPath id="d"><path d="M0 0h129v72H0z"/></clipPath><clipPath id="e"><path d="M0 0h129v72H0z"/></clipPath><mask id="i"><g filter="url(#a)"><path style="fill:#000;fill-opacity:.4;stroke:none" d="M0 0h129v72H0z"/></g></mask><mask id="g"><g filter="url(#a)"><path style="fill:#000;fill-opacity:.4;stroke:none" d="M0 0h129v72H0z"/></g></mask><mask id="k"><g filter="url(#a)"><path style="fill:#000;fill-opacity:.4;stroke:none" d="M0 0h129v72H0z"/></g></mask><mask id="m"><g filter="url(#a)"><path style="fill:#000;fill-opacity:.4;stroke:none" d="M0 0h129v72H0z"/></g></mask><g id="h" clip-path="url(#c)"><path style="stroke:none;fill-rule:nonzero;fill:#fff;fill-opacity:1" d="M42.14 51.406v-14.11h3.872c4.011 0 5.445 1.727 5.445 3.743 0 1.152-.574 2.305-1.578 3.023 1.434.434 2.293 1.731 2.293 3.168 0 2.594-1.719 4.176-5.73 4.176H42.14Zm2.723-8.062h1.29c1.722 0 2.581-.864 2.581-2.016 0-1.152-.859-1.871-3.011-1.871h-.86Zm1.29 1.87h-1.29v4.032h1.434c2.008 0 3.152-.574 3.152-2.016 0-1.152-.86-2.015-3.297-2.015Zm0 0"/></g><g id="j" clip-path="url(#d)"><path style="stroke:none;fill-rule:nonzero;fill:#fff;fill-opacity:1" d="M58.05 44.352c0-4.465 2.868-7.2 6.735-7.2 2.438-.289 4.73 1.153 5.59 3.457l-2.578 1.008c-.574-1.297-1.719-2.16-3.152-2.015-2.293 0-3.727 1.87-3.727 4.75 0 2.878 1.434 4.894 4.012 4.894 1.433 0 2.867-.863 3.441-2.156l2.004 1.437a5.962 5.962 0 0 1-5.59 3.024c-4.012 0-6.734-2.735-6.734-7.2Zm0 0"/></g><g id="f" clip-path="url(#b)"><path style="stroke:none;fill-rule:nonzero;fill:#fff;fill-opacity:1" d="M98.758 51.406v-14.11h8.887v2.161h-6.165v3.598h4.442v2.16h-4.442v4.031h6.305v2.16Zm0 0"/></g><g id="l" clip-path="url(#e)"><path style="stroke:none;fill-rule:nonzero;fill:#fff;fill-opacity:1" d="M78.547 51.406v-14.11h4.3c4.872 0 7.739 2.59 7.739 7.056 0 4.03-3.008 7.054-8.027 7.054Zm4.012-2.16c3.586 0 5.304-2.156 5.304-4.894 0-3.168-1.578-4.895-5.015-4.895H81.27v9.79Zm0 0"/></g><filter id="a" filterUnits="objectBoundingBox" x="0%" y="0%" width="100%" height="100%"><feColorMatrix in="SourceGraphic" values="0 0 0 0 1 0 0 0 0 1 0 0 0 0 1 0 0 0 1 0"/></filter></defs><path style="stroke:none;fill-rule:nonzero;fill:#fff;fill-opacity:1" d="M105.063 8.785h-81.27c-6.734 0-12.04 5.473-12.04 12.094V54c0 6.77 6.02 12.383 13.329 12.383h1.434c2.582 0 5.02-.719 7.168-2.016h71.668c6.734 0 12.039-5.472 12.039-12.094v-31.25c-.145-6.765-5.45-12.238-12.329-12.238.145 0 .145 0 0 0Zm0 0"/><path style="stroke:none;fill-rule:nonzero;fill:#ef4123;fill-opacity:1" d="M105.063 60.191h-11.61v-31.68h11.61c4.3 0 7.742 3.458 7.742 7.778v15.984c.14 4.32-3.297 7.918-7.743 7.918Zm0 0"/><use xlink:href="#f" mask="url(#g)"/><path style="stroke:none;fill-rule:nonzero;fill:#77787b;fill-opacity:1" d="M21.93 17.566v4.32h-1.72v-7.488h1.29l3.582 4.465v-4.465h1.723v7.633H25.37ZM31.39 20.45c.286 0 .575 0 .715-.145.145-.145.43-.29.43-.434.145-.285.29-.43.29-.719V14.4h1.718v3.89c0 .43 0 1.008-.145 1.438-.14.433-.285.867-.57 1.152-.289.289-.574.578-1.004.863-1.004.434-2.008.434-3.011 0-.43-.14-.715-.43-1.004-.863-.286-.285-.43-.719-.57-1.152-.145-.43-.145-1.008-.145-1.438V14.4h1.718v3.89c0 .285 0 .574.145.863 0 .29.145.434.285.72.145.144.29.433.43.433.144.144.43.144.719.144ZM41.852 15.84h-2.293v6.047h-1.72V15.84h-2.292v-1.442h6.305v1.442ZM42.715 21.887v-7.489h3.437c.29 0 .72 0 1.004.29.285.144.574.289.719.578.285.285.43.574.57.863.145.285.145.574.145.863 0 .29 0 .434-.145.719 0 .144-.14.434-.285.578-.144.145-.285.43-.43.574-.144.145-.289.29-.574.434l1.719 2.879h-2.004l-1.578-2.45h-.86v2.45ZM44.434 18h1.578c.14 0 .43-.145.57-.29.145-.284.29-.429.29-.718s-.145-.578-.29-.719c-.14-.144-.285-.289-.57-.289h-1.578ZM49.879 21.887v-7.489h1.723v7.633ZM52.89 19.727v-1.582h3.297v1.582ZM62.063 16.559l-.286-.145c-.144-.14-.289-.14-.43-.285-.144-.145-.429-.145-.574-.29h-.714c-.29 0-.434 0-.72.145-.144.145-.284.29-.284.43 0 .145 0 .29.14.29l.29.288c.14.145.285.145.43.145l.714.144c.289.145.719.145 1.004.285.289.145.574.29.719.434.14.145.43.434.43.574.14.29.14.578.14.867 0 .43-.14.72-.285 1.153-.145.285-.43.574-.575.718-.285.145-.574.29-.859.43-.285.145-.715.145-1.004.145-.574 0-1.144-.145-1.719-.285-.289-.145-.574-.145-.859-.29-.289-.144-.574-.289-.719-.433l.72-1.438.284.145c.145.14.43.14.574.285.286.145.575.145.715.29.29.144.575.144.864.144.57 0 .859-.145.859-.578 0-.141 0-.286-.145-.43-.144-.145-.285-.145-.43-.29-.144-.144-.429-.144-.573-.144l-.715-.289c-.29-.14-.575-.14-.864-.285a1.944 1.944 0 0 1-.57-.434 1.953 1.953 0 0 1-.43-.574c.141 0 .141-.289.141-.578 0-.43.145-.719.29-1.008.14-.289.284-.574.57-.718.288-.145.574-.434.863-.434.285-.145.715-.145 1.004-.145h.859c.285 0 .43.145.715.145.289 0 .43.145.574.289l.574.29ZM63.64 18c0-.434.145-1.008.286-1.441.144-.43.43-.864.719-1.153.285-.285.714-.574 1.144-.863.43-.285 1.004-.285 1.578-.285.574 0 1.29.14 1.719.43.43.289.86.718 1.148 1.152l-1.433 1.008c0-.145-.145-.29-.29-.434-.14-.14-.284-.285-.429-.285-.14-.145-.285-.145-.43-.145h-.43c-.284 0-.574 0-.859.145-.285.144-.43.285-.574.574-.14.29-.285.434-.285.723-.145.285-.145.574-.145.863 0 .285 0 .574.145.863.144.29.144.575.43.72.144.144.285.433.574.433.285.144.43.144.715.144h.43c.144 0 .288-.144.429-.144.145-.145.29-.145.43-.29.144-.144.144-.288.289-.43l1.433.864c-.144.285-.289.574-.574.719-.144.289-.43.434-.719.574-.285.145-.57.29-.859.29-.285.144-.57.144-.86.144-.429 0-1.003-.145-1.433-.29-.43-.284-.86-.573-1.144-.863-.29-.43-.575-.863-.72-1.296-.284-.72-.284-1.153-.284-1.727ZM74.102 22.031c-.43 0-1-.144-1.43-.289-.434-.14-.863-.574-1.149-.863-.285-.43-.574-.719-.714-1.293-.145-.434-.29-1.012-.29-1.441 0-.434.145-1.008.29-1.442.14-.43.43-.863.714-1.152.286-.285.715-.574 1.149-.864.43-.144 1-.289 1.43-.289.433 0 1.003.145 1.433.29 1.293.718 2.153 2.015 2.153 3.601 0 .43-.145 1.008-.29 1.438-.14.433-.43.867-.859 1.152-.285.289-.715.578-1.144.863-.29.145-.86.145-1.293.29Zm-1.72-3.886c0 .289 0 .574.145.863.145.289.145.433.43.719.145.144.285.433.574.578.285.144.57.144.86.144.285 0 .574 0 .859-.144.285-.145.43-.29.574-.578.14-.286.285-.43.285-.72 0-.288.145-.573.145-.862 0-.29 0-.579-.145-.864-.144-.289-.144-.578-.43-.722-.144-.145-.284-.43-.574-.43-.285-.145-.57-.145-.714-.145-.29 0-.575 0-.86.145-.289.144-.43.285-.574.574-.144.29-.285.434-.285.723-.29.14-.29.43-.29.719ZM78.691 21.887v-7.489h3.438c.289 0 .719 0 1.004.29.289.144.574.289.719.578.285.285.43.574.57.863.144.285.144.574.144.863 0 .29 0 .434-.144.719 0 .144-.14.434-.285.578-.145.145-.285.43-.43.574-.144.145-.285.29-.574.434l1.719 2.879h-1.72l-1.573-2.45H80.41v2.45ZM80.555 18h1.574c.144 0 .43-.145.574-.29.145-.284.285-.429.145-.718 0-.289 0-.578-.29-.719-.14-.144-.285-.289-.57-.289H80.41ZM91.305 20.45v1.581H86v-7.633h5.16v1.442H87.72v1.441h3.011v1.438H87.72v1.586h3.586Zm0 0"/><path style="stroke:none;fill-rule:nonzero;fill:#80c342;fill-opacity:1" d="M54.754 28.512H37.84c1.148 1.87 1.719 3.886 1.719 6.047v19.586c0 2.16-.57 4.175-1.72 6.046h16.915Zm0 0"/><path style="stroke:none;fill-rule:nonzero;fill:#ffcb05;fill-opacity:1" d="M54.754 28.512h19.348v31.68H54.754Zm0 0"/><path style="stroke:none;fill-rule:nonzero;fill:#f58220;fill-opacity:1" d="M74.102 28.512h19.351v31.68H74.102Zm0 0"/><use xlink:href="#h" mask="url(#i)"/><use xlink:href="#j" mask="url(#k)"/><use xlink:href="#l" mask="url(#m)"/><path style="stroke:none;fill-rule:nonzero;fill:#008a4b;fill-opacity:1" d="M23.648 46.078h3.872l-1.864-5.902Zm0 0"/><path style="stroke:none;fill-rule:nonzero;fill:#008a4b;fill-opacity:1" d="M26.375 24.48h-1.434c-6.02 0-10.894 4.465-10.894 9.934V54c0 5.473 4.875 10.078 10.894 10.078h1.434c6.02 0 10.89-4.46 10.89-10.078V34.559c0-5.614-4.87-10.079-10.89-10.079Zm3.297 28.512-1.004-3.023h-6.309l-1.004 3.023h-4.44l6.878-18.863h3.871l6.879 18.863Zm0 0"/></svg>