<svg xmlns="http://www.w3.org/2000/svg" xmlns:xlink="http://www.w3.org/1999/xlink" width="140" height="86" viewBox="0 0 139 86"><defs><clipPath id="b"><path d="M0 0h139v86H0z"/></clipPath><clipPath id="c"><path d="M0 0h139v86H0z"/></clipPath><clipPath id="d"><path d="M0 0h139v86H0z"/></clipPath><mask id="f"><g filter="url(#a)"><path style="fill:#000;fill-opacity:.2;stroke:none" d="M0 0h139v86H0z"/></g></mask><mask id="h"><g filter="url(#a)"><path style="fill:#000;fill-opacity:.2;stroke:none" d="M0 0h139v86H0z"/></g></mask><mask id="j"><g filter="url(#a)"><path style="fill:#000;fill-opacity:.2;stroke:none" d="M0 0h139v86H0z"/></g></mask><g id="e" clip-path="url(#b)"><path style="stroke:none;fill-rule:nonzero;fill:#e5d3da;fill-opacity:1" d="M104.414 42.914c0 19.637-15.867 35.559-35.441 35.559-19.575 0-35.442-15.922-35.442-35.559 0-19.637 15.867-35.555 35.442-35.555 19.574 0 35.441 15.918 35.441 35.555Zm0 0"/></g><g id="g" clip-path="url(#c)"><path style="stroke:none;fill-rule:nonzero;fill:#fff;fill-opacity:1" d="M28.379 26.832c-3.344 3.18-2.422 4.996-10.473 4.996l.922-11.91.512-8.727h8.082c0-.035.512 11.43.957 15.641Zm0 0"/></g><g id="i" clip-path="url(#d)"><path style="stroke:none;fill-rule:nonzero;fill:#fff;fill-opacity:1" d="M117.852 36.926c-1.875 1.129-3.82 1.812-6.344 1.402-1.91-21.387 3.207-28.781 3.207-28.781s1.262-2.223 3.41-.582c1.16.89-.102 24.742-.273 27.96Zm0 0"/></g><filter id="a" filterUnits="objectBoundingBox" x="0%" y="0%" width="100%" height="100%"><feColorMatrix in="SourceGraphic" values="0 0 0 0 1 0 0 0 0 1 0 0 0 0 1 0 0 0 1 0"/></filter></defs><path style="fill-rule:nonzero;fill:#e7246f;fill-opacity:1;stroke-width:1;stroke-linecap:butt;stroke-linejoin:miter;stroke:#e6007e;stroke-opacity:1;stroke-miterlimit:10" d="M306.003 125.399c0 57.38-46.516 103.905-103.899 103.905S98.206 182.78 98.206 125.4 144.72 21.505 202.104 21.505c57.383 0 103.899 46.514 103.899 103.894Zm0 0" transform="matrix(.34112 0 0 .34222 .032 0)"/><use xlink:href="#e" mask="url(#f)"/><path style="stroke:none;fill-rule:nonzero;fill:#dd81b3;fill-opacity:1" d="M68.973 68.855c-12.336 0-22.953-8.742-25.36-20.882-2.406-12.137 4.067-24.29 15.465-29.024 11.399-4.734 24.54-.734 31.395 9.555 6.851 10.289 5.504 24.004-3.22 32.754a25.534 25.534 0 0 1-18.28 7.597Zm0-50.308c-13.414 0-24.29 10.91-24.29 24.367s10.876 24.367 24.29 24.367 24.285-10.91 24.285-24.367c-.016-13.45-10.88-24.348-24.285-24.367Zm0 0"/><path style="stroke:none;fill-rule:nonzero;fill:#403e56;fill-opacity:1" d="M68.973 68.066c13.847.004 25.074-11.257 25.07-25.152l-25.14-.035Zm0 0"/><path style="stroke:none;fill-rule:nonzero;fill:#9694b7;fill-opacity:1" d="M44.547 37.164a24.71 24.71 0 0 0-.649 5.715c0 13.894 11.227 25.156 25.075 25.156v-30.87Zm0 0"/><path style="stroke:none;fill-rule:nonzero;fill:#575a8a;fill-opacity:1" d="M68.973 17.762v25.117l25.07.035c.004-13.89-11.223-25.156-25.07-25.152Zm0 0"/><path style="stroke:none;fill-rule:nonzero;fill:#403e56;fill-opacity:1" d="M68.973 17.762c-11.657.004-21.77 8.054-24.426 19.437h24.355c0-.035.035-14.375.07-19.437Zm0 0"/><path style="fill:none;stroke-width:3;stroke-linecap:butt;stroke-linejoin:miter;stroke:#dd81b3;stroke-opacity:1;stroke-miterlimit:10" d="M202.104 51.901v146.995M129.4 108.597h72.704M202.906 125.399h72.693" transform="matrix(.34112 0 0 .34222 .032 0)"/><path style="fill:none;stroke-width:1;stroke-linecap:butt;stroke-linejoin:miter;stroke:#fff;stroke-opacity:1;stroke-miterlimit:10" d="M166.296 130.398c-.997-.901-3.7.297-4.993.902.4 1.404 1.9 2.797 2.702 3.904 3.997 4.794 3.596 7.899 3.596 7.899s-6.207 2.602-8.6 3.401a15.527 15.527 0 0 1-2.405-6.609c-.091-.993 0-1.997-.091-2.99a19.052 19.052 0 0 0-.802-3.208 7.66 7.66 0 0 0-3.802 2.808c-.39.594-.39 1.37 0 1.975s1.088.924 1.798.822a1.466 1.466 0 0 1-.298-1.199c.023-.365.206-.696.504-.902a1.843 1.843 0 0 1 1.89-.102 2.807 2.807 0 0 1 .103 3.903 5.947 5.947 0 0 1-3.997 1.792 6.914 6.914 0 0 1-5.806-3.892c-1.992-4.098-.297-11.403 8.108-15.204 6.802-3.093 15.7-.194 16.593 6.7.31 2.1.103 4.2-1.592 5.4a3.744 3.744 0 0 1-3.802.604c-1.007-.502-2.107-1.803-1.397-2.808a1.41 1.41 0 0 1 1.397-.707 1.439 1.439 0 0 1 1.203 1.016 2.24 2.24 0 0 0 .71-1.827 2.252 2.252 0 0 0-1.02-1.678Zm0 0" transform="matrix(.34112 0 0 .34222 .032 0)"/><path style="stroke:none;fill-rule:nonzero;fill:#fff;fill-opacity:1" d="M61.465 47.363a2.33 2.33 0 0 0-1.192 1.575 2.646 2.646 0 0 1-1.23 1.675 2.176 2.176 0 0 0-1.055 1.61c-.207 1.949 1.91 4.105 4.196 4.14a3.74 3.74 0 0 0 2.625-1.3c1.261-1.368 2.593-3.422 1.843-5.372-.851-2.156-3.445-3.183-5.187-2.328Zm0 0"/><path style="stroke:none;fill-rule:nonzero;fill:#fff;fill-opacity:1" d="M65.355 53.762c-.238.343-.546.687-.851 1.062a3.33 3.33 0 0 1-2.32 1.164 4.07 4.07 0 0 1-2.934-1.402c-.613-.719-.957-1.543-.852-2.262.04-.265.13-.523.27-.75.16-.219.355-.402.582-.55.352-.231.664-.52.922-.856.223-.336.394-.703.512-1.094.066-.297.195-.574.375-.82a1.82 1.82 0 0 1 .613-.516c.77-.34 1.648-.34 2.422 0a3.84 3.84 0 0 1 2.219 2.157c.406 1.062.101 2.398-.958 3.867Zm0 0"/><path style="stroke:none;fill-rule:nonzero;fill:#fff;fill-opacity:1" d="M62.219 56.023a4.144 4.144 0 0 1-3.004-1.437 3.122 3.122 0 0 1-.887-2.293 1.71 1.71 0 0 1 .309-.79c.152-.233.363-.421.613-.546a2.8 2.8 0 0 0 .922-.855c.223-.34.394-.707.512-1.094.066-.297.195-.578.375-.824.156-.235.382-.414.648-.512a2.625 2.625 0 0 1 1.191-.274c.434-.003.864.079 1.262.239a4.056 4.056 0 0 1 2.254 2.191c.441 1.164.137 2.496-.922 3.969-.262.371-.547.723-.851 1.062-.618.547-1.504 1.164-2.422 1.164Zm.613-8.523c-.39-.012-.773.07-1.125.238-.23.114-.43.278-.582.48a2.838 2.838 0 0 0-.34.79c-.117.398-.289.777-.512 1.129a3.344 3.344 0 0 1-.957.886 2.278 2.278 0 0 0-.578.551c-.16.207-.254.457-.273.719a3.09 3.09 0 0 0 .851 2.223 4.061 4.061 0 0 0 2.903 1.402h.031c.887 0 1.742-.582 2.254-1.129.305-.336.59-.691.851-1.059 1.024-1.437 1.332-2.738.922-3.867a3.73 3.73 0 0 0-2.183-2.125 4.621 4.621 0 0 0-1.262-.238Zm0 0"/><path style="stroke:none;fill-rule:nonzero;fill:#9694b7;fill-opacity:1" d="M60.988 49.11c.477-1.2 2.117-1.301 3.07-.926a2.934 2.934 0 0 1 1.653 1.582c.312.726.32 1.55.02 2.285-.442 1.164-.954 1.097-1.126.683a6.093 6.093 0 0 0-1.125-1.777A3.798 3.798 0 0 0 61.637 50a1.178 1.178 0 0 1-.614-.379.541.541 0 0 1-.035-.512ZM59.898 50.992c-.273.067-.445.375-.546.649a3.005 3.005 0 0 0-.239 1.062c-.035.957.578 1.746 1.364 2.258.445.277.949.453 1.468.512a2.52 2.52 0 0 0 1.637-.375c1.023-.618 1.09-1.23.715-1.438-1.125-.582-2.524-.41-3.274-1.61-.238-.374-.34-.956-.82-1.093a.676.676 0 0 0-.305.035Zm0 0"/><path style="stroke:none;fill-rule:nonzero;fill:#fff;fill-opacity:1" d="M63 49.656c-.066-.035-.102-.238-.031-.375a.253.253 0 0 1 .34-.207c.136.07.136.274.035.41-.102.137-.239.207-.344.172ZM62.32 49.555c-.101-.098-.14-.242-.101-.38 0-.167.136-.308.27-.273.07.032.124.09.148.16a.268.268 0 0 1-.012.22c-.102.167-.238.304-.305.273ZM63.684 49.965c-.067-.035-.067-.238 0-.38.07-.136.203-.273.34-.202.136.066.136.273.035.41-.102.137-.305.207-.375.172ZM64.16 50.375a.452.452 0 0 1 .106-.375.286.286 0 0 1 .187-.125.29.29 0 0 1 .219.055c.043.062.055.14.035.21a.251.251 0 0 1-.137.165c-.172.105-.375.136-.41.07ZM64.367 51.059c-.035-.067.102-.239.238-.309.137-.066.34-.066.41.07.067.137-.07.274-.238.309-.172.031-.379 0-.41-.07ZM60.715 52.734c-.031-.066-.238-.03-.375.036a.27.27 0 0 0-.168.152.285.285 0 0 0 0 .226c.066.137.273.102.406 0a.536.536 0 0 0 .137-.414ZM60.512 52.121c-.035-.07-.239-.105-.375-.07a.299.299 0 0 0-.239.344c.043.066.11.113.188.125a.286.286 0 0 0 .223-.06c.136-.1.238-.273.203-.339ZM61.125 53.352c-.035-.067-.238-.036-.375.035-.137.066-.238.273-.137.375.102.105.274.07.41-.032.137-.105.172-.277.102-.378ZM61.602 53.73c-.067-.035-.239.067-.34.168-.102.106-.137.309 0 .41a.275.275 0 0 0 .375-.168c.035-.171.07-.378-.035-.41ZM62.285 53.797c-.066 0-.203.137-.273.308a.268.268 0 0 0 .136.375c.137.036.274-.136.274-.308 0-.168-.035-.34-.137-.375Zm0 0"/><path style="stroke:none;fill-rule:nonzero;fill:#9694b7;fill-opacity:1" d="M63.344 52.43s-2.047-.344-2.832-2.09a3.602 3.602 0 0 1 2.832 2.09Zm0 0"/><path style="stroke:none;fill-rule:nonzero;fill:#fff;fill-opacity:1" d="M88.14 53.352a5.719 5.719 0 0 0-.714-2.497 5.871 5.871 0 0 0-1.946-2.054 10.934 10.934 0 0 0-6.753-1.781 9.09 9.09 0 0 0-3.446.96c-1.738.887-3.101 2.325-3.582 3.762-.304.926-.273 1.645.102 2.156.547.825 1.672.856 2.355.926h.203c.957.035 2.356.137 3.82 2.328a5.097 5.097 0 0 0 3.481 2.325c.317.058.637.082.957.07a5.398 5.398 0 0 0 3.102-.957c.07-.035.105-.106.172-.137a6.22 6.22 0 0 0 2.25-5.101Zm-2.624 4.62c-.036.036-.102.067-.137.102a4.7 4.7 0 0 1-3.617.754 4.627 4.627 0 0 1-3.07-2.055 5.871 5.871 0 0 0-2.352-2.187 5.192 5.192 0 0 0-1.91-.414h-.207c-.578-.031-1.5-.102-1.91-.649-.239-.343-.239-.925 0-1.644.343-1.024 1.367-2.461 3.277-3.422a8.705 8.705 0 0 1 3.922-.922c1.113.012 2.218.2 3.273.547a10.11 10.11 0 0 1 2.39 1.164 5.132 5.132 0 0 1 2.388 4.106 5.677 5.677 0 0 1-2.047 4.62Zm0 0"/><path style="stroke:none;fill-rule:nonzero;fill:#fff;fill-opacity:1" d="M87.152 53.387a4.571 4.571 0 0 0-2.218-3.766 8.671 8.671 0 0 0-2.286-1.094 10.286 10.286 0 0 0-3.171-.547 8.078 8.078 0 0 0-4.637 1.403c-1.094.754-1.91 1.746-2.219 2.703-.137.41-.238.957-.035 1.3.207.344.82.446 1.605.481h.204a5.516 5.516 0 0 1 2.046.442 6.222 6.222 0 0 1 2.524 2.328 4.186 4.186 0 0 0 3.617 1.953 4.227 4.227 0 0 0 2.488-.754c.035-.035.106-.07.137-.102a5.22 5.22 0 0 0 1.945-4.347Zm-2.285 3.832-.101.101a3.732 3.732 0 0 1-2.149.653 3.595 3.595 0 0 1-3.105-1.676 6.651 6.651 0 0 0-2.762-2.535c-.715-.301-1.48-.461-2.254-.477h-.203c-.887-.035-1.094-.172-1.125-.207-.035-.035-.035-.273.102-.754.273-.82 1.023-1.71 1.976-2.394a7.54 7.54 0 0 1 4.3-1.301 9.137 9.137 0 0 1 2.966.516 8.36 8.36 0 0 1 2.152 1.058 4.082 4.082 0 0 1 1.941 3.32 4.714 4.714 0 0 1-1.738 3.696Zm0 0"/><path style="stroke:none;fill-rule:nonzero;fill:#fff;fill-opacity:1" d="M83.129 52.121c-1.02 0-1.844.828-1.844 1.848s.824 1.847 1.844 1.847c1.016 0 1.84-.828 1.84-1.847a1.857 1.857 0 0 0-1.84-1.848Zm0 3.078c-.7 0-1.262-.566-1.262-1.265 0-.7.563-1.266 1.262-1.266.336-.008.66.125.898.363.239.239.368.567.364.903a1.285 1.285 0 0 1-1.262 1.265ZM77.703 49.281a.339.339 0 0 0-.41.102l-1.703 2.976a.339.339 0 0 0 .101.41c.04.028.09.04.137.036a.411.411 0 0 0 .274-.137l1.703-2.977a.338.338 0 0 0-.102-.41ZM80.195 49.348a.344.344 0 0 0-.41.101L77.5 53.387a.339.339 0 0 0 .102.41c.039.027.09.039.136.035a.429.429 0 0 0 .274-.137l2.285-3.937a.298.298 0 0 0-.102-.41ZM82.719 49.93a.344.344 0 0 0-.41.101l-2.97 5.133a.351.351 0 0 0 .106.414.18.18 0 0 0 .133.031.411.411 0 0 0 .274-.136l2.968-5.133a.307.307 0 0 0-.101-.41ZM82.273 55.953a.334.334 0 0 0-.406.102l-.308.515a.339.339 0 0 0 .101.41c.04.028.09.04.137.036a.429.429 0 0 0 .273-.137l.309-.516a.305.305 0 0 0 .035-.226.29.29 0 0 0-.14-.184ZM85.105 51.094a.339.339 0 0 0-.41.101l-.375.617a.35.35 0 0 0 .102.41c.043.028.09.04.137.036a.429.429 0 0 0 .273-.137l.375-.617a.339.339 0 0 0-.102-.41Zm0 0"/><path style="fill:none;stroke-width:1;stroke-linecap:butt;stroke-linejoin:miter;stroke:#fff;stroke-opacity:1;stroke-miterlimit:10" d="M230.103 69.171a15.054 15.054 0 0 1-.47 3.436.69.69 0 0 1-.298.468c-1.442 1.085-1.637 5-.332 6.906.195.274.436.514.722.685l.126.068v35.031a.282.282 0 0 0 .263.183.258.258 0 0 0 .252-.183c.069-.114.069-.993.069-17.555V80.78h.103c.378-.148.687-.422.893-.776a5.728 5.728 0 0 0 .676-3.002 6.08 6.08 0 0 0-.756-3.196 2.428 2.428 0 0 0-.63-.73c-.114-.08-.137-.126-.206-.378a19.803 19.803 0 0 1-.378-3.287c-.023-.41-.034-.49-.034-.24Zm0 0" transform="matrix(.34112 0 0 .34222 .032 0)"/><path style="fill:none;stroke-width:1;stroke-linecap:butt;stroke-linejoin:miter;stroke:#fff;stroke-opacity:1;stroke-miterlimit:10" d="M223.713 74.605s.057.137.126.285a19.131 19.131 0 0 1 1.156 3.105l.103.422-.103.228a4.814 4.814 0 0 0 .264 3.413 5.673 5.673 0 0 0 2.69 3.196c.321.126.676.126.997 0 .378-.228.63-.616.699-1.05a6.22 6.22 0 0 0 0-1.598 7.44 7.44 0 0 0-1.901-3.72c-.401-.48-.94-.8-1.546-.937-.172 0-.206 0-.481-.33a14.633 14.633 0 0 1-1.924-2.797c-.034-.16-.08-.24-.08-.217ZM236.401 74.776c-.126.262-.55 1.004-.836 1.392a7.72 7.72 0 0 1-1.065 1.37c-.32.331-.332.343-.561.377-1.317.24-2.829 2.237-3.344 4.429a6.274 6.274 0 0 0-.057 1.792c.069.33.229.628.458.867.893.845 2.576-.217 3.641-2.305a6.416 6.416 0 0 0 .79-3.002c.024-.4-.045-.81-.217-1.176-.092-.194-.092-.194 0-.468.252-.936.584-1.85.996-2.728.321-.708.355-.765.332-.765ZM222.201 81.453c.63.868 1.214 1.77 1.73 2.717.263.525.274.582.206.856-.287 1.233.584 3.242 2.004 4.669.412.41.881.741 1.408.993.332.182.71.274 1.076.25 1.833-.09 1.329-3.287-.881-5.512a3.92 3.92 0 0 0-2.382-1.336c-.401 0-.493-.068-.996-.49a19.266 19.266 0 0 1-1.924-1.941c-.367-.4-.447-.514-.24-.206Zm0 0" transform="matrix(.34112 0 0 .34222 .032 0)"/><path style="fill:none;stroke-width:1;stroke-linecap:butt;stroke-linejoin:miter;stroke:#fff;stroke-opacity:1;stroke-miterlimit:10" d="M237.89 81.579a13.96 13.96 0 0 1-2.44 2.42.575.575 0 0 1-.458.148c-1.42 0-3.378 1.838-4.168 3.904-.217.468-.32.982-.309 1.495 0 .56 0 .56.126.8.103.262.298.479.561.593a.86.86 0 0 0 .561.068 2.03 2.03 0 0 0 .996-.297 7.204 7.204 0 0 0 3.31-4.485 3.51 3.51 0 0 0 0-1.199c-.057-.251-.057-.251.263-.879a22.466 22.466 0 0 1 1.672-2.614c.172-.262.115-.228-.114.046ZM222.236 87.286a20.33 20.33 0 0 1 1.89 3.093.598.598 0 0 1 0 .446c-.344 1.483.995 3.995 2.736 5.273.378.274.813.48 1.26.616.332.08.675.058.996-.068.939-.48.847-2.203-.23-3.995A8.033 8.033 0 0 0 227 90.608a3.257 3.257 0 0 0-1.775-.72c-.252 0-.366-.056-.824-.399a21.642 21.642 0 0 1-1.855-1.838c-.55-.65-.55-.65-.31-.365Zm0 0" transform="matrix(.34112 0 0 .34222 .032 0)"/><path style="fill:none;stroke-width:1;stroke-linecap:butt;stroke-linejoin:miter;stroke:#fff;stroke-opacity:1;stroke-miterlimit:10" d="M237.89 87.366a17.076 17.076 0 0 1-2.119 2.146c-.435.342-.527.377-.79.377a4.243 4.243 0 0 0-2.828 1.723 6.164 6.164 0 0 0-1.65 3.71c-.057.48.138.947.504 1.244a.988.988 0 0 0 .768.183 3.592 3.592 0 0 0 2.221-1.21 7.242 7.242 0 0 0 2.084-3.664 3.379 3.379 0 0 0 0-1.176c-.057-.114 0-.16.252-.753a21.676 21.676 0 0 1 1.672-2.626c.172-.25.115-.217-.114.046ZM222.236 93.085a19.679 19.679 0 0 1 1.89 3.082.598.598 0 0 1 0 .445c-.367 1.563 1.098 4.234 3 5.433.412.308.915.48 1.442.502a.978.978 0 0 0 .997-.605c.56-1.13-.264-3.356-1.833-4.908a5.23 5.23 0 0 0-1.408-1.039 2.568 2.568 0 0 0-1.088-.285.648.648 0 0 1-.493-.183 10.628 10.628 0 0 1-.48-.354 19.828 19.828 0 0 1-1.684-1.712c-.584-.662-.584-.685-.343-.376Zm0 0" transform="matrix(.34112 0 0 .34222 .032 0)"/><path style="fill:none;stroke-width:1;stroke-linecap:butt;stroke-linejoin:miter;stroke:#fff;stroke-opacity:1;stroke-miterlimit:10" d="M237.684 93.416c-.573.65-1.18 1.255-1.833 1.826-.526.4-.607.434-.859.434-1.637 0-4.008 2.477-4.408 4.714a3.008 3.008 0 0 0 0 1.278c.08.388.355.697.721.845.138.011.286.011.424 0a3.69 3.69 0 0 0 2.405-1.301c.252-.263.538-.56.64-.697a7.046 7.046 0 0 0 1.34-2.796 3.061 3.061 0 0 0 0-1.29c0-.114 0-.137.207-.616a21.456 21.456 0 0 1 1.683-2.717c.218-.285.092-.171-.32.32ZM222.236 98.883a19.679 19.679 0 0 1 1.89 3.082.598.598 0 0 1 0 .445c-.344 1.496.995 3.995 2.759 5.297.47.376 1.042.604 1.649.639a.926.926 0 0 0 .527-.092c.939-.445.893-2.088-.115-3.812-.996-1.735-2.53-3.002-3.722-3.002a.69.69 0 0 1-.458-.148 13.887 13.887 0 0 1-2.324-2.238c-.367-.41-.447-.468-.206-.17Zm0 0" transform="matrix(.34112 0 0 .34222 .032 0)"/><path style="fill:none;stroke-width:1;stroke-linecap:butt;stroke-linejoin:miter;stroke:#fff;stroke-opacity:1;stroke-miterlimit:10" d="M237.684 99.203c-.573.65-1.18 1.267-1.833 1.837-.526.4-.572.423-.95.446a4.697 4.697 0 0 0-3.07 2.111 5.793 5.793 0 0 0-1.327 3.31c0 .754.263 1.233.79 1.404.504.092 1.019 0 1.465-.24a6.824 6.824 0 0 0 1.901-1.62 7.123 7.123 0 0 0 1.432-2.865 3.967 3.967 0 0 0 0-1.164.922.922 0 0 1 0-.251c.172-.491.39-.948.664-1.382a45.504 45.504 0 0 1 1.26-1.894c.263-.331.08-.183-.332.308Zm0 0" transform="matrix(.34112 0 0 .34222 .032 0)"/><path style="stroke:none;fill-rule:nonzero;fill:#403e56;fill-opacity:1" d="M3.816 78.438h130.207v.34H3.816Zm0 0"/><path style="stroke:none;fill-rule:nonzero;fill:#e72376;fill-opacity:1" d="M19.68 11.703h.613c0 .274.512 12.766.512 12.766s.613.547.957 0V11.773h.816l.617 12.766s.442.41.614 0c0-.516.441-12.902.441-12.902h.648l.477 12.902a.52.52 0 0 0 .36.152.512.512 0 0 0 .359-.152c0-.719.441-12.902.441-12.902h.547l1.363 17.691s.07 1.848-2.422 4.793c-.238.375-1.16 1.469-1.226 2.223-.067.754.988 40.074.988 40.074s-2.25 4.621-4.535 0c.102-2.43 1.227-39.8 1.227-39.8s-.852-2.223-1.637-2.669c-.238-.308-2.082-2.226-2.25-4.074-.035-1.746 1.09-18.172 1.09-18.172Zm0 0"/><use xlink:href="#g" mask="url(#h)"/><path style="stroke:none;fill-rule:nonzero;fill:#e72376;fill-opacity:1" d="M118.535 10.984s-.101-2.257-1.808-2.293c0 0-2.215-.785-4.024 7.121a60.486 60.486 0 0 0-1.195 10.606v9s.41 5.957 1.058 7.906c0 0 .852 3.969.922 5.578 0 0 .203 6.914-.172 10.883l-.921 16.805s.273 1.504 2.355 1.676h2.215s1.707-.309 2.015-1.575l-1.16-17.078s-.718-7.562-.48-10.777l.648-14.305.649-17.523c-.032-.035.035-5.27-.102-6.024Zm0 0"/><use xlink:href="#i" mask="url(#j)"/><path style="stroke:none;fill-rule:nonzero;fill:#fff;fill-opacity:1" d="M57.781 28.71a.768.768 0 0 0 .344-.855.14.14 0 1 0-.273.07c.058.2-.028.41-.207.512a.467.467 0 0 1-.543-.066.144.144 0 0 0-.207 0 .146.146 0 0 0 0 .203.674.674 0 0 0 .511.242.697.697 0 0 0 .375-.105ZM60.953 29.566a.199.199 0 0 0-.101.172c.058.2-.024.41-.204.516a.48.48 0 0 1-.546-.07.146.146 0 0 0-.204 0 .144.144 0 0 0 0 .207.659.659 0 0 0 .512.238.67.67 0 0 0 .375-.102.77.77 0 0 0 .34-.855.113.113 0 0 0-.055-.102.124.124 0 0 0-.117-.004ZM58.637 30.047a.114.114 0 0 0-.117.004.111.111 0 0 0-.055.097.416.416 0 0 1-.477.274.406.406 0 0 1-.375-.41.157.157 0 0 0-.172-.137.157.157 0 0 0-.136.172.68.68 0 0 0 .648.648h.102c.308.016.59-.18.683-.476a.19.19 0 0 0-.101-.172ZM59.25 29.363h.102a.69.69 0 0 0 .683-.48.143.143 0 0 0-.101-.172.143.143 0 0 0-.172.105.424.424 0 0 1-.477.274.409.409 0 0 1-.375-.41.154.154 0 0 0-.172-.137.153.153 0 0 0-.136.168c.046.34.312.605.648.652ZM59.691 30.867c-.066.035-.136.106-.101.172a.46.46 0 0 1-.235.512.46.46 0 0 1-.55-.102.146.146 0 0 0-.203 0 .144.144 0 0 0 0 .207c.14.153.336.242.546.239a.67.67 0 0 0 .375-.102.723.723 0 0 0 .375-.855.168.168 0 0 0-.207-.07ZM61.227 28.098a.386.386 0 0 1-.543.066.445.445 0 0 1-.207-.512.14.14 0 1 0-.274-.07.765.765 0 0 0 .121.66c.14.188.364.297.598.301.195 0 .383-.09.512-.242.066-.067.03-.137 0-.203-.036-.07-.172-.07-.207 0Zm0 0"/><path style="stroke:none;fill-rule:nonzero;fill:#fff;fill-opacity:1" d="M62.355 28.61a.908.908 0 0 0-.445-.786.974.974 0 0 0-.613-.824c0-.031-.035-.066-.035-.102.297-.242.52-.562.648-.925a.108.108 0 0 0-.004-.114.111.111 0 0 0-.097-.054c-.989-.344-1.536-.172-1.809 0a1.783 1.783 0 0 0-.922-1.266.122.122 0 0 0-.101-.035h-.036a.126.126 0 0 0-.101.035 1.783 1.783 0 0 0-.922 1.266c-.273-.172-.852-.344-1.809 0a.188.188 0 0 0-.101.168c.144.41.406.77.75 1.027a.968.968 0 0 0-.649.89v.172a.909.909 0 0 0-.304.684c.008.254.105.496.273.684a.777.777 0 0 0-.137.48.924.924 0 0 0 .614.89.968.968 0 0 0 .613 1.164c.129.384.484.641.887.65a.874.874 0 0 0 .41-.102.916.916 0 0 0 .75.375.963.963 0 0 0 .719-.34.999.999 0 0 0 1.226-.719.987.987 0 0 0 .75-.926.473.473 0 0 0-.035-.207.954.954 0 0 0 .445-.82.94.94 0 0 0-.273-.648c.2-.141.312-.375.308-.618Zm-6.039-2.602c1.196-.34 1.57.137 1.57.137.044.043.106.07.169.07.07 0 .101-.07.101-.137.012-.543.313-1.039.785-1.3.477.261.774.757.786 1.3 0 .067.035.102.101.137.07.035.137 0 .172-.07 0 0 .375-.512 1.57-.137a1.812 1.812 0 0 1-.511.652l-.07-.07c-.036-.035-.067-.035-.067-.067h-.035c-.035-.035-.067-.035-.102-.07h-.035a.126.126 0 0 0-.102-.035c-.035 0-.07-.031-.136-.031h-.172a1.005 1.005 0 0 0-.785.41.892.892 0 0 0-.645-.274.894.894 0 0 0-.648.274.924.924 0 0 0-.649-.274h-.238c-.035 0-.035 0-.07.032a.101.101 0 0 0-.067.035h-.035c-.035 0-.035.035-.07.035-.031.035-.102.066-.133.102-.3-.157-.543-.41-.684-.72Zm5.457 3.355a.658.658 0 0 1 .274.547.685.685 0 0 1-.41.617l-.137.067.035.136c.031.079.043.16.035.243a.664.664 0 0 1-.582.648h-.136v.137a.634.634 0 0 1-.918.512l-.106-.067-.066.102a.649.649 0 0 1-1.125-.035l-.07-.137-.137.105a.67.67 0 0 1-.375.102.682.682 0 0 1-.649-.48l-.031-.067-.07-.035a.629.629 0 0 1-.477-.649.929.929 0 0 1 .067-.308l.105-.172-.207-.035a.636.636 0 0 1-.547-.649.883.883 0 0 1 .137-.41l.105-.137-.136-.105a.64.64 0 0 1-.274-.512.598.598 0 0 1 .274-.515l.066-.067-.035-.101a.374.374 0 0 1-.031-.172.687.687 0 0 1 .543-.653h.07l.035-.066c.031-.035.031-.07.066-.102l.204-.207c.02 0 .035-.015.035-.035h.207c.21.004.41.106.543.274l.101.172.106-.172a.661.661 0 0 1 .543-.274.708.708 0 0 1 .582.344l.168.273.105-.308a.66.66 0 0 1 .613-.445h.137c.035 0 .035 0 .067.035h.035c.027.004.05.015.066.035.035 0 .035.035.07.035.02 0 .036.012.036.031l.03.035.071.07.035.032.102.207.031.066.07.036a.633.633 0 0 1 .477.652v.102l.07.035c.211.117.34.34.34.582a.72.72 0 0 1-.273.547l-.172.101Zm0 0"/><path style="stroke:none;fill-rule:nonzero;fill:#fff;fill-opacity:1" d="M62.387 29.227a.73.73 0 0 0-.168-.274v-.07a.895.895 0 0 0 .168-.649.95.95 0 0 0-.852-.89h-.172c.07-.035.102-.07.172-.102.215-.172.403-.383.547-.617a.17.17 0 0 0 0-.172c-.035-.066-.105-.066-.172-.035-.137.035-.238.105-.375.137-.137.035-.308.105-.445.136-.031 0-.031 0-.031-.03a2.63 2.63 0 0 0-.137-.72.124.124 0 0 0-.07-.07.116.116 0 0 0-.102 0c-.035 0-.035.035-.066.035-.172.172-.344.344-.547.512l-.715.687h-.035v-.753c.004-.13.023-.258.066-.38a.302.302 0 0 1 .238-.202c.07-.036.106-.07.106-.137a.182.182 0 0 0-.07-.137h-.137a.72.72 0 0 0-.274.172.731.731 0 0 0-.168.375c-.03.125-.043.25-.035.375v.719h-.035l-1.16-1.094-.066-.07a.13.13 0 0 0-.102-.051.137.137 0 0 0-.105.05.145.145 0 0 0-.032.071 2.685 2.685 0 0 0-.136.582v.137c0 .035 0 .035-.036.035l-.375-.106a2.557 2.557 0 0 1-.476-.168c-.07-.035-.172 0-.172.067v.035a.122.122 0 0 0 .035.102c.11.222.274.41.477.546a.642.642 0 0 0 .203.137h-.168a1.054 1.054 0 0 0-.785.582.683.683 0 0 0-.102.38.91.91 0 0 0 .168.581v.031a.835.835 0 0 0-.238.551v.203a.66.66 0 0 0 .07.274.847.847 0 0 0 .41.445c.032 0 .032.035.032.07a.955.955 0 0 0 .648.922.079.079 0 0 1 .07.07c.055.352.285.649.614.786.035 0 .035.035.035.07.078.41.406.727.816.785h.274a.95.95 0 0 0 .308-.066c.067-.035.102-.07.137-.07h.031a.975.975 0 0 0 .445.171h.204a.675.675 0 0 0 .273-.07.935.935 0 0 0 .578-.715c0-.02.016-.035.035-.035a.927.927 0 0 0 .614-.79v-.136c0-.035 0-.035.035-.035.199-.168.34-.394.41-.648v-.239c0-.035 0-.035.035-.035a.932.932 0 0 0 .34-.582.122.122 0 0 1 .035-.101v-.172a.823.823 0 0 0-.07-.41Zm-.274-1.028v.137a.758.758 0 0 1-.613.719 1.002 1.002 0 0 1-.305-.035c-.035 0-.035 0-.035-.036.164-.199.25-.457.238-.718a.825.825 0 0 0-.238-.547l-.035-.032h.035c.375-.109.77.102.887.477.066-.035.066 0 .066.035Zm-1.16-1.027a.363.363 0 0 0 .035-.203c0-.02.016-.035.035-.035.176-.032.344-.079.512-.137-.152.18-.351.312-.582.375Zm.207 1.129a.716.716 0 1 1-1.433 0 .72.72 0 0 1 .718-.719c.387.016.7.328.715.719Zm-2.969 1.781a.561.561 0 0 1-.375.172h-.066a.727.727 0 0 1-.719-.719c0-.082.008-.164.035-.242l.036-.031c.105-.008.207-.032.304-.07h.07c.172.078.364.09.544.035.035 0 .035 0 .035.035a1.33 1.33 0 0 0 .136.82Zm-.203.445a1.27 1.27 0 0 0 .41-.207h.032c.152.11.328.18.511.207.036 0 .036 0 .036.032.007.136.054.27.136.378v.036a.8.8 0 0 1-.445.168.718.718 0 0 1-.68-.614c-.035.032-.035 0 0 0Zm.34-.96a.727.727 0 0 1 .172-.446c0-.031.031-.031.066 0 .204.137.442.207.684.207a.67.67 0 0 0 .375-.101h.035a.709.709 0 0 1 0 .714.695.695 0 0 1-.625.348.7.7 0 0 1-.605-.379.477.477 0 0 1-.067-.238.13.13 0 0 1-.035-.106Zm.477 1.882c.172-.031.336-.101.48-.203a.036.036 0 0 1 .031-.016c.016 0 .028.004.036.016a.9.9 0 0 0 .714.203h.106c.031 0 .031 0 .031.035a.713.713 0 0 1-.71.547.72.72 0 0 1-.688-.582Zm1.23-.273h-.07a.757.757 0 0 1-.715-.617c0-.032 0-.032.035-.032.149-.043.285-.113.406-.207h.036c.132.117.3.188.476.207.149.02.3.012.445-.035.036 0 .036 0 .036.035a.762.762 0 0 1-.649.649Zm.442-.922a.73.73 0 0 1-.579-.137c-.035 0-.035-.035 0-.07a.986.986 0 0 0 .137-.512 1.043 1.043 0 0 0-.07-.308v-.036H60c.293.137.629.137.922 0 .031 0 .031 0 .066.036a.684.684 0 0 1-.273.957.838.838 0 0 1-.238.07Zm-1.024-2.91 1.195-1.13c.036-.034.036-.034.036 0 .039.145.062.294.066.446a1.34 1.34 0 0 1-.137.613c0 .036-.035.036-.066.036a.893.893 0 0 0-.719.207c0 .03-.031.03-.066 0a3.428 3.428 0 0 1-.309-.172Zm.137.41s.035.035 0 .035a1.04 1.04 0 0 0 0 .992v.067a.674.674 0 0 1-.715.105.628.628 0 0 1-.445-.547v-.105c0-.36.261-.664.613-.719.2-.008.39.055.547.172ZM57.78 26.25l.582.547.547.547v.035h-.035c-.121.023-.238.07-.344.137-.031.03-.066.03-.101.066h-.032a.857.857 0 0 0-.511-.203c-.07 0-.106-.035-.106-.07a1.112 1.112 0 0 1-.101-.477v-.07c.07-.239.07-.375.101-.512Zm-.031 1.367a.693.693 0 0 1 .512.137c.031 0 .031.035 0 .07a.92.92 0 0 0 0 1.024v.07a.69.69 0 0 1-.535.133.7.7 0 0 1-.457-.305 1.218 1.218 0 0 1-.137-.308.737.737 0 0 1 .617-.82Zm-.82-.82.101.035.446.102c.02 0 .035.015.035.035a.574.574 0 0 0 .066.238 1.796 1.796 0 0 1-.648-.41Zm.035.82h.203c0 .02-.016.035-.035.035-.176.207-.262.48-.238.754a.904.904 0 0 0 .238.578v.036h-.031a.383.383 0 0 1-.207-.036.712.712 0 0 1-.512-.855c.07-.274.3-.477.582-.512Zm-.207 2.192-.203.308c0 .031-.035.031-.035 0a.703.703 0 0 1-.266-.476.7.7 0 0 1 .164-.52c0-.016.016-.031.035-.031.094.07.195.125.305.172.035 0 .035 0 .035.031a.953.953 0 0 0 0 .445c0 .035 0 .035-.035.07Zm.035.75a.594.594 0 0 1 .102-.477c.035-.035.035-.035.035 0 .156.234.402.398.683.445.032 0 .032 0 .032.032a.845.845 0 0 0 .171.48c.036.035.036.035 0 .035a.541.541 0 0 1-.34.067.609.609 0 0 1-.464-.141.642.642 0 0 1-.219-.441Zm.719.96c.191-.03.379-.101.543-.206h.07a.957.957 0 0 0 .34.136c.02 0 .035.016.035.035.027.13.074.258.137.375v.036a.698.698 0 0 1-.375.136.68.68 0 0 1-.75-.511Zm2.011.856a.758.758 0 0 1-.582.477h-.101a.655.655 0 0 1-.649-.477c0-.035 0-.035.036-.035.21 0 .414-.074.578-.207a.063.063 0 0 1 .035-.012c.012 0 .027.004.035.012.191.137.414.219.648.242Zm1.125 0a.632.632 0 0 1-.511.445H60a1.253 1.253 0 0 1-.34-.07c-.035 0-.035-.035 0-.035.086-.121.14-.262.168-.41 0-.035 0-.035.035-.035a.643.643 0 0 0 .172-.102h.031a.975.975 0 0 0 .446.172c.047 0 .093.012.136.035Zm.684-.89a.685.685 0 0 1-.617.546h-.102a.553.553 0 0 1-.34-.101c-.035 0-.035-.035 0-.035a1.05 1.05 0 0 0 .172-.547c0-.035.032-.035.067-.035h.035c.234.144.512.207.785.171Zm.441-.926a.676.676 0 0 1-.203.445.72.72 0 0 1-.785.137c-.035 0-.035 0 0-.032.102-.156.172-.332.203-.515v-.137c.07.035.172.07.239.102.175.07.37.07.546 0Zm-.238-.305a.694.694 0 0 1-.375-.07c-.035 0-.035 0 0-.036a1.25 1.25 0 0 0 .203-.683.21.21 0 0 0-.031-.137c0-.035 0-.035.031-.035a.875.875 0 0 0 .649-.172c.035-.031.035-.031.07 0 .09.121.137.266.137.414a.805.805 0 0 1-.684.719Zm0 0"/><path style="stroke:none;fill-rule:nonzero;fill:#fff;fill-opacity:1" d="M58.531 27.754a.126.126 0 0 1-.101-.035 1.952 1.952 0 0 1-.543-.75.124.124 0 0 1 0-.117.118.118 0 0 1 .101-.055c.102 0 .168 0 .168.101.106.235.254.446.446.618.066.03.066.136.035.203a.26.26 0 0 1-.106.035ZM59.762 27.824a.15.15 0 0 1-.137-.137.13.13 0 0 1 .035-.105c.223-.219.406-.473.543-.75a.142.142 0 0 1 .172-.105c.074.02.121.097.102.171v.036c-.141.316-.348.597-.614.82-.035.07-.066.07-.101.07Zm0 0"/></svg>