<?xml version="1.0" encoding="UTF-8"?>
<svg xmlns="http://www.w3.org/2000/svg" width="41px" height="41px" viewBox="0 0 41 41" version="1.1">
<g id="surface1">
<path style=" stroke:none;fill-rule:nonzero;fill:rgb(87.45098%,3.529412%,34.117647%);fill-opacity:1;" d="M 37.1875 0 L 29.652344 0 C 29.605469 0 29.566406 0.0078125 29.523438 0.015625 L 29.523438 0 L 3.8125 0 C 1.714844 0 0 1.714844 0 3.8125 L 0 37.1875 C 0 39.292969 1.714844 41 3.8125 41 L 25.039062 41 C 25.046875 41 25.046875 41 25.054688 41 L 37.195312 41 C 39.292969 41 41.007812 39.285156 41.007812 37.1875 L 41.007812 3.8125 C 41 1.714844 39.292969 0 37.1875 0 Z M 39.796875 37.1875 C 39.796875 38.628906 38.628906 39.796875 37.1875 39.796875 L 25.046875 39.796875 C 25.039062 39.796875 25.039062 39.796875 25.03125 39.796875 L 3.8125 39.796875 C 2.371094 39.796875 1.203125 38.628906 1.203125 37.1875 L 1.203125 3.8125 C 1.203125 2.371094 2.371094 1.203125 3.8125 1.203125 L 29.523438 1.203125 L 29.523438 1.183594 C 29.566406 1.191406 29.613281 1.203125 29.652344 1.203125 L 37.1875 1.203125 C 38.628906 1.203125 39.800781 2.371094 39.800781 3.8125 L 39.800781 37.1875 Z M 39.796875 37.1875 "/>
<path style=" stroke:none;fill-rule:nonzero;fill:rgb(87.45098%,3.529412%,34.117647%);fill-opacity:1;" d="M 25.207031 4.597656 L 15.792969 4.597656 C 15.015625 4.597656 14.390625 5.230469 14.390625 5.996094 L 14.390625 10.867188 C 14.390625 11.644531 15.023438 12.269531 15.792969 12.269531 L 25.207031 12.269531 C 25.984375 12.269531 26.609375 11.636719 26.609375 10.867188 L 26.609375 6.007812 C 26.609375 5.230469 25.984375 4.597656 25.207031 4.597656 Z M 25.410156 10.875 C 25.410156 10.988281 25.320312 11.074219 25.207031 11.074219 L 15.792969 11.074219 C 15.679688 11.074219 15.589844 10.988281 15.589844 10.875 L 15.589844 6.007812 C 15.589844 5.894531 15.679688 5.804688 15.792969 5.804688 L 25.207031 5.804688 C 25.320312 5.804688 25.410156 5.894531 25.410156 6.007812 Z M 25.410156 10.875 "/>
<path style=" stroke:none;fill-rule:nonzero;fill:rgb(87.45098%,3.529412%,34.117647%);fill-opacity:1;" d="M 6.871094 3.28125 C 5.214844 3.28125 3.867188 4.628906 3.867188 6.285156 C 3.867188 7.945312 5.214844 9.289062 6.871094 9.289062 C 8.527344 9.289062 9.875 7.945312 9.875 6.285156 C 9.875 4.628906 8.519531 3.28125 6.871094 3.28125 Z M 6.871094 8.078125 C 5.878906 8.078125 5.070312 7.269531 5.070312 6.277344 C 5.070312 5.292969 5.878906 4.484375 6.871094 4.484375 C 7.863281 4.484375 8.671875 5.292969 8.671875 6.285156 C 8.664062 7.277344 7.863281 8.078125 6.871094 8.078125 Z M 6.871094 8.078125 "/>
<path style=" stroke:none;fill-rule:nonzero;fill:rgb(87.45098%,3.529412%,34.117647%);fill-opacity:1;" d="M 6.871094 31.710938 C 5.214844 31.710938 3.867188 33.054688 3.867188 34.714844 C 3.867188 36.371094 5.214844 37.71875 6.871094 37.71875 C 8.527344 37.71875 9.875 36.371094 9.875 34.714844 C 9.875 33.0625 8.519531 31.710938 6.871094 31.710938 Z M 6.871094 36.515625 C 5.878906 36.515625 5.070312 35.707031 5.070312 34.714844 C 5.070312 33.722656 5.878906 32.914062 6.871094 32.914062 C 7.863281 32.914062 8.671875 33.722656 8.671875 34.714844 C 8.664062 35.707031 7.863281 36.515625 6.871094 36.515625 Z M 6.871094 36.515625 "/>
<path style=" stroke:none;fill-rule:nonzero;fill:rgb(87.45098%,3.529412%,34.117647%);fill-opacity:1;" d="M 34.128906 3.28125 C 32.472656 3.28125 31.125 4.628906 31.125 6.285156 C 31.125 7.945312 32.472656 9.289062 34.128906 9.289062 C 35.785156 9.289062 37.132812 7.945312 37.132812 6.285156 C 37.132812 4.628906 35.785156 3.28125 34.128906 3.28125 Z M 34.128906 8.078125 C 33.136719 8.078125 32.328125 7.269531 32.328125 6.277344 C 32.328125 5.285156 33.136719 4.476562 34.128906 4.476562 C 35.121094 4.476562 35.929688 5.285156 35.929688 6.277344 C 35.929688 7.277344 35.121094 8.078125 34.128906 8.078125 Z M 34.128906 8.078125 "/>
<path style=" stroke:none;fill-rule:nonzero;fill:rgb(87.45098%,3.529412%,34.117647%);fill-opacity:1;" d="M 34.128906 31.710938 C 32.472656 31.710938 31.125 33.054688 31.125 34.714844 C 31.125 36.371094 32.472656 37.71875 34.128906 37.71875 C 35.785156 37.71875 37.132812 36.371094 37.132812 34.714844 C 37.132812 33.0625 35.785156 31.710938 34.128906 31.710938 Z M 34.128906 36.515625 C 33.136719 36.515625 32.328125 35.707031 32.328125 34.714844 C 32.328125 33.722656 33.136719 32.914062 34.128906 32.914062 C 35.121094 32.914062 35.929688 33.722656 35.929688 34.714844 C 35.929688 35.707031 35.121094 36.515625 34.128906 36.515625 Z M 34.128906 36.515625 "/>
</g>
</svg>
