<svg xmlns="http://www.w3.org/2000/svg" width="196" height="150">
    <path style="stroke:none;fill-rule:nonzero;fill:#fff;fill-opacity:1" d="M.04 0h195.71v150H.04Zm0 0"/>
    <path style="stroke:none;fill-rule:nonzero;fill:#efcd97;fill-opacity:1" d="M.04 104.473h195.92V150H.04Zm0 0"/>
    <path style="stroke:none;fill-rule:nonzero;fill:#2b3448;fill-opacity:1"
          d="M40.973 20.195s-1.118.723-1.871.09l-.27-1.512c.813-.968 1.508-1.906 1.777-2.933.121.031.121.062.332.062-.691 1.48-1.355 3.567.032 4.293ZM42.059 13.148c-.153-.332-.454-.3-.727-.148-.117.363-.3.754-.512 1.059 0-.215.032-.364.032-.485-.153 0-.301-.031-.454-.09-.03 0-.12.028-.12-.03-2.622-.212-.844-4.083-5.122-5.2-.062 0-.12 0-.183-.031-2.11.574-3.496 2.902-3.977 4.898 0 .18-.09.332-.062.512-.028-.211-.872-1.149-1.176-.453-.48 1.027.332 3.234 1.449 2.843.332.965.934 1.965 1.809 2.899l-.121 1.332c-.813.664-1.45 0-1.45 0 1.328-.996-2.468-3.809-2.23-5.352.152-2.808-1.235-7.011 2.23-7.648 2.114-3.566 9.617-1.48 11.367 1.332.239.543-.394 3.144-.753 4.562Zm0 0"/>
    <path style="stroke:none;fill-rule:nonzero;fill:#e79e73;fill-opacity:1"
          d="M40.883 13.574c-.063.754-.121 1.602-.274 2.356h.09c.395 3.597-4.25 5.836-7.773 3.57-2.14-1.848-1.54-3.328-1.809-4.145-.062-.816-.305-1.66-.062-2.386.422-1.906 1.93-4.473 4.008-4.809a.38.38 0 0 1 .183.031c4.04 1.121 2.379 4.446 4.852 5.2.03 0 .27-.028.27.03.03 0 .03 0 .062.032.148.059.27.09.453.121Zm0 0"/>
    <path style="stroke:none;fill-rule:nonzero;fill:#e06a43;fill-opacity:1"
          d="M47.844 52.266c-.211.214-1.63 1.27-1.657 1.574-5.457 2.75-11.335 7.98-11.335 7.98-4.04-3.718-11.332-5.562-15.098-6.922.117-.363.539-1.816.66-2.058.121-.09 4.523 1.754 5.61 1.996.66.242 8.078 2.66 18.656-1.875 1.265 1.512 2.23-.664 3.164-.695Zm0 0"/>
    <path style="stroke:none;fill-rule:nonzero;fill:#e79e73;fill-opacity:1"
          d="m45.012 52.781.3-.031c-4.097 3.566-13.445 7.68-20.195 1.906l-4.64-1.906c.12-.363.722-3.293.753-3.656.211-2.117 2.23-6.106 2.23-6.106s11.423-3.66 23.388-.91c0 0 1.386 3.54 2.562 6.774.063.21.332 2.628.422 2.84-.059 0-3.766.816-4.82 1.09Zm0 0"/>
    <path style="stroke:none;fill-rule:nonzero;fill:#e06a43;fill-opacity:1"
          d="M38.89 19.617c-2.109 2.39-6.238 1.817-6.238 1.817a40.05 40.05 0 0 1 .211-1.907c1.328 1.121 4.735 1.121 6.028.09Zm0 0"/>
    <path style="stroke:none;fill-rule:nonzero;fill:#e79e73;fill-opacity:1"
          d="m51.64 49.637.454-9.766-5.274-3.383c.18-2.054-.843-3.265-1.476-5.293-.907-2.93 0-8.101 0-8.101.722.242 2.078 0 3.433.547 1.45.574 9.676 12.152 9.649 15.539-.031 3.355-3.168 14.297-3.168 14.297-.754 1.996-4.461.906-4.461.906-.18.062-1.625.758-1.836.847 0 1.118-1.297 1.06-1.297 1.06l.27-1.454 1.87-1.902-1.628.511c-.211.516-1.63 2.48-2.684 1.575.153-.274.785-1.364.906-1.606l1.446-1.238c-1.145.21-1.93 2.176-3.254.543l1.324-.907c-.992.243-1.234-.48-1.234-.48 1.113-.848 3.133-2.086 4.914-1.906-.063-.242-.121-.453-.242-.637.152.031 2.199.848 2.289.848ZM34.914 61.758c1.176 7.527-1.809 23.61-1.598 27.39-.062 4.02-2.472 16.325-2.472 16.325s.906 4.625 1.023 5.015c.274.88.574 2.27-3.101 2.18-5.97-.215-2.082-2.059-1.57-6.773 0 0-3.524-15.086-4.489-17.747-.996-2.66.332-6.015.332-6.015-.422-.754-7.023-22.852-3.285-27.387 3.828 1.39 11.09 3.324 15.16 7.012Zm0 0"/>
    <path style="stroke:none;fill-rule:nonzero;fill:#e79e73;fill-opacity:1"
          d="M38.02 106.047c0 .785 2.046 4.14 2.046 5.2-.027 1.058-6.75 1.964-7.683 0-.965-2.028 1.054-5.02 1.082-6.59.031-1.391-.09-12.91-.117-15.45-.243-3.777 2.742-19.922 1.597-27.387 0 0 5.875-5.23 11.301-7.98l-.723 1.27c1.055.937 2.473-1.118 2.684-1.575l1.625-.512-1.867 1.903-.27 1.453s1.293.031 1.293-1.059l1.782-1.875c5.003 7.227-7.176 28.508-7.145 27.844 3.254 6.711-4.672 20.223-5.605 24.758ZM22.074 35.64l-3.347 3.598.785 10.157s.781-1.028 2.168-1.48c-.117.362-.301.784-.45 1.148l2.622.183 2.171 1.902c-.273.543-1.175.122-1.27.09l1.24 1.39c-.513.817-1.81-.089-1.872-.12l1.149 1.996c-.454.242-.907.21-1.329.09-.875-.785-1.234-1.45-1.234-1.45l-1.598-.726c.09.09 1.625 1.723 1.746 1.996.997 3.293-2.59-.637-2.68-.758-6.452 1.633-6.902-12.968-7.476-15.84.903-2.265 8.801-16.382 14.469-15.808-.063.242-1.75 5.62-2.953 8.254-.664 1.66-2.02 3.476-2.14 5.379Zm0 0"/>
    <path style="stroke:none;fill-rule:nonzero;fill:#e06a43;fill-opacity:1"
          d="M47.512 36.516c-.059.91-.543 2.39-1.235 3.75l.543 1.843c-11.968-2.75-23.39.907-23.39.907l.511-2.266c-2.953-3.777-1.84-6.8.274-10.398 1.172-2.66 2.832-8.012 2.953-8.254.27-.059.543-.121.812-.211-4.46 11.156 16.97 13.39 15.372.633.726.214 1.386.363 1.96.574 0 0-.906 5.172 0 8.101.633 2.028 2.383 3.266 2.2 5.32Zm0 0"/>
    <path style="stroke:none;fill-rule:nonzero;fill:#e79e73;fill-opacity:1"
          d="m39.102 20.313.242 1.18s2.082.515 4.039 1.027c1.566 12.789-19.832 10.46-15.371-.633 5.152-1.332 6.75 1.3 10.941-2.27ZM42.059 13.148c.48 1-.364 3.266-1.45 2.782.121-.602.364-3.957 1.45-2.782ZM29.7 13.148c.3-.695 1.144.243 1.175.454v-.09c.031.785.121 1.695.27 2.48-1.114.332-1.899-1.785-1.446-2.844Zm0 0"/>
    <path style="stroke:none;fill-rule:nonzero;fill:#e06a43;fill-opacity:1"
          d="M33.348 50.906c-1.297.063-1.84-1.27-1.086-.847 0 .03.242.515 1.086.515.21-.031.21.332 0 .332ZM33.348 90.145c-.754-1.45.422-7.77.754-11.82.933-7.134.3-16.473.78-16.747.997 1.543-1.175 24.215-1.534 28.567.027 0 .027 0 0 0ZM28.434 83.738c-1.387 0-2.23-.91-2.262-.91-.211-1.117 1.598 1.996 4.492-.27 1.234.212-2.23 1.45-2.23 1.18ZM39.797 82.496c-1.508.031-3.406-.937-2.442-1.027.032 0 1.93 1.21 3.887.422.09-.028.184 0 .242.093-.152.575-1.265.422-1.687.512ZM30.21 112.695c-.452 0-.148-2.113.18-1.18-.18.337.184 1-.18 1.18ZM28.887 112.79c-.032 0-.032 0 0 0-.332 0-.063-1-.094-1.153.031-.239.332-.18.332 0-.059.12.031 1.152-.238 1.152ZM27.77 112.605s-.06 0 0 0c-.332 0-.06-.816-.09-.996.03-.242.332-.183.332 0-.063.149.031 1.028-.242.996ZM26.414 112.516c-.332 0-.18-1.27.121-1.18.27.21-.09.664 0 .996.027.121-.031.184-.12.184ZM35.035 112.637c-.394 0 .27-1.028-.332-1.453-.152-.149.09-.391.242-.243.39.364.633 1.391.09 1.696ZM36.3 112.484c-.421-.058.122-.875-.12-1.148.3-.875.601 1.09.12 1.148ZM37.746 112.332c-.36-.18 0-.785-.21-1.148.331-.844.694 1.09.21 1.148ZM39.195 112.031c-.332-.09-.12-.695-.332-.937-.09-.211.27-.301.301-.09.031.273.36.875.031 1.027ZM28.492 105.926c-.148-.031-.66.12-.633-.184.301-.39 1.176-.027 1.688-.242.695.426-.781.426-1.055.426ZM36.602 106.105c-.485-.09-.907-.18-1.356-.18-.844-.515 1.625-.394 1.566.032-.058.09-.152.148-.21.148ZM25.418 51.754c-.211 0-.875-.184-.664-.516.062-.058.183-.058.242 0 .211.184.754.305.875 0 .059 0-1.566-1.36-1.598-1.39-.363-.364-.785-.543-1.328-.485-.36.063-3.222-.09-2.32-.574 1.238.574 2.836-.238 3.86.79.453.51 2.921 1.901.933 2.175Zm0 0"/>
    <path style="stroke:none;fill-rule:nonzero;fill:#e06a43;fill-opacity:1"
          d="M25.238 53.176c-.39-.063-1.328-.242-1.175-.727.058-.062.18-.062.242 0 .36.332 1.023.512 1.445.301 0 0-.031-.059-.059-.059-1.75-2.148-1.78-2.328-4.613-2.238-.242 0-.18-.363 0-.332.813.09 2.02-.121 2.742.242.754.422 1.508 1.543 2.082 2.145.27.242.09.668-.3.695-.094-.027-.215-.027-.364-.027Zm0 0"/>
    <path style="stroke:none;fill-rule:nonzero;fill:#e06a43;fill-opacity:1"
          d="M24.363 54.926c-.21-.028-.691-.028-.633-.301.032-.09.122-.121.211-.09.422.153.844.09 1.266-.031-1.535-2.387-1.023-2.66-4.039-2.992-.09 0-.18-.09-.121-.211-.149-.332 2.625.242 2.715.422.511.332 1.386 2.117 1.746 2.629.363.574-.813.605-1.145.574ZM17.613 51.332c-.843-.184 2.469-2.965 1.957-1.785-.78.394-1.324 1.207-1.957 1.785ZM49.621 49.91c-.238.031-.3-.847-.36-1-.062-.21.301-.3.333-.058-.032.18.422 1.027.027 1.058Zm0 0"/>
    <path style="stroke:none;fill-rule:nonzero;fill:#e06a43;fill-opacity:1"
          d="M45.793 52.055c-.422 0-1.176-.27-1.113-.785.058-.301 1.113-.727 1.324-.907.754-.574 1.719-.758 2.652-.726.305-.121 3.711.304 2.504.726-1.566-.543-3.586-.664-5.004.274 0 .027-1.207.695-1.144.722.18.243.511.364.812.364.18-.032.153.304-.031.332Zm0 0"/>
    <path style="stroke:none;fill-rule:nonzero;fill:#e06a43;fill-opacity:1"
          d="M44.738 53.145c-.332-.063-.148-.543 0-.575.633-.484 1.871-1.633 2.563-1.933.242-.153 3.496-.215 2.414.27-2.746-.122-2.715.241-4.793 1.933 0 0-.031 0-.031.031.03.031.03.09.03.184-.062.027-.12.09-.183.09Zm.032-.333ZM47.934 52.36c-.903-.426 1.78-.575 1.87-.637.212-.032.27.273.06.332ZM46.125 55.41c-.422.031-.934-.3-.633-.664.09-.09.875-2.027.934-1.059l-.633 1.239-.027.062c1.476.512 1.808-1.843 3.164-1.906.27 0 1.207-.633.902 0-.48.332-1.113.273-1.598.605-.601.606-1.082 1.696-2.109 1.723Zm0 0"/>
    <path style="stroke:none;fill-rule:nonzero;fill:#e06a43;fill-opacity:1"
          d="M47.875 56.652c-1.027.028 0-2.117.512-2.39.754-.39 1.144-1.602 1.84-1.813-.09 1.239-2.051 1.875-2.293 3.172 0 .063-.211.637-.18.668.422.148.934-.273 1.023-.727.063-.726 1.54-.996 2.051-1.332.18-.09.363.243.121.336l-1.418.633c-.691.395-.422 1.422-1.656 1.453ZM53.871 50.754c-.633-.332-1.266-.695-1.988-.785-.09 0-.18-.09-.121-.211.062-.453 2.953.637 2.11.996ZM18.637 39.36c-.453-.364-.875-.876-1.508-1.028-.57-.937 2.05.574 1.598 1.027ZM21.5 36.367c-.453-.363-.633-1.12-1.145-1.48-.062-.063-.062-.184 0-.242.301-.211 1.598 1.57 1.145 1.722.063 0 .031 0 0 0ZM45.434 32.89c-.754-.03 1.566-3.054 1.386-1.906-.605.485-.875 1.364-1.386 1.907ZM52.125 40.113c-.512-.422.543-1.328 1.023-1.39.243-.028.274.336 0 .363-.601.094-.691.695-1.023 1.027ZM36.117 16.262c-.238.183-1.293-.149-1.383-.39-.12.12.871-2.692 1.235-2.27 0-.028.148 2.66.148 2.66Zm0 0"/>
    <path style="stroke:none;fill-rule:nonzero;fill:#2b3448;fill-opacity:1"
          d="M34.64 13.574c-.328-.062-.09-.453-1.054-.515-.992-.032-1.324.847-1.293.152 0-.031.328-.484 1.293-.484 1.055 0 1.508.785 1.055.847ZM32.23 12.668c-.843-.637 2.563-1.242 2.41-.363-.027.09-.117.148-.238.058-.664-.332-1.507-.21-2.109.242a.067.067 0 0 1-.063.063Zm0 0"/>
    <path style="stroke:none;fill-rule:nonzero;fill:#2b3448;fill-opacity:1"
          d="M33.887 12.906c.425.758-1.082.817-.66 0-.09 0 .332-.117.66 0ZM36.902 13.543c-.453-.059-.03-.848 1.055-.848 1.145-.058 1.719.907 1.027.668 0-.031-.273-.336-1.027-.336-.965.063-.691.457-1.055.516ZM39.285 12.637c-.605-.453-1.476-.606-2.203-.274-.059.032-.18 0-.238-.058.12-.817 2.562-.516 2.531.27 0 0-.031.062-.09.062Zm0 0"/>
    <path style="stroke:none;fill-rule:nonzero;fill:#2b3448;fill-opacity:1"
          d="M38.379 12.906c.422.758-1.086.79-.664 0-.059-.058.484-.148.664 0Zm0 0"/>
    <path style="stroke:none;fill-rule:nonzero;fill:#df895d;fill-opacity:1"
          d="M34.07 15.566c.09.938-2.172 1.059-2.203.153-.117-.938 2.203-1.086 2.203-.153ZM39.555 15.297c.09.937-2.168 1.058-2.2.152-.12-.937 2.168-1.058 2.2-.152Zm0 0"/>
    <path style="stroke:none;fill-rule:nonzero;fill:#e06a43;fill-opacity:1"
          d="M30.906 15.629c-.422-.363-.422-1.211-.843-1.691-.094-.153.148-.395.3-.184.18.484.992 1.453.543 1.875ZM40.672 15.54c-.453-.122.39-2.087.781-1.966.121.574-.57 1.18-.57 1.813-.09.09-.153.152-.211.152Zm0 0"/>
    <path style="stroke:none;fill-rule:nonzero;fill:#2b3448;fill-opacity:1"
          d="M35.758 17.895c-.512.062-1.024-.243-.512-.391 0 0 1.297.27 1.957-.574.152-.153.363.027.274.21-.485.606-1.207.755-1.72.755Zm0 0"/>
    <path style="stroke:none;fill-rule:nonzero;fill:#e06a43;fill-opacity:1"
          d="M22.586 44.71c-.211.454-2.23 4.716-1.176 4.173-.152-.547 2.078-4.809 1.176-4.172ZM24.004 54.566c-1.48-1.421-.484-1.453-2.836-2.18-.781.122 1.777 2.18 2.02 2.571 1.027.184-1.325-1.691-1.446-1.965.301.153.633.153.903.332.062.332 1.57 2.328 1.359 1.242Zm0 0"/>
    <path style="stroke:none;fill-rule:nonzero;fill:#2b3448;fill-opacity:1"
          d="M94.652 25.059c-1.476-1.27-5.574-2.176-6.93-2.961l-7.202-.996c.058-.032-3.98.843-5.368 1.27-1.808.573-2.078.179-3.226 1.753-.934-1.39.273-2.57 1.36-3.266.51-.664 0-1.695.359-2.48.421-.875 1.718-.965 2.351-1.692.906-1.148-.242-2.902.453-4.113.453-.844 1.477-1.176 1.899-2.054.3-.665.422-3.356 2.382-3.81 2.954-3.112 8.618-1.358 9.313 2.903.18.907.121 1.875.602 2.692 2.382 2.386.785 2.265 1.027 4.715.27.664 1.203.996 1.355 1.722.18.727-.543 1.512-.273 2.176 2.383 2.176.484 1.453 1.781 3.992.09 0 .09.09.117.149Zm0 0"/>
    <path style="stroke:none;fill-rule:nonzero;fill:#e06a43;fill-opacity:1"
          d="M81.332 18.41c1.234 1.965 4.16 2.45 5.727.543l.18.848c-3.075 3.476-6.72 1.328-6.72 1.328Zm0 0"/>
    <path style="stroke:none;fill-rule:nonzero;fill:#e79e73;fill-opacity:1"
          d="M89.11 14.059c-.063.632-.09 1.296-.243 1.902h.059c-.871 5.473-8.317 5.805-8.922 0-2.2-8.191 9.074-12.274 9.105-1.902Zm0 0"/>
    <path style="stroke:none;fill-rule:nonzero;fill:#e06a43;fill-opacity:1"
          d="M95.89 55.047c-6.21-.18-11.425 7.137-11.425 7.137-3.012-6.801-13.29-9.04-13.29-9.04a26.4 26.4 0 0 1 .723-2.507c.18.117 10.22 8.008 22.997.633.363 1.21.753 2.507.996 3.777ZM73.074 35.035c.028-1.965.813-4.2 1.356-6.105.664-2.418.754-6.41.754-6.532.421-.09.843-.21 1.324-.3-2.047 11.91 16.488 15.054 13.535.996.48.183.996.363 1.445.547 1.176 2.78 4.973 12 1.508 16.172 0 0-.058.664-.18 1.601-8.257-3.93-18.238 0-18.238 0-.027-.996-.027-1.691-.027-1.691-.063.27-1.688-3.325-1.477-4.688Zm0 0"/>
    <path style="stroke:none;fill-rule:nonzero;fill:#e79e73;fill-opacity:1"
          d="M94.652 25.059c.848.789 1.508 1.937 1.66 3.476.903 11.067 1.747 18.684 1.297 29.266.239 2.66.57 5.347-1.328 8.101h-.031c1.328-6.379-1.625-17.382-3.797-21.707.121-1.148.453-3.687.512-4.441 3.469-4.203-.36-13.484-1.504-16.176 1.293.426 2.168.574 3.191 1.48Zm0 0"/>
    <path style="stroke:none;fill-rule:nonzero;fill:#e79e73;fill-opacity:1"
          d="M95.89 55.047c2.32 6.23-2.44 25.484-3.495 26.422 1.808 9.34-.211 13.754-2.473 23.066-.363 3.203.996 5.805.363 7.043-.515.996-4.222.606-6-.363.453-1.328-.12-1.875-.574-3.535.543-1.211 1.781-3.75 1.781-4.688.028-1.27-1.086-18.742-1.086-18.742.059-.633.692-16.05.031-22.04.028-.026 5.274-7.374 11.454-7.163ZM94.926 51.27c-2.621.785-3.016 4.324-9.766 4.925-4.851 0-9.074-3.293-9.074-3.293-2.563-1.058-4.098-2.238-4.16-2.265 1.148-3.266 2.773-5.383 2.773-5.383-.09-.996-.18-2.629-.18-3.84 1.778-1.207 13.594-3.05 18.235 0-.09.848-.238 1.906-.332 2.844 0-.031 1.27 2.902 2.504 7.012ZM90.012 12.906c.906.485-.059 3.719-1.114 3.024.239-.965.09-2.418.934-3.024.031-.027.121-.027.18 0ZM90.012 23.035c2.984 14.027-15.551 10.973-13.532-.996 1.989-.484 4.04-.91 4.04-.91s3.675 2.148 6.718-1.328l.485 2.36c-.032 0 1.023.421 2.289.874Zm0 0"/>
    <path style="stroke:none;fill-rule:nonzero;fill:#e79e73;fill-opacity:1"
          d="M84.348 111.184c-.516 2.539-7.868 1.664-6.996-.364.453-.664 1.085-4.652 1.085-4.652-.664-3.75-5.667-19.438-2.683-24.852-2.832-6.195-4.309-14.84-4.973-20.16a19.64 19.64 0 0 1 1.055 1.36c.242.363 1.477.242.664-1.723-.813-1.965-1.266-2.48-1.266-2.48s.664-1.543-.453-2.692c.063-.844.211-1.691.364-2.476 19.168 4.472 12.628 17.863 13.293 30.62-.274 2.872-1.84 16.84-1.688 19.438-.063 2.66 2.11 5.563 1.598 7.98ZM78.648 13.121c.301-.695 1.086.242 1.118.453v-.09c.027.786.12 1.692.27 2.477-1.056.332-1.778-1.813-1.388-2.84Zm0 0"/>
    <path style="stroke:none;fill-rule:nonzero;fill:#e79e73;fill-opacity:1"
          d="M70.75 61.125s.184 1.422.516 3.566c0 0-.907-.332-1.149-.906-.328-.574-1.746-1.691-1.746-1.691.543-4.356-4.703-15.63-5.183-19.953 1.746-5.383 7.414-19.77 11.964-19.743 0 .094-.058 4.114-.754 6.532-.543 1.906-1.324 4.14-1.355 6.105l-4.281 7.98 1.418 12.063c1.566.664 1.386 2.965 1.113 3.203.062-.21 2.957 5.11.574 4.203a76.093 76.093 0 0 0-1.117-1.359Zm0 0"/>
    <path style="stroke:none;fill-rule:nonzero;fill:#e06a43;fill-opacity:1"
          d="M84.797 15.992c-.238.18-1.297-.152-1.356-.394-.12.062.844-2.57 1.145-2.207Zm0 0"/>
    <path style="stroke:none;fill-rule:nonzero;fill:#2b3448;fill-opacity:1"
          d="M83.29 13.332c-.33-.062-.09-.453-1.056-.516-.754 0-.992.305-.992.332-.152.184-.394-.058-.273-.21 0-.032.332-.485 1.265-.485 1.028.063 1.45.79 1.055.879ZM80.969 12.426c-.844-.668 2.504-1.18 2.351-.332-.03.058-.148.148-.242.058-.66-.332-1.445-.21-2.047.243 0 .03-.031.03-.062.03Zm0 0"/>
    <path style="stroke:none;fill-rule:nonzero;fill:#2b3448;fill-opacity:1"
          d="M82.598 12.668c.422.754-1.086.816-.664 0-.059.027.332-.063.664 0ZM85.52 13.332c-.45-.062 0-.848 1.027-.848.902 0 1.266.454 1.266.485.12.152-.122.394-.274.21 0-.03-.238-.331-.992-.331-.965.03-.695.422-1.027.484ZM87.902 12.426c-.632-.453-1.386-.606-2.14-.274-.059.032-.18 0-.242-.058.093-.79 2.535-.485 2.472.27.031.03-.058.062-.09.062Zm0 0"/>
    <path style="stroke:none;fill-rule:nonzero;fill:#2b3448;fill-opacity:1"
          d="M87 12.668c.422.754-1.086.816-.664 0-.063 0 .48-.121.664 0Zm0 0"/>
    <path style="stroke:none;fill-rule:nonzero;fill:#df895d;fill-opacity:1"
          d="M82.75 15.328c.117.906-2.172 1.055-2.172.149-.121-.938 2.2-1.086 2.172-.149ZM88.145 15.055c.12.906-2.172 1.058-2.172.152-.09-.969 2.109-1.059 2.172-.152Zm0 0"/>
    <path style="stroke:none;fill-rule:nonzero;fill:#e06a43;fill-opacity:1"
          d="M79.676 15.355c-.426-.363-.426-1.207-.848-1.66-.09-.152.152-.394.305-.183.18.515.992 1.422.543 1.843ZM89.258 15.266c-.45-.395.332-1.391.512-1.875.12-.18.394-.028.304.183-.422.485-.394 1.328-.816 1.692Zm0 0"/>
    <path style="stroke:none;fill-rule:nonzero;fill:#2b3448;fill-opacity:1"
          d="M84.438 17.594c-.512.058-1.028-.242-.512-.395 0 0 1.265.274 1.926-.543.062-.058.183-.058.242-.031.12.758-1.297.969-1.656.969Zm0 0"/>
    <path style="stroke:none;fill-rule:nonzero;fill:#e06a43;fill-opacity:1"
          d="M96.223 66.082c.57-7.465-1.508-17.23-3.95-21.824 0-.031-.03-.063 0-.094.09-.09.18-3.234.543-2.992.36-.149-.273 2.933-.21 3.023 2.23 5.051 5.093 14.207 3.617 21.887ZM84.438 84.34s-.032 0 0 0c.87-7.012-.243-22.156.027-22.34.332.184 1.508 15.297-.028 22.34ZM81.574 82.98c-1.117 0-3.015-.785-2.984-1.964 1.086 1.027 2.41 2.086 4.097 1.421.813.27-.874.606-1.113.543ZM88.355 82.98c-.632-.058-2.02-.21-2.171-.906.062-.062.183-.09.242-.031.601.453 1.386.637 2.14.605.754-.03 1.508-.332 2.051-.878 1.172.12-1.84 1.421-2.262 1.21ZM84.254 111.305c-.117 0-.18-.09-.18-.211.453-1.239-.27-2.54-.422-3.63.907.427 1.207 3.056.602 3.84ZM82.418 112.758c-.664-.031-.727-2.992-.184-1.996-.18.574-.058 1.27.274 1.722.058.063.031.184-.031.243 0 .03-.032.03-.059.03ZM80.73 112.816c-.453 0-.304-2.355.09-1.39-.21.332.301 1.3-.09 1.39ZM79.523 112.758c-.484 0 .059-2.207.301-1.332-.242.426.031 1.058-.3 1.332ZM78.258 112.21c-.363 0-.09-1.507.27-1.358.12.062.09.183.062.273-.211.332 0 .938-.332 1.086ZM85.613 111.82c-.484-.062.39-1.36-.093-1.691-.149-.152.093-.395.242-.242.453.422.273 1.36.031 1.902-.063-.031-.121 0-.18.031ZM86.906 112.121c-.027 0-.058 0-.058-.027-.18-.364.3-.91.058-1.39.485-.911.574 1.359 0 1.417ZM88.113 112.21c-.152.032-.21-.116-.18-.237.149-.305.18-.668.09-1 .454-.844.602 1.238.09 1.238ZM89.5 112c-.121.031-.21-.121-.18-.21.09-.243.09-.544.028-.786.304-.817.605.969.152.996ZM88.656 104.14c-.453-.269-1.867-.3-1.93-.663-.03-.395 2.926.363 1.93.664ZM79.25 105.352c-.813-.274 1.54-1.059 1.629-.665-.211.454-1.203.301-1.629.665ZM84.438 49.215c-.122.031-.243-.184-.153-.274.153-.09.602-.968.813-.754.062.06.093.18.03.243-.058.058-.542.816-.69.785ZM72.32 62.848c-.183.21-2.504-3.055-2.652-3.114-.063-.062-.031-.183.027-.242.211-.332 2.473 3.024 2.625 3.024 0 0 .028-.032.028-.063.906-1.39-.934-2.66-1.266-3.93-.027-.332.031-.695.063-.996a2.487 2.487 0 0 0-.786-1.996c-.148-.148.09-.39.243-.242.964.848.902 2.086.812 3.234.422 1.211 2.684 3.329.906 4.325Zm.028-.332Zm0 0"/>
    <path style="stroke:none;fill-rule:nonzero;fill:#e06a43;fill-opacity:1"
          d="M71.809 67.2c-.395-.18-1.903-7.313-1.028-6.407.274 2.086.633 4.14 1.176 6.195.09.121-.059.153-.148.211Zm0 0"/>
    <path style="stroke:none;fill-rule:nonzero;fill:#e06a43;fill-opacity:1"
          d="M70.844 62.637c-.063.058-.938-.817-.996-.848-.153-.152.09-.39.242-.242.058.152 1.144.848.875 1.058-.031 0-.063.032-.121.032ZM125.43 20.434l.09.726c-1.81 2.328-5.395 1.574-5.668 1.121 0-.215.242-1.633.273-1.875 1.266 1.782 4.008 1.813 5.305.028Zm0 0"/>
    <path style="stroke:none;fill-rule:nonzero;fill:#e79e73;fill-opacity:1"
          d="M133.234 49.969c-.66.304-1.535.453-2.41-.028l-1.144.786c.03.09-1.086 1.933-1.93 1.238l1.145-1.875 1.386-1.149-1.297.211s-1.414 2.297-2.289 1.664l1.024-1.933s-1.145.543-1.688-.063l.602-.754s-.633.243-.871-.304l1.836-1.45s2.773-.785 3.648-.785c.543 0 1.477 1.118 1.54 1.118 0 0 3.554-5.563 4.007-5.684l-4.973-8.734-.183.601h-.149c-.21-3.203-2.082-6.648-2.14-9.277 5.879.21 7.988 4.472 10.156 9.972 1.266 3.297 2.684 8.375 2.14 9.586-1.656 2.203-7.144 5.895-8.41 6.86Zm0 0"/>
    <path style="stroke:none;fill-rule:nonzero;fill:#e06a43;fill-opacity:1"
          d="M133.477 50.816c.09.454.242.875.3 1.329-4.672 2.085-9.824 9.644-9.824 9.644-2.652-4.562-9.617-6.074-9.617-6.074-.36-.363-.664-.606-.664-.606-.059-.515-.18-1.453-.3-2.57.421-.152 6.21 2.238 15.1 0 1.567-.422 3.286-.969 5.005-1.723Zm0 0"/>
    <path style="stroke:none;fill-rule:nonzero;fill:#e79e73;fill-opacity:1"
          d="M134.02 53.656c1.175 10.008-3.618 25.606-3.618 25.606s.844 4.867-.3 8.406c-1.145 3.535-4.13 17.5-4.13 17.5s.571 2.086 1.415 3.355c.843 1.27 1.718 3.086-2.5 3.387.332-1.328-1.508-7.527-1.598-8.433.48-9.13 1.266-32.47.664-41.625 0 0 5.152-7.622 9.824-9.645.09.422.184.938.243 1.45ZM133.477 50.816a29.523 29.523 0 0 1-5.004 1.692c-8.891 2.238-14.68-.149-15.102 0-1.023-3.383.574-7.043 1.328-8.403l-.3-4.082s6.359-1.753 15.218 0l.031 3.086s.723.875 1.598 2.387c1.598 2.54 1.75 4.203 2.23 5.32ZM125.852 23.156s1.175.059 2.71.274c0 11.093-12.75 10.972-12.476 0 .09 0 3.738-.758 3.738-.758l.059-.39s2.262 1.386 4.703-.305c.3.242.754.363 1.113.304Zm0 0"/>
    <path style="stroke:none;fill-rule:nonzero;fill:#e79e73;fill-opacity:1"
          d="m125.52 21.16.18 1.121a1.51 1.51 0 0 1-1.114-.304c.3-.243.633-.512.934-.817Zm0 0"/>
    <path style="stroke:none;fill-rule:nonzero;fill:#e06a43;fill-opacity:1"
          d="M113.645 37.605c-2.743-4.351 2.378-10.097 1.867-14.238.332 0 .574.031.574.031-.273 11.036 12.477 11.036 12.477 0l.785.09c.601 5.352 4.129 9.25.242 14.602l.027 1.902c-8.828-1.75-15.219 0-15.219 0l-.09-1.418c0 .059-.331-.332-.663-.969Zm0 0"/>
    <path style="stroke:none;fill-rule:nonzero;fill:#e79e73;fill-opacity:1"
          d="M128.082 14.48c.844.485 0 3.72-1.055 3.024.243-.969.09-2.36.875-3.024a.184.184 0 0 1 .18 0Zm0 0"/>
    <path style="stroke:none;fill-rule:nonzero;fill:#e79e73;fill-opacity:1"
          d="M120.152 20.406c-1.414-1.633-1.867-3.539-1.777-5.535.031-.059 0-.238.063-.27.449-1.933 1.597-4.081 3.523-4.835 0 0 1.871 5.136 5.309 5.441.359 3.625-3.649 9.277-7.118 5.2ZM124.797 110.34c.058.512.332 1.722-.363 1.992-.664.184-5.243.606-5.88-.27-.632-.878.094-2.722.485-4.566 1.356-4.414-4.402-19.285-2.41-25.148-4.856-12.215-4.793-19.59-4.793-19.59s.21.574.902.937c0 0 1.57 1.965 2.051 2.297.48.301.723-1.148.152-2.055l1.082 1.36c1.387-1.18-1.203-3.086-.57-4.567.18.426 1.598 2.391 2.563 1.665-1.782-2.055-.727-4.473-3.649-6.68 0 0 6.992 1.539 9.613 6.074.575 9.16-.21 32.527-.66 41.625 0 .094 1.387 6.379 1.477 6.926Zm0 0"/>
    <path style="stroke:none;fill-rule:nonzero;fill:#2b3448;fill-opacity:1"
          d="M130.434 20.375a7.017 7.017 0 0 1-4.735 1.875c-.058-.426-.21-1.422-.27-1.844.782-.937 1.325-1.937 1.626-2.933 1.117.875 2.14-3.63.636-2.934a4.285 4.285 0 0 1-.453 1.059c0-.211.032-.364.032-.485-3.47-.332-5.31-5.441-5.31-5.441-2.019.879-3.19 3.176-3.554 5.23v.211c-1.656-2.597-1.386 3.086.27 2.422.304.934.785 1.934 1.57 2.84l-.242 1.543c-1.54-.184-2.563-1.664-4.129-1.422.664-4.746-.21-11.973 5.996-13.058 7.203-1 6.48 8.402 8.563 12.937Zm0 0"/>
    <path style="stroke:none;fill-rule:nonzero;fill:#e79e73;fill-opacity:1"
          d="M117.32 14.723c.301-.696.996.27 1.024.453v-.09c.062.785.094 1.691.242 2.476-1.055.364-1.746-1.875-1.266-2.84ZM113.672 55.11c.605.511 2.414 2.175 2.535 2.75.602 1.542.813 3.687 1.809 4.566-.965.722-2.414-1.27-2.563-1.664-.633 1.449 1.957 3.355.57 4.566l-1.082-1.363c.57.879.329 2.39-.152 2.058-.48-.304-2.05-2.3-2.05-2.3-.934-.633-1.626-1.602-1.9-3.535-.089-1.45 0-3.899 0-4.051-.632-2.117-3.194-10.188-3.284-10.852-.153-.758.543-15.207 1.93-18.836 1.113-2.93 4.581-3.113 5.968-3.082.543 4.203-4.644 9.856-1.871 14.238l-1.355 7.649c.484 2.238 1.144 7.375 1.445 9.855Zm0 0"/>
    <path style="stroke:none;fill-rule:nonzero;fill:#e06a43;fill-opacity:1"
          d="M123.258 17.715c-.238.18-1.235-.09-1.297-.363-.117.09.785-2.45 1.086-2.118Zm0 0"/>
    <path style="stroke:none;fill-rule:nonzero;fill:#2b3448;fill-opacity:1"
          d="M121.844 15.234c-.332-.058-.094-.421-.996-.48-.907-.031-1.207.812-1.176.09 0-.031.3-.453 1.176-.453.996.058 1.386.722.996.843.027 0 0 0 0 0ZM119.64 14.39c-.812-.605 2.383-1.21 2.204-.331-.031.058-.153.148-.242.058-.602-.3-1.356-.21-1.899.211a.067.067 0 0 1-.062.063Zm0 0"/>
    <path style="stroke:none;fill-rule:nonzero;fill:#2b3448;fill-opacity:1"
          d="M121.148 14.602c.364.695-.902.785-.632 0-.032 0 .363-.063.632 0ZM123.953 15.234c-.453-.058-.062-.816.934-.816 1.113-.059 1.566.879.902.637 0 0-.238-.301-.902-.301-.875.059-.633.39-.934.48ZM126.152 14.36c-.574-.395-1.328-.575-1.988-.243-.062.031-.184 0-.242-.058.121-.758 2.383-.516 2.351.238 0 .031-.03.062-.12.062Zm0 0"/>
    <path style="stroke:none;fill-rule:nonzero;fill:#2b3448;fill-opacity:1"
          d="M125.309 14.602c.421.695-.996.753-.602 0-.062 0 .422-.122.602 0Zm0 0"/>
    <path style="stroke:none;fill-rule:nonzero;fill:#df895d;fill-opacity:1"
          d="M121.36 17.078c.12.879-2.051 1.031-2.051.152-.09-.875 1.992-1.027 2.05-.152ZM126.395 16.84c.12.875-2.051 1.027-2.051.148-.09-.875 1.988-1.027 2.05-.148Zm0 0"/>
    <path style="stroke:none;fill-rule:nonzero;fill:#e06a43;fill-opacity:1"
          d="M118.406 17.14c-.39-.331-.39-1.148-.785-1.574-.09-.148.152-.39.3-.18.184.395.966 1.571.485 1.755ZM127.45 17.078c-.454-.36.269-1.297.48-1.75.12-.183.394-.031.3.18-.39.422-.39 1.21-.78 1.57Zm0 0"/>
    <path style="stroke:none;fill-rule:nonzero;fill:#2b3448;fill-opacity:1"
          d="M122.898 19.227c-.515.058-.964-.243-.484-.395 0 0 1.176.242 1.84-.512.058-.062.18-.062.242-.03.117.726-1.238.937-1.598.937Zm0 0"/>
    <path style="stroke:none;fill-rule:nonzero;fill:#e06a43;fill-opacity:1"
          d="M116.207 58.043c-.422-.426-1.57-2.059-2.715-3.055-.242-2.086-.754-5.894-.781-5.925.512-1.149.812 3.656 1.082 5.714.242.364 3.105 2.75 2.414 3.266Zm0 0"/>
    <path style="stroke:none;fill-rule:nonzero;fill:#e06a43;fill-opacity:1"
          d="M117.2 63.027c-.028 0-.09 0-.15-.027-.21-.031-1.57-1.996-1.718-2.148-.121-.149.121-.391.27-.211l1.449 1.906c1.324.785-1.055-4.414-1.055-4.719.18-1.27 1.504 3.629 1.598 3.54.238.542.39 1.57-.395 1.66Zm0 0"/>
    <path style="stroke:none;fill-rule:nonzero;fill:#e06a43;fill-opacity:1"
          d="M115.965 65.113c-.453-.027-.664-.48-.813-.816-.332-.633-1.086-1.027-1.418-1.66-.484-.907-.062-1.996-.511-2.903-.032-.062 0-.183.058-.242.934.422.153 2.176.723 2.961.394.668 1.176 1.149 1.539 1.875 1.086 1.574.27-1.39-.031-1.812-.453-.848-.512-1.786-.422-2.723.152-.36-.242-2.234.332-1.602.21 1.059-.211 2.239.031 3.266.149 1.027 1.625 2.781.66 3.629-.027-.031-.09 0-.148.027Zm0 0"/>
    <path style="stroke:none;fill-rule:nonzero;fill:#e06a43;fill-opacity:1"
          d="M114.7 66.172c-.454-.027-1.118-1.27-1.419-1.57-1.054-1.18-1.234-3.266-1.297-4.657.875.637.332 2.45.907 3.387.421.754 1.203 1.875 1.84 2.45.66-.184.539-1.333.238-1.844.394-1.149 1.176 2.234-.27 2.234Zm0 0"/>
    <path style="stroke:none;fill-rule:nonzero;fill:#e06a43;fill-opacity:1"
          d="M112.648 63.785c-1.113-.664-1.746-2.629-1.324-3.597.54.968.09 2.507 1.387 3.324.09.09.117.242-.063.273ZM124.434 112.516a.15.15 0 0 1-.09-.274c1.144-1.18-1.114-8.37-1.207-8.765.605-6.653.996-35.188.843-41.84 1.118 6.984-.21 34.465-.511 41.777.242.848 2.383 7.8 1.144 9.04-.09.062-.117.062-.18.062ZM120.336 83.281c-.363.121-2.414-.574-1.418-.754.875.575 2.11.543 2.953-.03.063-.06.184-.032.242.03-.058.606-1.265.696-1.777.754ZM127.117 82.254c-.422-.059-1.387 0-1.445-.512.027-.09.148-.152.238-.09 1.055.453 2.383.27 3.258-.457 1.082.215-1.66 1.27-2.05 1.059ZM120.363 103.898c-.843-.453 2.114-.753 2.082-.21-.511.304-1.386-.153-2.05.242 0 0-.032 0-.032-.032ZM123.078 112.547c-.3.058-.3-1.363-.363-1.512 0-.215.273-.273.332-.062-.059.183.422 1.632.031 1.574ZM121.844 112.547c-.364-.242-.031-.91-.274-1.3.364-.849.723 1.269.274 1.3ZM120.547 112.605c-.121 0-.184-.12-.184-.18.063-.214-.117-1.39.211-1.331.094 0 .153.12.153.183-.059.211.12 1.36-.18 1.328ZM119.492 112.605c-.09 0-.183-.058-.183-.18.062-.152-.149-1.21.183-1.148.09 0 .18.059.18.18-.09.152.121 1.18-.18 1.148ZM125.79 111.758c-.36-.242.03-.965-.33-1.328.24-.938.872 1.27.33 1.328ZM126.938 111.457s-.032 0 0 0c-.364-.152-.032-.785-.305-1.09.21-.933.816 1 .305 1.09ZM127.809 110.883c-.329-.121-.149-.664-.422-.906-.028-.063-.028-.184.062-.243.39-.09.813 1.028.36 1.149.03 0 0 0 0 0ZM136.191 41.719c-.695-.457 2.954-2.57 3.313-1.996.031.09-.027.18-.149.21-1.238.212-2.23 1.028-3.164 1.786ZM131.277 33.707c-.605.18 1.176-2.902 1.114-2.992.062-.215.453-.031.3.18-.058.03-1.203 2.96-1.414 2.812ZM113.824 31.379c-.422-.363-.48-1.18-.902-1.633-.121-.152.117-.394.27-.21.18.452 1.117 1.57.632 1.843ZM122.234 48.52c-.39.09-1.418-1.18-.574-.848.031.332 1.145.605.574.848ZM126.305 48.215c-1.176-.211-1.086-.633 1.203-2.086 0 0 .031 0 .031-.027.152-.032 3.164-.848 3.918-.758.813.183 1.898 1.511 1.629 1.816-.063.028-.184.028-.242-.062-.211-.364-.875-1.36-1.418-1.391-1.176-.059-5.094.906-5.516 2.117.063.18.754-.12.875.18.031.242-.332.21-.48.21Zm0 0"/>
    <path style="stroke:none;fill-rule:nonzero;fill:#e06a43;fill-opacity:1"
          d="M126.844 49.094c-1.715-.305-1.778-.242 1.297-2.39-.059-.09 2.504-.09 2.53.362 0 .094-.089.184-.21.121-2.41-.664-2.832.333-4.367 1.391.27.09.933.274 1.535-.058.062-.032.18 0 .242.058.031.484-.723.484-1.027.516Zm0 0"/>
    <path style="stroke:none;fill-rule:nonzero;fill:#e06a43;fill-opacity:1"
          d="M128.02 52.145c-.18 0-.301 0-.301-.028-.121 0-.211-.152-.149-.273.028-.032.903-1.723.934-1.723l.996-.816-.453-.032c-.3.454-1.66 2.176-2.442 1.817-.605-.695 1.325-2.965 1.598-3.235.332-.214 1.899-.03 2.379.028.242 0 .152.426-.059.332-.906-.09-1.96-.18-2.14-.059-.27.18-1.356 1.813-1.598 2.508-.09.426.813-.121 1.207-.605.66-.723.692-1.028.934-1.118.12.063 1.418-.09 1.023.332l-1.324 1.059-.785 1.422c1.117.363 2.41-2.117 2.894-1.996 0 0 1.024.543 2.262.031.09-.031.18 0 .238.09-.511.906-2.468.332-2.53.273-.481.391-1.63 2.328-2.684 1.993ZM163.707 23.246c1.086 1.785 3.68 2.48 5.188.817l.058.757c-2.078 1.75-5.547 1.176-5.547 1.176Zm0 0"/>
    <path style="stroke:none;fill-rule:nonzero;fill:#e79e73;fill-opacity:1"
          d="M165.938 95.86c-.66 3.535-1.504 8.19-1.504 8.855-.063 2.117.902 6.047-.516 7.617-7.324 1.152-3.344-3.445-3.254-7.254 0 0 0-10.851-.09-16.05-.09-5.2 2.41-6.622 2.41-6.622-5.12-11.789-6.027-19.015-6.086-22.398 0 0 7.114.601 10.79 4.683 0 0 1.355 16.051 1.144 17.504-1.055 5.653-2.078 8.524-2.894 13.664ZM172.723 28.477c1.504.726 2.984 1.57 3.496 2.238 2.652 8.344 3.074 20.523 2.89 28.113 0 0 .243 3.113.243 3.504 0 .395-1.536 2.39-1.598 2.633-.059.242-.48 1.57-1.445 1.965 1.113-7.285 1.808-10.52-1.118-16.114-.543-2.539-1.714-7.648-2.347-10.156 2.531-2.754-1.508-11.73-1.719-12.91a54.55 54.55 0 0 1 1.598.727Zm0 0"/>
    <path style="stroke:none;fill-rule:nonzero;fill:#e79e73;fill-opacity:1"
          d="M177.21 57.074c.454 3.598-3.343 23.094-3.523 23.61 1.567 7.527-2.683 16.93-4.613 22.398 0 0 .844 6.621.363 7.8-.515 1.118-3.921 1.27-4.945.755.301-1.27.211-3.625.09-5.227 0-.031 1.207-3.57 1.207-3.57-.39-7.313 1.598-13.207 3.043-20.492.543-12.73-5.906-21.254 8.379-25.274Zm0 0"/>
    <path style="stroke:none;fill-rule:nonzero;fill:#e06a43;fill-opacity:1"
          d="M176.34 53.535c.48 1.3.812 2.66.902 3.871 0 0-7.715 1.875-9.523 7.375-3.649-4.078-10.793-4.683-10.793-4.683-.028-1.602.152-2.391.152-2.418.48-.215.785-.453.785-.453.301.238 2.77.996 3.164.027 0 0 .844.516 1.145.094.332-.426.031-.578.031-.578s.211.03.238-.118c.032.028 8.563 1.086 13.899-3.117Zm0 0"/>
    <path style="stroke:none;fill-rule:nonzero;fill:#e79e73;fill-opacity:1"
          d="M176.34 53.535c-5.336 4.145-13.899 3.145-13.899 3.086.063-.305-5.304.39-5.152-.305v-3.082c.723-4.414 1.324-4.957 1.324-4.957l-1.082-4.625s6.36-2.66 14.106-.543l.781 3.02s1.418 1.965 2.715 4.598c.422.906.812 1.843 1.207 2.808Zm0 0"/>
    <path style="stroke:none;fill-rule:nonzero;fill:#e06a43;fill-opacity:1"
          d="M173.715 37.574c.21 1.301-1.719 4.567-2.23 5.078l.152.485c-7.778-2.145-14.106.547-14.106.547l-1.265-5.262c5.062 0 3.074-11.215 3.074-11.395.3-.062.57-.183.87-.242 0 9.008 12.75 11.817 9.83.512.3.09.632.273 1.023.453-.028-.031 2.625 7.617 2.652 9.824Zm0 0"/>
    <path style="stroke:none;fill-rule:nonzero;fill:#e79e73;fill-opacity:1"
          d="M171.605 20.586c-.18.305-.632.21-.722.121.12-1.09.3-2.145.754-3.172 1.054.36.543 2.598-.032 3.05Zm0 0"/>
    <path style="stroke:none;fill-rule:nonzero;fill:#e79e73;fill-opacity:1"
          d="M171.094 18.379c-.39 8.766-8.711 8.707-8.953-.059.09-.03 4.28-2.933 4.46-5.53.032.026 3.739.722 4.493 5.589Zm0 0"/>
    <path style="stroke:none;fill-rule:nonzero;fill:#e79e73;fill-opacity:1"
          d="M170.04 27.297c2.894 11.305-9.83 8.496-9.83-.512 1.72-.484 3.196-.789 3.196-.789s3.496.574 5.547-1.176l.242 2.145c0-.031.332.12.844.332Zm0 0"/>
    <path style="stroke:none;fill-rule:nonzero;fill:#2b3448;fill-opacity:1"
          d="M166.633 12.816c-.18 2.602-4.34 5.504-4.461 5.532v-.059.09c-1.656-2.598-1.387 3.086.27 2.418.273.879.605 1.512 1.265 2.48l-.3 2.75c.183-.058-2.891.664-4.067 1.028-1.903.664-3.285.664-4.555 2.207-2.41-5.926 6.332-9.219 6.723-14.117h.062c1.868-8.493 13.172-3.747 9.465 3.75 0-.211.028-.364.028-.485-.723-4.867-4.43-5.594-4.43-5.594ZM172.723 28.477c-.907-.454-1.84-.817-2.684-1.18-.512-.211-.844-.332-.844-.332-.062-.543-.273-2.387-.3-2.902.964-.907 1.656-2.176 1.988-3.293.09.09.574.148.722-.122.333.754 1.75 4.442 1.118 7.829Zm0 0"/>
    <path style="stroke:none;fill-rule:nonzero;fill:#e79e73;fill-opacity:1"
          d="m157.29 53.234 1.839-1.722 2.68.515c0 1.028-2.41.875-2.41.875l-.512.996s1.84.184 2.11.364c.241.242 1.96 2.539 1.175 2.508 0 0 .3.183-.031.578-.332.39-1.145-.094-1.145-.094-.363.969-2.894.21-3.164-.027-2.23 1.691-3.95.18-4.855-1.332 0 0-6.48-9.766-6.48-11.036 0-1.148 5.276-12.09 8.23-15.629 1.265-1.57 2.62-1.511 4.55-2.203.032.18 1.989 11.395-3.074 11.395l-.242-1.059-4.64 6.922 4.07 10.04c.03-.095 1.898-1.06 1.898-1.09ZM161.117 17.926c.301-.696.996.273 1.024.453v-.09.059c.062.757.09 1.664.242 2.422-1.086.359-1.688-1.848-1.266-2.844Zm0 0"/>
    <path style="stroke:none;fill-rule:nonzero;fill:#e06a43;fill-opacity:1"
          d="M166.3 21.07c.243.18 1.235-.09 1.298-.363.12.09-.786-2.45-1.086-2.117Zm0 0"/>
    <path style="stroke:none;fill-rule:nonzero;fill:#2b3448;fill-opacity:1"
          d="M167.719 18.59c-.453-.059 0-.785.992-.817 1.027.063 1.328.395 1.148.668-.394.122-.21-.332-1.148-.332-.871.059-.633.422-.992.48ZM169.918 17.746c-.574-.394-1.324-.574-1.988-.242-.184.058-.364-.152-.184-.305.664-.332 2.113-.332 2.262.516.031 0-.031.031-.09.031Zm0 0"/>
    <path style="stroke:none;fill-rule:nonzero;fill:#2b3448;fill-opacity:1"
          d="M168.41 17.926c-.36.695.906.785.633 0 .031.062-.332-.059-.633 0ZM165.637 18.59c-.332-.059-.059-.422-.992-.48-.907-.032-1.208.812-1.176.09.21-.548 2.258-.606 2.351.179.028.121-.093.242-.183.21ZM163.438 17.715c-.844-.606 2.382-1.149 2.199-.3-.028.058-.149.148-.239.058-.605-.301-1.359-.211-1.902.21 0 .032-.027.032-.059.032Zm0 0"/>
    <path style="stroke:none;fill-rule:nonzero;fill:#2b3448;fill-opacity:1"
          d="M164.281 17.926c-.422.695.996.758.602 0 .031 0-.48-.09-.602 0Zm0 0"/>
    <path style="stroke:none;fill-rule:nonzero;fill:#df895d;fill-opacity:1"
          d="M168.23 20.434c-.12.878 2.051 1.03 2.051.12.09-.874-1.992-1.027-2.05-.12ZM163.195 20.195c-.12.875 2.051 1.028 2.051.117.09-.875-2.078-1.027-2.05-.117Zm0 0"/>
    <path style="stroke:none;fill-rule:nonzero;fill:#e06a43;fill-opacity:1"
          d="M171.152 20.496c-.39-.422.364-1.27.516-1.754.812-.332-.363 1.27-.305 1.602-.058.09-.148.152-.21.152ZM162.14 20.434c-.39-.36-.39-1.149-.78-1.602-.094-.148.148-.39.3-.18.18.453.934 1.422.48 1.782.032 0 0 0 0 0Zm0 0"/>
    <path style="stroke:none;fill-rule:nonzero;fill:#2b3448;fill-opacity:1"
          d="M166.664 22.55c-.332.032-1.75-.21-1.598-.905.059-.06.18-.032.239.03.632.786 1.808.512 1.84.512.21-.058.3.305.062.333-.031 0-.273.03-.543.03Zm0 0"/>
    <path style="stroke:none;fill-rule:nonzero;fill:#e06a43;fill-opacity:1"
          d="M166.574 52.902c-.484.032.36-1.117.328-1.3.063-.211.453-.032.305.183-.094.121-.422 1.207-.633 1.117ZM176.246 67.05s-.027 0 0 0c1.508-12.03.816-12.152-2.258-18.077-.062-.184.149-.364.301-.184 2.684 5.957 4.52 6.137 1.957 18.262Zm0 0"/>
    <path style="stroke:none;fill-rule:nonzero;fill:#e06a43;fill-opacity:1"
          d="M176.91 63.844c-.543.031.633-1.965.906-1.723.059.063.09.184.028.242-.422.395-.54 1.121-.934 1.48ZM155.723 37.969c-.696.058 1.808-2.903 1.746-3.024.062-.058.183-.09.242-.03.059.062.09.183.031.241l-1.898 2.75c0 .032-.094.063-.121.063ZM151.32 44.406c-.058 0-.148-.027-.18-.09-.242-.574-.995-.511-1.027-.484-.238 0-.238-.27-.058-.332.27-.121 1.718.273 1.297.938 0 0 0-.032-.032-.032ZM158.945 53.96c-.422-.03.032-.425.063-.636.3-1.238 2.199-.332 2.71-1.238-3.222-.785-2.378-.516-4.609 1.36-.785-.06.57-.755.66-1.087.485-.726 1.45-1.3 2.352-.937.574.121 2.863.27 1.508 1.27-1.297.605-1.899-.305-2.531 1.3Zm0 0"/>
    <path style="stroke:none;fill-rule:nonzero;fill:#e06a43;fill-opacity:1"
          d="M162.441 56.89c-.18 0-.18-.238-.058-.331-1.328-2.567-1.117-2.145-3.797-2.66a.165.165 0 0 1-.152-.212c-.059-.363 1.93.243 2.082.211.539 0 1.023.426 1.203.88.12.421 1.539 1.874.722 2.113Zm0 0"/>
    <path style="stroke:none;fill-rule:nonzero;fill:#e06a43;fill-opacity:1"
          d="M162.414 57.074c-.031 0-.062 0-.062-.031-.692-.332-1.114-1.059-1.809-1.39-.66-.454-2.23-.032-2.531-.848 1.117.12 2.804.273 3.648 1.3.149.305 1.324.727.754.97ZM161.086 57.527c-1.176-1.238-2.32-1.27-3.738-1.543.394-.816 4.582.88 3.738 1.543ZM165.938 97.008c-.028 0-.028 0 0 0-.54-.274 2.113-10.61 2.773-14.781.965-4.145-1.445-17.325-1.024-17.657.543.422 2.051 13.664 1.356 17.715-.965 4.082-2.68 14.512-3.106 14.723Zm0 0"/>
    <path style="stroke:none;fill-rule:nonzero;fill:#e06a43;fill-opacity:1"
          d="M166.242 83.344c-.363.12-2.351-.606-1.387-.758.66.605 1.598.242 2.258.457 0 .36-.66.238-.87.3ZM170.34 83.133c-.27.09-.512-.274-.18-.332a2.807 2.807 0 0 0 1.93-.668c1.113.062-1.36 1.21-1.75 1ZM164.402 111.7c-.18-2.087.422-4.716-.152-7.013.844-.937.754 6.68.152 7.012ZM162.895 112.668c-.391-.063.09-.816-.18-1.121.332-.785.512.785.27 1.027.03.063-.028.094-.09.094ZM161.688 112.605c-.422-.058.093-.664-.06-.937.392-.754.513.906.06.937ZM160.727 112.426c-.395-.063.117-.606 0-.88.421-.694.449.88 0 .88ZM160.094 112.184c-.031 0-.063 0-.063-.032-.21-.18.121-.515.063-.754 0-.242.328-.183.328 0-.059.27-.09.696-.328.786ZM165.457 111.973c-.3.027-.121-.79-.18-.938 0-.094.059-.183.18-.183.3-.032.121.785.18.937 0 .121-.121.184-.18.184ZM166.664 112.063a.178.178 0 0 1-.184-.184c.063-.149-.148-1.027.184-.996.3-.031.121.847.18.996 0 .062-.059.183-.18.183ZM167.656 111.852c-.09 0-.18-.063-.18-.153 0-.152-.18-.785.06-.847.093 0 .183.062.21.152 0 .152.242.848-.09.848ZM168.652 111.578c-.21.059-.39-.875-.152-.875.273-.062.242.543.305.664 0 .121-.063.18-.153.211ZM161.148 105.047c-.996-.602 2.442-.543 1.325-.027-.391-.122-.875-.094-1.325.027.028 0 0 0 0 0ZM167.809 103.176c-.274-.153-1.989-.031-1.329-.516.422.121 1.297-.058 1.508.422-.058.031-.12.094-.18.094Zm0 0"/>
    <path style="stroke:none;fill-rule:nonzero;fill:#2b3448;fill-opacity:1"
          d="M169.105 138.39h-.996v-2.57c-.12.153-.48.457-.632.578l-.512-.636 1.234-1.028h.875c.031.032.031 3.657.031 3.657ZM171.246 134.703c1.203-.152 1.688 1.3.602 1.785 1.265.543.722 2.114-.602 1.965-1.27.18-1.871-1.422-.664-1.965-1.027-.605-.512-1.937.664-1.785Zm-.422 2.692c.27.847 1.477 0 .422-.485-.273.121-.422.242-.422.485Zm.422-1.997c-.394 0-.394.485 0 .637.328-.12.422-.605 0-.637ZM172.934 138c-.063-.637 1.082-.637 1.023 0 .059.633-1.055.602-1.023 0ZM175.824 136.004c2.352.543.696 3.324-1.414 2.238v-.816c1.508.906 2.352-1.028.422-.574l-.363-.184.152-1.934h2.078v.817h-1.234l-.063.484c.211 0 .274-.031.422-.031ZM163.8 137.426v-.79h1.415v.79ZM154.938 138.39h-2.622v-.632c.391-.426 1.325-1.242 1.536-1.696.242-.753-.723-.542-1.055-.148l-.543-.637c2.203-1.754 3.8.664 1.297 2.27v.027h1.387ZM158.043 137.695h-.39v.696h-.965v-.696h-1.45v-.722l1.508-2.207h.906v2.207h.391Zm-1.356-.722c0-.243 0-.727.028-.97h-.028c-.093.274-.453.727-.605.97ZM158.344 138c-.059-.637 1.086-.637 1.023 0 .063.633-1.054.602-1.023 0ZM162.414 136.426c.09 1.633-.996 2.176-2.441 1.996v-.785c.691.12 1.535-.032 1.566-.88h-.031c-1.024 1.391-2.473-.753-1.414-1.722.992-.844 2.469 0 2.32 1.39Zm-1.387-.938c-.484-.027-.511.969 0 .938.543.031.512-.906 0-.938Zm0 0"/>
    <path style="stroke:none;fill-rule:nonzero;fill:#9a9e42;fill-opacity:1"
          d="m187.582 123.61-4.55 7.648h-41.567l4.55-7.649-4.55-7.648h41.566Zm0 0"/>
    <path style="stroke:none;fill-rule:nonzero;fill:#f8e9cb;fill-opacity:1"
          d="M157.227 124.941h-1.204l-1.238-2.39h-.027c.058.695.027 1.722.058 2.39h-.812v-3.386h1.203l1.238 2.355c-.062-.633-.03-1.75-.03-2.355h.812ZM161.148 123.246c.239 2.328-3.527 2.328-3.285 0-.242-2.328 3.524-2.328 3.285 0Zm-2.351 0c-.09 1.36 1.535 1.238 1.355 0 .18-1.238-1.445-1.39-1.355 0ZM162.652 123.7v1.241h-.902v-3.386h1.113c1.418-.121 1.871 1.27.817 1.902l.992 1.484h-1.024l-.722-1.242Zm0-.665c.844.153.907-.937 0-.785ZM166.422 124.941l-.695-2.449h-.028c.059.785.028 1.723.059 2.45h-.813v-3.387h1.203l.696 2.418h.031l.691-2.418h1.207v3.386h-.843c0-.757-.032-1.632.027-2.449h-.027l-.696 2.45ZM171.637 124.941l-.153-.636h-1.113l-.184.636h-.992l1.114-3.418h1.207l1.113 3.418Zm-.364-1.39c-.09-.426-.3-1.059-.359-1.453-.09.484-.152.695-.363 1.453ZM172.992 124.941v-3.386h.906v2.66h1.293v.754h-2.199Zm0 0"/>
    <path style="stroke:none;fill-rule:nonzero;fill:#2b3448;fill-opacity:1"
          d="M127.719 138.39h-2.621v-.632c.39-.426 1.324-1.242 1.535-1.696.242-.753-.723-.542-1.055-.148l-.543-.637c2.203-1.754 3.77.664 1.297 2.27v.027h1.36v.817ZM129.559 136.004c2.351.543.691 3.324-1.418 2.238v-.816c1.507.906 2.351-1.028.422-.574l-.36-.184.149-1.934h2.082v.817h-1.239l-.027.484c.18 0 .238-.031.39-.031ZM122.055 137.426v-.79h1.386v.79ZM112.89 138.39h-2.62v-.632c.39-.426 1.324-1.242 1.535-1.696.242-.753-.723-.542-1.055-.148l-.543-.637c2.2-1.754 3.77.664 1.297 2.27v.027h1.355Zm0 0"/>
    <path style="stroke:none;fill-rule:nonzero;fill:#2b3448;fill-opacity:1"
          d="M115.902 136.426c.094 1.633-.992 2.176-2.441 1.996v-.785c.695.12 1.539-.032 1.539-.88h-.031c-1.024 1.391-2.469-.753-1.414-1.722 1.023-.844 2.53 0 2.347 1.39Zm-1.355-.938c-.48-.027-.512.969 0 .938.543.031.484-.906 0-.938ZM116.297 138c-.063-.637 1.086-.637 1.023 0 .063.633-1.054.602-1.023 0ZM120.363 136.426c.094 1.633-.992 2.176-2.441 1.996v-.785c.695.12 1.539-.032 1.539-.88h-.031c-1.024 1.391-2.47-.753-1.414-1.722 1.023-.844 2.5 0 2.347 1.39Zm-1.383-.938c-.484-.027-.515.969 0 .938.54.031.512-.906 0-.938Zm0 0"/>
    <path style="stroke:none;fill-rule:nonzero;fill:#e79c45;fill-opacity:1"
          d="m143.516 123.61-4.524 7.648H97.426l4.492-7.649-4.492-7.648h41.566Zm0 0"/>
    <path style="stroke:none;fill-rule:nonzero;fill:#e79c45;fill-opacity:1"
          d="M110.96 123.91c0 1.18-1.565 1.27-2.382.88v-.817c1.54.664 2.113.058.363-.696-1.175-1.332.875-2.238 2.02-1.511l-.27.695c-.363-.211-1.449-.422-1.058.18.426.242 1.418.546 1.328 1.27ZM114.367 121.555c-.058 1.18.453 3.597-1.476 3.445-1.899.152-1.356-2.266-1.45-3.445h.907c.152.543-.422 2.718.543 2.691.933.059.39-2.148.543-2.691ZM115.996 123.7v1.241h-.906v-3.386h1.117c1.414-.121 1.867 1.27.813 1.902l.996 1.484h-1.028l-.722-1.242Zm0-.665c.844.153.902-.937 0-.785ZM120.727 122.64c.03.91-.723 1.27-1.536 1.18v1.121h-.906v-3.386c.875 0 2.504-.243 2.442 1.086Zm-1.536.426c.782.121.844-.937 0-.785ZM124.434 123.246c.242 2.328-3.528 2.328-3.286 0-.21-2.328 3.528-2.328 3.286 0Zm-2.32 0c-.09 1.36 1.538 1.238 1.355 0 .183-1.238-1.446-1.39-1.356 0ZM125.066 124.941v-3.386h.907v3.386ZM129.59 123.188c.09 1.722-1.57 1.87-2.863 1.78v-3.382c1.234-.094 2.953-.094 2.863 1.602Zm-.965.027c.027-.695-.363-.996-1.027-.906v1.906c.695.058 1.054-.305 1.027-1ZM132.39 123.91c0 1.18-1.566 1.27-2.378.88v-.817c1.535.664 2.11.058.36-.696-1.177-1.332.874-2.238 2.019-1.511l-.27.695c-.363-.211-1.45-.422-1.055.18.422.242 1.446.546 1.325 1.27Zm0 0"/>
    <path style="stroke:none;fill-rule:nonzero;fill:#f8e9cb;fill-opacity:1"
          d="M110.96 123.91c0 1.18-1.565 1.27-2.382.88v-.817c1.54.664 2.113.058.363-.696-1.175-1.332.875-2.238 2.02-1.511l-.27.695c-.363-.211-1.449-.422-1.058.18.426.242 1.418.546 1.328 1.27ZM114.367 121.555c-.058 1.18.453 3.597-1.476 3.445-1.899.152-1.356-2.266-1.45-3.445h.907c.152.543-.422 2.718.543 2.691.933.059.39-2.148.543-2.691ZM115.996 123.7v1.241h-.906v-3.386h1.117c1.414-.121 1.867 1.27.813 1.902l.996 1.484h-1.028l-.722-1.242Zm0-.665c.844.153.902-.937 0-.785ZM120.727 122.64c.03.91-.723 1.27-1.536 1.18v1.121h-.906v-3.386c.875 0 2.504-.243 2.442 1.086Zm-1.536.426c.782.121.844-.937 0-.785ZM124.434 123.246c.242 2.328-3.528 2.328-3.286 0-.21-2.328 3.528-2.328 3.286 0Zm-2.32 0c-.09 1.36 1.538 1.238 1.355 0 .183-1.238-1.446-1.39-1.356 0ZM125.066 124.941v-3.386h.907v3.386ZM129.59 123.188c.09 1.722-1.57 1.87-2.863 1.78v-3.382c1.234-.094 2.953-.094 2.863 1.602Zm-.965.027c.027-.695-.363-.996-1.027-.906v1.906c.695.058 1.054-.305 1.027-1ZM132.39 123.91c0 1.18-1.566 1.27-2.378.88v-.817c1.535.664 2.11.058.36-.696-1.177-1.332.874-2.238 2.019-1.511l-.27.695c-.363-.211-1.45-.422-1.055.18.422.242 1.446.546 1.325 1.27Zm0 0"/>
    <path style="stroke:none;fill-rule:nonzero;fill:#e06a43;fill-opacity:1"
          d="m99.508 123.488-4.524 7.649H53.391l4.52-7.649-4.52-7.648h41.593Zm0 0"/>
    <path style="stroke:none;fill-rule:nonzero;fill:#f8e9cb;fill-opacity:1"
          d="M70.3 123.309c.24 2.328-3.527 2.328-3.284 0-.243-2.329 3.523-2.329 3.285 0Zm-2.35 0c-.09 1.359 1.534 1.238 1.355 0 .18-1.243-1.446-1.391-1.356 0ZM70.902 121.613c.543.032 1.809-.09 2.2.211.543.305.421 1.27-.18 1.39v.032c.723.121.785 1.149.242 1.512-.422.394-1.687.242-2.262.273Zm.907 1.301c.87.152.96-.754 0-.605Zm0 .664v.727c1.023.152.992-.907 0-.727ZM76.117 125h-2.02v-3.387h2.02v.727h-1.086v.543h1.028v.726H75.03v.637h1.086Zm-1.539-3.656v-.063c.332-.39.422-.422.606-.695h.992v.062c-.211.149-.781.575-.992.723ZM78.922 123.973c0 1.18-1.57 1.27-2.383.875v-.817c1.54.668 2.11.063.363-.695-1.175-1.328.871-2.234 2.02-1.512l-.274.696c-.359-.211-1.445-.422-1.054.183.422.242 1.418.543 1.328 1.27ZM79.434 125v-3.387h.902V125ZM82.598 125h-.907v-2.66h-.812v-.754h2.562v.754h-.812V125ZM85.914 125h-2.02v-3.387h2.02v.727h-1.086v.543h1.024v.726h-1.024v.637h1.086Zm-1.539-3.656v-.063c.332-.39.422-.422.605-.695h.993v.062c-.211.149-.782.575-.993.723Zm0 0"/>
    <path style="stroke:none;fill-rule:nonzero;fill:#2b3448;fill-opacity:1"
          d="M83.594 135.55c0 .485-.332.786-.817.938 2.293.696-.027 2.66-1.687 1.754v-.816c1.207.785 2.562-.574.574-.547v-.754c1.598.152.934-1.21-.152-.422l-.422-.668c.695-.484 2.41-.601 2.504.516ZM86.695 136.578c.243 2.508-2.863 2.45-2.62 0-.243-2.508 2.862-2.48 2.62 0Zm-1.656 0c-.059.574.18 1.543.602.848.09-.274.09-1.422 0-1.696-.422-.695-.66.274-.602.848ZM78.047 137.426v-.79h1.387v.79ZM68.762 135.55c0 .485-.332.786-.813.938 2.29.696-.031 2.66-1.687 1.754v-.816c1.203.785 2.562-.574.57-.547v-.754c1.598.152.938-1.21-.148-.422l-.422-.668c.691-.484 2.41-.601 2.5.516ZM71.898 136.426c.09 1.633-.996 2.176-2.441 1.996v-.785c.691.12 1.535-.032 1.535-.88h-.027c-1.028 1.391-2.473-.753-1.418-1.722.992-.844 2.5 0 2.351 1.39Zm-1.386-.938c-.485-.027-.512.969 0 .938.543.031.48-.906 0-.938ZM72.258 138c-.059-.637 1.086-.637 1.027 0 .059.633-1.055.602-1.027 0ZM76.328 136.426c.09 1.633-.996 2.176-2.441 1.996v-.785c.691.12 1.539-.032 1.539-.88h-.031c-1.028 1.391-2.473-.753-1.418-1.722 1.023-.844 2.53 0 2.351 1.39Zm-1.355-.938c-.485-.027-.512.969 0 .938.543.031.48-.906 0-.938ZM34.613 137.695h-.394v.696h-.965v-.696h-1.445v-.722l1.507-2.207h.903v2.207h.394Zm-1.386-.754c0-.242 0-.726.027-.968h-.027c-.09.273-.454.726-.606.968ZM37.477 136.578c.238 2.508-2.864 2.45-2.625 0-.239-2.508 2.863-2.48 2.625 0Zm-1.66 0c-.06.574.183 1.543.605.848.09-.274.09-1.422 0-1.696-.422-.695-.664.274-.606.848ZM27.227 137.906v-.812l1.687-.696-1.687-.757v-.817l2.742 1.36v.453Zm0 0"/>
    <path style="stroke:none;fill-rule:nonzero;fill:#cb4f30;fill-opacity:1"
          d="m55.5 123.61-4.52 7.648H9.383l4.523-7.649-4.523-7.648H50.98Zm0 0"/>
    <path style="stroke:none;fill-rule:nonzero;fill:#f8e9cb;fill-opacity:1"
          d="M26.293 120.555c.242 2.328-3.527 2.328-3.285 0-.242-2.325 3.527-2.325 3.285 0Zm-2.32 0c-.09 1.363 1.535 1.242 1.355 0 .152-1.239-1.476-1.39-1.355 0ZM26.895 118.863c.543.032 1.808-.09 2.203.211.539.305.422 1.27-.184 1.39v.032c.723.121.785 1.149.242 1.512-.422.39-1.687.242-2.261.273Zm.937 1.301c.871.148.961-.758 0-.605Zm0 .695v.727c1.023.148.992-.91 0-.727ZM32.11 122.281h-2.02v-3.386h2.02v.722h-1.087v.547h1.028v.727h-1.028v.632h1.086Zm-1.536-3.691v-.059c.36-.394.422-.422.602-.695h.996v.059c-.211.152-.785.574-.996.726ZM34.914 121.223c0 1.175-1.566 1.27-2.383.875v-.817c1.54.664 2.11.063.364-.695-1.176-1.328.875-2.238 2.02-1.512l-.274.696c-.36-.211-1.446-.422-1.055.183.422.27 1.45.543 1.328 1.27ZM35.457 122.281v-3.386h.934v3.386ZM38.59 122.281h-.903v-2.664h-.816v-.754h2.563v.754h-.813c-.031 0-.031 2.664-.031 2.664ZM41.906 122.281h-2.02v-3.386h2.02v.722H40.82v.547h1.028v.727H40.82v.632h1.086Zm-1.539-3.691v-.059c.332-.394.426-.422.606-.695h.992v.059c-.211.152-.781.574-.992.726ZM26.504 126.934c0 1.18-1.567 1.27-2.383.879v-.817c1.54.664 2.113.059.363-.695-1.175-1.332.875-2.239 2.02-1.512l-.27.695c-.363-.21-1.449-.425-1.058.18.394.273 1.418.547 1.328 1.27ZM29.035 127.992h-2.02v-3.387h2.02v.727H27.95v.543h1.028v.727h-1.028v.636h1.086Zm-1.535-3.687v-.059c.36-.394.422-.426.602-.695h.996v.058c-.211.153-.785.575-.996.727ZM31.508 124.578h1.023l-1.113 3.383h-1.086l-1.117-3.383h1.027c.121.48.602 2.113.633 2.508.059-.543.512-1.965.633-2.508ZM33.887 124.305c-.239-.153-.75-.543-.992-.727v-.058h.992c.062.12.425.484.605.695v.058Zm1.027 3.656h-2.02v-3.383h2.02v.723h-1.086v.547h1.024v.722h-1.024v.637h1.086ZM36.422 126.754v1.238h-.906v-3.387h1.117c1.414-.12 1.867 1.27.812 1.907l.996 1.48h-1.027l-.723-1.238Zm0-.695c.844.152.902-.938 0-.786ZM40.73 127.992h-2.02v-3.387h2.02v.727h-1.085v.543h1.027v.727h-1.027v.636h1.085Zm0 0"/>
</svg>