<?xml version="1.0" encoding="utf-8"?>
<svg version="1.1" xmlns="http://www.w3.org/2000/svg" x="0px" y="0px"
	 viewBox="0 0 62 32" enable-background="new 0 0 62 32" xml:space="preserve">
<path d="M123.6,14.2c-0.8,0-1.4,0.6-1.4,1.4v8.2C110,10,98.2,3.3,87,3.9C74.1,4.6,67.1,14.8,66.8,15.2c-0.4,0.6-0.3,1.5,0.4,2
	c0.6,0.4,1.5,0.3,2-0.4c0.1-0.1,6.5-9.5,18-10c10.4-0.5,21.5,6,33.2,19.3h-9.3c-0.8,0-1.4,0.6-1.4,1.4s0.6,1.4,1.4,1.4h12.5
	c0.8,0,1.4-0.6,1.4-1.4V15.6C125.1,14.8,124.4,14.2,123.6,14.2z"/>
<path fill="#4F205D" d="M-9.4,14.2c-0.8,0-1.4,0.6-1.4,1.4v8.2C-23,10-34.8,3.3-46,3.9c-12.9,0.7-19.9,10.9-20.2,11.3
	c-0.4,0.6-0.3,1.5,0.4,2c0.6,0.4,1.5,0.3,2-0.4c0.1-0.1,6.5-9.5,18-10c10.4-0.5,21.5,6,33.2,19.3h-9.3c-0.8,0-1.4,0.6-1.4,1.4
	s0.6,1.4,1.4,1.4h12.5c0.8,0,1.4-0.6,1.4-1.4V15.6C-7.9,14.8-8.6,14.2-9.4,14.2z"/>
<path d="M7.5,28.7c0.7-0.3,1.1-1.1,0.8-1.8l-2.8-7.7c16.2,8.7,29.6,10.9,39.9,6.5C57.3,20.6,60.4,8.6,60.5,8.1
	c0.2-0.8-0.3-1.5-1-1.7c-0.8-0.2-1.5,0.3-1.7,1c0,0.1-2.9,11.1-13.4,15.7c-9.5,4.1-22.3,1.8-37.8-6.7l8.7-3.2
	c0.7-0.3,1.1-1.1,0.8-1.8c-0.3-0.7-1.1-1.1-1.8-0.8L2.5,14.8c-0.7,0.3-1.1,1.1-0.8,1.8l4.1,11.2C6,28.6,6.8,28.9,7.5,28.7z"/>
</svg>
