<svg xmlns="http://www.w3.org/2000/svg" width="40.41" height="42.15" viewBox="0 0 404.096 421.5">
    <path fill="#BE0349" d="M178.858-17.1q-.359,1.374-.745,2.706C168.076,16.889,149.367,37.2,122.323,46.279a101.448,101.448,0,0,1,2.867-9.8,88.333,88.333,0,0,1,8.221-17.326A81.867,81.867,0,0,1,143.834,5.7a92.934,92.934,0,0,1,25.121-18.389c3.02-1.539,5.935-2.813,9.9-4.414m25.3-46.163s-4.892,10.446-19.941,16.6c-13.377,5.255-19.721,7.568-26.862,11.207a118.461,118.461,0,0,0-31.976,23.485A107.026,107.026,0,0,0,111.691,5.695a113.463,113.463,0,0,0-10.618,22.339A141.584,141.584,0,0,0,93.7,66.04c-.227,3.59-.346,7.285-.358,11.107,69.693-3.174,97.832-48.332,109.215-84.074,0,0,12.091-40.964,1.6-56.333" transform="translate(136.99 63.261)"/>
    <path fill="#BE0349" d="M-185.175,218.316c-26.341-28.01-17.044-63.8-17.044-63.8s3.1-38.124,46.485-61.466c33.633-18.094,71.44-4.867,86.745,2a182.75,182.75,0,0,1,8.31-35.161c1.257-3.59,2.675-7.091,4.163-10.551C-68.784,42.146-99.371,27.277-138.1,30.7c-100.271,8.865-149.4,98.7-124.752,177.37,23.6,75.317,122.411,98.479,122.411,98.479l31.13-39.646c-15.282-6.956-54.895-26.285-75.869-48.588" transform="translate(269.133 29.19)"/>
    <path fill="#BE0349" d="M174.18,68.9a161.771,161.771,0,0,1-33,47.1c41.757,56.848.065,102.419.065,102.419L38.98,332.017c-7.843-14.768-29.322-30.15-44.049-39.464L-41.051,336.08s55.232,26.573,76.073,70.341L166.848,275.637S212.18,227.7,217.391,175.074c4.217-42.593-10.013-80.739-43.211-106.17" transform="translate(185.983 15.079)"/>
</svg>